<?xml version="1.0" encoding="utf-8"?>
<!-- Generated by IcoMoon.io -->
<!DOCTYPE svg PUBLIC "-//W3C//DTD SVG 1.1//EN" "http://www.w3.org/Graphics/SVG/1.1/DTD/svg11.dtd">
<svg version="1.1" xmlns="http://www.w3.org/2000/svg" xmlns:xlink="http://www.w3.org/1999/xlink" width="64" height="64" viewBox="0 0 64 64">
	<path d="M56.204 0.779c0 0-48.841-0.015-48.826 0-4.494 0-7.102 2.323-7.102 7.070v48.937c0 4.441 2.49 6.842 6.981 6.842h49.144c4.49 0 6.653-2.285 6.653-6.842v-48.937c0-4.631-2.219-7.070-6.85-7.070zM28.999 58.152c-4.494 0-8.719-1.75-11.896-4.927-3.177-3.177-4.928-7.402-4.928-11.896 0-6.063 3.284-11.681 8.57-14.663l1.454 2.578c-4.357 2.458-7.064 7.089-7.064 12.085 0 3.703 1.443 7.184 4.060 9.803 2.619 2.619 6.1 4.061 9.804 4.061 6.439 0 11.983-4.367 13.482-10.619l2.878 0.69c-1.819 7.589-8.547 12.888-16.361 12.888zM51.803 51.951l-1.23 0.492-0.625-1.050-8.092-15.009h-17.83l-0.144-1.439-2.592-23.953 0.034-0.033c-0.126-0.339-0.218-0.712-0.262-1.088-0.309-2.582 1.534-4.933 4.116-5.242 2.583-0.309 4.925 1.53 5.235 4.112 0.309 2.583-1.533 4.925-4.116 5.234-0.591 0.070-1.167 0.023-1.712-0.115l1.297 11.254 13.484 0.005v2.961l-13.162 0.111 0.48 5.232h16.947l0.419 0.665 7.885 14.682 3.087-1.264 1.099 2.733-4.317 1.713z" />
</svg>
