<?xml version="1.0" encoding="utf-8"?>
<!-- Generated by IcoMoon.io -->
<!DOCTYPE svg PUBLIC "-//W3C//DTD SVG 1.1//EN" "http://www.w3.org/Graphics/SVG/1.1/DTD/svg11.dtd">
<svg version="1.1" xmlns="http://www.w3.org/2000/svg" xmlns:xlink="http://www.w3.org/1999/xlink" width="64" height="64" viewBox="0 0 64 64">
	<path d="M55.629 0.365l-47.002-0c-4.606 0-8.352 3.748-8.352 8.354v46.995c0 4.607 3.747 8.356 8.352 8.356h47.002c4.605 0 8.353-3.748 8.353-8.356v-46.995c0-4.606-3.747-8.354-8.353-8.354zM45.511 17.253c3.201 0 5.796 2.595 5.796 5.796s-2.595 5.796-5.796 5.796c-3.201 0-5.796-2.595-5.796-5.796s2.595-5.796 5.796-5.796zM9.204 11.605v10.512h-1.572c-0.298 0-0.54-0.239-0.54-0.539v-13.564c0-0.459 0.342-0.833 0.812-0.833h6.951c0.469 0 0.812 0.372 0.812 0.831v0.797h10.746c0.3 0 0.54 0.241 0.54 0.537v3.050h-9.173v-0.798c0-0.459-0.343-0.831-0.814-0.831h-6.949c-0.47 0-0.814 0.379-0.814 0.839zM11.857 29.020c-0.299 0-0.54-0.239-0.54-0.538v-13.564c0-0.459 0.342-0.833 0.812-0.833h6.949c0.47 0 0.814 0.373 0.814 0.831v0.797h10.746c0.299 0 0.54 0.241 0.54 0.537v12.233c0 0.298-0.241 0.537-0.54 0.537h-18.781zM37.561 57.391v-17.61h-0.79l-3.596 5.366c-0.586 0.798-1.775 1.186-2.722 1.186h-8.444c-1.402 0-2.541-1.136-2.541-2.538 0-1.399 1.139-2.503 2.541-2.503h7.68l5.328-8.056c1.277-1.948 3.772-2.89 5.782-2.89l10.438-0.006c3.212 0 5.814 2.598 5.814 5.809l0.012 21.243h-19.503z" />
	<path d="M22.848 17.561h-3.201v3.199h-3.2v3.201h3.2v3.2h3.201v-3.2h3.2v-3.201h-3.2z" />
</svg>
