<?xml version="1.0" encoding="utf-8"?>
<!-- Generated by IcoMoon.io -->
<!DOCTYPE svg PUBLIC "-//W3C//DTD SVG 1.1//EN" "http://www.w3.org/Graphics/SVG/1.1/DTD/svg11.dtd">
<svg version="1.1" xmlns="http://www.w3.org/2000/svg" xmlns:xlink="http://www.w3.org/1999/xlink" width="65" height="64" viewBox="0 0 65 64">
	<path d="M55.976 0.13h-47.003c-4.604 0-8.35 3.747-8.35 8.354v46.996c0 4.607 3.747 8.355 8.35 8.355h47.003c4.605 0 8.353-3.748 8.353-8.355v-46.996c0-4.607-3.748-8.354-8.353-8.354zM39.312 13.774c2.525 0 4.573 2.046 4.573 4.573 0 2.523-2.048 4.571-4.573 4.571-2.525 0-4.571-2.048-4.571-4.571 0-2.526 2.046-4.573 4.571-4.573zM28.264 32.864l2.323-6.623c0.449-1.248 1.317-2.223 3.759-2.223h10.73c2.444 0 3.309 0.976 3.76 2.223l2.323 6.623c0.173 0.428 0.264 1.389-0.682 2.034l-5.464 3.603c-0.797 0.529-1.872 0.308-2.399-0.489-0.527-0.798-0.306-1.875 0.493-2.4l4.338-2.862-1.223-3.37h-1.69l0.992 2.734-3.292 2.172c-0.74 0.487-1.246 1.234-1.424 2.105-0.178 0.869-0.007 1.755 0.48 2.495 0.195 0.294 0.436 0.546 0.703 0.76h-4.559c0.268-0.214 0.508-0.467 0.703-0.76 0.487-0.74 0.659-1.626 0.48-2.495-0.178-0.871-0.684-1.618-1.424-2.105l-3.292-2.172 0.99-2.734h-1.69l-1.222 3.37 4.338 2.862c0.798 0.526 1.018 1.602 0.493 2.4-0.527 0.797-1.602 1.018-2.399 0.489l-5.464-3.603c-0.946-0.644-0.856-1.606-0.681-2.034zM25.219 11.235c0.264 2.658-0.41 5.414-2.1 7.745-1.427 1.968-3.373 3.335-5.512 4.061 0.097-1.569-0.104-3.128-0.579-4.605 0.352-0.974 0.845-1.916 1.482-2.796 1.69-2.331 4.102-3.828 6.709-4.405zM16.4 6.808c1.51 1.7 2.506 3.859 2.77 6.241-0.61 0.562-1.171 1.18-1.666 1.862-0.432 0.596-0.803 1.231-1.125 1.891-0.32-0.657-0.695-1.291-1.128-1.89-0.484-0.666-1.030-1.274-1.623-1.825 0.257-2.395 1.256-4.569 2.771-6.278zM7.537 11.235c2.606 0.577 5.019 2.074 6.708 4.405 1.69 2.329 2.364 5.087 2.101 7.743-2.608-0.575-5.020-2.072-6.71-4.403-1.69-2.331-2.364-5.088-2.1-7.745zM9.253 45.166l-0.254-5.628h0.902l-0.261 5.578c0.043-0.004 0.085-0.014 0.128-0.014l6.194-0.949-0.27-5.991h0.895l-0.271 5.938 5.165-0.792-0.28-5.959h0.918l-0.282 5.904 3.795-0.581-0.254-5.435h0.911l-0.251 5.373 5.435-0.833h13.061c2.205 0 3.978 1.78 3.978 3.972 0 2.181-1.758 3.945-3.947 3.962l-14.162-0.002c-0.941-0.012-1.702-0.778-1.702-1.723 0-0.954 0.772-1.727 1.725-1.727h7.315l5.957-1.244-0.322-1.54-5.798 1.211h-7.153c-1.82 0-3.299 1.479-3.299 3.299 0 0.633 0.188 1.22 0.499 1.723l-17.858-0.002c-1.268 0-2.297-1.030-2.297-2.304 0.001-1.090 0.763-2.003 1.782-2.238zM55.767 55.24c0 0-45.173 0-46.56 0-1.828 0-1.735-1.78-1.735-1.78v-1.255c0-0.517 0.42-0.937 0.938-0.937h37.187c2.966 0 4.248-2.773 5.803-2.773h4.541c1.414 0 1.571 1.213 1.571 1.213v3.795c0 0 0.093 1.737-1.745 1.737zM53.418 47.049c-2.318 0-4.199-1.885-4.199-4.201 0-2.323 1.882-4.199 4.199-4.199 2.317 0 4.205 1.877 4.205 4.199 0 2.316-1.887 4.201-4.205 4.201z" />
</svg>
