<?xml version="1.0" encoding="utf-8"?>
<!-- Generated by IcoMoon.io -->
<!DOCTYPE svg PUBLIC "-//W3C//DTD SVG 1.1//EN" "http://www.w3.org/Graphics/SVG/1.1/DTD/svg11.dtd">
<svg version="1.1" xmlns="http://www.w3.org/2000/svg" xmlns:xlink="http://www.w3.org/1999/xlink" width="64" height="64" viewBox="0 0 64 64">
	<path d="M45.205 42.159c-1.252 0-2.267 1.013-2.267 2.265s1.015 2.268 2.267 2.268c1.251-0 2.265-1.015 2.265-2.268s-1.014-2.265-2.265-2.265z" />
	<path d="M18.085 42.118c-1.252 0-2.267 1.014-2.267 2.265 0 1.254 1.016 2.267 2.267 2.267s2.266-1.014 2.266-2.267c0-1.252-1.015-2.265-2.266-2.265z" />
	<path d="M31.836 24.245h-5.284v5.284h-5.285v5.285h5.285v5.283h5.284v-5.283h5.284v-5.285h-5.284z" />
	<path d="M55.145 0.534h-46.573c-4.564 0-8.276 3.713-8.276 8.278v46.567c0 4.565 3.713 8.279 8.276 8.279h46.573c4.564 0 8.277-3.713 8.277-8.279v-46.567c0-4.564-3.713-8.278-8.277-8.278zM33.504 17.736h1.326v-0.642c0-1.142 0.998-2.066 2.233-2.066 1.233 0 2.23 0.924 2.23 2.066v0.642h1.298v1.015h-7.088v-1.015zM18.075 49.116c-2.616 0-4.737-2.12-4.737-4.737 0-2.615 2.122-4.739 4.737-4.739 2.617 0 4.739 2.124 4.739 4.739-0 2.618-2.122 4.737-4.739 4.737zM45.206 49.164c-2.617 0-4.739-2.122-4.739-4.739s2.122-4.738 4.739-4.738c2.615 0 4.735 2.121 4.735 4.738s-2.119 4.739-4.735 4.739zM54.83 44.433h-3.472c0-3.399-2.754-6.165-6.153-6.165-3.4 0-6.156 2.766-6.156 6.165h-14.837c0-3.399-2.755-6.165-6.154-6.165-3.401 0-6.156 2.766-6.156 6.165h-2.877c-1.013 0-1.802-0.767-1.802-1.757v-20.729c0-1.129 0.891-2.037 1.984-2.037h37.249c1.416 0 2.451 0.703 2.962 1.934l3.74 9.105c1.415 0.276 2.263 0.887 2.902 4.38l1.011 6.304c0.364 2.052-0.795 2.8-2.241 2.8z" />
	<path d="M40.743 22.024v8.611h9.957l-3.492-8.611z" />
</svg>
