<?xml version="1.0" encoding="utf-8"?>
<!-- Generated by IcoMoon.io -->
<!DOCTYPE svg PUBLIC "-//W3C//DTD SVG 1.1//EN" "http://www.w3.org/Graphics/SVG/1.1/DTD/svg11.dtd">
<svg version="1.1" xmlns="http://www.w3.org/2000/svg" xmlns:xlink="http://www.w3.org/1999/xlink" width="64" height="64" viewBox="0 0 64 64">
	<path d="M19.329 46.044c-0.573-0.156-0.573-0.14-1.195-0.277v-2.521c0.846 0.083 1.462 0.755 1.463 1.495l2.24 0.001c0-1.693-1.41-3.387-3.703-3.682v-1.339h-2.145v1.339c-2.162 0.286-3.566 1.899-3.566 3.336 0 1.451 0.936 2.589 2.288 2.962 0.529 0.145 0.805 0.223 1.298 0.318v2.688c-0.988-0.203-1.481-1.053-1.481-1.693h-2.286c0 1.423 1.459 3.601 3.747 3.863v1.434h2.145v-1.434c2.371-0.31 3.809-1.544 3.809-3.343-0-1.171-0.481-2.567-2.614-3.147zM15.989 45.374c-0.959-0.171-1.224-0.581-1.224-1.023 0-0.516 0.65-1.014 1.224-1.081v2.104zM18.16 50.355v-2.272c0.947 0.136 1.547 0.543 1.547 1.128 0 0.517-0.558 1.107-1.547 1.144z" />
	<path d="M56.073 0.549h-47.615c-4.353 0-7.898 3.545-7.898 7.902v47.609c0 4.358 3.545 7.902 7.898 7.902h47.615c4.355 0 7.9-3.544 7.9-7.902v-47.609c0-4.356-3.545-7.902-7.9-7.902zM46.748 8.7c2.114 0 3.829 1.715 3.829 3.83 0 2.114-1.716 3.829-3.829 3.829-2.115 0-3.828-1.715-3.828-3.829 0-2.114 1.712-3.83 3.828-3.83zM18.463 8.871c2.083 0 3.769 1.687 3.769 3.769 0 2.081-1.686 3.771-3.769 3.771-2.081 0-3.769-1.689-3.769-3.771 0-2.082 1.688-3.769 3.769-3.769zM10.594 21.579c0.568-1.875 2.423-3.863 4.855-3.863h6.028c2.431 0 4.286 1.988 4.853 3.864l2.126 7.752h-3.314l-1.76-6.392h-1.486l1.717 6.392h-10.3l1.717-6.392h-1.486l-1.761 6.392h-3.314l2.124-7.752zM17.070 55.812c-4.955 0-8.973-4.017-8.973-8.972s4.017-8.972 8.973-8.972c4.955 0 8.972 4.017 8.972 8.972s-4.017 8.972-8.972 8.972zM56.435 35.818l-4.438 0.002v17.745c0 1.241-1.017 2.246-2.258 2.246-1.238 0-2.245-1.006-2.245-2.246 0-1.695 0-15.581 0-17.743h-1.431c0 2.164 0 16.048 0 17.743 0 1.241-1.008 2.246-2.248 2.246-1.24 0-2.256-1.006-2.256-2.246 0-0.958 0-9.647 0-17.742l-33.461 0.010v-4.3h33.462c0-5.599 0-10.063 0-10.063l-7.148 8.464c-1.504 1.737-4.181-0.433-2.673-2.29l7.407-8.899c0.479-0.477 0.909-1.067 2.677-1.067h9.018c1.881 0 3.407 1.524 3.407 3.404l-0.006 10.452h2.194v4.285z" />
</svg>
