<?xml version="1.0" encoding="utf-8"?>
<!-- Generated by IcoMoon.io -->
<!DOCTYPE svg PUBLIC "-//W3C//DTD SVG 1.1//EN" "http://www.w3.org/Graphics/SVG/1.1/DTD/svg11.dtd">
<svg version="1.1" xmlns="http://www.w3.org/2000/svg" xmlns:xlink="http://www.w3.org/1999/xlink" width="64" height="64" viewBox="0 0 64 64">
	<path d="M55.641 0.512l-46.784 0c-4.584 0-8.313 3.731-8.313 8.317v46.78c0 4.586 3.729 8.315 8.313 8.315h46.784c4.586 0 8.315-3.729 8.315-8.315v-46.78c0-4.586-3.729-8.317-8.315-8.317zM32.385 55.832c0 0-11.956-7.724-18.556-19.451 1.032 0 2.217 0 2.591 0 0.451 0.674 2.682 4.032 2.682 4.032 0.216 0.322 0.606 0.475 0.983 0.384 0.376-0.089 0.656-0.407 0.699-0.789 0 0 0.99-8.806 1.625-14.441 1.066 4.471 2.379 9.983 2.379 9.983 0.097 0.399 0.442 0.686 0.849 0.705 0.408 0.024 0.779-0.225 0.915-0.611 0 0 0.75-2.125 1.414-4 0.707 1.921 1.523 4.135 1.523 4.135 0.131 0.36 0.477 0.602 0.862 0.602 0 0 2.926 0 3.693 0 0.451 0.674 2.682 4.032 2.682 4.032 0.215 0.322 0.606 0.475 0.983 0.384 0.377-0.089 0.657-0.407 0.7-0.789 0 0 0.991-8.808 1.626-14.448 1.068 4.478 2.384 9.989 2.384 9.989 0.093 0.399 0.439 0.686 0.846 0.705 0.407 0.024 0.779-0.225 0.915-0.61 0 0 0.75-2.125 1.41-4 0.707 1.921 1.523 4.135 1.523 4.135 0.132 0.36 0.476 0.602 0.863 0.602v0h3.285c-6.705 11.725-18.877 19.45-18.877 19.45zM52.433 34.172l-0.192 0.368c-1.106 0-2.988 0-3.623 0-0.363-0.994-2.182-5.928-2.182-5.928-0.131-0.365-0.481-0.606-0.869-0.604-0.387 0.002-0.731 0.25-0.86 0.614 0 0-0.618 1.744-1.227 3.466-0.926-3.878-2.88-12.074-2.88-12.074-0.103-0.434-0.504-0.731-0.949-0.704-0.449 0.026-0.811 0.373-0.861 0.814 0 0-1.5 13.348-1.932 17.166-0.776-1.167-1.555-2.342-1.555-2.342-0.171-0.255-0.458-0.41-0.767-0.41 0 0-2.625 0-3.544 0-0.364-0.994-2.18-5.928-2.18-5.928-0.132-0.365-0.482-0.606-0.868-0.604-0.387 0.002-0.733 0.25-0.863 0.614 0 0-0.616 1.744-1.224 3.466-0.925-3.874-2.881-12.074-2.881-12.074-0.103-0.434-0.502-0.731-0.948-0.704-0.449 0.026-0.81 0.373-0.862 0.814 0 0-1.5 13.347-1.931 17.166-0.777-1.166-1.555-2.341-1.555-2.341-0.171-0.255-0.458-0.41-0.768-0.41h-4.084l-0.174-0.323c-1.044-2.36-3.082-8.106-3.082-12.761 0-5.39 3.824-11.453 10.951-11.453 10.55 0 11.859 9.841 11.859 9.841s1.357-9.889 11.914-9.889c7.388 0 11.179 6.293 11.179 11.502 0.001 4.082-1.284 9.689-3.044 12.716z" />
</svg>
