<?xml version="1.0" encoding="utf-8"?>
<!-- Generated by IcoMoon.io -->
<!DOCTYPE svg PUBLIC "-//W3C//DTD SVG 1.1//EN" "http://www.w3.org/Graphics/SVG/1.1/DTD/svg11.dtd">
<svg version="1.1" xmlns="http://www.w3.org/2000/svg" xmlns:xlink="http://www.w3.org/1999/xlink" width="64" height="64" viewBox="0 0 64 64">
	<path d="M30.825 14.252h1.959v-1.629h1.63v-1.958h-1.63v-1.635h-1.959v1.635h-1.63v1.958h1.63z" />
	<path d="M55.132 0.673h-46.574c-4.564 0-8.276 3.713-8.276 8.278v46.567c0 4.565 3.713 8.279 8.276 8.279h46.574c4.564 0 8.276-3.713 8.276-8.279v-46.567c0-4.564-3.712-8.278-8.276-8.278zM31.818 7.938c2.794 0 7.37 1.175 9.922 3.963l-3.435 6.592c-1.497-1.939-3.846-3.187-6.486-3.187-2.61 0-4.934 1.22-6.432 3.122l-3.502-6.38c2.949-2.948 7.019-4.11 9.934-4.11zM38.113 23.242c0 3.478-2.824 6.297-6.305 6.297-3.478 0-6.297-2.82-6.297-6.297 0-3.478 2.819-6.297 6.297-6.297 3.481 0 6.305 2.82 6.305 6.297zM19.545 36.789c0.572-1.999 3.099-5.544 7.47-5.565l9.824 0.009c4.273 0.105 6.749 3.581 7.314 5.557l3.615 11.962h-5.297l-2.307-7.895h-1.614l2.293 7.895h-18l2.303-7.895h-1.613l-2.302 7.895h-5.372l3.685-11.963zM55.372 55.752h-47.119v-4.483h47.118v4.483z" />
</svg>
