<?xml version="1.0" encoding="utf-8"?>
<!-- Generated by IcoMoon.io -->
<!DOCTYPE svg PUBLIC "-//W3C//DTD SVG 1.1//EN" "http://www.w3.org/Graphics/SVG/1.1/DTD/svg11.dtd">
<svg version="1.1" xmlns="http://www.w3.org/2000/svg" xmlns:xlink="http://www.w3.org/1999/xlink" width="64" height="64" viewBox="0 0 64 64">
	<path d="M55.369 0.37h-46.785c-4.584 0-8.314 3.73-8.314 8.314v46.783c0 4.586 3.729 8.315 8.314 8.315h46.785c4.584 0 8.315-3.729 8.315-8.315v-46.783c0-4.585-3.731-8.314-8.315-8.314zM8.271 30.269l14.052-2.151h13.003c2.195 0 3.96 1.772 3.96 3.954 0 2.171-1.749 3.927-3.931 3.944l-14.098-0.002c-0.937-0.012-1.694-0.774-1.694-1.715 0-0.95 0.769-1.718 1.717-1.718h7.283l5.931-1.239-0.322-1.533-5.771 1.206h-7.122c-1.81 0-3.284 1.473-3.284 3.283 0 0.63 0.187 1.215 0.497 1.715l-10.221-0.002v-5.743zM8.302 41.67v-3.067h38.96v3.067h-38.96zM40.289 32.135c0-2.145 1.737-3.881 3.881-3.881 2.14 0 3.884 1.736 3.884 3.881 0 2.138-1.744 3.882-3.884 3.882-2.143 0-3.881-1.744-3.881-3.882zM55.651 53.986c0 0.958-0.776 1.732-1.734 1.732 0 0-23.393-0.002-24.105-0.002-0.956 0-1.648-0.934-1.559-1.887 0-0.641 0-6.624 0-6.918 0-1.867 9-2.071 9-0.028v4.695c8.613-2.296 14.902-10.193 14.933-19.502-0.003-9.315-6.323-17.175-14.933-19.484v5.28h-9.007c0 0 0-6.819 0-7.454-0.086-0.955 0.618-1.796 1.571-1.884 14.023-1.275 25.835 9.786 25.835 23.549 0 0.034-0.002 21.903-0.002 21.903z" />
</svg>
