<?xml version="1.0" encoding="utf-8"?>
<!-- Generated by IcoMoon.io -->
<!DOCTYPE svg PUBLIC "-//W3C//DTD SVG 1.1//EN" "http://www.w3.org/Graphics/SVG/1.1/DTD/svg11.dtd">
<svg version="1.1" xmlns="http://www.w3.org/2000/svg" xmlns:xlink="http://www.w3.org/1999/xlink" width="64" height="64" viewBox="0 0 64 64">
	<path d="M32.196 20.641c0 0-2.046 1.080-2.046 4.375v3.286h4.093v-3.286c0-3.295-2.047-4.375-2.047-4.375z" />
	<path d="M55.175 0.7h-46.784c-4.584 0-8.314 3.731-8.314 8.316v46.781c0 4.586 3.729 8.316 8.314 8.316h46.784c4.584 0 8.315-3.73 8.315-8.316v-46.781c0-4.585-3.731-8.316-8.315-8.316zM50.295 56.591h-14.598v-7.762c0-3.98-3.602-5.284-3.602-5.284s-3.602 1.303-3.602 5.284v7.762h-14.369v-16.096l12.113-5.85v-15.529l5.966-12.468 5.973 12.468v15.529l12.119 5.85v16.096z" />
</svg>
