<?xml version="1.0" encoding="utf-8"?>
<!-- Generated by IcoMoon.io -->
<!DOCTYPE svg PUBLIC "-//W3C//DTD SVG 1.1//EN" "http://www.w3.org/Graphics/SVG/1.1/DTD/svg11.dtd">
<svg version="1.1" xmlns="http://www.w3.org/2000/svg" xmlns:xlink="http://www.w3.org/1999/xlink" width="64" height="64" viewBox="0 0 64 64">
	<path d="M53.71 26.872c0-3.16-2.561-5.477-5.721-5.477-0.144 0-0.287 0.007-0.429 0.015v10.981c0.142 0.010 0.285 0.017 0.429 0.017 3.16 0 5.721-2.377 5.721-5.537z" />
	<path d="M56.347 0.73h-48.358c-4.065 0-7.359 3.295-7.359 7.359v48.358c0 4.064 3.295 7.359 7.359 7.359h48.358c4.064 0 7.359-3.294 7.359-7.359v-48.358c0-4.064-3.294-7.359-7.359-7.359zM17.893 17.837l29.668 0.007c0.142-0.006 0.285-0.010 0.429-0.010 5.214 0 9.44 3.823 9.439 9.037 0 5.212-4.226 9.136-9.44 9.136-0.143 0-0.286-0.005-0.428-0.011v1.392c0 2.924-2.372 5.296-5.296 5.296h-19.076c-2.925 0-5.296-2.372-5.296-5.296v-19.552zM58.472 44.010c0 2.924-2.372 5.296-5.296 5.296h-41.205c-2.925 0-5.296-2.372-5.296-5.296v-0.184h51.796v0.184z" />
</svg>
