<?xml version="1.0" encoding="utf-8"?>
<!-- Generated by IcoMoon.io -->
<!DOCTYPE svg PUBLIC "-//W3C//DTD SVG 1.1//EN" "http://www.w3.org/Graphics/SVG/1.1/DTD/svg11.dtd">
<svg version="1.1" xmlns="http://www.w3.org/2000/svg" xmlns:xlink="http://www.w3.org/1999/xlink" width="64" height="64" viewBox="0 0 64 64">
	<path d="M55.455 0.339l-46.785-0c-4.585 0-8.314 3.73-8.314 8.316v46.781c0 4.587 3.73 8.316 8.314 8.316h46.785c4.583 0 8.314-3.729 8.314-8.316v-46.781c0-4.586-3.731-8.316-8.314-8.316zM44.667 32.394c-0.397 2.565 0.411 5.439-0.352 11.216-0.791 5.835-2.162 10.955-4.83 10.955-3.155 0-2.732-5.823-2.364-10.561 0.108-1.426 0.188-2.658 0.112-3.502-0.32-3.53-1.839-6.016-5.114-6.016-3.256 0-4.796 2.486-5.115 6.016-0.076 0.845 0.004 2.077 0.112 3.502 0.368 4.738 0.789 10.561-2.364 10.561-2.668 0-4.039-5.119-4.83-10.955-0.764-5.777 0.045-8.651-0.353-11.216-0.76-4.86-5.001-9.217-3.692-15.414 0.727-3.437 2.62-5.054 4.493-5.734 4.321-1.572 7.11 1.457 11.747 1.457 4.638 0 7.427-3.029 11.746-1.457 1.875 0.679 3.767 2.296 4.493 5.734 1.311 6.197-2.932 10.554-3.691 15.414z" />
</svg>
