<?xml version="1.0" encoding="utf-8"?>
<!-- Generated by IcoMoon.io -->
<!DOCTYPE svg PUBLIC "-//W3C//DTD SVG 1.1//EN" "http://www.w3.org/Graphics/SVG/1.1/DTD/svg11.dtd">
<svg version="1.1" xmlns="http://www.w3.org/2000/svg" xmlns:xlink="http://www.w3.org/1999/xlink" width="64" height="64" viewBox="0 0 64 64">
	<path d="M35.158 42.341c-0.788-0.067-1.481 0.516-1.552 1.303-0.063 0.789 0.517 1.481 1.312 1.55 0.781 0.068 1.473-0.516 1.541-1.307 0.070-0.784-0.515-1.479-1.301-1.546z" />
	<path d="M32.879 39.17c-0.526 0-0.954 0.431-0.954 0.957 0 0.528 0.428 0.956 0.954 0.956 0.528 0 0.957-0.428 0.957-0.956 0-0.525-0.43-0.957-0.957-0.957z" />
	<path d="M33.449 37.021c0.524 0 0.957-0.426 0.957-0.956 0-0.522-0.433-0.952-0.957-0.952-0.528 0-0.956 0.43-0.956 0.952 0 0.529 0.428 0.956 0.956 0.956z" />
	<path d="M23.63 26.027c-1.161 0-2.101 0.938-2.101 2.099 0 1.156 0.94 2.098 2.101 2.098 1.159 0 2.096-0.942 2.096-2.098 0-1.161-0.937-2.099-2.096-2.099z" />
	<path d="M36.295 36.61c-0.8 0-1.435 0.639-1.435 1.428s0.635 1.43 1.435 1.43c0.784 0 1.423-0.64 1.423-1.43s-0.639-1.428-1.423-1.428z" />
	<path d="M55.045 0.562h-46.573c-4.564 0-8.276 3.713-8.276 8.276v46.569c0 4.566 3.713 8.278 8.276 8.278h46.573c4.563 0 8.274-3.712 8.274-8.278v-46.569c0-4.564-3.711-8.276-8.274-8.276zM22.489 56.878h-16.878c0 0 1.471-16.208 1.615-16.377 0.147-0.163 3.096 0.183 3.096 2.517 0 1.68 0.009 3.541 0.015 4.576l10.704-10.684c0.565-0.565 1.479-0.563 2.041 0 0.563 0.565 0.563 1.478 0 2.041l-8.321 8.314 0.845 0.846 10.604-10.593c0.563-0.563 1.478-0.563 2.041 0.002 0.564 0.563 0.562 1.478-0.002 2.041l-10.601 10.593 0.845 0.844 9.114-9.105c0.565-0.563 1.48-0.563 2.041 0.002 0.563 0.563 0.563 1.477 0 2.040l-9.115 9.103 0.846 0.846 6.798-6.793c0.563-0.564 1.478-0.564 2.041 0 0.563 0.565 0.563 1.478-0 2.041l-6.801 6.795 0.012 0.010-0.94 0.941zM49.438 40.923v15.954h-20.076v-5.211l1.696-1.694c1.027-1.028 1.027-2.694 0-3.721-0.378-0.378-0.844-0.616-1.334-0.715l0.764-0.762c1.027-1.026 1.027-2.691 0.002-3.719-0.382-0.382-0.852-0.622-1.346-0.719 0.968-1.031 0.956-2.649-0.051-3.656-1.028-1.029-2.692-1.029-3.72-0.002l-0.732 0.731c-0.1-0.492-0.337-0.959-0.716-1.339-1.027-1.028-2.692-1.028-3.721-0.002l-2.391 2.389h-1.339c-0.838 0-1.516-0.679-1.516-1.512 0-0.214 0.041-0.411 0.118-0.592l3.921-9.882c0 0 0.411-4.093 0.778-5.665 1.639-7.050 9.502-13.453 18.037-13.453 10.395 0 18.813 8.413 18.813 18.797 0 5.993-2.817 11.336-7.187 14.773z" />
	<path d="M38.326 40.556c-0.53 0-0.96 0.43-0.96 0.952 0 0.53 0.43 0.956 0.96 0.956 0.528 0 0.954-0.426 0.954-0.956 0-0.522-0.426-0.952-0.954-0.952z" />
	<path d="M40.462 25.77h-0.334v1.704l0.332 0.002c2.126 0.003 3.863 1.736 3.87 3.863-0.007 2.127-1.744 3.86-3.872 3.863l-0.331 0.004v1.706h0.334c3.075 0 5.576-2.5 5.576-5.573s-2.5-5.569-5.576-5.569z" />
</svg>
