<?xml version="1.0" encoding="utf-8"?>
<!-- Generated by IcoMoon.io -->
<!DOCTYPE svg PUBLIC "-//W3C//DTD SVG 1.1//EN" "http://www.w3.org/Graphics/SVG/1.1/DTD/svg11.dtd">
<svg version="1.1" xmlns="http://www.w3.org/2000/svg" xmlns:xlink="http://www.w3.org/1999/xlink" width="64" height="64" viewBox="0 0 64 64">
	<path d="M48.513 41.784h6.279v1.577h-6.279v-1.577z" />
	<path d="M50.869 34.105v2.322h-2.355v1.579h2.355v2.296h1.577v-2.296h2.346v-1.579h-2.346v-2.322z" />
	<path d="M55.463 0.549h-46.786c-4.585 0-8.314 3.731-8.314 8.316v46.781c0 4.586 3.73 8.316 8.314 8.316h46.786c4.584 0 8.316-3.73 8.316-8.316v-46.781c0-4.585-3.731-8.316-8.316-8.316zM35.443 43.251c-0.188 1.485-1.55 2.54-3.034 2.355l-5.981-0.755c-1.483-0.188-2.54-1.55-2.353-3.034 0.188-1.483 1.55-2.539 3.034-2.352l5.98 0.753c1.371 0.174 2.376 1.345 2.376 2.69 0 0.114-0.005 0.227-0.021 0.343zM40.301 36.556c-0.105 0.831-0.528 1.572-1.191 2.086-0.664 0.513-1.486 0.741-2.318 0.635l-10.413-1.313c-1.719-0.217-2.938-1.791-2.721-3.508 0.105-0.831 0.528-1.572 1.19-2.085 0.664-0.516 1.486-0.741 2.317-0.637l10.415 1.314c1.717 0.217 2.938 1.789 2.721 3.507zM43.974 29.284c-0.218 1.717-1.791 2.94-3.509 2.72l-7.598-0.956c0.735-0.582 1.267-1.373 1.531-2.29 0.334-1.161 0.196-2.384-0.392-3.444-0.095-0.17-0.202-0.336-0.315-0.49l7.562 0.953c1.717 0.217 2.938 1.791 2.721 3.508zM51.656 46.499c-3.85 0-5.727-3.141-5.727-5.936 0-4.11 5.727-13.196 5.727-13.196s5.725 9.086 5.725 13.196c0 2.795-1.874 5.936-5.725 5.936zM55.104 24.64h-12.671c-0.319-0.119-0.654-0.205-1.007-0.248l-10.367-1.309-11.459-3.303c-0.366-0.107-0.747 0.105-0.853 0.47-0.105 0.366 0.102 0.765 0.466 0.872l11.689 3.37c0.807 0.23 1.473 0.764 1.88 1.498 0.406 0.733 0.502 1.579 0.27 2.383-0.23 0.803-0.762 1.471-1.498 1.878-0.728 0.403-1.571 0.499-2.369 0.274-0.005-0.002-0.010-0.002-0.017-0.002l-4.917-1.426c-2.551-0.8-4.45 0.003-6.466 0.853-1.552 0.655-3.155 1.33-5.333 1.478-0.267 0.017-0.547 0.034-0.875 0.033-0.384-0.003-0.695 0.303-0.697 0.681-0.005 0.382 0.315 0.715 0.697 0.715 2.923-0.002 4.958-0.862 6.754-1.62 1.923-0.812 3.442-1.454 5.517-0.802 0.005 0.002 0.434 0.126 1.034 0.298-1.378 0.635-2.406 1.94-2.61 3.549-0.234 1.847 0.685 3.58 2.192 4.473-0.944 0.643-1.622 1.669-1.775 2.888-0.284 2.248 1.316 4.438 3.564 4.656 0-0-11.655-0-15.238-0-3.583 0-3.86-3.86-3.86-3.86v-24.199h47.465c0 0 3.577-0.165 3.577 3.128-0 3.462-3.093 3.272-3.093 3.272z" />
</svg>
