<?xml version="1.0" encoding="utf-8"?>
<!-- Generated by IcoMoon.io -->
<!DOCTYPE svg PUBLIC "-//W3C//DTD SVG 1.1//EN" "http://www.w3.org/Graphics/SVG/1.1/DTD/svg11.dtd">
<svg version="1.1" xmlns="http://www.w3.org/2000/svg" xmlns:xlink="http://www.w3.org/1999/xlink" width="63" height="64" viewBox="0 0 63 64">
	<path d="M55.826 1.316h-47.91c-4.027 0-7.291 3.264-7.291 7.291v47.91c0 4.027 3.264 7.291 7.291 7.291h47.91c4.027 0 7.291-3.264 7.291-7.291v-47.91c0-4.027-3.264-7.291-7.291-7.291zM47.457 21.323c0.4 0 0.724 0.324 0.724 0.724s-0.324 0.724-0.724 0.724-0.724-0.324-0.724-0.724 0.324-0.724 0.724-0.724zM46.321 19.657c0.33 0 0.597 0.267 0.597 0.597s-0.267 0.597-0.597 0.597-0.597-0.267-0.597-0.597 0.267-0.597 0.597-0.597zM46.491 22.852c0 0.4-0.324 0.724-0.724 0.724-0.401 0-0.725-0.324-0.725-0.724s0.324-0.724 0.725-0.724c0.4 0 0.724 0.324 0.724 0.724zM44.682 18.68c0.33 0 0.597 0.267 0.597 0.597s-0.267 0.597-0.597 0.597-0.598-0.267-0.598-0.597c0.001-0.33 0.268-0.597 0.598-0.597zM44.612 20.561c0.33 0 0.597 0.268 0.597 0.597s-0.267 0.597-0.597 0.597-0.597-0.267-0.597-0.597 0.268-0.597 0.597-0.597zM42.943 18.518c0.3 0 0.543 0.243 0.543 0.544 0 0.299-0.243 0.542-0.543 0.542s-0.543-0.243-0.543-0.542c0-0.301 0.243-0.544 0.543-0.544zM42.922 20.077c0.3 0 0.543 0.244 0.543 0.543s-0.243 0.543-0.543 0.543c-0.3 0-0.543-0.244-0.543-0.543s0.244-0.543 0.543-0.543zM37.79 10.13c2.399 0 4.343 1.945 4.343 4.343 0 2.399-1.944 4.343-4.343 4.343-2.398 0-4.343-1.944-4.343-4.343 0-2.399 1.945-4.343 4.343-4.343zM39.052 23.245c-0.3 0-0.543-0.244-0.543-0.543s0.243-0.543 0.543-0.543c0.3 0 0.543 0.244 0.543 0.543s-0.244 0.543-0.543 0.543zM39.596 24.481c0 0.3-0.244 0.543-0.543 0.543-0.3 0-0.543-0.244-0.543-0.543s0.243-0.543 0.543-0.543c0.3 0 0.543 0.244 0.543 0.543zM39.243 20.901c0-0.3 0.243-0.543 0.543-0.543s0.543 0.243 0.543 0.543-0.243 0.543-0.543 0.543-0.543-0.243-0.543-0.543zM40.751 23.375c-0.3 0-0.543-0.243-0.543-0.543 0-0.3 0.244-0.543 0.543-0.543 0.3 0 0.543 0.244 0.543 0.543 0 0.3-0.244 0.543-0.543 0.543zM41.294 24.481c0 0.3-0.243 0.543-0.543 0.543-0.3 0-0.543-0.244-0.543-0.543s0.244-0.543 0.543-0.543c0.3 0 0.543 0.244 0.543 0.543zM40.68 19.615c0-0.3 0.243-0.543 0.543-0.543 0.3 0 0.543 0.244 0.543 0.543s-0.244 0.543-0.543 0.543c-0.3 0-0.543-0.244-0.543-0.543zM40.892 21.303c0-0.3 0.243-0.543 0.543-0.543s0.543 0.243 0.543 0.543-0.243 0.543-0.543 0.543-0.543-0.243-0.543-0.543zM36.898 36.743c-0.603 0-1.149-0.246-1.542-0.645l-0.013 0.014-6.172-5.973v-5.045l-7.239 4.724-0.058-0.089c-0.016 0.009-0.033 0.018-0.049 0.028l0.107 0.062v22.673c0.021 0.153 0.034 0.309 0.034 0.468 0 1.835-1.489 3.323-3.324 3.323s-3.323-1.488-3.323-3.323c0-0.12 0.007-0.241 0.019-0.358v-26.641l0.015 0.009c0.002-1.464 0.728-2.757 1.839-3.542l-0.004-0.007 0.15-0.092c0.053-0.035 0.107-0.067 0.161-0.1l8.769-5.421c0.39-0.354 0.845-0.638 1.345-0.832l0.111-0.068 0.005 0.024c0.456-0.162 0.947-0.251 1.458-0.251 2.399 0 4.343 1.944 4.343 4.343 0 0.116-0.005 0.23-0.015 0.344v7.685l4.781 4.859c0.474 0.398 0.776 0.996 0.775 1.662-0.001 1.199-0.973 2.172-2.172 2.172zM51.609 38.104h-6.595l-9.008-9.169c0 0-1.447-2.815 1.369-3.137h14.235v12.306z" />
</svg>
