<?xml version="1.0" encoding="utf-8"?>
<!-- Generated by IcoMoon.io -->
<!DOCTYPE svg PUBLIC "-//W3C//DTD SVG 1.1//EN" "http://www.w3.org/Graphics/SVG/1.1/DTD/svg11.dtd">
<svg version="1.1" xmlns="http://www.w3.org/2000/svg" xmlns:xlink="http://www.w3.org/1999/xlink" width="64" height="64" viewBox="0 0 64 64">
	<path d="M30.373 48.931c0.503-0.227 0.724-0.822 0.495-1.325-0.359-0.789-0.81-1.517-1.337-2.16-0.351-0.428-0.983-0.492-1.409-0.139-0.428 0.351-0.49 0.981-0.139 1.409 0.418 0.508 0.776 1.087 1.063 1.719 0.168 0.368 0.532 0.586 0.913 0.586 0.139 0 0.279-0.029 0.414-0.091z" />
	<path d="M28.060 37.982c0.594 0.378 1.158 0.81 1.678 1.285 0.001 0.002 0.005 0.004 0.007 0.005 0.19 0.185 0.442 0.286 0.699 0.286 0.18 0 0.36-0.048 0.524-0.149 0.471-0.289 0.618-0.906 0.329-1.377-0.005-0.008-0.514-0.853-0.764-1.832-0.135-0.536-0.679-0.859-1.217-0.723-0.347 0.089-0.591 0.358-0.691 0.676-0.339-0.007-0.675 0.14-0.87 0.447-0.296 0.466-0.159 1.086 0.307 1.382z" />
	<path d="M25.57 36.773c0.11 0.039 0.221 0.058 0.331 0.058 0.414 0 0.801-0.259 0.945-0.672 0.183-0.522-0.091-1.092-0.613-1.276-0.774-0.272-1.577-0.478-2.383-0.61-0.552-0.089-1.060 0.283-1.151 0.827-0.089 0.546 0.281 1.060 0.827 1.149 0.692 0.116 1.38 0.289 2.044 0.522z" />
	<path d="M26.94 43.294c-0.747-0.406-1.56-0.702-2.414-0.881-0.541-0.113-1.072 0.235-1.185 0.778-0.111 0.541 0.236 1.070 0.777 1.183 0.663 0.139 1.291 0.366 1.866 0.68 0.153 0.082 0.315 0.122 0.478 0.122 0.355 0 0.699-0.19 0.881-0.524 0.264-0.484 0.084-1.092-0.403-1.357z" />
	<path d="M18.723 36.465c0.637-0.185 1.323-0.301 2.041-0.349 0.551-0.036 0.969-0.514 0.932-1.066-0.036-0.551-0.499-0.971-1.066-0.933-0.86 0.058-1.686 0.198-2.462 0.423-0.531 0.152-0.837 0.707-0.685 1.239 0.127 0.44 0.527 0.726 0.963 0.726 0.093 0 0.186-0.014 0.278-0.039z" />
	<path d="M19.788 30.225c1.159 0 2.096-0.942 2.096-2.098 0-1.161-0.937-2.099-2.096-2.099-1.161 0-2.101 0.938-2.101 2.099-0 1.156 0.94 2.098 2.101 2.098z" />
	<path d="M29.361 34.41c0.154 0.086 0.322 0.125 0.486 0.125 0.351 0 0.692-0.185 0.875-0.514 0.267-0.48 0.689-0.877 1.219-1.151 0.492-0.253 0.683-0.858 0.43-1.35-0.251-0.492-0.856-0.683-1.347-0.43-0.884 0.454-1.593 1.132-2.052 1.956-0.269 0.484-0.094 1.094 0.389 1.363z" />
	<path d="M21.332 42.213h-2.289c-0.553 0-1 0.447-1 1 0 0.553 0.447 1.002 1 1.002h2.289c0.553 0 1-0.449 1-1.002 0-0.553-0.447-1-1-1z" />
	<path d="M33.933 43.679c0.502-0.231 0.723-0.825 0.492-1.327-0.341-0.744-0.752-1.464-1.217-2.138-0.315-0.455-0.938-0.568-1.394-0.253-0.454 0.313-0.568 0.937-0.253 1.392 0.401 0.58 0.752 1.197 1.044 1.836 0.169 0.366 0.532 0.582 0.911 0.582 0.141-0 0.283-0.029 0.418-0.091z" />
	<path d="M31.911 52.618c0-0.632-0.043-1.259-0.132-1.865-0.079-0.548-0.574-0.927-1.134-0.85-0.546 0.079-0.926 0.588-0.848 1.136 0.074 0.512 0.111 1.042 0.111 1.578v0.56c0 0.553 0.449 1.002 1.002 1.002 0.553 0 1-0.448 1-1.002h-0v-0.56z" />
	<path d="M37.685 31.41c0-0.553-0.447-1.002-1-1.002h-2.289c-0.553 0-1 0.449-1 1.002s0.447 1 1 1h2.289c0.553 0 1-0.447 1-1z" />
	<path d="M55.217 0.562h-46.572c-4.562 0-8.274 3.713-8.274 8.276v46.569c0 4.566 3.712 8.278 8.274 8.278h46.572c4.563 0 8.277-3.712 8.277-8.278v-46.569c0-4.564-3.714-8.276-8.277-8.276zM45.566 40.977v15.955h-9.853v-0.749c0-0.553-0.447-1.002-1-1.002-0.553 0-1.002 0.448-1.002 1.002v0.749h-1.8v-0.75c0-0.553-0.447-1.002-1-1.002-0.553 0-1.002 0.448-1.002 1.002v0.75h-4.401v-5.757h-2.94c-3.943 0-7.156-3.077-7.39-6.959h0.861c0.553 0 1.002-0.449 1.002-1.002 0-0.553-0.449-1-1.002-1h-0.883v-3.676c0.371-0.346 0.753-0.669 1.147-0.937 0.457-0.31 0.575-0.933 0.265-1.391-0.312-0.457-0.933-0.577-1.39-0.265-0.661 0.45-1.3 0.992-1.899 1.611-0.253 0.264-0.319 0.625-0.229 0.954h-0.416c-0.838 0-1.516-0.68-1.516-1.514 0-0.211 0.041-0.411 0.12-0.589l3.918-9.884c0 0 0.409-4.098 0.774-5.664 1.637-7.054 9.497-13.456 18.024-13.456 10.383 0 18.793 8.415 18.794 18.795 0.001 5.995-2.809 11.341-7.181 14.78z" />
	<path d="M36.594 25.829h-0.332v1.704l0.331 0.002c2.128 0.003 3.865 1.737 3.872 3.863-0.006 2.127-1.743 3.86-3.872 3.863l-0.331 0.004v1.706h0.332c3.075 0 5.577-2.5 5.577-5.572 0-3.072-2.502-5.569-5.577-5.569z" />
	<path d="M34.706 48.89c0.011 0 0.019 0 0.029-0.002 0.553-0.016 0.988-0.474 0.972-1.028-0.022-0.819-0.116-1.64-0.279-2.442-0.111-0.543-0.642-0.894-1.181-0.783-0.541 0.111-0.892 0.639-0.781 1.181 0.14 0.688 0.221 1.394 0.24 2.098 0.016 0.543 0.461 0.974 1 0.974z" />
	<path d="M34.712 49.89c-0.553 0-1.002 0.449-1.002 1.002v2.288c0 0.553 0.448 1.002 1.002 1.002 0.553 0 1-0.449 1-1.002v-2.288c0-0.553-0.447-1.002-1-1.002z" />
</svg>
