<?xml version="1.0" encoding="utf-8"?>
<!-- Generated by IcoMoon.io -->
<!DOCTYPE svg PUBLIC "-//W3C//DTD SVG 1.1//EN" "http://www.w3.org/Graphics/SVG/1.1/DTD/svg11.dtd">
<svg version="1.1" xmlns="http://www.w3.org/2000/svg" xmlns:xlink="http://www.w3.org/1999/xlink" width="63" height="64" viewBox="0 0 63 64">
	<path d="M21.112 53.957h23.278v-23.143h-23.278v23.143zM39.908 33.872c0.822 0 1.488 0.667 1.488 1.488 0 0.822-0.666 1.488-1.488 1.488-0.821 0-1.488-0.666-1.488-1.488 0-0.821 0.666-1.488 1.488-1.488zM36.489 38.405c0-0.65 0.521-1.095 1.090-1.095-0.006 0 4.615 0 4.615 0 0.621 0 1.092 0.495 1.092 1.095v5.664h0.001c0 0.47-0.378 0.795-0.793 0.795 0 0-0.184 0-0.482 0v7.454c0 1.358-1.983 1.358-1.983 0v-7.454c-0.101 0-0.201 0-0.302 0v7.454c0 1.349-1.983 1.349-1.983 0v-7.454c-0.283 0-0.46 0-0.462 0-0.409 0-0.794-0.331-0.794-0.795v-5.664zM32.783 33.872c0.822 0 1.488 0.667 1.488 1.488 0 0.822-0.666 1.488-1.488 1.488s-1.488-0.666-1.488-1.488c0-0.821 0.666-1.488 1.488-1.488zM29.364 38.405c0-0.65 0.522-1.095 1.090-1.095-0.005 0 4.615 0 4.615 0 0.622 0 1.091 0.495 1.091 1.095v5.664h0.001c0 0.47-0.377 0.795-0.792 0.795 0 0-0.184 0-0.482 0v7.454c0 1.358-1.983 1.358-1.983 0v-7.454c-0.101 0-0.2 0-0.301 0v7.454c0 1.349-1.984 1.349-1.984 0v-7.454c-0.283 0-0.46 0-0.462 0-0.409 0-0.794-0.331-0.794-0.795v-5.664zM25.657 33.872c0.821 0 1.488 0.667 1.488 1.488 0 0.822-0.667 1.488-1.488 1.488-0.822 0-1.488-0.666-1.488-1.488 0-0.821 0.666-1.488 1.488-1.488zM22.238 38.405c0-0.65 0.521-1.095 1.090-1.095-0.006 0 4.615 0 4.615 0 0.622 0 1.092 0.495 1.092 1.095v5.664h0.001c0 0.47-0.378 0.795-0.793 0.795 0 0-0.184 0-0.482 0v7.454c0 1.358-1.983 1.358-1.983 0v-7.454c-0.101 0-0.201 0-0.302 0v7.454c0 1.349-1.983 1.349-1.983 0v-7.454c-0.284 0-0.461 0-0.462 0-0.409 0-0.794-0.331-0.794-0.795v-5.664z" />
	<path d="M56.090 1.104c-0.001 0-48.341-0.015-48.326 0-4.455 0-6.96 2.303-6.96 7.009v48.517c0 4.402 2.251 6.707 6.704 6.707h48.722c4.452 0 6.706-2.19 6.706-6.707v-48.517c0.001-4.592-2.254-7.009-6.846-7.009zM36.27 14.477l2.369 2.962-0.068-9.342c-0.026-3.078 4.428-3.114 4.454 0l-0.068 9.342 2.396-2.935c1.653-1.816 4.562 0.716 2.767 2.766l-5.81 6.916c-0.917 0.918-2.111 0.913-3.022 0l-5.783-6.943c-1.795-2.052 1.14-4.609 2.766-2.767zM17.337 13.425l5.783-6.944c0.911-0.912 2.105-0.918 3.023 0l5.81 6.916c1.795 2.050-1.113 4.582-2.767 2.766l-2.395-2.935 0.067 9.343c-0.026 3.113-4.479 3.078-4.454 0l0.067-9.343-2.368 2.962c-1.626 1.842-4.562-0.716-2.766-2.766zM44.579 58.418h-23.618c-2.349-0.001-4.294-1.869-4.294-4.27v-23.537l0.006-0.001c0-2.347 1.804-4.297 4.288-4.297h23.59c2.403 0 4.286 1.923 4.286 4.298v23.537l0.001 0.006c0.004 2.503-1.912 4.263-4.26 4.263z" />
</svg>
