<?xml version="1.0" encoding="utf-8"?>
<!-- Generated by IcoMoon.io -->
<!DOCTYPE svg PUBLIC "-//W3C//DTD SVG 1.1//EN" "http://www.w3.org/Graphics/SVG/1.1/DTD/svg11.dtd">
<svg version="1.1" xmlns="http://www.w3.org/2000/svg" xmlns:xlink="http://www.w3.org/1999/xlink" width="64" height="64" viewBox="0 0 64 64">
	<path d="M55.563 0.242h-46.784c-4.585 0-8.315 3.73-8.315 8.315v46.781c0 4.586 3.73 8.316 8.315 8.316h46.784c4.583 0 8.314-3.73 8.314-8.316v-46.781c0-4.586-3.731-8.315-8.314-8.315zM45.087 16.917c3.186 0 5.768 2.582 5.768 5.77 0 3.185-2.582 5.768-5.768 5.768s-5.77-2.583-5.77-5.768c0-3.187 2.585-5.77 5.77-5.77zM48.264 29.937c-0.045 5.781-1.045 6.542-3.143 6.542-2.096 0-3.097-0.761-3.141-6.542h6.284zM30.91 15.151c0.703 0 1.277 0.572 1.277 1.277s-0.573 1.278-1.276 1.278c-0.707 0-1.278-0.573-1.278-1.278s0.571-1.277 1.278-1.277zM21.779 7.022c1.005 0 1.82 0.817 1.82 1.821 0 1.005-0.815 1.82-1.82 1.82-1.006 0-1.822-0.815-1.821-1.82 0-1.005 0.815-1.821 1.821-1.821zM11.896 7.009c1.020 0 1.849 0.821 1.849 1.833 0 1.013-0.829 1.833-1.849 1.833s-1.848-0.821-1.848-1.833c0-1.013 0.827-1.833 1.848-1.833zM17.515 18.757c-0.093 0.328-0.456 0.594-0.812 0.564-0.356 0.030-0.657-0.236-0.753-0.564l-1.414-4.942h-0.691l2.050 8.556h-1.798v6.077c0 0.501-0.406 0.907-0.908 0.907-0.502 0-0.907-0.406-0.907-0.907v-6.077h-0.765v6.077c0 0.501-0.409 0.907-0.912 0.907-0.501 0-0.905-0.406-0.905-0.907v-6.077h-1.828l2.069-8.556h-0.691l-1.413 4.942c-0.11 0.378-0.563 0.666-0.977 0.548-0.413-0.119-0.645-0.562-0.506-1.034l1.455-5.070c0.582-2.026 2.277-1.962 2.277-1.962h3.616c0 0 1.696-0.064 2.278 1.962l0.755 2.631 0.755-2.631c0.581-2.026 2.278-1.962 2.278-1.962h4.673c0 0 1.696-0.064 2.278 1.962l1.441 5.024 1.121 0.109c0.014-0.001 3.48-0.004 3.48-0.004 0.901 0 1.698 0.734 1.698 1.638v3.229c0 0.309-0.242 0.56-0.552 0.56-0.308 0-0.557-0.25-0.557-0.56 0-0.361 0-2.84 0-2.84h-0.58c0 0 0 7.761 0 8.376 0 0.413-0.339 0.749-0.753 0.749s-0.75-0.336-0.75-0.749c0-0.615 0-4.481 0-4.481h-0.587c0 0 0 3.866 0 4.481 0 0.413-0.336 0.749-0.748 0.749-0.415 0-0.755-0.336-0.755-0.749h-0.001v-8.965l-1.834-0.513c-0.318-0.096-0.616-0.376-0.698-0.662l-1.314-4.778h-0.691c0 0 0 13.583 0 14.458 0 0.589-0.481 1.067-1.070 1.067-0.59 0-1.069-0.478-1.069-1.067 0-0.875 0-8.226 0-8.226h-0.789c0 0 0 7.351 0 8.226 0 0.589-0.48 1.067-1.069 1.067-0.592 0-1.073-0.478-1.073-1.067 0-0.875 0-14.458 0-14.458h-0.637l-1.416 4.942zM56.586 54.342c0 1.397-0.126 2.529-0.126 2.529h-19.285v-17.53h-0.786l-3.58 5.341c-0.583 0.795-1.767 1.18-2.709 1.18h-8.404c-1.397 0-2.529-1.131-2.529-2.526 0-1.392 1.132-2.492 2.529-2.492h7.644l5.302-8.019c1.273-1.939 3.628-2.864 5.756-2.864 0 5.639 1.405 8.026 3.946 8.026v9.376c-0.714 0.307-1.216 1.017-1.216 1.846 0 1.108 0.886 1.995 1.994 1.995 1.109 0 1.997-0.912 1.997-2.023 0-0.827-0.502-1.537-1.217-1.843v-9.379c2.539-0.001 3.947-2.384 3.947-8.023 4.223 0 6.737 2.516 6.737 6.369v18.037z" />
</svg>
