<?xml version="1.0" encoding="utf-8"?>
<!-- Generated by IcoMoon.io -->
<!DOCTYPE svg PUBLIC "-//W3C//DTD SVG 1.1//EN" "http://www.w3.org/Graphics/SVG/1.1/DTD/svg11.dtd">
<svg version="1.1" xmlns="http://www.w3.org/2000/svg" xmlns:xlink="http://www.w3.org/1999/xlink" width="63" height="64" viewBox="0 0 63 64">
	<path d="M29.231 8.926c0 0.994-0.806 1.8-1.8 1.8s-1.8-0.806-1.8-1.8c0-0.994 0.806-1.8 1.8-1.8 0.994 0 1.8 0.806 1.8 1.8z" />
	<path d="M56.263 0.792c-0.001 0-48.862-0.016-48.846 0-4.503 0-7.036 2.329-7.036 7.086v49.040c0 4.45 2.278 6.78 6.776 6.78h49.248c4.5 0 6.779-2.215 6.779-6.78v-49.040c0-4.641-2.279-7.086-6.92-7.086zM54.93 17.446l-15.539-2.349v-1.358h-6.35l-0.009 2.195c1.743 0.327 6.319 3.122 6.319 8.552v31.554c0 0.783-0.365 2.087-1.931 2.087h-13.898c-1.567 0-1.931-1.304-1.931-2.087v-31.554c0-5.43 4.744-8.226 6.466-8.552l-0.007-1.839c-4.177 1.044-5.583 3.223-6.837 4.998s-3.692 0.287-2.804-1.488c0.639-1.862 3.876-4.92 6.29-5.811-0.61-0.366-1.299-1.44-1.299-2.641 0-2.529 1.944-4.204 4.090-4.204 2.204 0 3.755 1.831 3.755 3.258h1.827v2.296h6.319v-1.462l15.539-2.259v10.665z" />
</svg>
