<?xml version="1.0" encoding="utf-8"?>
<!-- Generated by IcoMoon.io -->
<!DOCTYPE svg PUBLIC "-//W3C//DTD SVG 1.1//EN" "http://www.w3.org/Graphics/SVG/1.1/DTD/svg11.dtd">
<svg version="1.1" xmlns="http://www.w3.org/2000/svg" xmlns:xlink="http://www.w3.org/1999/xlink" width="64" height="64" viewBox="0 0 64 64">
	<path d="M55.649 0.359h-46.786c-4.582 0-8.312 3.731-8.312 8.316v46.782c0 4.586 3.729 8.315 8.312 8.315h46.786c4.584 0 8.315-3.729 8.315-8.315v-46.782c0-4.585-3.731-8.316-8.315-8.316zM47.141 19.662c1.020 0 1.847 0.827 1.847 1.848s-0.827 1.848-1.847 1.848-1.847-0.827-1.847-1.848 0.827-1.848 1.847-1.848zM34.058 7.907c1.453 0 2.634 1.182 2.634 2.634 0 1.454-1.181 2.634-2.634 2.634s-2.632-1.18-2.632-2.634c0-1.452 1.178-2.634 2.632-2.634zM19.77 7.889c1.476 0 2.673 1.187 2.673 2.651 0 1.466-1.197 2.652-2.673 2.652-1.478 0-2.672-1.187-2.672-2.652 0-1.464 1.194-2.651 2.672-2.651zM11.754 24.174l2.105-7.332c0.84-2.928 3.294-2.838 3.294-2.838h5.228c0 0 2.451-0.090 3.294 2.838l1.029 3.583 1.029-3.583c0.841-2.928 3.294-2.838 3.294-2.838h6.757c0 0 2.455-0.090 3.296 2.838l2.086 7.277c0 0 1.644 0.15 1.667 0.15 0.631 0 4.335 0 4.985 0 1.307 0 2.456 1.062 2.456 2.369 0 0.666 0 4.225 0 4.671 0 0.447-0.351 0.812-0.798 0.812-0.444 0-0.809-0.365-0.809-0.812 0-0.52 0-4.106 0-4.106h-0.834c0 0 0 11.224 0 12.112 0 0.599-0.492 1.086-1.091 1.086s-1.084-0.487-1.084-1.086c0-0.888 0-6.478 0-6.478h-0.85c0 0 0 5.591 0 6.478 0 0.599-0.487 1.086-1.085 1.086-0.597 0-1.087-0.487-1.087-1.086 0-0.805 0-11.037 0-12.967-1.061-0.303-2.501-0.71-2.812-0.781-0.014-0.002-0.022-0.012-0.036-0.016-0.353-0.088-0.648-0.32-0.752-0.673l-1.963-7.146-0.999-0.002c0 0 0 19.645 0 20.907 0 0.853-0.7 1.545-1.555 1.545-0.851 0-1.543-0.692-1.543-1.545 0-1.263 0-11.895 0-11.895h-1.142c0 0 0 10.633 0 11.895 0 0.853-0.691 1.545-1.545 1.545-0.853 0-1.552-0.692-1.552-1.545 0-1.263 0-20.907 0-20.907l-0.92 0.002-2.016 7.039c-0.033 0.136-0.090 0.258-0.172 0.365-0.198 0.296-0.542 0.461-0.927 0.449-0.387 0.012-0.733-0.157-0.932-0.454-0.071-0.098-0.126-0.207-0.158-0.327l-2.025-7.072-0.996-0.002 2.962 12.374h-2.599v8.788c0 0.725-0.59 1.313-1.316 1.313-0.724 0-1.309-0.589-1.309-1.313v-8.789h-1.108v8.789c0 0.725-0.592 1.313-1.316 1.313-0.726 0-1.309-0.589-1.309-1.313v-8.788h-2.644l2.991-12.374-0.999 0.002-2.049 7.146c-0.155 0.547-0.767 0.85-1.366 0.678-0.6-0.174-0.976-0.695-0.776-1.382zM12.451 55.149c-1.283 0-2.506-0.322-3.69-0.845v-1.66c1.202 0.614 2.422 0.999 3.69 0.999 2.752 0 5.281-1.653 7.871-3.661 0.306 0.242 0.609 0.477 0.917 0.722 0.099 0.081 0.201 0.16 0.301 0.239-2.823 2.205-5.768 4.204-9.089 4.204zM32.238 55.149c-3.829 0-7.156-2.654-10.372-5.22-1.466-1.17-2.895-2.307-4.335-3.191v4.020c-0.504 0.33-1.006 0.633-1.507 0.893v-5.62c0-0.038 0.015-0.070 0.021-0.105-0.936-0.44-1.884-0.738-2.856-0.843v7.507c-0.251 0.033-0.502 0.057-0.755 0.057-0.251 0-0.502-0.024-0.752-0.057h0.001v-7.511c-0.996 0.1-1.964 0.396-2.921 0.821v-1.626c1.18-0.459 2.398-0.743 3.674-0.743 3.827 0 7.152 2.654 10.369 5.221 1.473 1.175 2.907 2.315 4.354 3.201v-4.039c0.502-0.33 1.005-0.635 1.507-0.891v5.629c0 0.040-0.017 0.074-0.022 0.112 0.936 0.439 1.885 0.735 2.86 0.838v-7.504c0.239-0.029 0.479-0.055 0.719-0.055 0.263 0 0.525 0.024 0.788 0.060v7.485c0.97-0.107 1.918-0.41 2.852-0.85-0.004-0.029-0.018-0.055-0.018-0.086v-5.592c0.501 0.26 1.003 0.563 1.507 0.895v3.981c0.92-0.566 1.835-1.228 2.759-1.942 0.301 0.239 0.6 0.471 0.907 0.714 0.104 0.083 0.208 0.165 0.312 0.248-2.826 2.202-5.773 4.196-9.091 4.196zM55.772 54.342c-1.19 0.499-2.422 0.807-3.712 0.807-3.33 0-6.282-2.009-9.111-4.221-0.421-0.33-0.841-0.666-1.259-0.997-0.528-0.423-1.053-0.841-1.575-1.244-2.586-2.002-5.109-3.651-7.856-3.651-2.757 0-5.288 1.657-7.882 3.668-0.315-0.248-0.626-0.491-0.944-0.743-0.092-0.072-0.182-0.144-0.274-0.217 2.609-2.040 5.326-3.884 8.346-4.158 0.25-0.023 0.499-0.055 0.753-0.055 0.253 0 0.504 0.014 0.753 0.036 3.012 0.27 5.718 2.124 8.321 4.158 0.434 0.339 0.867 0.685 1.297 1.027 0.518 0.413 1.029 0.821 1.537 1.215 2.601 2.016 5.135 3.678 7.894 3.678 1.276 0 2.505-0.365 3.712-0.946v1.644zM55.772 45.969c-0.963-0.461-1.939-0.779-2.942-0.888v7.495c-0.268 0.036-0.538 0.062-0.809 0.062-0.234 0-0.466-0.026-0.698-0.053v-7.493c-0.965 0.104-1.908 0.401-2.837 0.834v5.744c-0.502-0.256-1.005-0.561-1.507-0.889v-4.045c-0.937 0.572-1.872 1.252-2.812 1.98-0.318-0.252-0.636-0.497-0.959-0.755-0.086-0.069-0.174-0.138-0.26-0.206 2.837-2.214 5.795-4.223 9.127-4.224 1.283 0 2.51 0.304 3.695 0.798v1.641z" />
</svg>
