<?xml version="1.0" encoding="utf-8"?>
<!-- Generated by IcoMoon.io -->
<!DOCTYPE svg PUBLIC "-//W3C//DTD SVG 1.1//EN" "http://www.w3.org/Graphics/SVG/1.1/DTD/svg11.dtd">
<svg version="1.1" xmlns="http://www.w3.org/2000/svg" xmlns:xlink="http://www.w3.org/1999/xlink" width="64" height="64" viewBox="0 0 64 64">
	<path d="M38.353 37.209h4.036v15.706h-4.036v-15.706z" />
	<path d="M38.353 28.367h4.036v5.095h-4.036v-5.095z" />
	<path d="M23.64 46.143l-5.854 2.626h8.177v-13.133h-2.323z" />
	<path d="M24.883 51.704h-9.342c-1.459 0-1.464 2.058-0.006 2.058h9.434c-0.686-0.439-0.728-1.577-0.085-2.058z" />
	<path d="M56.663 0.796c0 0-48.67-0.015-48.654 0-4.485 0-7.007 2.319-7.007 7.058v48.847c0 4.433 2.267 6.753 6.75 6.753h49.053c4.481 0 6.753-2.206 6.753-6.753v-48.847c-0.001-4.623-2.272-7.058-6.895-7.058zM21.17 3.716c1.209 0 2.19 2.106 2.19 4.703 0 2.596-2.19 4.702-2.19 4.702s-2.188-2.106-2.187-4.702c-0.001-2.597 0.978-4.703 2.187-4.703zM21.17 16.851c0 0 2.19 2.107 2.19 4.703 0 2.597-0.98 4.703-2.19 4.703-1.209 0-2.187-2.105-2.187-4.703-0.002-2.597 2.187-4.703 2.187-4.703zM18.108 21.259c-1.837 1.836-4.018 2.632-4.874 1.777s-0.059-3.036 1.777-4.873 4.873-1.778 4.873-1.778 0.060 3.037-1.776 4.874zM13.119 6.984c0.856-0.855 3.037-0.060 4.875 1.775 1.836 1.838 1.776 4.874 1.776 4.874s-3.036 0.059-4.872-1.777c-1.838-1.837-2.632-4.019-1.778-4.873zM9.899 15.148c0-1.21 2.106-2.188 4.703-2.188s4.703 2.188 4.703 2.188-2.105 2.188-4.703 2.188-4.703-0.98-4.703-2.188zM29.003 56.825h-13.387c-2.232 0-4.161-1.969-4.161-4.377v-15.082c0-1.532 0.581-2.657 2.187-3.438 0 0 9.996-4.448 10.008-4.465l-0.011 3.137h5.321v18.703c-1.598 0.21-1.598 2.552 0.043 2.76v2.761zM29.058 22.922c-0.855 0.855-3.036 0.059-4.873-1.778-1.837-1.836-1.778-4.873-1.778-4.873s3.037-0.059 4.873 1.777c1.836 1.837 2.633 4.018 1.777 4.874zM27.737 17.336c-2.597 0-4.702-2.188-4.702-2.188s0.99-1.028 2.449-1.675l-0.153-0.233c-1.449 0.532-2.808 0.508-2.808 0.508s-0.059-3.036 1.777-4.872c1.838-1.837 4.018-2.633 4.873-1.778 0.788 0.788 0.173 2.701-1.364 4.433 7.8-2.513 23.507-2.303 24.263-2.292l-0.026 1.604c-0.182-0.003-16.062-0.215-23.573 2.146 2.247 0.164 3.967 1.066 3.967 2.159 0 1.208-2.105 2.188-4.703 2.188zM53.843 24.609v32.065h-19.071v-32.116h4.036l-4.012-3.19 2.219-2.985 3.609 2.624-1.594-5.205 3.48-1.081 1.796 5.514h0.008l1.805-5.514 3.48 1.081-1.604 5.205 3.48-2.573 2.218 2.985-3.884 3.139h4.035v0.051z" />
	<path d="M46.221 37.209h4.036v15.706h-4.036v-15.706z" />
	<path d="M46.221 28.367h4.036v5.095h-4.036v-5.095z" />
</svg>
