<?xml version="1.0" encoding="utf-8"?>
<!-- Generated by IcoMoon.io -->
<!DOCTYPE svg PUBLIC "-//W3C//DTD SVG 1.1//EN" "http://www.w3.org/Graphics/SVG/1.1/DTD/svg11.dtd">
<svg version="1.1" xmlns="http://www.w3.org/2000/svg" xmlns:xlink="http://www.w3.org/1999/xlink" width="65" height="64" viewBox="0 0 65 64">
	<path d="M55.896 0.257h-47.001c-4.605 0-8.352 3.748-8.352 8.354v46.995c0 4.607 3.747 8.356 8.352 8.356h47.001c4.605 0 8.352-3.748 8.352-8.356v-46.995c0-4.606-3.746-8.354-8.352-8.354zM49.634 13.752c1.823 0 3.288 1.474 3.288 3.292 0 1.817-1.465 3.289-3.288 3.289-1.813 0-3.289-1.472-3.289-3.289 0-1.818 1.476-3.292 3.289-3.292zM51.399 21.616c-0.004 0.371-0.036 2.419-0.479 3.038-0.489 0.677-1.287 0.574-1.287 0.574s-0.9 0.031-1.256-0.522c-0.352-0.541-0.523-1.615-0.511-3.090h3.534zM10.328 7.144h22.23v15.371l-1.298-1.297v-12.774h-19.64v24.865h19.64v-7.817l1.298 1.298v7.821h-22.23v-27.467zM26.028 30.427c0.159 0.544-0.154 1.113-0.697 1.272-0.097 0.028-0.194 0.042-0.289 0.042-0.444 0-0.854-0.29-0.983-0.738l-2.386-8.188h-0.845l-2.387 8.188c-0.131 0.448-0.541 0.738-0.986 0.738-0.095 0-0.19-0.014-0.287-0.042-0.544-0.159-0.855-0.727-0.696-1.272l2.416-8.292v-5.318l-0.612 0.002-0.004-0.002-1.372 4.673c-0.097 0.326-0.394 0.537-0.717 0.537-0.069 0-0.14-0.011-0.211-0.030-0.396-0.116-0.624-0.531-0.506-0.928 0 0 1.436-4.883 1.438-4.887 0.572-1.9 2.178-1.843 2.178-1.843h4.337c0 0 1.604-0.057 2.176 1.843 0.002 0.004 1.44 4.887 1.44 4.887 0.116 0.397-0.111 0.811-0.508 0.928-0.069 0.020-0.14 0.030-0.211 0.030-0.322 0-0.621-0.211-0.716-0.537l-1.374-4.673-0.004 0.002-0.612-0.002v5.321l2.417 8.288zM19.499 12.035c0-0.966 0.785-1.752 1.751-1.752 0.967 0 1.752 0.786 1.752 1.752 0 0.967-0.785 1.752-1.752 1.752-0.966 0-1.751-0.786-1.751-1.752zM35.89 42.090c0 1.826-1.492 3.306-3.332 3.306-1.842 0-3.334-1.481-3.334-3.306 0-1.825 1.492-3.307 3.334-3.307 1.841 0 3.332 1.481 3.332 3.307zM18.775 42.119c0 1.819-1.474 3.295-3.296 3.295-1.819 0-3.295-1.476-3.295-3.295 0-1.821 1.476-3.296 3.295-3.296 1.821 0 3.296 1.475 3.296 3.296zM22.051 57.367h-13.21c0-0.799 0-5.269 0-6.458 0-2.329 1.913-4.221 4.245-4.221 1.158 0 3.425 0 4.552 0 2.331 0 4.414 1.893 4.414 4.221 0 1.189 0 5.659 0 6.458zM24.529 57.367l2.624-7.147c1.051-3.651 4.111-3.539 4.111-3.539h2.597c0 0 3.058-0.112 4.111 3.539l2.624 7.147h-16.066zM40.936 30.372h-4.563c-0.767 0-1.387-0.617-1.387-1.386 0-0.255 0.188-0.658 0.309-0.857l-5.57-5.57c-0.221-0.221-0.219-0.579 0.002-0.798 0.219-0.221 0.577-0.221 0.797 0l5.853 5.854 4.144 0.002 2.732-4.122c0.746-1.122 2.039-1.878 3.512-1.878h0.209c-0.002 0.416 0.031 2.958 0.891 3.855 0.645 0.646 1.327 0.59 1.327 0.59v3.381c-0.415 0.173-0.705 0.582-0.705 1.058 0 0.634 0.511 1.147 1.146 1.147 0.636 0 1.149-0.513 1.149-1.147 0-0.477-0.294-0.886-0.71-1.058v-3.366c0 0 0.782 0.070 1.446-0.736 0.636-0.79 0.781-2.593 0.776-3.679 2.138 0 3.946 2.082 3.946 4.397v8.847h-11.49v-8.627c-0.306 0.459-1.343 1.994-2.324 3.451-0.29 0.436-0.971 0.645-1.489 0.645zM52.944 41.837c0 1.818-1.476 3.298-3.295 3.298-1.822 0-3.296-1.479-3.296-3.298 0-1.822 1.474-3.297 3.296-3.297 1.819 0 3.295 1.475 3.295 3.297zM56.283 57.367h-13.206c0-0.799 0-5.269 0-6.458 0-2.329 2.079-4.221 4.414-4.221 1.126 0 3.39 0 4.546 0 2.333 0 4.246 1.892 4.246 4.221 0 1.189 0 5.659 0 6.458z" />
</svg>
