<?xml version="1.0" encoding="utf-8"?>
<!-- Generated by IcoMoon.io -->
<!DOCTYPE svg PUBLIC "-//W3C//DTD SVG 1.1//EN" "http://www.w3.org/Graphics/SVG/1.1/DTD/svg11.dtd">
<svg version="1.1" xmlns="http://www.w3.org/2000/svg" xmlns:xlink="http://www.w3.org/1999/xlink" width="63" height="64" viewBox="0 0 63 64">
	<path d="M56.089 1.104c0 0-48.341-0.015-48.326 0-4.455 0-6.96 2.303-6.96 7.009v48.517c0 4.402 2.252 6.707 6.704 6.707h48.722c4.452 0 6.706-2.19 6.706-6.707v-48.517c0.001-4.592-2.254-7.009-6.846-7.009zM45.070 11.438l2.355 2.354-1.522 1.522-2.355-2.354 1.522-1.522zM17.126 47.515l-5.799-5.799 1.448-1.449 5.799 5.799-1.448 1.449zM20.050 44.599l-5.8-5.8 1.449-1.449 5.8 5.8-1.448 1.449zM17.275 35.743l1.448-1.449 5.799 5.8-1.448 1.449-5.799-5.8zM27.323 25.666l1.449-1.448 5.799 5.8-1.449 1.448-5.799-5.8zM31.26 33.63l-1.449 1.449-5.799-5.799 1.448-1.448 5.8 5.799zM32.285 18.083c-2.966 0-5.077 0.989-6.837 3.35-0.955 1.274-1.552 2.977-1.852 4.553-0.234 1.29 0.028 2.283-1.296 2.283-0.821 0-1.274-0.854-1.274-1.676 0.001-6.064 4.859-11.057 10.923-11.057 6.233 0 11.593 4.758 11.593 10.991 0 0.804-0.536 1.608-1.34 1.608-0.871 0-1.072-1.022-1.207-1.876-0.302-1.876-0.453-3.083-1.475-4.69-1.674-2.63-4.102-3.485-7.236-3.485zM22.223 30.891l5.799 5.8-1.448 1.449-5.799-5.8 1.449-1.448zM45.554 35.239c-2.663 3.702-5.227 5.897-5.227 10.454v3.485c0 4.322-3.72 7.64-8.041 7.64-4.373 0-8.042-3.467-8.042-7.841 0-1.040 0.77-1.945 1.81-1.945 1.575 0 1.507 2.027 2.077 3.486 0.703 1.776 2.161 2.814 4.088 2.814 2.463 0 4.624-1.825 4.624-4.289v-3.886c0-7.858 8.042-10.639 8.042-18.495 0-6.953-5.646-12.599-12.599-12.599-4.306 0-7.338 1.407-9.919 4.825-1.524 2.027-2.211 3.518-2.547 6.031-0.201 1.558-0.233 3.619-1.809 3.619-1.039 0-1.81-0.905-1.81-1.944-0.001-8.844 7.371-15.881 16.217-15.881 8.779 0 15.817 7.237 15.817 16.016-0.001 3.467-0.671 5.695-2.682 8.511zM48.987 12.224l-2.355-2.354 1.523-1.522 2.355 2.354-1.523 1.522z" />
</svg>
