<?xml version="1.0" encoding="utf-8"?>
<!-- Generated by IcoMoon.io -->
<!DOCTYPE svg PUBLIC "-//W3C//DTD SVG 1.1//EN" "http://www.w3.org/Graphics/SVG/1.1/DTD/svg11.dtd">
<svg version="1.1" xmlns="http://www.w3.org/2000/svg" xmlns:xlink="http://www.w3.org/1999/xlink" width="64" height="64" viewBox="0 0 64 64">
	<path d="M16.336 25.949c-6.091 3.436-9.874 9.909-9.874 16.895 0 5.177 2.017 10.046 5.678 13.706 3.661 3.661 8.529 5.677 13.707 5.677 9.003 0 16.754-6.106 18.85-14.849l-3.317-0.795c-1.728 7.202-8.114 12.234-15.534 12.234-4.268 0-8.278-1.662-11.296-4.679-3.017-3.017-4.678-7.028-4.678-11.294 0-5.757 3.119-11.091 8.139-13.924l-1.675-2.971zM55.828 49.928l-3.556 1.422-9.567-17.886h-19.526l-0.64-5.892 15.077 0.007 0.001-3.411-15.447-0.006-1.407-12.968c0.628 0.159 1.291 0.213 1.972 0.132 2.976-0.356 5.098-3.057 4.742-6.033-0.357-2.975-3.055-5.098-6.031-4.742-2.975 0.356-5.098 3.057-4.743 6.031 0.052 0.433 0.158 0.846 0.303 1.237l-0.038 0.004 2.987 27.53 0.166 1.522h20.543l10.043 18.774 6.39-2.556-1.267-3.166z" />
</svg>
