<?xml version="1.0" encoding="utf-8"?>
<!-- Generated by IcoMoon.io -->
<!DOCTYPE svg PUBLIC "-//W3C//DTD SVG 1.1//EN" "http://www.w3.org/Graphics/SVG/1.1/DTD/svg11.dtd">
<svg version="1.1" xmlns="http://www.w3.org/2000/svg" xmlns:xlink="http://www.w3.org/1999/xlink" width="64" height="64" viewBox="0 0 64 64">
	<path d="M56.277 20.663c0 4.029-3.266 7.294-7.294 7.294s-7.294-3.266-7.294-7.294c0-4.029 3.266-7.294 7.294-7.294 4.029 0 7.294 3.266 7.294 7.294z" />
	<path d="M3.292 6.261v13.229h-1.978c-0.375 0-0.679-0.301-0.679-0.678v-17.070c0-0.578 0.431-1.048 1.022-1.048h8.747c0.59 0 1.022 0.469 1.022 1.046v1.002h13.523c0.378 0 0.68 0.303 0.68 0.676v3.838h-11.544v-1.005c0-0.577-0.432-1.046-1.024-1.046h-8.744c-0.592 0-1.024 0.477-1.024 1.056z" />
	<path d="M30.946 27.5c0 0.375-0.303 0.676-0.68 0.676h-23.635c-0.376 0-0.679-0.301-0.679-0.677v-17.070c0-0.578 0.431-1.048 1.022-1.048h8.745c0.592 0 1.024 0.469 1.024 1.046v1.002h13.523c0.377 0 0.68 0.303 0.68 0.676v15.395zM20.462 17.781v-4.026h-4.028v4.026h-4.027v4.028h4.027v4.027h4.028v-4.027h4.027v-4.028h-4.027z" />
	<path d="M56.19 29.836c4.041 0 7.317 3.269 7.317 7.31l0.015 26.733h-24.544v-22.161h-0.994l-4.526 6.753c-0.737 1.005-2.233 1.492-3.426 1.492h-10.626c-1.765 0-3.198-1.43-3.198-3.193 0-1.76 1.433-3.15 3.198-3.15h9.665l6.705-10.138c1.606-2.452 4.748-3.637 7.277-3.637l13.136-0.008z" />
</svg>
