<?xml version="1.0" encoding="utf-8"?>
<!-- Generated by IcoMoon.io -->
<!DOCTYPE svg PUBLIC "-//W3C//DTD SVG 1.1//EN" "http://www.w3.org/Graphics/SVG/1.1/DTD/svg11.dtd">
<svg version="1.1" xmlns="http://www.w3.org/2000/svg" xmlns:xlink="http://www.w3.org/1999/xlink" width="65" height="64" viewBox="0 0 65 64">
	<path d="M12.051 22.086c0.328-3.312-0.513-6.752-2.62-9.656-2.108-2.907-5.116-4.773-8.365-5.493-0.329 3.314 0.511 6.752 2.618 9.659 2.108 2.907 5.116 4.773 8.368 5.49z" />
	<path d="M10.684 11.521c0.541 0.748 1.008 1.539 1.407 2.357 0.401-0.822 0.864-1.614 1.402-2.357 0.617-0.85 1.317-1.622 2.077-2.322-0.33-2.971-1.571-5.662-3.454-7.783-1.89 2.131-3.135 4.842-3.457 7.829 0.74 0.688 1.421 1.445 2.024 2.276z" />
	<path d="M23.114 6.937c-3.25 0.72-6.258 2.586-8.365 5.493-0.795 1.097-1.409 2.273-1.849 3.487 0.592 1.842 0.843 3.786 0.722 5.743 2.668-0.905 5.094-2.61 6.874-5.064 2.108-2.907 2.948-6.345 2.618-9.659z" />
	<path d="M40.688 10.103c-3.148 0-5.7 2.551-5.7 5.702 0 3.146 2.551 5.7 5.7 5.7 3.148 0 5.702-2.553 5.702-5.7 0-3.15-2.554-5.702-5.702-5.702z" />
	<path d="M55.46 33.908l-2.896-8.259c-0.562-1.555-1.642-2.772-4.689-2.772h-13.38c-3.045 0-4.127 1.217-4.687 2.772l-2.896 8.259c-0.218 0.534-0.33 1.733 0.849 2.536l6.814 4.493c0.993 0.659 2.334 0.384 2.991-0.61 0.655-0.996 0.381-2.338-0.614-2.993l-5.409-3.568 1.524-4.202h2.107l-1.235 3.409 4.105 2.709c0.923 0.607 1.554 1.539 1.776 2.625 0.222 1.084 0.009 2.189-0.599 3.111-0.243 0.366-0.543 0.681-0.877 0.948h5.684c-0.334-0.267-0.633-0.582-0.877-0.948-0.608-0.923-0.821-2.028-0.599-3.111 0.222-1.086 0.853-2.017 1.776-2.625l4.105-2.709-1.236-3.409h2.107l1.526 4.202-5.409 3.568c-0.995 0.655-1.271 1.998-0.614 2.993 0.657 0.993 1.998 1.269 2.991 0.61l6.814-4.493c1.178-0.803 1.064-2.002 0.849-2.536z" />
	<path d="M53.042 46.36c0-2.896 2.347-5.236 5.236-5.236 2.889 0 5.243 2.34 5.243 5.236 0 2.887-2.353 5.238-5.243 5.238s-5.236-2.351-5.236-5.238z" />
	<path d="M2.153 56.858c-0.647 0-1.17 0.524-1.17 1.168v1.565c0 0-0.116 2.219 2.164 2.219 1.73 0 58.060 0 58.060 0 2.293 0 2.177-2.166 2.177-2.166v-4.733c0 0-0.196-1.513-1.959-1.513h-5.663c-1.939 0-3.539 3.459-7.237 3.459h-46.372z" />
	<path d="M47.2 45.023h-16.287l-6.777 1.038 0.313-6.7h-1.136l0.317 6.777-4.732 0.724 0.351-7.361h-1.144l0.349 7.43-6.441 0.987 0.338-7.405h-1.116l0.336 7.471-7.723 1.183c-0.054 0-0.106 0.013-0.16 0.017l0.326-6.956h-1.125l0.316 7.019c-1.271 0.293-2.222 1.431-2.222 2.79 0 1.588 1.282 2.873 2.864 2.873l22.269 0.002c-0.388-0.627-0.623-1.36-0.623-2.149 0-2.269 1.845-4.114 4.114-4.114h8.919l7.23-1.51 0.401 1.92-7.428 1.551h-9.122c-1.188 0-2.151 0.963-2.151 2.153 0 1.179 0.948 2.133 2.122 2.149l17.66 0.002c2.73-0.021 4.922-2.221 4.922-4.941 0-2.733-2.211-4.953-4.96-4.953z" />
</svg>
