<?xml version="1.0" encoding="utf-8"?>
<!-- Generated by IcoMoon.io -->
<!DOCTYPE svg PUBLIC "-//W3C//DTD SVG 1.1//EN" "http://www.w3.org/Graphics/SVG/1.1/DTD/svg11.dtd">
<svg version="1.1" xmlns="http://www.w3.org/2000/svg" xmlns:xlink="http://www.w3.org/1999/xlink" width="64" height="64" viewBox="0 0 64 64">
	<path d="M33.82 15.553v-1.259h1.645v-0.796c0-1.416 1.237-2.561 2.768-2.561 1.528 0 2.765 1.145 2.765 2.561v0.796h1.609v1.259h-8.787z" />
	<path d="M54.198 47.38c0 3.245-2.627 5.875-5.87 5.875-3.245 0-5.875-2.631-5.875-5.875 0-3.245 2.631-5.874 5.875-5.874 3.242 0 5.87 2.63 5.87 5.874zM51.135 47.38c0-1.553-1.257-2.808-2.807-2.808-1.552 0-2.81 1.256-2.81 2.808s1.258 2.811 2.81 2.811c1.551-0 2.807-1.259 2.807-2.811zM20.569 47.324c0 3.245-2.63 5.873-5.875 5.873-3.243 0-5.872-2.628-5.872-5.873 0-3.243 2.63-5.875 5.872-5.875 3.244 0 5.875 2.633 5.875 5.875zM17.516 47.329c0-1.552-1.258-2.808-2.81-2.808s-2.811 1.257-2.811 2.808c0 1.554 1.259 2.811 2.811 2.811 1.552 0 2.81-1.257 2.81-2.811z" />
	<path d="M58.188 30.675c1.755 0.342 2.805 1.099 3.597 5.43l1.253 7.815c0.451 2.543-0.986 3.471-2.778 3.471h-4.304c0-4.214-3.414-7.642-7.628-7.642-4.214 0-7.632 3.428-7.632 7.642h-18.393c0-4.214-3.416-7.642-7.63-7.642-4.216 0-7.631 3.428-7.631 7.642h-3.566c-1.256 0-2.234-0.951-2.234-2.178v-25.698c0-1.4 1.105-2.525 2.46-2.525h46.178c1.755 0 3.038 0.871 3.672 2.398l4.636 11.288zM42.795 19.609v10.675h12.343l-4.33-10.675h-8.014zM31.753 28.914v-6.55h-6.55v6.55h-6.551v6.551h6.551v6.549h6.55v-6.549h6.55v-6.551h-6.55z" />
</svg>
