<?xml version="1.0" encoding="utf-8"?>
<!-- Generated by IcoMoon.io -->
<!DOCTYPE svg PUBLIC "-//W3C//DTD SVG 1.1//EN" "http://www.w3.org/Graphics/SVG/1.1/DTD/svg11.dtd">
<svg version="1.1" xmlns="http://www.w3.org/2000/svg" xmlns:xlink="http://www.w3.org/1999/xlink" width="63" height="64" viewBox="0 0 63 64">
	<path d="M14.218 10.939c2.053-1.139 3.982-1.455 5.731-0.943 1.813 0.53 3.157 1.847 3.964 2.847-2.064 1.545-3.337 4.007-3.385 6.682-0.005 0.175 0.025 0.33 0.055 0.485 0.124 0.681 0.541 1.204 1.256 1.511 0.040 0.017 0.162 0.055 0.421 0.055 0.709 0 1.573-0.285 1.582-0.287l11.449-3.243c0.879-0.255 1.337-0.73 1.39-1.451l0.017-0.115c0-0.006 0-0.015 0-0.021 0.091-0.522-0.462-1.405-0.941-1.669-0.734-0.411-1.409-0.802-2.039-1.171-2.332-1.358-4.017-2.341-5.723-2.341-0.187 0-0.376 0.021-0.566 0.044-0.99-1.422-3.12-3.92-6.393-4.893-2.754-0.819-5.654-0.4-8.625 1.249-1.158 0.643-7.055 3.595-11.146-0.094v4.465c5.486 2.68 11.608-0.366 12.954-1.112z" />
	<path d="M48.584 19.639c-1.639-0.379-5.912-0.809-5.912-0.809l-3.715-1.473c-0.216 0.949-0.89 2.358-3.003 2.973l-11.451 3.243c-0.379 0.119-1.32 0.381-2.243 0.381-0.493 0-0.917-0.072-1.294-0.221-1.049-0.449-1.817-1.154-2.281-2.037-1.085 1.33-1.743 3.020-1.745 4.869l0.002 3.071-3.081-0.002c-2.909-4.022-7.431-6.8-12.624-7.348v35.675c5.21-0.553 9.746-3.347 12.652-7.391h13.701c3.586 4.561 9.166 7.493 15.422 7.495 10.837-0.002 19.617-8.781 19.621-19.617 0-8.904-6.687-17.104-14.048-18.811zM40.67 22.66c0-0.579 0.483-0.996 0.998-0.996 0.579 0 0.996 0.417 0.996 0.996v4.303c0 0.515-0.417 0.998-0.996 0.998-0.515 0-0.998-0.483-0.998-0.998v-4.303zM43.53 40.981c0 3.267-2.648 5.925-5.904 5.925-3.261 0-5.914-2.658-5.914-5.925v-0.447h1.988v0.447c0.005 2.162 1.764 3.929 3.924 3.935 2.16-0.006 3.918-1.773 3.92-3.935v-0.447h1.985l-0 0.447z" />
</svg>
