<?xml version="1.0" encoding="utf-8"?>
<!-- Generated by IcoMoon.io -->
<!DOCTYPE svg PUBLIC "-//W3C//DTD SVG 1.1//EN" "http://www.w3.org/Graphics/SVG/1.1/DTD/svg11.dtd">
<svg version="1.1" xmlns="http://www.w3.org/2000/svg" xmlns:xlink="http://www.w3.org/1999/xlink" width="64" height="64" viewBox="0 0 64 64">
	<path d="M0.663 40.71h51.539v4.057h-51.539v-4.057z" />
	<path d="M38.962 51.665c0-2.704-11.905-2.433-11.905 0.036 0 0.389 0 8.303 0 9.151-0.119 1.26 0.796 2.496 2.061 2.496 0.942 0 31.888 0.002 31.888 0.002 1.267 0 2.293-1.024 2.293-2.292 0 0 0.003-28.929 0.003-28.974 0-18.206-15.627-32.839-34.177-31.152-1.261 0.116-2.192 1.229-2.078 2.492 0 0.839 0 9.86 0 9.86h11.915v-6.984c11.389 3.054 19.75 13.452 19.754 25.775-0.041 12.315-8.36 22.761-19.754 25.799v-6.211z" />
	<path d="M42.977 32.154c0-2.838 2.298-5.134 5.133-5.134 2.831 0 5.138 2.297 5.138 5.134 0 2.828-2.307 5.136-5.138 5.136-2.835 0-5.133-2.307-5.133-5.136z" />
	<path d="M36.412 26.84h-17.201l-18.589 2.845v7.598l13.521 0.002c-0.41-0.662-0.658-1.436-0.658-2.269 0-2.395 1.95-4.343 4.344-4.343h9.421l7.635-1.595 0.425 2.027-7.846 1.638h-9.635c-1.254 0-2.271 1.016-2.271 2.273 0 1.245 1.001 2.253 2.241 2.269l18.65 0.003c2.886-0.023 5.2-2.346 5.2-5.217 0-2.886-2.334-5.231-5.238-5.231z" />
</svg>
