<?xml version="1.0" encoding="utf-8"?>
<!-- Generated by IcoMoon.io -->
<!DOCTYPE svg PUBLIC "-//W3C//DTD SVG 1.1//EN" "http://www.w3.org/Graphics/SVG/1.1/DTD/svg11.dtd">
<svg version="1.1" xmlns="http://www.w3.org/2000/svg" xmlns:xlink="http://www.w3.org/1999/xlink" width="64" height="64" viewBox="0 0 64 64">
	<path d="M5.482 33.956h5.547c0.421 0 0.811 0.21 1.043 0.556 0 0 1.057 1.596 2.112 3.179 0.585-5.186 2.622-23.314 2.622-23.314 0.070-0.598 0.561-1.070 1.171-1.105 0.605-0.037 1.147 0.367 1.287 0.956 0 0 2.656 11.137 3.913 16.399 0.827-2.339 1.663-4.708 1.663-4.708 0.175-0.496 0.645-0.832 1.171-0.834 0.525-0.002 0.999 0.324 1.179 0.82 0 0 2.467 6.701 2.961 8.051 1.249 0 4.814 0 4.814 0 0.421 0 0.811 0.21 1.042 0.556 0 0 1.058 1.596 2.111 3.18 0.587-5.186 2.624-23.314 2.624-23.314 0.068-0.598 0.558-1.070 1.169-1.105 0.605-0.037 1.149 0.367 1.289 0.956 0 0 2.654 11.132 3.911 16.399 0.827-2.339 1.666-4.708 1.666-4.708 0.175-0.496 0.642-0.832 1.168-0.834 0.526-0.002 1.002 0.324 1.18 0.82 0 0 2.47 6.701 2.963 8.051 0.862 0 3.418 0 4.92 0l0.262-0.5c2.39-4.112 4.135-11.726 4.135-17.271 0-7.075-5.149-15.621-15.183-15.621-14.338 0-16.181 13.431-16.181 13.431s-1.778-13.366-16.107-13.366c-9.68 0-14.873 8.236-14.873 15.556 0 6.322 2.768 14.126 4.186 17.331l0.235 0.439z" />
	<path d="M53.216 36.456c-0.526 0-0.993-0.329-1.172-0.818 0 0-1.107-3.007-2.068-5.617-0.897 2.547-1.915 5.432-1.915 5.432-0.185 0.523-0.69 0.862-1.243 0.829-0.554-0.026-1.023-0.416-1.149-0.958 0 0-1.787-7.486-3.238-13.567-0.863 7.661-2.208 19.623-2.208 19.623-0.058 0.519-0.439 0.951-0.951 1.072-0.512 0.124-1.042-0.084-1.334-0.521 0 0-3.030-4.561-3.642-5.476-1.042 0-5.016 0-5.016 0-0.523 0-0.992-0.329-1.171-0.818 0 0-1.107-3.007-2.068-5.616-0.902 2.546-1.92 5.432-1.92 5.432-0.185 0.523-0.689 0.862-1.243 0.829-0.554-0.026-1.022-0.416-1.153-0.958 0 0-1.784-7.486-3.232-13.558-0.862 7.654-2.207 19.614-2.207 19.614-0.059 0.519-0.439 0.951-0.95 1.072-0.512 0.124-1.042-0.084-1.335-0.521 0 0-3.030-4.561-3.642-5.476-0.508 0-2.118 0-3.519 0 8.964 15.927 25.201 26.417 25.201 26.417s16.531-10.492 25.638-26.417l-4.462-0z" />
</svg>
