<?xml version="1.0" encoding="utf-8"?>
<!-- Generated by IcoMoon.io -->
<!DOCTYPE svg PUBLIC "-//W3C//DTD SVG 1.1//EN" "http://www.w3.org/Graphics/SVG/1.1/DTD/svg11.dtd">
<svg version="1.1" xmlns="http://www.w3.org/2000/svg" xmlns:xlink="http://www.w3.org/1999/xlink" width="64" height="64" viewBox="0 0 64 64">
	<path d="M50.409 14.564c-0.171 0-0.341 0.004-0.51 0.011v-0.009h-35.271v23.245c0 3.476 2.818 6.296 6.295 6.296h22.679c3.476 0 6.296-2.82 6.296-6.296v-1.656c0.168 0.007 0.338 0.013 0.509 0.013 6.199 0 11.224-4.665 11.224-10.862 0.001-6.198-5.024-10.742-11.222-10.742zM50.409 31.89c-0.171 0-0.341-0.009-0.51-0.021v-13.055c0.167-0.010 0.339-0.018 0.51-0.018 3.756 0 6.801 2.754 6.801 6.511s-3.044 6.583-6.801 6.583z" />
	<path d="M62.871 45.465v0.218c0 3.476-2.82 6.296-6.295 6.296h-48.986c-3.477 0-6.295-2.82-6.295-6.296v-0.218h61.577z" />
</svg>
