<?xml version="1.0" encoding="utf-8"?>
<!-- Generated by IcoMoon.io -->
<!DOCTYPE svg PUBLIC "-//W3C//DTD SVG 1.1//EN" "http://www.w3.org/Graphics/SVG/1.1/DTD/svg11.dtd">
<svg version="1.1" xmlns="http://www.w3.org/2000/svg" xmlns:xlink="http://www.w3.org/1999/xlink" width="64" height="64" viewBox="0 0 64 64">
	<path d="M30.899 50.352c-0.686-0.686-1.8-0.686-2.486 0l-8.278 8.272-1.030-1.030 11.1-11.085c0.686-0.686 0.686-1.799 0-2.485-0.684-0.688-1.798-0.688-2.486-0.003l-11.097 11.087-1.028-1.028 12.91-12.899c0.686-0.686 0.688-1.799 0.002-2.486-0.686-0.688-1.8-0.688-2.485-0.002l-12.912 12.898-1.028-1.030 10.132-10.124c0.686-0.686 0.686-1.797 0-2.486-0.684-0.686-1.798-0.688-2.485 0l-13.035 13.010c-0.008-1.26-0.019-3.526-0.019-5.572 0-2.842-3.591-3.263-3.77-3.065-0.175 0.206-1.966 19.942-1.966 19.942h20.552l1.145-1.145-0.015-0.013 8.281-8.274c0.687-0.686 0.687-1.798 0.001-2.486z" />
	<path d="M40.146 1.963c-10.392 0-19.967 7.796-21.963 16.381-0.447 1.914-0.947 6.898-0.947 6.898l-4.775 12.034c-0.094 0.221-0.143 0.461-0.143 0.721 0 1.014 0.825 1.841 1.845 1.841h1.63l2.911-2.909c1.253-1.249 3.28-1.249 4.531 0.002 0.461 0.463 0.75 1.032 0.871 1.63l0.891-0.89c1.251-1.251 3.278-1.251 4.529 0.002 1.226 1.226 1.241 3.196 0.063 4.452 0.601 0.119 1.174 0.411 1.639 0.876 1.249 1.251 1.249 3.279-0.002 4.529l-0.93 0.928c0.596 0.121 1.164 0.41 1.625 0.871 1.251 1.251 1.251 3.281 0 4.532l-2.065 2.062v6.345h24.447v-19.427c5.322-4.185 8.751-10.691 8.751-17.99 0-12.644-10.251-22.889-22.908-22.889zM22.877 29.813c-1.414 0-2.558-1.147-2.558-2.554 0-1.414 1.145-2.556 2.558-2.556 1.412 0 2.552 1.143 2.552 2.556 0 1.408-1.141 2.554-2.552 2.554zM34.833 35.766c0.638 0 1.166 0.523 1.166 1.159 0 0.644-0.528 1.163-1.166 1.163-0.642 0-1.163-0.519-1.163-1.163 0-0.636 0.521-1.159 1.163-1.159zM34.139 43.035c-0.64 0-1.162-0.521-1.162-1.164 0-0.64 0.521-1.165 1.162-1.165 0.642 0 1.165 0.525 1.165 1.165 0 0.642-0.523 1.164-1.165 1.164zM36.623 48.041c-0.968-0.083-1.675-0.926-1.598-1.888 0.085-0.959 0.931-1.668 1.89-1.587 0.957 0.082 1.67 0.928 1.584 1.883-0.083 0.964-0.925 1.675-1.876 1.591zM38.299 41.068c-0.973 0-1.747-0.78-1.747-1.741s0.773-1.739 1.747-1.739c0.955 0 1.733 0.778 1.733 1.739s-0.778 1.741-1.733 1.741zM40.772 44.717c-0.646 0-1.17-0.518-1.17-1.165 0-0.636 0.523-1.159 1.17-1.159 0.643 0 1.162 0.523 1.162 1.159-0 0.646-0.519 1.165-1.162 1.165zM43.372 37.956h-0.407v-2.077l0.402-0.004c2.591-0.004 4.706-2.114 4.715-4.704-0.008-2.59-2.123-4.7-4.713-4.704l-0.404-0.002v-2.075h0.407c3.745 0 6.789 3.040 6.789 6.781s-3.044 6.786-6.789 6.786z" />
</svg>
