<?xml version="1.0" encoding="utf-8"?>
<!-- Generated by IcoMoon.io -->
<!DOCTYPE svg PUBLIC "-//W3C//DTD SVG 1.1//EN" "http://www.w3.org/Graphics/SVG/1.1/DTD/svg11.dtd">
<svg version="1.1" xmlns="http://www.w3.org/2000/svg" xmlns:xlink="http://www.w3.org/1999/xlink" width="64" height="64" viewBox="0 0 64 64">
	<path d="M5.301 49.927c-4.441 0-4.784-4.784-4.784-4.784v-29.99h58.825c0 0 4.433-0.204 4.433 3.876 0 4.29-3.834 4.055-3.834 4.055h-15.704c-0.395-0.147-0.811-0.254-1.247-0.307l-12.848-1.622-14.202-4.093c-0.454-0.132-0.925 0.13-1.057 0.582-0.13 0.454 0.126 0.949 0.578 1.081l14.487 4.176c1 0.286 1.825 0.947 2.33 1.857 0.503 0.909 0.623 1.957 0.335 2.953-0.286 0.995-0.945 1.823-1.857 2.328-0.902 0.499-1.947 0.619-2.936 0.339-0.006-0.002-0.013-0.002-0.021-0.002l-6.093-1.767c-3.162-0.991-5.516 0.004-8.014 1.057-1.923 0.812-3.91 1.648-6.609 1.832-0.33 0.021-0.678 0.043-1.085 0.040-0.476-0.004-0.861 0.375-0.863 0.844-0.006 0.474 0.39 0.887 0.863 0.887 3.622-0.002 6.145-1.068 8.37-2.008 2.384-1.006 4.266-1.802 6.837-0.994 0.006 0.002 0.537 0.156 1.281 0.369-1.707 0.787-2.982 2.404-3.234 4.398-0.29 2.29 0.848 4.437 2.716 5.543-1.171 0.797-2.010 2.069-2.2 3.579-0.352 2.786 1.631 5.501 4.417 5.771-0-0.001-14.444-0.001-18.885-0.001z" />
	<path d="M51.774 46.286h7.782v-1.955h-7.782v1.955zM54.693 34.814v2.878h-2.919v1.958h2.919v2.846h1.955v-2.846h2.908v-1.958h-2.908v-2.878h-1.955zM55.669 50.174c-4.772 0-7.098-3.893-7.098-7.357 0-5.094 7.098-16.355 7.098-16.355s7.095 11.261 7.095 16.355c0 3.465-2.322 7.357-7.095 7.357z" />
	<path d="M46.147 28.84c-0.271 2.128-2.22 3.644-4.349 3.371l-9.417-1.186c0.91-0.721 1.571-1.701 1.897-2.837 0.413-1.439 0.243-2.955-0.486-4.268-0.117-0.211-0.25-0.416-0.39-0.607l9.372 1.181c2.128 0.269 3.641 2.219 3.373 4.347z" />
	<path d="M41.596 37.852c-0.13 1.030-0.655 1.949-1.475 2.586-0.823 0.635-1.842 0.919-2.874 0.787l-12.905-1.627c-2.13-0.269-3.641-2.22-3.373-4.348 0.13-1.030 0.654-1.949 1.475-2.584 0.823-0.64 1.842-0.919 2.872-0.789l12.907 1.628c2.128 0.269 3.641 2.218 3.373 4.346z" />
	<path d="M35.575 46.149c-0.233 1.84-1.92 3.149-3.761 2.918l-7.413-0.935c-1.838-0.233-3.149-1.921-2.916-3.761 0.233-1.838 1.921-3.147 3.761-2.915l7.411 0.934c1.699 0.215 2.944 1.667 2.944 3.334 0 0.142-0.006 0.282-0.026 0.425z" />
</svg>
