<?xml version="1.0" encoding="utf-8"?>
<!-- Generated by IcoMoon.io -->
<!DOCTYPE svg PUBLIC "-//W3C//DTD SVG 1.1//EN" "http://www.w3.org/Graphics/SVG/1.1/DTD/svg11.dtd">
<svg version="1.1" xmlns="http://www.w3.org/2000/svg" xmlns:xlink="http://www.w3.org/1999/xlink" width="63" height="64" viewBox="0 0 63 64">
	<path d="M56.943 22.128v16.525h-8.856l-12.097-12.313c0 0-1.943-3.78 1.838-4.212h19.115z" />
	<path d="M44.218 6.919c0 3.221-2.611 5.832-5.832 5.832-3.221 0-5.832-2.611-5.832-5.832 0-3.221 2.611-5.832 5.832-5.832 3.221 0 5.832 2.611 5.832 5.832z" />
	<path d="M39.063 31.678l-6.421-6.524v-10.321c0.013-0.152 0.021-0.306 0.021-0.462 0-3.221-2.612-5.832-5.833-5.832-0.686 0-1.345 0.119-1.957 0.337l-0.006-0.033-0.15 0.091c-0.671 0.261-1.282 0.642-1.806 1.117l-11.775 7.28c-0.073 0.044-0.146 0.087-0.217 0.134l-0.201 0.124 0.005 0.009c-1.49 1.054-2.467 2.79-2.469 4.757l-0.021-0.013v35.776c-0.016 0.159-0.025 0.32-0.025 0.482 0 2.465 1.999 4.463 4.463 4.463 2.464 0 4.463-1.999 4.463-4.463 0-0.214-0.017-0.423-0.045-0.628v-30.447l-0.143-0.083c0.021-0.012 0.043-0.025 0.065-0.037l0.078 0.12 9.72-6.343v6.775l8.289 8.021 0.018-0.019c0.528 0.535 1.262 0.866 2.071 0.866 1.61 0 2.916-1.305 2.916-2.916 0.004-0.894-0.403-1.696-1.038-2.231z" />
	<path d="M52.338 17.091c0 0.537-0.435 0.972-0.972 0.972s-0.972-0.435-0.972-0.972c0-0.537 0.435-0.972 0.972-0.972 0.537 0 0.972 0.435 0.972 0.972z" />
	<path d="M50.070 18.171c0 0.537-0.435 0.972-0.972 0.972s-0.972-0.435-0.972-0.972c0-0.537 0.435-0.972 0.972-0.972 0.537 0 0.972 0.435 0.972 0.972z" />
	<path d="M44.575 13.083c0-0.404 0.327-0.731 0.728-0.731 0.404 0 0.729 0.326 0.729 0.731 0 0.401-0.326 0.728-0.729 0.728-0.402-0.001-0.728-0.327-0.728-0.728z" />
	<path d="M43.726 13.824c0 0.403-0.327 0.729-0.73 0.729s-0.73-0.327-0.73-0.729c0-0.403 0.327-0.729 0.73-0.729 0.403 0 0.73 0.327 0.73 0.729z" />
	<path d="M41.794 15.551c0 0.403-0.326 0.729-0.729 0.729s-0.729-0.326-0.729-0.729c0-0.403 0.326-0.729 0.729-0.729 0.403 0 0.729 0.326 0.729 0.729z" />
	<path d="M40.81 17.969c0 0.403-0.327 0.73-0.73 0.73s-0.73-0.327-0.73-0.73c0-0.403 0.327-0.73 0.73-0.73 0.403 0 0.73 0.327 0.73 0.73z" />
	<path d="M40.81 20.358c0 0.403-0.327 0.73-0.73 0.73s-0.73-0.327-0.73-0.73c0-0.403 0.327-0.73 0.73-0.73 0.403 0 0.73 0.327 0.73 0.73z" />
	<path d="M43.090 20.358c0 0.403-0.327 0.73-0.73 0.73s-0.73-0.327-0.73-0.73c0-0.403 0.327-0.73 0.73-0.73 0.403 0 0.73 0.327 0.73 0.73z" />
	<path d="M43.090 18.144c0 0.403-0.327 0.73-0.73 0.73s-0.73-0.327-0.73-0.73c0-0.403 0.327-0.73 0.73-0.73 0.403 0 0.73 0.327 0.73 0.73z" />
	<path d="M44.008 16.091c0 0.403-0.326 0.729-0.729 0.729s-0.729-0.326-0.729-0.729c0-0.403 0.326-0.729 0.729-0.729 0.403 0 0.729 0.326 0.729 0.729z" />
	<path d="M46.006 15.175c0 0.403-0.327 0.729-0.73 0.729s-0.73-0.327-0.73-0.729c0-0.403 0.327-0.729 0.73-0.729 0.403 0 0.73 0.327 0.73 0.729z" />
	<path d="M48.443 13.371c0 0.443-0.359 0.802-0.802 0.802s-0.802-0.359-0.802-0.802c0-0.443 0.359-0.802 0.802-0.802 0.443 0 0.802 0.359 0.802 0.802z" />
	<path d="M48.348 15.897c0 0.443-0.359 0.802-0.802 0.802s-0.802-0.359-0.802-0.802c0-0.443 0.359-0.802 0.802-0.802 0.443 0 0.802 0.359 0.802 0.802z" />
	<path d="M50.642 14.682c0 0.443-0.359 0.802-0.802 0.802-0.443 0-0.802-0.359-0.802-0.802 0-0.443 0.359-0.802 0.802-0.802 0.443 0 0.802 0.359 0.802 0.802z" />
</svg>
