<?xml version="1.0" encoding="utf-8"?>
<!-- Generated by IcoMoon.io -->
<!DOCTYPE svg PUBLIC "-//W3C//DTD SVG 1.1//EN" "http://www.w3.org/Graphics/SVG/1.1/DTD/svg11.dtd">
<svg version="1.1" xmlns="http://www.w3.org/2000/svg" xmlns:xlink="http://www.w3.org/1999/xlink" width="64" height="64" viewBox="0 0 64 64">
	<path d="M34.478 0.972c-10.741 0-20.641 8.064-22.703 16.95-0.459 1.973-0.975 7.135-0.975 7.135l-4.935 12.45c-0.099 0.224-0.151 0.477-0.151 0.742 0 1.051 0.854 1.907 1.909 1.907h0.524c-0.113-0.414-0.030-0.869 0.289-1.201 0.755-0.781 1.559-1.463 2.392-2.030 0.575-0.392 1.358-0.242 1.751 0.334 0.39 0.576 0.241 1.361-0.334 1.752-0.496 0.336-0.977 0.744-1.445 1.18v4.631h1.113c0.697 0 1.262 0.563 1.262 1.26 0 0.697-0.565 1.262-1.262 1.262h-1.085c0.295 4.889 4.342 8.766 9.309 8.766h3.703v7.252h5.543v-0.945c0-0.697 0.565-1.262 1.262-1.262 0.697 0 1.26 0.565 1.26 1.262v0.945h2.267v-0.943c0-0.697 0.565-1.262 1.262-1.262 0.697 0 1.26 0.565 1.26 1.262v0.943h12.411v-20.097c5.506-4.331 9.046-11.065 9.046-18.617-0.001-13.075-10.593-23.675-23.673-23.675zM16.635 24.433c1.46 0 2.64 1.182 2.64 2.644 0 1.456-1.18 2.642-2.64 2.642-1.462 0-2.646-1.186-2.646-2.642-0-1.462 1.184-2.644 2.646-2.644zM13.731 36.716c-0.192-0.669 0.194-1.368 0.863-1.56 0.977-0.283 2.019-0.459 3.102-0.532 0.714-0.048 1.296 0.481 1.342 1.175 0.048 0.695-0.479 1.297-1.174 1.343-0.904 0.060-1.769 0.207-2.57 0.44-0.116 0.032-0.233 0.049-0.349 0.049-0.548-0.001-1.053-0.361-1.213-0.915zM18.58 47.343h-2.884c-0.697 0-1.26-0.565-1.26-1.262 0-0.697 0.563-1.26 1.26-1.26h2.884c0.697 0 1.26 0.563 1.26 1.26 0 0.696-0.563 1.262-1.26 1.262zM35.035 29.951h2.884c0.697 0 1.26 0.565 1.26 1.262 0 0.697-0.563 1.26-1.26 1.26h-2.884c-0.697 0-1.26-0.563-1.26-1.26 0-0.697 0.563-1.262 1.26-1.262zM28.204 33.275c0.578-1.038 1.471-1.892 2.584-2.463 0.619-0.319 1.38-0.078 1.697 0.541 0.319 0.619 0.078 1.381-0.541 1.7-0.668 0.346-1.199 0.846-1.536 1.45-0.231 0.414-0.66 0.647-1.102 0.647-0.207 0-0.419-0.050-0.613-0.157-0.608-0.339-0.828-1.107-0.489-1.718zM20.301 35.864c0.115-0.686 0.755-1.154 1.45-1.042 1.016 0.166 2.028 0.425 3.002 0.768 0.658 0.231 1.003 0.95 0.772 1.607-0.181 0.52-0.669 0.846-1.191 0.846-0.138 0-0.278-0.024-0.416-0.073-0.837-0.293-1.704-0.512-2.575-0.658-0.688-0.112-1.154-0.76-1.042-1.448zM26.151 47.893c-0.229 0.42-0.663 0.66-1.109 0.66-0.205 0-0.409-0.050-0.602-0.153-0.724-0.395-1.516-0.682-2.351-0.857-0.682-0.142-1.12-0.809-0.979-1.49 0.142-0.684 0.811-1.122 1.492-0.98 1.076 0.225 2.101 0.598 3.041 1.109 0.613 0.334 0.839 1.1 0.507 1.71zM26.668 37.751c0.246-0.386 0.669-0.572 1.096-0.563 0.127-0.401 0.433-0.74 0.871-0.852 0.678-0.17 1.363 0.236 1.534 0.911 0.315 1.234 0.956 2.297 0.962 2.308 0.364 0.593 0.179 1.37-0.414 1.734-0.207 0.128-0.434 0.188-0.66 0.188-0.323 0-0.641-0.128-0.88-0.36-0.002-0.002-0.007-0.005-0.009-0.006-0.656-0.598-1.365-1.141-2.114-1.618-0.587-0.373-0.759-1.154-0.386-1.741zM28.297 52.659c-0.362-0.796-0.813-1.526-1.339-2.166-0.442-0.54-0.365-1.333 0.175-1.775 0.537-0.444 1.333-0.364 1.775 0.175 0.664 0.809 1.232 1.726 1.684 2.72 0.289 0.634 0.011 1.382-0.623 1.669-0.17 0.078-0.347 0.115-0.522 0.115-0.479-0.001-0.938-0.275-1.15-0.739zM31.905 58.632c0 0.697-0.563 1.262-1.26 1.262-0.697 0-1.262-0.565-1.262-1.262v-0.705c0-0.675-0.048-1.343-0.14-1.988-0.099-0.69 0.38-1.331 1.068-1.431 0.705-0.097 1.328 0.38 1.428 1.070 0.112 0.763 0.166 1.553 0.166 2.349l0.001 0.705zM32.779 46.049c-0.369-0.805-0.811-1.581-1.316-2.312-0.397-0.574-0.253-1.359 0.319-1.754 0.574-0.397 1.358-0.254 1.756 0.319 0.587 0.85 1.104 1.756 1.534 2.694 0.291 0.632 0.013 1.381-0.619 1.672-0.17 0.078-0.349 0.115-0.527 0.115-0.476-0-0.933-0.272-1.147-0.733zM34.166 52.004c-0.024-0.886-0.125-1.775-0.302-2.642-0.14-0.684 0.302-1.348 0.984-1.488 0.68-0.14 1.348 0.302 1.488 0.986 0.205 1.009 0.324 2.045 0.352 3.076 0.020 0.697-0.528 1.274-1.224 1.294-0.013 0.002-0.024 0.002-0.037 0.002-0.679 0-1.24-0.544-1.26-1.227zM36.694 58.635c0 0.697-0.563 1.262-1.26 1.262s-1.262-0.565-1.262-1.262v-2.881c0-0.697 0.565-1.262 1.262-1.262s1.26 0.566 1.26 1.262v2.881zM37.386 38.217v-2.149l0.416-0.004c2.681-0.004 4.868-2.187 4.877-4.866-0.008-2.679-2.196-4.862-4.877-4.866l-0.416-0.002v-2.146h0.419c3.874 0 7.025 3.145 7.025 7.015 0 3.869-3.151 7.019-7.025 7.019h-0.419z" />
</svg>
