<?xml version="1.0" encoding="utf-8"?>
<!-- Generated by IcoMoon.io -->
<!DOCTYPE svg PUBLIC "-//W3C//DTD SVG 1.1//EN" "http://www.w3.org/Graphics/SVG/1.1/DTD/svg11.dtd">
<svg version="1.1" xmlns="http://www.w3.org/2000/svg" xmlns:xlink="http://www.w3.org/1999/xlink" width="63" height="64" viewBox="0 0 63 64">
	<path d="M51.887 58.329v-28c0-2.825-2.241-5.113-5.099-5.113h-28.063c-2.955 0-5.101 2.319-5.101 5.112l-0.008 0.001v28c0 2.856 2.314 5.079 5.108 5.080h28.096c2.792 0 5.072-2.094 5.067-5.072v-0.007zM46.598 58.101h-27.693v-27.532h27.693v27.532z" />
	<path d="M39.675 3.547c-0.031-3.662 5.268-3.704 5.298 0l-0.081 11.113 2.85-3.491c1.967-2.16 5.426 0.851 3.291 3.29l-6.912 8.228c-1.091 1.092-2.51 1.086-3.595 0l-6.879-8.259c-2.136-2.441 1.356-5.483 3.29-3.292l2.818 3.524-0.081-11.113z" />
	<path d="M20.442 20.766c-0.031 3.662 5.267 3.703 5.298 0l-0.080-11.114 2.849 3.491c1.968 2.16 5.427-0.851 3.292-3.29l-6.911-8.227c-1.092-1.092-2.512-1.085-3.596 0l-6.879 8.26c-2.137 2.439 1.355 5.482 3.29 3.29l2.817-3.524-0.079 11.114z" />
	<path d="M45.286 46.34c0 0.559-0.449 0.946-0.942 0.946 0 0-6.193 0-6.201 0-0.487 0-0.944-0.394-0.944-0.946v-6.739c0-0.773 0.619-1.303 1.296-1.303-0.007 0 5.49 0 5.49 0 0.739 0 1.299 0.589 1.299 1.303v6.739h0.001z" />
	<path d="M43.769 47.039h-2.359v9.114c0 1.616 2.359 1.616 2.359 0v-9.114z" />
	<path d="M41.051 47.039h-2.36v9.114c0 1.604 2.36 1.604 2.36 0v-9.114z" />
	<path d="M43.036 35.98c0 0.978-0.793 1.771-1.771 1.771s-1.771-0.793-1.771-1.771c0-0.978 0.793-1.771 1.771-1.771 0.978 0 1.771 0.793 1.771 1.771z" />
	<path d="M36.808 46.34c0 0.559-0.448 0.946-0.942 0.946 0 0-6.193 0-6.201 0-0.487 0-0.945-0.394-0.945-0.946v-6.739c0-0.773 0.621-1.303 1.296-1.303-0.006 0 5.491 0 5.491 0 0.74 0 1.299 0.589 1.299 1.303v6.739h0.002z" />
	<path d="M35.292 47.039h-2.36v9.114c0 1.616 2.36 1.616 2.36 0v-9.114z" />
	<path d="M32.575 47.039h-2.36v9.114c0 1.604 2.36 1.604 2.36 0v-9.114z" />
	<path d="M34.559 35.98c0 0.978-0.793 1.771-1.771 1.771-0.978 0-1.771-0.793-1.771-1.771 0-0.978 0.793-1.771 1.771-1.771 0.978 0 1.771 0.793 1.771 1.771z" />
	<path d="M28.332 46.34c0 0.559-0.45 0.946-0.943 0.946 0 0-6.193 0-6.201 0-0.486 0-0.944-0.394-0.944-0.946v-6.739c0-0.773 0.62-1.303 1.296-1.303-0.007 0 5.491 0 5.491 0 0.739 0 1.299 0.589 1.299 1.303v6.739h0.002z" />
	<path d="M26.816 47.039h-2.36v9.114c0 1.616 2.36 1.616 2.36 0v-9.114z" />
	<path d="M24.097 47.039h-2.359v9.114c0 1.604 2.359 1.604 2.359 0v-9.114z" />
	<path d="M26.083 35.98c0 0.978-0.793 1.771-1.771 1.771s-1.771-0.793-1.771-1.771c0-0.978 0.793-1.771 1.771-1.771 0.978 0 1.771 0.793 1.771 1.771z" />
</svg>
