<?xml version="1.0" encoding="utf-8"?>
<!-- Generated by IcoMoon.io -->
<!DOCTYPE svg PUBLIC "-//W3C//DTD SVG 1.1//EN" "http://www.w3.org/Graphics/SVG/1.1/DTD/svg11.dtd">
<svg version="1.1" xmlns="http://www.w3.org/2000/svg" xmlns:xlink="http://www.w3.org/1999/xlink" width="64" height="64" viewBox="0 0 64 64">
	<path d="M25.393 29.436c-0.262 0-0.523 0.013-0.786 0.037v2.521h0.898c0.738 0 1.049-0.374 1.049-1.249 0-0.735-0.198-1.309-1.162-1.309z" />
	<path d="M42.265 22.115v-20.53h-20.55v20.53h-20.558v20.545h20.558v20.53h20.55v-20.53h20.552v-20.545h-20.552zM8.286 36.552h-4.135v-8.327h4.035v1.349h-2.423v1.997h2.187v1.337h-2.187v2.332h2.524v1.312zM15.883 36.552h-1.511v-5.393h-0.051l-1.561 3.17-1.574-3.157v5.38h-1.574v-8.327h1.511l1.637 3.158 1.612-3.158h1.512v8.327zM21.669 36.552h-4.134v-8.327h4.035v1.349h-2.426v1.997h2.189v1.337h-2.189v2.332h2.525v1.312zM28.217 36.552h-1.685l-0.764-2.922c-0.062-0.237-0.112-0.349-0.324-0.349h-0.837v3.271h-1.612v-8.277c0.788-0.088 1.524-0.113 2.336-0.113 1.699 0 2.81 0.775 2.81 2.483 0 1.201-0.487 1.836-1.225 2.124v0.013c0.176 0.050 0.238 0.175 0.288 0.386l1.012 3.384zM35.014 32.917c0 1.811-0.45 3.772-2.709 3.772-2.313 0-3.075-2.234-3.075-4.283 0-2.072 0.839-4.319 3.199-4.319 0.886 0 1.547 0.364 2.187 0.999l-0.888 1.186c-0.362-0.449-0.674-0.81-1.323-0.81-1.386 0-1.487 1.921-1.487 2.934 0 1.023 0.037 3.007 1.435 3.007 1.074 0 1.198-0.973 1.198-1.836v-0.298h-1.134v-1.322h2.597v0.971zM40.537 36.552h-4.135v-8.327h4.036v1.349h-2.427v1.997h2.189v1.337h-2.189v2.332h2.526v1.312zM47.558 36.552h-1.411l-2.674-5.142h-0.037v5.142h-1.574v-8.327h1.561l2.551 4.931h0.023v-4.931h1.561v8.327zM52.083 36.689c-2.298 0-3.123-2.034-3.123-4.294 0-2.137 0.888-4.309 3.199-4.309 0.973 0 1.61 0.439 2.25 1.199l-0.964 1.138c-0.361-0.551-0.698-0.962-1.312-0.962-1.139 0-1.489 1.435-1.489 2.934 0 1.124 0.226 2.932 1.525 2.932 0.678 0 1.050-0.411 1.462-0.961l0.825 1.174c-0.55 0.674-1.35 1.149-2.374 1.148zM58.531 33.369v3.183h-1.6v-3.096l-2.175-5.232h1.725l1.263 3.795 1.261-3.795h1.638l-2.111 5.144z" />
</svg>
