<?xml version="1.0" encoding="utf-8"?>
<!-- Generated by IcoMoon.io -->
<!DOCTYPE svg PUBLIC "-//W3C//DTD SVG 1.1//EN" "http://www.w3.org/Graphics/SVG/1.1/DTD/svg11.dtd">
<svg version="1.1" xmlns="http://www.w3.org/2000/svg" xmlns:xlink="http://www.w3.org/1999/xlink" width="64" height="64" viewBox="0 0 64 64">
	<path d="M54.655 29.446c5.259 0 8.39 3.133 8.39 7.931v22.46c0 1.74-0.156 3.149-0.156 3.149h-24.016v-21.829h-0.979l-4.458 6.651c-0.726 0.99-2.2 1.47-3.374 1.47h-10.465c-1.74 0-3.149-1.408-3.149-3.145 0-1.734 1.409-3.103 3.149-3.103h9.518l6.602-9.986c1.585-2.415 4.518-3.567 7.168-3.567 0 7.023 1.75 9.995 4.914 9.995v11.676c-0.889 0.382-1.515 1.267-1.515 2.298 0 1.38 1.103 2.485 2.483 2.485 1.381 0 2.487-1.135 2.487-2.519 0-1.030-0.625-1.914-1.515-2.295v-11.68c3.162-0.001 4.914-2.969 4.914-9.991zM52.682 29.446c-0.056 7.199-1.301 8.146-3.914 8.146-2.61 0-3.856-0.948-3.911-8.146h7.825zM48.725 13.233c3.967 0 7.182 3.215 7.182 7.185 0 3.967-3.216 7.183-7.182 7.183-3.967 0-7.186-3.217-7.186-7.183 0-3.969 3.218-7.185 7.186-7.185z" />
	<path d="M31.071 14.215c0.876 0 1.589-0.713 1.589-1.592s-0.713-1.591-1.589-1.591c-0.88 0-1.592 0.712-1.592 1.591s0.711 1.592 1.592 1.592z" />
	<path d="M19.7 5.446c1.251 0 2.266-1.015 2.266-2.267 0-1.251-1.015-2.268-2.266-2.268-1.253 0-2.268 1.017-2.268 2.268-0.001 1.252 1.015 2.267 2.268 2.267z" />
	<path d="M7.393 5.461c1.27 0 2.303-1.022 2.303-2.283 0-1.261-1.033-2.283-2.303-2.283-1.271 0-2.3 1.022-2.3 2.283-0 1.261 1.030 2.283 2.3 2.283z" />
	<path d="M28.912 27.946c0 0.514 0.424 0.933 0.94 0.933 0.514 0 0.932-0.419 0.932-0.933 0-0.766 0-5.58 0-5.58h0.73c0 0 0 4.814 0 5.58 0 0.514 0.418 0.933 0.934 0.933 0.516 0 0.938-0.419 0.938-0.933 0-0.766 0-10.431 0-10.431h0.722c0 0 0 3.087 0 3.537 0 0.385 0.311 0.697 0.694 0.697 0.385 0 0.688-0.312 0.688-0.697v-4.021c0-1.126-0.992-2.039-2.114-2.039 0 0-4.316 0.003-4.334 0.005l-1.397-0.135-1.795-6.256c-0.724-2.523-2.836-2.443-2.836-2.443h-5.819c0 0-2.112-0.080-2.836 2.443l-0.94 3.276-0.94-3.276c-0.724-2.523-2.836-2.443-2.836-2.443h-4.502c0 0-2.111-0.080-2.835 2.443l-1.812 6.313c-0.173 0.589 0.116 1.139 0.63 1.288 0.516 0.146 1.079-0.212 1.217-0.683l1.759-6.155h0.861l-2.576 10.654h2.276v7.568c0 0.624 0.503 1.13 1.127 1.13 0.625 0 1.135-0.506 1.135-1.13v-7.568h0.953v7.568c0 0.624 0.503 1.13 1.129 1.13 0.625 0 1.131-0.506 1.131-1.13v-7.568h2.239l-2.553-10.654h0.861l1.761 6.155c0.12 0.409 0.495 0.739 0.938 0.702 0.443 0.038 0.895-0.294 1.011-0.702l1.763-6.155h0.793c0 0 0 16.914 0 18.004 0 0.734 0.6 1.329 1.336 1.329 0.733 0 1.331-0.596 1.331-1.329 0-1.089 0-10.243 0-10.243h0.983c0 0 0 9.154 0 10.243 0 0.734 0.595 1.329 1.331 1.329 0.734 0 1.333-0.596 1.333-1.329 0-1.089 0-18.004 0-18.004h0.861l1.637 5.95c0.103 0.357 0.473 0.705 0.87 0.825l2.283 0.639v11.164h-0z" />
</svg>
