<?xml version="1.0" encoding="utf-8"?>
<!-- Generated by IcoMoon.io -->
<!DOCTYPE svg PUBLIC "-//W3C//DTD SVG 1.1//EN" "http://www.w3.org/Graphics/SVG/1.1/DTD/svg11.dtd">
<svg version="1.1" xmlns="http://www.w3.org/2000/svg" xmlns:xlink="http://www.w3.org/1999/xlink" width="63" height="64" viewBox="0 0 63 64">
	<path d="M39.654 5.249v1.732h-7.489v-2.72h-2.165c0-1.692-1.839-3.862-4.451-3.862-2.543 0-4.847 1.986-4.847 4.982 0 1.424 0.818 2.696 1.54 3.129-2.861 1.056-6.697 4.68-7.454 6.887-1.053 2.104 1.837 3.868 3.323 1.764 1.485-2.104 3.152-4.685 8.102-5.923l0.008 2.18c-2.041 0.386-7.663 3.7-7.663 10.135v37.396c0 0.928 0.433 2.474 2.289 2.474h16.471c1.857 0 2.29-1.546 2.29-2.474v-37.396c0-6.435-5.423-9.748-7.489-10.135l0.010-2.601h7.526v1.61l18.416 2.784v-12.64l-18.416 2.677zM25.48 7.248c-1.179 0-2.134-0.956-2.134-2.134 0-1.178 0.955-2.133 2.134-2.133 1.178 0 2.134 0.955 2.134 2.133 0 1.178-0.955 2.134-2.134 2.134z" />
</svg>
