<?xml version="1.0" encoding="utf-8"?>
<!-- Generated by IcoMoon.io -->
<!DOCTYPE svg PUBLIC "-//W3C//DTD SVG 1.1//EN" "http://www.w3.org/Graphics/SVG/1.1/DTD/svg11.dtd">
<svg version="1.1" xmlns="http://www.w3.org/2000/svg" xmlns:xlink="http://www.w3.org/1999/xlink" width="64" height="64" viewBox="0 0 64 64">
	<path d="M34.614 7.477c1.905 0 3.452-1.547 3.452-3.452 0-1.903-1.547-3.452-3.452-3.452-1.905 0-3.45 1.549-3.45 3.452 0 1.905 1.544 3.452 3.45 3.452z" />
	<path d="M15.889 7.5c-1.937 0-3.501-1.555-3.501-3.476 0-1.919 1.564-3.474 3.501-3.474 1.934 0 3.504 1.556 3.504 3.474 0 1.921-1.569 3.476-3.504 3.476z" />
	<path d="M54.183 18.401c0 1.337-1.084 2.421-2.421 2.421s-2.421-1.084-2.421-2.421c0-1.337 1.084-2.421 2.421-2.421 1.337 0 2.421 1.084 2.421 2.421z" />
	<path d="M55.269 22.017c-0.852 0-5.706 0-6.533 0-0.030 0-2.184-0.196-2.184-0.196l-2.734-9.537c-1.102-3.837-4.32-3.72-4.32-3.72h-8.856c0 0-3.214-0.117-4.317 3.72l-1.348 4.696-1.348-4.696c-1.105-3.837-4.317-3.72-4.317-3.72h-6.852c0 0-3.217-0.117-4.317 3.72l-2.759 9.608c-0.262 0.899 0.23 1.583 1.017 1.811 0.784 0.225 1.587-0.171 1.79-0.888l2.685-9.365 1.31-0.002-3.92 16.217h3.465v11.518c0 0.949 0.764 1.721 1.715 1.721 0.949 0 1.725-0.772 1.725-1.721v-11.518h1.452v11.518c0 0.949 0.767 1.721 1.715 1.721 0.951 0 1.725-0.772 1.725-1.721v-11.518h3.407l-3.882-16.217 1.305 0.002 2.654 9.268c0.043 0.158 0.114 0.3 0.207 0.429 0.262 0.39 0.714 0.611 1.222 0.595 0.505 0.016 0.956-0.201 1.215-0.588 0.108-0.14 0.183-0.3 0.225-0.478l2.642-9.225 1.206-0.002c0 0 0 25.747 0 27.401 0 1.118 0.915 2.025 2.033 2.025 1.119 0 2.025-0.907 2.025-2.025 0-1.656 0-15.59 0-15.59h1.497c0 0 0 13.935 0 15.59 0 1.118 0.906 2.025 2.022 2.025 1.12 0 2.038-0.907 2.038-2.025 0-1.656 0-27.401 0-27.401l1.309 0.002 2.573 9.365c0.135 0.462 0.523 0.767 0.985 0.882 0.018 0.005 0.029 0.018 0.047 0.020 0.409 0.093 2.295 0.627 3.686 1.023 0 2.529 0 15.939 0 16.994 0 0.785 0.642 1.423 1.425 1.423 0.785 0 1.423-0.638 1.423-1.423 0-1.163 0-8.49 0-8.49h1.113c0 0 0 7.327 0 8.49 0 0.785 0.636 1.423 1.42 1.423 0.785 0 1.429-0.638 1.429-1.423 0-1.163 0-15.874 0-15.874h1.094c0 0 0 4.7 0 5.382 0 0.586 0.478 1.064 1.059 1.064 0.586 0 1.046-0.478 1.046-1.064 0-0.584 0-5.249 0-6.121 0.001-1.713-1.505-3.104-3.219-3.104z" />
	<path d="M47.861 55.695c-0.667-0.517-1.337-1.050-2.015-1.592-0.564-0.449-1.13-0.902-1.7-1.346-3.411-2.665-6.957-5.095-10.905-5.449-0.327-0.029-0.656-0.047-0.988-0.047-0.334 0-0.661 0.043-0.988 0.072-3.959 0.359-7.519 2.775-10.938 5.449 0.12 0.095 0.239 0.19 0.359 0.284 0.417 0.331 0.825 0.649 1.238 0.974 3.4-2.636 6.716-4.807 10.33-4.807 3.6 0 6.908 2.16 10.296 4.784 0.685 0.528 1.373 1.075 2.065 1.63 0.547 0.435 1.098 0.875 1.65 1.307 3.709 2.899 7.577 5.533 11.942 5.533 1.691 0 3.305-0.404 4.865-1.057v-2.155c-1.582 0.762-3.192 1.24-4.865 1.24-3.617 0-6.937-2.178-10.346-4.82z" />
	<path d="M46.267 52.796c0.113 0.090 0.228 0.18 0.341 0.271 0.422 0.338 0.839 0.658 1.256 0.989 1.233-0.954 2.457-1.844 3.686-2.595v5.302c0.658 0.431 1.316 0.83 1.975 1.166v-7.528c1.217-0.568 2.453-0.958 3.718-1.094v9.821c0.304 0.036 0.609 0.070 0.915 0.070 0.354 0 0.708-0.034 1.059-0.081v-9.823c1.314 0.142 2.593 0.559 3.855 1.163v-2.151c-1.553-0.647-3.161-1.046-4.843-1.046-4.367 0-8.245 2.633-11.962 5.535z" />
	<path d="M18.209 56.978c-0.131-0.104-0.264-0.207-0.395-0.313-0.404-0.322-0.8-0.629-1.202-0.947-3.395 2.631-6.709 4.797-10.316 4.797-1.661 0-3.26-0.505-4.835-1.309v2.175c1.551 0.685 3.154 1.107 4.835 1.107 4.353 0 8.213-2.62 11.912-5.51z" />
	<path d="M5.289 59.133c0.327 0.043 0.656 0.074 0.985 0.074 0.331 0 0.66-0.031 0.99-0.074v-9.839c1.274 0.138 2.516 0.528 3.743 1.105-0.007 0.045-0.027 0.088-0.027 0.138v7.366c0.656-0.34 1.314-0.737 1.975-1.17v-5.268c1.887 1.159 3.76 2.649 5.681 4.182 4.215 3.363 8.575 6.842 13.594 6.842 4.349 0 8.211-2.613 11.915-5.498-0.136-0.108-0.273-0.216-0.409-0.325-0.401-0.318-0.793-0.622-1.188-0.936-1.211 0.936-2.41 1.804-3.616 2.545v-5.217c-0.661-0.435-1.319-0.832-1.975-1.173v7.329c0 0.041 0.018 0.075 0.023 0.113-1.224 0.577-2.466 0.974-3.738 1.114v-9.81c-0.345-0.047-0.688-0.079-1.033-0.079-0.315 0-0.629 0.034-0.942 0.072v9.835c-1.278-0.136-2.522-0.523-3.749-1.098 0.007-0.049 0.029-0.095 0.029-0.147v-7.377c-0.658 0.336-1.316 0.735-1.975 1.168v5.293c-1.896-1.161-3.776-2.656-5.706-4.196-4.216-3.364-8.573-6.842-13.589-6.842-1.673 0-3.269 0.372-4.815 0.974v2.13c1.254-0.557 2.522-0.945 3.828-1.075v9.843h-0z" />
</svg>
