<?xml version="1.0" encoding="utf-8"?>
<!-- Generated by IcoMoon.io -->
<!DOCTYPE svg PUBLIC "-//W3C//DTD SVG 1.1//EN" "http://www.w3.org/Graphics/SVG/1.1/DTD/svg11.dtd">
<svg version="1.1" xmlns="http://www.w3.org/2000/svg" xmlns:xlink="http://www.w3.org/1999/xlink" width="64" height="64" viewBox="0 0 64 64">
	<path d="M57.765 24.783v37.789h-22.476v-37.849h4.756l-4.729-3.759 2.615-3.518 4.252 3.093-1.879-6.134 4.101-1.274 2.116 6.498h0.010l2.127-6.498 4.102 1.274-1.89 6.134 4.102-3.033 2.613 3.518-4.577 3.7h4.754v0.060zM53.539 29.212h-4.756v6.004h4.756v-6.004zM44.266 29.212h-4.756v6.004h4.756v-6.004zM53.539 39.634h-4.756v18.51h4.756v-18.51zM44.266 39.634h-4.756v18.51h4.756v-18.51z" />
	<path d="M22.17 34.202h6.271v22.042c-1.884 0.247-1.884 3.007 0.050 3.254v3.253h-15.777c-2.63 0-4.904-2.321-4.904-5.158v-17.775c0-1.806 0.685-3.132 2.578-4.052 0 0 11.78-5.242 11.795-5.262l-0.014 3.697zM23.636 56.715h-11.010c-1.72 0-1.726 2.426-0.007 2.426h11.118c-0.809-0.517-0.859-1.858-0.101-2.426zM24.908 37.78h-2.738v12.382l-6.899 3.096h9.637v-15.478z" />
	<path d="M23.803 10.838l1.038 1.579c6.369-4.186 30.562-3.861 30.806-3.857l0.030-1.89c-1.019-0.016-25.022-0.335-31.874 4.168z" />
	<path d="M17.061 13.633c0 0-2.481 2.579-5.542 2.579-3.061 0-5.543-1.155-5.543-2.579 0-1.425 2.481-2.579 5.543-2.579 3.061 0 5.542 2.579 5.542 2.579z" />
	<path d="M21.457 13.633c0 0 2.482 2.579 5.542 2.579 3.062 0 5.543-1.155 5.543-2.579 0-1.425-2.481-2.579-5.543-2.579-3.060 0-5.542 2.579-5.542 2.579z" />
	<path d="M17.745 15.091c0 0 0.071 3.58-2.093 5.745-2.165 2.164-4.736 3.102-5.744 2.094s-0.070-3.578 2.095-5.743c2.164-2.165 5.742-2.095 5.742-2.095z" />
	<path d="M20.853 11.983c0 0 3.579 0.071 5.743-2.094 2.164-2.164 3.101-4.735 2.093-5.743-1.006-1.007-3.577-0.070-5.742 2.095-2.163 2.164-2.094 5.741-2.094 5.741z" />
	<path d="M19.259 15.64c0 0 2.581 2.483 2.581 5.543 0 3.061-1.156 5.543-2.581 5.543-1.425 0-2.578-2.482-2.578-5.543-0.002-3.060 2.578-5.543 2.578-5.543z" />
	<path d="M19.259 11.244c0 0 2.581-2.482 2.581-5.541 0-3.061-1.156-5.543-2.581-5.543-1.425 0-2.578 2.482-2.578 5.543-0.002 3.060 2.578 5.541 2.578 5.541z" />
	<path d="M20.718 14.956c0 0 3.579-0.070 5.743 2.094 2.164 2.165 3.102 4.736 2.094 5.745-1.007 1.007-3.579 0.069-5.742-2.095-2.165-2.164-2.095-5.743-2.095-5.743z" />
	<path d="M17.609 11.848c0 0 0.070-3.578-2.093-5.743-2.165-2.164-4.735-3.1-5.745-2.092-1.006 1.006-0.069 3.578 2.096 5.742 2.163 2.163 5.742 2.094 5.742 2.094z" />
</svg>
