<?xml version="1.0" encoding="utf-8"?>
<!-- Generated by IcoMoon.io -->
<!DOCTYPE svg PUBLIC "-//W3C//DTD SVG 1.1//EN" "http://www.w3.org/Graphics/SVG/1.1/DTD/svg11.dtd">
<svg version="1.1" xmlns="http://www.w3.org/2000/svg" xmlns:xlink="http://www.w3.org/1999/xlink" width="63" height="64" viewBox="0 0 63 64">
	<path d="M32.82 3.582c11.119 0 20.031 9.165 20.031 20.284 0 4.391-0.85 7.214-3.395 10.78-3.373 4.688-6.62 7.468-6.62 13.239v4.414c0 5.474-4.711 9.676-10.184 9.676-5.539 0-10.185-4.391-10.185-9.93 0-1.316 0.975-2.463 2.292-2.463 1.994 0 1.909 2.568 2.631 4.415 0.891 2.249 2.736 3.564 5.177 3.564 3.119 0 5.856-2.312 5.856-5.432v-4.923c0-9.952 10.185-13.473 10.185-23.425 0-8.806-7.152-15.956-15.957-15.956-5.454 0-9.294 1.782-12.563 6.111-1.931 2.568-2.801 4.456-3.225 7.638-0.255 1.973-0.295 4.584-2.291 4.584-1.316 0-2.292-1.146-2.292-2.462-0.001-11.202 9.335-20.114 20.539-20.114z" />
	<path d="M32.225 9.692c7.894 0 14.683 6.027 14.683 13.92 0 1.018-0.679 2.036-1.697 2.036-1.104 0-1.358-1.294-1.528-2.376-0.382-2.376-0.574-3.904-1.868-5.94-2.121-3.332-5.197-4.414-9.165-4.414-3.756 0-6.429 1.252-8.658 4.243-1.21 1.614-1.965 3.771-2.346 5.766-0.297 1.634 0.035 2.892-1.641 2.892-1.040 0-1.613-1.082-1.613-2.123 0.002-7.681 6.155-14.004 13.835-14.004z" />
	<path d="M7.946 41.010l7.345 7.345-1.834 1.834-7.345-7.345 1.834-1.834z" />
	<path d="M11.641 37.316l7.346 7.346-1.835 1.835-7.346-7.346 1.835-1.835z" />
	<path d="M15.46 33.45l7.345 7.347-1.834 1.834-7.345-7.347 1.835-1.834z" />
	<path d="M19.897 29.138l7.345 7.347-1.835 1.834-7.345-7.347 1.835-1.834z" />
	<path d="M24.011 25.259l7.345 7.345-1.834 1.834-7.345-7.345 1.834-1.834z" />
	<path d="M28.192 20.687l7.345 7.347-1.835 1.834-7.345-7.347 1.835-1.834z" />
	<path d="M48.855 4.494l2.982 2.982-1.927 1.927-2.982-2.982 1.927-1.927z" />
	<path d="M52.733 0.59l2.981 2.982-1.928 1.927-2.981-2.982 1.928-1.927z" />
</svg>
