<?xml version="1.0" encoding="utf-8"?>
<!-- Generated by IcoMoon.io -->
<!DOCTYPE svg PUBLIC "-//W3C//DTD SVG 1.1//EN" "http://www.w3.org/Graphics/SVG/1.1/DTD/svg11.dtd">
<svg version="1.1" xmlns="http://www.w3.org/2000/svg" xmlns:xlink="http://www.w3.org/1999/xlink" width="65" height="64" viewBox="0 0 65 64">
	<path d="M11.231 48.686c-2.272 0-4.115-1.843-4.115-4.114 0-2.273 1.843-4.115 4.115-4.115 2.274 0 4.115 1.842 4.115 4.115-0 2.272-1.841 4.114-4.115 4.114z" />
	<path d="M2.943 63.612c0-0.998 0-6.58 0-8.064 0-2.908 2.389-5.271 5.3-5.271 1.446 0 4.277 0 5.683 0 2.911 0 5.511 2.363 5.511 5.271 0 1.484 0 7.066 0 8.064h-16.495z" />
	<path d="M53.898 48.337c2.272 0 4.115-1.847 4.115-4.117 0-2.275-1.843-4.117-4.115-4.117-2.274 0-4.115 1.842-4.115 4.117 0 2.27 1.841 4.117 4.115 4.117z" />
	<path d="M62.182 63.612c0-0.998 0-6.58 0-8.064 0-2.908-2.389-5.271-5.302-5.271-1.444 0-4.27 0-5.677 0-2.916 0-5.512 2.363-5.512 5.271 0 1.484 0 7.066 0 8.064h16.49z" />
	<path d="M32.557 48.664c-2.3 0-4.163-1.849-4.163-4.128s1.863-4.129 4.163-4.129c2.298 0 4.161 1.849 4.161 4.129 0 2.28-1.862 4.128-4.161 4.128z" />
	<path d="M22.532 63.612l3.276-8.925c1.312-4.559 5.133-4.418 5.133-4.418h3.243c0 0 3.819-0.14 5.133 4.418l3.276 8.925h-20.061z" />
	<path d="M32.557 35.196v-9.765l-1.621-1.621v9.76h-24.523v-31.048h24.523v15.95l1.621 1.62v-19.193h-27.759v34.296z" />
	<path d="M18.436 9.195c1.208 0 2.188-0.981 2.188-2.188 0-1.206-0.98-2.188-2.188-2.188-1.206 0-2.186 0.982-2.186 2.188 0 1.207 0.979 2.188 2.186 2.188z" />
	<path d="M25.661 18.288c0 0-1.795-6.097-1.798-6.102-0.715-2.373-2.717-2.302-2.717-2.302h-5.416c0 0-2.005-0.071-2.719 2.302-0.002 0.006-1.795 6.102-1.795 6.102-0.147 0.495 0.138 1.013 0.632 1.159 0.088 0.024 0.177 0.038 0.263 0.038 0.403 0 0.774-0.263 0.895-0.671l1.714-5.835 0.004 0.002 0.764-0.002v6.64l-3.017 10.354c-0.198 0.68 0.19 1.389 0.87 1.588 0.121 0.035 0.239 0.052 0.358 0.052 0.555 0 1.067-0.363 1.231-0.921l2.98-10.224h1.055l2.98 10.224c0.162 0.559 0.673 0.921 1.228 0.921 0.119 0 0.239-0.017 0.36-0.052 0.678-0.198 1.069-0.908 0.87-1.588l-3.017-10.349v-6.644l0.764 0.002 0.004-0.002 1.716 5.835c0.119 0.408 0.492 0.671 0.894 0.671 0.088 0 0.177-0.013 0.263-0.038 0.495-0.145 0.777-0.663 0.633-1.159z" />
	<path d="M53.879 17.369c-2.264 0-4.107-1.838-4.107-4.107 0-2.27 1.843-4.111 4.107-4.111 2.276 0 4.106 1.841 4.106 4.111 0 2.268-1.83 4.107-4.106 4.107z" />
	<path d="M53.879 23.48c0 0 0.997 0.129 1.607-0.716 0.552-0.772 0.593-3.33 0.597-3.793h-4.412c-0.015 1.841 0.199 3.183 0.639 3.859 0.444 0.69 1.569 0.651 1.569 0.651z" />
	<path d="M35.975 27.103c-0.151 0.248-0.386 0.752-0.386 1.070 0 0.96 0.775 1.731 1.732 1.731h5.697c0.647 0 1.497-0.261 1.86-0.805 1.225-1.819 2.52-3.736 2.902-4.309v10.772h14.348v-11.047c0-2.889-2.257-5.49-4.927-5.49 0.007 1.356-0.175 3.608-0.969 4.594-0.829 1.007-1.805 0.919-1.805 0.919v4.203c0.52 0.215 0.887 0.725 0.887 1.321 0 0.792-0.641 1.433-1.435 1.433-0.792 0-1.431-0.641-1.431-1.433 0-0.595 0.362-1.105 0.88-1.321v-4.222c0 0-0.852 0.070-1.657-0.737-1.075-1.12-1.115-4.294-1.113-4.813h-0.261c-1.839 0-3.453 0.944-4.385 2.346l-3.411 5.147-5.175-0.002-7.308-7.309c-0.274-0.276-0.721-0.276-0.995 0-0.276 0.274-0.278 0.721-0.002 0.997l6.955 6.956z" />
</svg>
