<?xml version="1.0" encoding="utf-8"?>
<!-- Generated by IcoMoon.io -->
<!DOCTYPE svg PUBLIC "-//W3C//DTD SVG 1.1//EN" "http://www.w3.org/Graphics/SVG/1.1/DTD/svg11.dtd">
<svg version="1.1" xmlns="http://www.w3.org/2000/svg" xmlns:xlink="http://www.w3.org/1999/xlink" width="64" height="64" viewBox="0 0 64 64">
	<path d="M55.104 54.644c1.648-2.013 2.225-4.813 1.267-7.436l-0.868-2.398h5.268v-44.414h-57.141v44.414h30.728l3.352 9.195c0.952 2.619 3.197 4.398 5.751 4.876l1.575 4.767 13.185 0.002-3.117-9.007zM50.311 30.648c-2.816 1.024-4.27 4.144-3.244 6.963l2.032 5.544h-43.816v-41.103h53.836v41.104h-4.229l-4.58-12.507z" />
	<path d="M34.66 25.794v3.17h9.263c0.387 0 0.952 0.346 0.952 0.952 0 5.397-0.678 7.948-3.522 7.948-2.955 0-3.561-6.399-6.692-6.817v6.117h-4.953v-6.125c-3.288 0.247-3.817 6.825-6.887 6.825-2.844 0-3.369-2.551-3.369-7.948 0-0.606 0.564-0.952 0.954-0.952h9.302v-3.17h-9.633c-0.556 0-1.006-0.449-1.006-1.002 0-0.553 0.451-1 1.006-1h9.633v-3.172h-10.842c-0.551 0-1-0.449-1-1.004 0-0.551 0.449-1.002 1-1.002h10.842v-3.17h-10.177c-0.551 0-1-0.448-1-1.004 0-0.553 0.449-1.004 1-1.004h10.177v-3.17h-7.97c-0.558 0-1.004-0.449-1.004-1.002 0-0.554 0.446-1.006 1.004-1.006h7.97v-1.752h4.953v1.752h7.97c0.553 0 1.004 0.453 1.004 1.006s-0.451 1.002-1.004 1.002h-7.97v3.17h10.206c0.553 0 1.004 0.451 1.004 1.004 0 0.556-0.451 1.004-1.004 1.004h-10.206v3.17h10.873c0.552 0 1.002 0.451 1.002 1.002 0 0.555-0.451 1.004-1.002 1.004h-10.873v3.172h9.633c0.555 0 1.004 0.446 1.004 1 0 0.554-0.449 1.002-1.004 1.002h-9.633z" />
</svg>
