<?xml version="1.0" encoding="utf-8"?>
<!-- Generated by IcoMoon.io -->
<!DOCTYPE svg PUBLIC "-//W3C//DTD SVG 1.1//EN" "http://www.w3.org/Graphics/SVG/1.1/DTD/svg11.dtd">
<svg version="1.1" xmlns="http://www.w3.org/2000/svg" xmlns:xlink="http://www.w3.org/1999/xlink" width="63" height="64" viewBox="0 0 63 64">
	<path d="M54.817 54.819c1.651-2.017 2.225-4.828 1.272-7.449l-0.873-2.407h5.277v-44.498h-57.263v44.499h30.796l3.355 9.221c0.956 2.624 3.208 4.404 5.766 4.882l1.475 4.915h13.569l-3.375-9.162zM53.131 39.3l-1.252-3.411-1.863-5.119c-2.826 1.035-4.289 4.158-3.254 6.982l2.039 5.559h-43.917v-41.194h53.957v41.194h-4.238l-1.473-4.012z" />
	<path d="M22.773 9.437h5.352v17.797h-3.466v-12.038c0-0.347 0.004-0.831 0.013-1.456 0.009-0.622 0.011-1.105 0.011-1.442l-3.372 14.936h-3.615l-3.348-14.936c0 0.338 0.004 0.82 0.011 1.442 0.008 0.625 0.013 1.109 0.013 1.456v12.038h-3.466v-17.797h5.413l3.238 13.993 3.217-13.993z" />
	<path d="M42.972 9.895c0.655 0.283 1.212 0.697 1.666 1.243 0.377 0.451 0.675 0.951 0.897 1.497 0.219 0.548 0.329 1.173 0.329 1.872 0 0.846-0.213 1.677-0.64 2.493-0.426 0.818-1.131 1.396-2.113 1.734 0.822 0.329 1.403 0.798 1.745 1.407 0.342 0.607 0.513 1.535 0.513 2.782v1.195c0 0.813 0.033 1.366 0.099 1.655 0.099 0.458 0.327 0.796 0.686 1.015v0.445h-4.104c-0.114-0.392-0.193-0.712-0.243-0.954-0.096-0.498-0.149-1.011-0.156-1.532l-0.024-1.655c-0.016-1.135-0.213-1.892-0.588-2.269-0.377-0.379-1.085-0.568-2.12-0.568h-3.633v6.978h-3.635v-17.797h8.515c1.214 0.024 2.152 0.178 2.806 0.458zM35.285 12.528v4.781h4.003c0.796 0 1.392-0.096 1.789-0.289 0.704-0.338 1.054-1.006 1.054-2.006 0-1.079-0.34-1.802-1.020-2.173-0.383-0.208-0.956-0.314-1.722-0.314h-4.106z" />
	<path d="M52.82 27.234h-3.696v-17.797h3.696v17.797z" />
</svg>
