<?xml version="1.0" encoding="utf-8"?>
<!-- Generated by IcoMoon.io -->
<!DOCTYPE svg PUBLIC "-//W3C//DTD SVG 1.1//EN" "http://www.w3.org/Graphics/SVG/1.1/DTD/svg11.dtd">
<svg version="1.1" xmlns="http://www.w3.org/2000/svg" xmlns:xlink="http://www.w3.org/1999/xlink" width="65" height="64" viewBox="0 0 65 64">
	<path d="M54.853 54.475c1.638-2 2.206-4.784 1.262-7.385l-0.867-2.386h5.229v-44.112h-56.755v44.112h30.522l3.327 9.142c0.945 2.601 3.177 4.365 5.716 4.84l1.465 4.873h13.446l-3.345-9.082zM53.182 39.089l-1.243-3.379-1.841-5.074c-2.805 1.023-4.253 4.12-3.229 6.921l2.019 5.51h-43.529v-40.835h53.482v40.835h-4.198l-1.461-3.977z" />
	<path d="M21.869 19.493c-1.032 0.86-2.508 1.291-4.425 1.291h-3.673v6.344h-3.664v-17.643h7.576c1.747 0 3.138 0.456 4.177 1.365 1.039 0.911 1.558 2.319 1.558 4.225 0 2.085-0.517 3.556-1.549 4.419zM19.055 13.135c-0.467-0.391-1.122-0.587-1.963-0.587h-3.321v5.197h3.321c0.841 0 1.495-0.213 1.963-0.635 0.467-0.424 0.699-1.093 0.699-2.012 0.001-0.917-0.232-1.571-0.699-1.963z" />
	<path d="M38.93 12.609h-9.334v3.747h8.57v3.064h-8.57v4.536h9.767v3.171h-13.37v-17.643h12.938v3.125z" />
	<path d="M55.541 9.485v3.125h-5.277v14.518h-3.712v-14.518h-5.303v-3.125h14.291z" />
</svg>
