<?xml version="1.0" encoding="utf-8"?>
<!-- Generated by IcoMoon.io -->
<!DOCTYPE svg PUBLIC "-//W3C//DTD SVG 1.1//EN" "http://www.w3.org/Graphics/SVG/1.1/DTD/svg11.dtd">
<svg version="1.1" xmlns="http://www.w3.org/2000/svg" xmlns:xlink="http://www.w3.org/1999/xlink" width="64" height="64" viewBox="0 0 64 64">
	<path d="M55.083 54.717c1.659-2.022 2.232-4.837 1.278-7.464l-0.879-2.412h5.288v-44.586h-57.363v44.587h30.848l3.363 9.239c0.958 2.629 3.211 4.411 5.775 4.892l1.48 4.925h13.59l-3.38-9.18zM53.394 39.166l-1.254-3.418-1.863-5.126c-2.836 1.035-4.299 4.164-3.262 6.993l2.040 5.57h-43.994v-41.274h54.055v41.274h-4.246l-1.476-4.019z" />
	<path d="M11.464 11.107c1.437-1.47 3.264-2.203 5.48-2.203 2.97 0 5.14 0.984 6.513 2.952 0.757 1.105 1.164 2.214 1.219 3.328h-3.726c-0.237-0.855-0.543-1.501-0.914-1.938-0.663-0.773-1.648-1.16-2.95-1.16-1.327 0-2.374 0.547-3.141 1.639-0.767 1.094-1.149 2.64-1.149 4.639 0 2.001 0.404 3.499 1.213 4.494 0.808 0.997 1.836 1.493 3.081 1.493 1.279 0 2.254-0.426 2.924-1.28 0.371-0.461 0.679-1.151 0.922-2.069h3.703c-0.32 1.944-1.135 3.523-2.446 4.743-1.313 1.217-2.996 1.825-5.045 1.825-2.537 0-4.532-0.821-5.983-2.467-1.454-1.654-2.179-3.921-2.179-6.799-0-3.114 0.826-5.513 2.477-7.198z" />
	<path d="M31.264 9.242h4.217l6.308 17.834h-4.041l-1.175-3.666h-6.568l-1.208 3.666h-3.898l6.366-17.834zM31.020 20.337h4.567l-2.254-7.016-2.313 7.016z" />
	<path d="M55.189 9.242v3.159h-5.336v14.676h-3.752v-14.676h-5.358v-3.159h14.445z" />
</svg>
