<?xml version="1.0" encoding="utf-8"?>
<!-- Generated by IcoMoon.io -->
<!DOCTYPE svg PUBLIC "-//W3C//DTD SVG 1.1//EN" "http://www.w3.org/Graphics/SVG/1.1/DTD/svg11.dtd">
<svg version="1.1" xmlns="http://www.w3.org/2000/svg" xmlns:xlink="http://www.w3.org/1999/xlink" width="64" height="64" viewBox="0 0 64 64">
	<path d="M55.1 54.673c1.656-2.018 2.227-4.828 1.276-7.45l-0.877-2.407h5.277v-44.501h-57.253v44.501h30.789l3.356 9.222c0.956 2.624 3.205 4.402 5.764 4.883l1.477 4.915h13.564l-3.373-9.162zM53.414 39.153l-1.252-3.411-1.859-5.117c-2.83 1.033-4.29 4.156-3.255 6.98l2.037 5.559h-43.91v-41.195h53.951v41.195h-4.237l-1.473-4.011z" />
	<path d="M18.842 11.147c1.434-1.467 3.258-2.199 5.469-2.199 2.965 0 5.131 0.982 6.5 2.947 0.757 1.103 1.162 2.21 1.217 3.322h-3.718c-0.237-0.853-0.542-1.498-0.912-1.934-0.662-0.771-1.644-1.158-2.944-1.158-1.324 0-2.37 0.546-3.135 1.636-0.765 1.092-1.146 2.635-1.146 4.63 0 1.997 0.403 3.492 1.21 4.486 0.806 0.995 1.832 1.491 3.076 1.491 1.276 0 2.249-0.425 2.918-1.278 0.37-0.46 0.678-1.149 0.921-2.066h3.696c-0.32 1.94-1.133 3.517-2.442 4.734-1.311 1.215-2.99 1.822-5.036 1.822-2.532 0-4.523-0.82-5.972-2.462-1.452-1.651-2.175-3.913-2.175-6.785 0-3.108 0.824-5.502 2.473-7.184z" />
	<path d="M47.931 9.286v3.152h-5.325v14.648h-3.745v-14.648h-5.347v-3.152h14.417z" />
</svg>
