<?xml version="1.0" encoding="utf-8"?>
<!-- Generated by IcoMoon.io -->
<!DOCTYPE svg PUBLIC "-//W3C//DTD SVG 1.1//EN" "http://www.w3.org/Graphics/SVG/1.1/DTD/svg11.dtd">
<svg version="1.1" xmlns="http://www.w3.org/2000/svg" xmlns:xlink="http://www.w3.org/1999/xlink" width="64" height="64" viewBox="0 0 64 64">
	<path d="M63.117 63.529h-5.633v-9.514h-50.585v9.514h-5.684v-35.866c0-1.551 1.222-2.811 2.778-2.811v-0.002c1.552 0 2.906 1.262 2.906 2.813v19.54h50.585v-13.846c0-1.552 1.266-2.812 2.819-2.812s2.813 1.26 2.813 2.812l0.001 30.173z" />
	<path d="M14.517 30.868c2.39 0 4.325 1.933 4.325 4.323 0 2.39-1.935 4.326-4.325 4.326-2.392 0-4.332-1.936-4.332-4.326 0-2.389 1.939-4.323 4.332-4.323z" />
	<path d="M18.842 42.914c0 1.175-0.954 2.133-2.132 2.133h-6.148c-1.178 0-2.13-0.957-2.13-2.133 0-1.173 0.952-2.126 2.13-2.126h6.148c1.178 0 2.132 0.953 2.132 2.126z" />
	<path d="M51.964 32.55c1.9 0 3.435 1.489 3.454 3.379l0.007 9.121h-34.712v-12.496l31.251-0.003z" />
	<path d="M31.394 30.571v-19.741c0-2.124-1.728-3.851-3.849-3.851-2.111 0-3.83 1.718-3.83 3.828 0 0.358-0.29 0.65-0.648 0.65-0.358 0-0.648-0.292-0.648-0.65 0-0.471-0.383-0.852-0.854-0.852-0.471 0-0.852 0.381-0.852 0.852 0 1.302 1.057 2.358 2.355 2.358 1.3 0 2.355-1.056 2.355-2.358 0-1.168 0.952-2.12 2.123-2.12 1.178 0 2.139 0.96 2.139 2.143v19.741h1.71z" />
	<path d="M24.224 24.585h2.172c0 0 0.427-1.851 0.427-4.805 0-2.953-0.427-4.803-0.427-4.803h-5.551c0 0-0.497 1.495-0.497 4.803 0 3.309 0.497 4.805 0.497 4.805h2.209c0 0.005-0.005 0.009-0.005 0.016 0.002 0.037 0.070 3.601-2.265 5.97h1.538c1.94-2.591 1.905-5.74 1.902-5.986z" />
	<path d="M39.637 0.65v22.378h23.482v-22.378h-23.482zM41.644 5.734c0-1.651 1.333-2.987 2.992-2.987h13.499c1.651 0 2.989 1.335 2.989 2.987v8.114h-1.812l-1.122-3.050c-0.067-0.186-0.249-0.311-0.448-0.309-0.197 0-0.373 0.128-0.441 0.314 0 0-0.318 0.899-0.629 1.784-0.476-1.995-1.482-6.209-1.482-6.209-0.054-0.223-0.26-0.377-0.488-0.363-0.232 0.012-0.418 0.19-0.444 0.418 0 0-0.771 6.864-0.992 8.829-0.402-0.602-0.801-1.205-0.801-1.205-0.089-0.13-0.235-0.209-0.395-0.209 0 0-1.35 0-1.824 0-0.186-0.511-1.119-3.050-1.119-3.050-0.070-0.186-0.249-0.311-0.448-0.309-0.2 0-0.376 0.128-0.441 0.314 0 0-0.318 0.899-0.632 1.784-0.476-1.993-1.482-6.209-1.482-6.209-0.054-0.223-0.26-0.376-0.488-0.363-0.229 0.011-0.416 0.19-0.443 0.418 0 0-0.769 6.864-0.992 8.829-0.4-0.602-0.801-1.205-0.801-1.205-0.086-0.13-0.235-0.209-0.392-0.209h-1.363v-8.113h-0.001zM58.135 21.162h-13.499c-1.659 0-2.992-1.34-2.992-2.992v-3.377c0.335 0 0.869 0 1.108 0 0.233 0.348 1.379 2.074 1.379 2.074 0.112 0.167 0.314 0.244 0.506 0.197 0.192-0.046 0.337-0.209 0.36-0.406 0 0 0.508-4.53 0.836-7.428 0.546 2.302 1.224 5.136 1.224 5.136 0.049 0.204 0.225 0.353 0.434 0.362 0.211 0.012 0.402-0.116 0.471-0.314 0 0 0.385-1.091 0.727-2.058 0.365 0.99 0.785 2.128 0.785 2.128 0.065 0.186 0.244 0.309 0.441 0.309 0 0 1.505 0 1.9 0 0.232 0.348 1.38 2.074 1.38 2.074 0.111 0.167 0.311 0.244 0.504 0.197 0.193-0.046 0.339-0.209 0.36-0.406 0 0 0.511-4.53 0.838-7.431 0.548 2.304 1.224 5.138 1.224 5.138 0.049 0.204 0.226 0.353 0.434 0.362 0.211 0.012 0.402-0.116 0.471-0.314 0 0 0.388-1.091 0.727-2.058 0.362 0.99 0.783 2.128 0.783 2.128 0.067 0.186 0.244 0.309 0.441 0.309h2.144v3.377c0.001 1.651-1.337 2.992-2.988 2.992z" />
</svg>
