<?xml version="1.0" encoding="utf-8"?>
<!-- Generated by IcoMoon.io -->
<!DOCTYPE svg PUBLIC "-//W3C//DTD SVG 1.1//EN" "http://www.w3.org/Graphics/SVG/1.1/DTD/svg11.dtd">
<svg version="1.1" xmlns="http://www.w3.org/2000/svg" xmlns:xlink="http://www.w3.org/1999/xlink" width="64" height="64" viewBox="0 0 64 64">
	<path d="M31.624 17.396c4.731 0 8.568-3.837 8.568-8.568 0-4.731-3.837-8.566-8.568-8.566-4.732 0-8.57 3.836-8.57 8.566 0 4.731 3.837 8.568 8.57 8.568z" />
	<path d="M42.929 20.003c-1.404 0-5.656 0-10.087 0v8l1.855 0.454v-1.855c0-1.205 1.098-2.299 3.102-0.952 2.823 1.903 5.862 12.712 2.566 12.286-1.591-0.203-2.49-0.975-4.242-1.073-1.423-0.073-1.423-0.685-1.425-1.49-0.002-0.805 0-3.389 0-3.389v-1.44c-0.601-0.145-1.297-0.314-1.855-0.453v9.893c0 0 2.781-1.891 4.77-0.35 1.254 0.975 2.039 3.781-1.84 6.068-0.895 0.545-5.768 1.834-7.297-1.036h-1.725c-0.778 0-1.408 0.636-1.408 1.413s0.631 1.411 1.408 1.411h10.215c1.614 0 2.928 1.314 2.928 2.93 0 1.616-1.314 2.928-2.928 2.928h-10.57c-0.36 0-0.656 0.295-0.656 0.66 0 0.362 0.296 0.656 0.656 0.656h10.57c1.614 0 2.928 1.314 2.928 2.93s-1.314 2.928-2.928 2.928h-12.362c-0.627 0-1.136-0.507-1.136-1.136 0-0.626 0.509-1.136 1.136-1.136h12.362c0.36 0 0.656-0.294 0.656-0.656 0-0.363-0.296-0.659-0.656-0.659h-10.57c-1.614 0-2.928-1.315-2.928-2.928 0-1.616 1.314-2.932 2.928-2.932h10.57c0.36 0 0.656-0.294 0.656-0.656s-0.296-0.658-0.656-0.658h-10.215c-2.029 0-3.68-1.652-3.68-3.683 0-2.030 1.651-3.684 3.68-3.684h2.28c0.015 0 0.027 0.008 0.042 0.008h0.776c0.754 0 0.725-0.798 0.723-0.798v-11.394c-0.641 0.178-1.375 0.382-1.853 0.514v1.259c0 0 0.002 2.584 0 3.389 0 0.805-0.006 1.417-1.425 1.491-1.75 0.098-2.649 0.87-4.244 1.073-3.295 0.425-0.254-10.383 2.563-12.287 2.003-1.348 3.106-0.254 3.106 0.952v2.016l1.853-0.512v-8.105c-4.286 0-8.314 0-9.643 0-6.063 0-11.471 4.913-11.471 10.975 0 3.087 0 24.494 0 26.567 0 2.073 1.631 3.754 3.699 3.754 2.073 0 3.75-1.681 3.75-3.754 0-2.415 0-23.954 0-23.954h3.106v29.001h23.354v-29.001h3.139c0 0 0 21.539 0 23.954 0 2.073 1.679 3.754 3.751 3.754s3.702-1.681 3.702-3.754c0-2.073 0-23.48 0-26.567-0.001-6.059-4.968-10.972-11.029-10.972z" />
</svg>
