<?xml version="1.0" encoding="utf-8"?>
<!-- Generated by IcoMoon.io -->
<!DOCTYPE svg PUBLIC "-//W3C//DTD SVG 1.1//EN" "http://www.w3.org/Graphics/SVG/1.1/DTD/svg11.dtd">
<svg version="1.1" xmlns="http://www.w3.org/2000/svg" xmlns:xlink="http://www.w3.org/1999/xlink" width="64" height="64" viewBox="0 0 64 64">
	<path d="M18.204 19.566c3.416-1.529 4.947-5.539 3.416-8.953-1.529-3.416-5.545-4.945-8.961-3.416-3.421 1.529-4.952 5.538-3.418 8.954 1.531 3.419 5.547 4.946 8.963 3.415z" />
	<path d="M27.91 12.108c0.378-0.65 0.161-1.481-0.494-1.867-0.652-0.378-1.488-0.156-1.867 0.493-0.383 0.648-0.159 1.486 0.487 1.864 0.657 0.379 1.495 0.159 1.873-0.491z" />
	<path d="M40.495 4.841c0.379-0.65 0.161-1.486-0.493-1.866-0.653-0.379-1.491-0.156-1.869 0.494-0.38 0.65-0.156 1.486 0.489 1.864 0.661 0.383 1.492 0.163 1.873-0.491z" />
	<path d="M36.3 7.263c0.38-0.653 0.159-1.482-0.496-1.862-0.652-0.38-1.486-0.161-1.864 0.487-0.38 0.655-0.156 1.488 0.492 1.872 0.655 0.378 1.486 0.158 1.869-0.496z" />
	<path d="M44.691 2.42c0.378-0.65 0.159-1.484-0.491-1.869-0.654-0.376-1.49-0.154-1.871 0.496-0.378 0.653-0.159 1.486 0.494 1.864 0.652 0.381 1.488 0.161 1.869-0.491z" />
	<path d="M31.844 10.006c0.555-0.51 0.596-1.368 0.086-1.925-0.507-0.555-1.373-0.596-1.927-0.089-0.559 0.51-0.596 1.373-0.089 1.925 0.512 0.557 1.375 0.598 1.93 0.089z" />
	<path d="M27.91 14.636c0.378 0.653 0.161 1.486-0.494 1.869-0.652 0.378-1.488 0.159-1.867-0.491-0.383-0.65-0.159-1.486 0.487-1.869 0.657-0.376 1.495-0.157 1.873 0.491z" />
	<path d="M36.3 19.485c0.38 0.653 0.159 1.484-0.496 1.864-0.652 0.378-1.486 0.161-1.864-0.491-0.38-0.653-0.156-1.486 0.492-1.866 0.655-0.381 1.486-0.161 1.869 0.494z" />
	<path d="M55.058 22.162c-2.38 0-15.115 0-17.435 0-4.804 0-9.090 3.896-9.090 8.698 0 2.448 0 19.413 0 21.054 0 1.645 1.289 2.983 2.929 2.983 1.645 0 2.974-1.339 2.974-2.983 0-1.907 0-18.981 0-18.981h2.46v30.38h7.984v-8.232h2.539v8.232h7.989v-30.379h2.485c0 0 0 17.074 0 18.981 0 1.645 1.33 2.983 2.965 2.983 1.644 0 2.942-1.339 2.942-2.983 0-1.64 0-18.605 0-21.054 0.001-4.802-3.941-8.699-8.743-8.699zM40.764 25.324c-0.652 0.38-1.49 0.161-1.871-0.491-0.379-0.653-0.154-1.486 0.489-1.864 0.661-0.383 1.495-0.163 1.876 0.491 0.376 0.65 0.158 1.488-0.495 1.864zM44.96 27.748c-0.653 0.378-1.488 0.156-1.869-0.491-0.378-0.655-0.158-1.491 0.494-1.869s1.488-0.159 1.869 0.494c0.378 0.65 0.158 1.484-0.494 1.867z" />
	<path d="M31.844 16.74c0.555 0.51 0.596 1.369 0.086 1.928-0.507 0.553-1.373 0.593-1.927 0.089-0.559-0.51-0.596-1.377-0.089-1.931 0.512-0.555 1.375-0.595 1.93-0.086z" />
	<path d="M33.342 12.272c0.654 0.374 0.877 1.205 0.505 1.864-0.376 0.653-1.212 0.881-1.864 0.507-0.657-0.372-0.879-1.207-0.51-1.86 0.378-0.657 1.214-0.883 1.869-0.512z" />
	<path d="M46.099 6.604c-3.751 0-6.791 3.042-6.791 6.791 0 3.749 3.040 6.789 6.791 6.789 3.749 0 6.791-3.041 6.791-6.789 0-3.749-3.042-6.791-6.791-6.791zM42.722 8.917c0.379-0.655 1.21-0.883 1.867-0.507 0.653 0.376 0.879 1.205 0.506 1.864-0.376 0.653-1.21 0.881-1.864 0.507-0.654-0.376-0.881-1.209-0.508-1.864zM40.907 14.645c-0.654-0.376-0.879-1.212-0.509-1.864 0.379-0.657 1.212-0.883 1.869-0.507 0.655 0.374 0.879 1.203 0.501 1.862-0.371 0.655-1.208 0.883-1.86 0.51zM45.159 17.899c-0.376 0.654-1.21 0.881-1.864 0.51-0.655-0.376-0.881-1.21-0.507-1.865 0.378-0.655 1.21-0.884 1.866-0.507 0.653 0.374 0.879 1.205 0.505 1.862zM47.615 14.136c-0.376 0.654-1.21 0.883-1.864 0.509-0.656-0.376-0.879-1.212-0.507-1.862 0.378-0.659 1.212-0.886 1.866-0.51 0.65 0.374 0.883 1.207 0.505 1.862z" />
	<path d="M37.417 12.127c0.736 0.163 1.2 0.886 1.040 1.626-0.163 0.732-0.893 1.2-1.629 1.040-0.736-0.163-1.201-0.895-1.040-1.627 0.17-0.738 0.895-1.205 1.629-1.039z" />
	<path d="M39.338 17.625c0.734 0.165 1.2 0.888 1.040 1.626-0.165 0.732-0.895 1.203-1.629 1.040-0.738-0.161-1.201-0.895-1.038-1.626 0.163-0.738 0.893-1.203 1.627-1.040z" />
	<path d="M38.968 6.896c0.736 0.166 1.203 0.888 1.040 1.626-0.163 0.734-0.892 1.203-1.629 1.040-0.736-0.161-1.198-0.893-1.040-1.624 0.168-0.741 0.895-1.205 1.629-1.042z" />
	<path d="M17.35 38.812c0.487 0.902 1.434 1.504 2.544 1.504 1.255 0 2.335-0.748 2.768-1.851l5.167-15.164c0.528-1.547-0.301-3.226-1.846-3.753-1.552-0.528-3.228 0.304-3.753 1.848l-2.96 8.706-3.207-5.745c-0.759-1.194-1.916-2.148-3.361-2.632-3.344-1.117-6.956 0.686-8.073 4.028l-3.876 11.598c-0.283 0.704-0.467 1.956-0.467 2.612v23.35h11.598v-19.11l3.189-9.483 2.278 4.092z" />
</svg>
