<?xml version="1.0" encoding="utf-8"?>
<!-- Generated by IcoMoon.io -->
<!DOCTYPE svg PUBLIC "-//W3C//DTD SVG 1.1//EN" "http://www.w3.org/Graphics/SVG/1.1/DTD/svg11.dtd">
<svg version="1.1" xmlns="http://www.w3.org/2000/svg" xmlns:xlink="http://www.w3.org/1999/xlink" width="63" height="64" viewBox="0 0 63 64">
	<path d="M61.928 31.948c0 16.763-13.589 30.353-30.352 30.353-16.763 0-30.352-13.588-30.352-30.353 0-16.764 13.588-30.353 30.352-30.353 16.763 0 30.352 13.59 30.352 30.353zM31.576 8.38c-13.017 0-23.569 10.552-23.569 23.569 0 13.016 10.551 23.57 23.569 23.57 13.017 0 23.569-10.554 23.569-23.57 0.001-13.016-10.552-23.569-23.569-23.569zM25.363 24.895c0-4.788 3.071-6.469 6.14-6.469 1.827 0 3.391 0.169 4.641 1.717 2.924 3.619-0.339 7.131-4.057 8.99-2.631 1.316-3.874 3.546-3.874 6.651v6.946h6.943c0 0 0 0.073 0-4.094 0-6.25 4.020-4.679 6.944-8.588 3.954-5.288 3.099-11.249-2.267-15.496-6.138-4.861-13.084-2.449-15.020-1.133-1.609 1.093-7.309 5.153-6.213 13.887l6.747 0.014c0 0.001 0.014-0.817 0.014-2.425zM35.158 52.232v-7.126h-6.943v7.126h6.943z" />
</svg>
