<?xml version="1.0" encoding="utf-8"?>
<!-- Generated by IcoMoon.io -->
<!DOCTYPE svg PUBLIC "-//W3C//DTD SVG 1.1//EN" "http://www.w3.org/Graphics/SVG/1.1/DTD/svg11.dtd">
<svg version="1.1" xmlns="http://www.w3.org/2000/svg" xmlns:xlink="http://www.w3.org/1999/xlink" width="64" height="64" viewBox="0 0 64 64">
	<path d="M9.756 24.065c1.856 0 3.366 1.507 3.366 3.366 0 1.856-1.51 3.363-3.366 3.363s-3.364-1.508-3.364-3.364c-0-1.86 1.508-3.366 3.364-3.366z" />
	<path d="M32.062 5.333c2.443 0 4.429 1.984 4.429 4.43s-1.986 4.423-4.429 4.423c-2.442 0-4.424-1.978-4.424-4.423 0-2.446 1.982-4.43 4.424-4.43z" />
	<path d="M7.681 19.64l0.688 1.094c1.582-0.998 3.684-0.52 4.68 1.062l1.091-0.69c-1.376-2.183-4.274-2.842-6.459-1.466z" />
	<path d="M10.784 14.438l0.424 1.219c1.768-0.615 3.708 0.321 4.321 2.088l1.218-0.425c-0.85-2.438-3.525-3.73-5.963-2.881z" />
	<path d="M14.978 10.067l0.14 1.284c1.86-0.202 3.538 1.148 3.742 3.006l1.282-0.141c-0.28-2.565-2.596-4.427-5.163-4.149z" />
	<path d="M19.895 8.033c1.858 0.222 3.19 1.914 2.968 3.772l1.282 0.152c0.304-2.565-1.534-4.899-4.096-5.205l-0.154 1.282z" />
	<path d="M40.459 6.379c1.096 1.516 0.752 3.642-0.76 4.738l0.756 1.047c2.090-1.515 2.562-4.445 1.050-6.539l-1.046 0.755z" />
	<path d="M45.705 8.891c0.726 1.724-0.084 3.716-1.806 4.444l0.502 1.19c2.376-1.002 3.496-3.755 2.494-6.133l-1.19 0.5z" />
	<path d="M50.252 12.516c0.32 1.846-0.918 3.604-2.762 3.926l0.22 1.271c2.544-0.443 4.256-2.873 3.814-5.416l-1.272 0.22z" />
	<path d="M50.292 20.277l-0.070 1.288c2.578 0.14 4.789-1.841 4.933-4.42l-1.29-0.071c-0.102 1.868-1.704 3.306-3.574 3.204z" />
	<path d="M53.728 31.218c-1.872 0-3.39-1.506-3.39-3.362 0-1.857 1.517-3.362 3.39-3.362 1.87 0 3.39 1.505 3.39 3.362 0 1.856-1.52 3.362-3.39 3.362z" />
	<path d="M57.305 36.963l1.268 0.002 2.594 9.058c0.2 0.695 0.976 1.077 1.734 0.86 0.76-0.217 1.24-0.881 0.984-1.75l-2.667-9.292c-1.066-3.715-4.176-3.599-4.176-3.599h-6.627c0 0-3.107-0.116-4.176 3.599l-2.669 9.292c-0.254 0.869 0.226 1.533 0.986 1.75 0.758 0.217 1.534-0.165 1.731-0.86l2.596-9.058 1.266-0.002-3.465 12.084h14.090l-3.467-12.084z" />
	<path d="M9.686 35.677c1.214 0 1.928-0.444 1.954-3.8-1.217 0-2.652 0-3.854 0 0.028 3.356 0.678 3.8 1.9 3.8z" />
	<path d="M14.268 37.209h1.23c0 0 0 8.452 0 9.397 0 0.814 0.658 1.476 1.468 1.476 0.814 0 1.456-0.662 1.456-1.476 0-0.812 0-9.211 0-10.423 0-2.378-1.95-4.306-4.328-4.306-0.274 0-0.828 0-1.522 0 0 3.275-0.956 4.662-2.366 4.662v3.787c0.416 0.177 0.71 0.592 0.71 1.072 0 0.644-0.516 1.174-1.16 1.174-0.646 0-1.16-0.512-1.16-1.158 0-0.483 0.29-0.894 0.706-1.072v-3.79c-1.48 0-2.392-1.513-2.392-4.675-0.664 0-1.19 0-1.448 0-2.38 0-4.501 1.928-4.501 4.306 0 1.212 0 9.611 0 10.423 0 0.814 0.638 1.475 1.452 1.475 0.812 0 1.472-0.661 1.472-1.475 0-0.945 0-9.397 0-9.397h1.218v11.838h9.165v-11.837h-0z" />
	<path d="M38.819 21.477h-1.12v34.924c0 1.379-1.118 2.496-2.498 2.496s-2.497-1.117-2.497-2.496v-21.63h-1.28v21.63c0 1.379-1.122 2.496-2.502 2.496s-2.496-1.117-2.496-2.496v-34.924h-1.124l-0.002 12.879c0 1.053-0.854 1.906-1.906 1.906s-1.906-0.853-1.906-1.906v-14.24c0-3.136 2.244-4.912 5.317-4.912h10.513c3.072 0 5.317 1.777 5.317 4.912v14.24c0 1.053-0.854 1.906-1.906 1.906s-1.906-0.853-1.906-1.906l-0.006-12.879z" />
</svg>
