<?xml version="1.0" encoding="utf-8"?>
<!-- Generated by IcoMoon.io -->
<!DOCTYPE svg PUBLIC "-//W3C//DTD SVG 1.1//EN" "http://www.w3.org/Graphics/SVG/1.1/DTD/svg11.dtd">
<svg version="1.1" xmlns="http://www.w3.org/2000/svg" xmlns:xlink="http://www.w3.org/1999/xlink" width="64" height="64" viewBox="0 0 64 64">
	<path d="M32.189 17.601c4.822 0 8.729-3.907 8.729-8.723 0-4.82-3.907-8.725-8.729-8.725-4.819 0-8.727 3.905-8.727 8.725 0 4.816 3.909 8.723 8.727 8.723z" />
	<path d="M43.704 20.259c6.178 0 11.235 5.006 11.235 11.178 0 3.143 0 24.952 0 27.061 0 2.111-1.66 3.823-3.772 3.823-2.109 0-3.819-1.712-3.819-3.823 0-2.459 0-24.397 0-24.397h-3.196v29.538h-23.792v-29.538h-3.164c0 0 0 21.938 0 24.397 0 2.111-1.706 3.823-3.817 3.823-2.107 0-3.77-1.712-3.77-3.823 0-2.109 0-23.919 0-27.061 0-6.172 5.508-11.178 11.684-11.178 2.987 0 19.348 0 22.412 0zM29.042 51.877c-0.294-0.31-0.452-0.664-0.425-1.317 0.026-0.585 0.237-0.865 0.536-1.134 0.581-0.524 0.781-1.52 0.781-2.335 0-1.607-1.379-2.903-3.096-2.903-1.445 0-2.765 1.3-3.202 2.137-0.336 0.671-0.782 2.017-0.833 3.595-0.049 1.488 0.22 2.692 0.572 3.91 0.48 1.327 1.776 2.835 3.462 2.835 1.717 0 3.096-1.3 3.096-2.904 0-0.273-0.019-0.508-0.124-0.782-0.094-0.275-0.496-0.812-0.769-1.103zM34.736 52.98c-0.1 0.274-0.13 0.509-0.13 0.782 0 1.603 1.392 2.904 3.106 2.904 1.678 0 2.982-1.509 3.467-2.835 0.352-1.219 0.617-2.423 0.563-3.911-0.047-1.577-0.501-2.925-0.83-3.595-0.435-0.837-1.759-2.137-3.2-2.137-1.714 0-3.106 1.296-3.106 2.903 0 0.815 0.215 1.811 0.794 2.335 0.297 0.269 0.508 0.549 0.536 1.133 0.021 0.653-0.139 1.008-0.425 1.317-0.281 0.289-0.676 0.827-0.776 1.102z" />
</svg>
