<?xml version="1.0" encoding="utf-8"?>
<!-- Generated by IcoMoon.io -->
<!DOCTYPE svg PUBLIC "-//W3C//DTD SVG 1.1//EN" "http://www.w3.org/Graphics/SVG/1.1/DTD/svg11.dtd">
<svg version="1.1" xmlns="http://www.w3.org/2000/svg" xmlns:xlink="http://www.w3.org/1999/xlink" width="64" height="64" viewBox="0 0 64 64">
	<path d="M37.852 51.571l-15.464-8.931 1.532-2.651 15.461 8.931z" />
	<path d="M53.631 56.656c4.466-4.218 7.296-10.144 7.296-16.758 0-8.149-4.28-15.499-10.935-19.627l7.456-12.906-1.171-0.675 1.839-3.198-4.821-2.783-1.843 3.193-1.233-0.712-18.33 31.752 1.601 0.924-2.273 3.932 4.028 2.326 2.274-3.934 1.599 0.924 7.708-13.349c4.726 3.013 7.759 8.292 7.759 14.134 0 9.24-7.522 16.758-16.763 16.758-6.187 0-13.506 0-13.506 0v6.345h38.018v-6.345c-0 0-5.629 0-8.701 0z" />
	<path d="M19.883 7.865v-5.037h0.62l-0.009-1.208h-5.649l0.009 1.208h0.666v5.037h-4.215v-5.037h0.618l-0.007-1.208h-5.654l0.011 1.208h0.666v5.037h-6.189v25.231h25.269v-25.231h-6.134zM23.879 30.96h-20.992v-20.959h4.051v16.12c0 1.22 0.997 2.211 2.2 2.211 1.205-0.005 2.166-0.993 2.166-2.211v-16.12h4.215v16.12c0 1.22 0.998 2.211 2.201 2.211 1.205-0.005 2.166-0.993 2.164-2.211v-16.12h3.995v20.959h0z" />
</svg>
