<?xml version="1.0" encoding="utf-8"?>
<!-- Generated by IcoMoon.io -->
<!DOCTYPE svg PUBLIC "-//W3C//DTD SVG 1.1//EN" "http://www.w3.org/Graphics/SVG/1.1/DTD/svg11.dtd">
<svg version="1.1" xmlns="http://www.w3.org/2000/svg" xmlns:xlink="http://www.w3.org/1999/xlink" width="64" height="64" viewBox="0 0 64 64">
	<path d="M32.116 15.813c-4.432 0-8.031-3.568-8.031-7.967 0-4.398 3.599-7.964 8.031-7.964 4.433 0 8.030 3.566 8.030 7.964 0 4.399-3.597 7.967-8.030 7.967z" />
	<path d="M53.853 52.949c-1.798 0.516-3.637-0.389-4.109-2.037l-6.148-21.463-2.998-0.004 9.825 34.246h-36.612l9.827-34.246-3.003 0.004-6.146 21.463c-0.473 1.648-2.313 2.553-4.107 2.037-1.799-0.516-2.935-2.087-2.331-4.145l6.323-22.022c2.526-8.801 9.894-8.526 9.894-8.526h15.701c0 0 7.366-0.275 9.895 8.526l6.321 22.022c0.605 2.058-0.532 3.629-2.33 4.145zM32.119 37.915c-6.559 0-11.874 5.311-11.874 11.871 0 6.555 5.315 11.872 11.874 11.872 6.552 0 11.868-5.316 11.868-11.872 0-6.56-5.314-11.871-11.868-11.871zM34.67 46.896c-1.426-0.671-2.033-2.371-1.358-3.799 0.675-1.42 2.375-2.028 3.797-1.354 1.425 0.676 2.028 2.377 1.355 3.801-0.676 1.42-2.373 2.028-3.795 1.352zM37.327 50.869c-0.281 0.597-1.783 3.762-2.088 4.398-0.843 1.779-2.972 2.539-4.755 1.698-0.578-0.278-1.021-0.705-1.393-1.174-0.564-0.712-0.942-2.612-0.942-2.612-0.592 0.418-2.107 1.373-2.734 1.818-0.57 0.398-1.358 0.262-1.76-0.308-0.405-0.57-0.265-1.357 0.302-1.759 0.902-0.631 3.403-2.331 3.403-2.331 0.761-0.534 1.809-0.36 2.343 0.405l1.062 2.157 1.688-3.412-1.475-0.432c-0.324-0.093-0.591-0.316-0.749-0.615l-1.447-2.779c-0.314-0.602-0.081-1.345 0.523-1.658 0.6-0.316 1.343-0.079 1.658 0.52 0 0 0.87 1.673 1.205 2.318 0.795 0.233 4.028 1.173 4.028 1.173 0.175 0.055 0.322 0.154 0.455 0.269 0.768 0.489 1.074 1.479 0.675 2.323z" />
</svg>
