<?xml version="1.0" encoding="utf-8"?>
<!-- Generated by IcoMoon.io -->
<!DOCTYPE svg PUBLIC "-//W3C//DTD SVG 1.1//EN" "http://www.w3.org/Graphics/SVG/1.1/DTD/svg11.dtd">
<svg version="1.1" xmlns="http://www.w3.org/2000/svg" xmlns:xlink="http://www.w3.org/1999/xlink" width="64" height="64" viewBox="0 0 64 64">
	<path d="M28.556 37.179c-2.335 0-4.224 1.902-4.224 4.255 0 2.348 1.889 4.257 4.224 4.257 2.331 0 4.218-1.91 4.218-4.257-0.001-2.353-1.887-4.255-4.218-4.255z" />
	<path d="M38.241 37.179c-2.333 0-4.223 1.902-4.223 4.255 0 2.348 1.89 4.257 4.223 4.257 2.333 0 4.219-1.91 4.219-4.257 0-2.353-1.887-4.255-4.219-4.255z" />
	<path d="M20.483 38.86l-2.933 10.246h2.835l2.861-10.246z" />
	<path d="M0.668 33.755v15.352h9.658l4.628-15.352z" />
	<path d="M32.998 24.852c5.206 0 8.036-3.629 8.036-8.106 0-4.474-3.594-8.098-8.036-8.098-4.437 0-8.037 3.624-8.037 8.098 0 4.477 3.6 8.106 8.037 8.106z" />
	<path d="M43.685 37.068c-0.217 0.605-0.275 1.365 0.145 2.846l2.6 9.192h11.52v14.593h5.168v-62.974h-5.168v33.029h-12.576l-1.69 3.313z" />
	<path d="M16.237 63.699h34.333l-4.138-14.593h-26.071z" />
	<path d="M53.598 17.209l-3.38-13.769c-0.458-1.864-2.33-3.003-4.174-2.541-1.851 0.462-2.978 2.345-2.522 4.209l3.050 12.421-5.352 9.454h-15.68c-5.6 0-9.416 3.993-10.414 6.297l-0.171 0.474h30.422l7.871-13.987c0.437-0.775 0.564-1.692 0.351-2.56z" />
	<path d="M10.684 63.784c-0.32 0-0.645-0.045-0.968-0.137-1.829-0.54-2.878-2.468-2.347-4.313l2.957-10.227h7.224l-3.558 12.173c-0.438 1.519-1.816 2.504-3.308 2.504v0z" />
</svg>
