<?xml version="1.0" encoding="utf-8"?>
<!-- Generated by IcoMoon.io -->
<!DOCTYPE svg PUBLIC "-//W3C//DTD SVG 1.1//EN" "http://www.w3.org/Graphics/SVG/1.1/DTD/svg11.dtd">
<svg version="1.1" xmlns="http://www.w3.org/2000/svg" xmlns:xlink="http://www.w3.org/1999/xlink" width="64" height="64" viewBox="0 0 64 64">
	<path d="M3.094 5.96v13.217h-1.978c-0.374 0-0.678-0.301-0.678-0.678v-17.056c0-0.577 0.43-1.047 1.021-1.047h8.739c0.589 0 1.022 0.468 1.022 1.045v1.002h13.512c0.376 0 0.678 0.303 0.678 0.676v3.836h-11.534v-1.004c0-0.576-0.43-1.045-1.023-1.045h-8.735c-0.593 0.001-1.023 0.476-1.023 1.055z" />
	<path d="M30.722 27.182c0 0.375-0.302 0.676-0.678 0.676h-23.615c-0.376 0-0.678-0.301-0.678-0.676v-17.057c0-0.577 0.43-1.047 1.021-1.047h8.737c0.591 0 1.024 0.468 1.024 1.045v1.002h13.511c0.376 0 0.678 0.303 0.678 0.676v15.382h0zM20.249 17.472v-4.024h-4.024v4.024h-4.025v4.024h4.025v4.023h4.024v-4.023h4.022v-4.024h-4.022z" />
	<path d="M35.549 10.978v51.505h28.307v-51.505h-28.307zM62.080 55.197h-24.762v-19.454h24.762v19.454zM62.080 32.252h-24.762v-19.451h24.762v19.451z" />
	<path d="M60.283 14.46h-21.189v16.143h21.189v-16.143zM53.139 19.871h-6.977c-0.543 0-0.982-0.438-0.982-0.983 0-0.542 0.439-0.983 0.982-0.983h6.977c0.545 0 0.984 0.441 0.984 0.983 0 0.545-0.439 0.983-0.984 0.983z" />
	<path d="M60.296 37.398h-21.186v16.14h21.186v-16.14zM53.139 42.814h-6.977c-0.543 0-0.982-0.44-0.982-0.981 0-0.546 0.439-0.987 0.982-0.987h6.977c0.545 0 0.984 0.441 0.984 0.987 0 0.54-0.439 0.981-0.984 0.981z" />
</svg>
