<?xml version="1.0" encoding="utf-8"?>
<!-- Generated by IcoMoon.io -->
<!DOCTYPE svg PUBLIC "-//W3C//DTD SVG 1.1//EN" "http://www.w3.org/Graphics/SVG/1.1/DTD/svg11.dtd">
<svg version="1.1" xmlns="http://www.w3.org/2000/svg" xmlns:xlink="http://www.w3.org/1999/xlink" width="64" height="64" viewBox="0 0 64 64">
	<path d="M49.476 43.332v20.284h-25.499v-7.316h-3.746c-5.202 0-9.422-4.218-9.422-9.427v-6.679h-3.204c-1.064 0-1.933-0.867-1.933-1.927 0-0.268 0.048-0.522 0.144-0.749l4.993-12.573c0 0 0.516-5.208 0.986-7.202 2.079-8.971 12.079-17.111 22.923-17.111 13.192 0 23.891 10.7 23.891 23.904 0 7.625-3.572 14.421-9.133 18.796zM16.679 24.375c-1.462 0-2.657 1.193-2.657 2.662 0 1.479 1.195 2.673 2.657 2.673 1.476 0 2.677-1.195 2.677-2.673-0-1.469-1.202-2.662-2.677-2.662zM39.828 18.575c0 1.395 1.13 2.52 2.516 2.52 1.391 0 2.516-1.125 2.516-2.52 0-1.398-1.125-2.523-2.516-2.523-1.386 0-2.516 1.125-2.516 2.523zM20.811 15.843c0 1.393 1.13 2.521 2.525 2.521 1.397 0 2.525-1.128 2.525-2.521 0-1.397-1.128-2.527-2.525-2.527-1.394 0-2.525 1.13-2.525 2.527zM50.677 21.376l3.657-0.629v-3.52l-3.523-0.607c-0.166-0.638-0.408-1.251-0.71-1.833l2.135-3.032-2.477-2.486-2.927 2.062c-0.436-0.255-0.895-0.484-1.385-0.665-0.137-0.050-0.274-0.087-0.411-0.129l-0.638-3.655h-3.519l-0.594 3.52c-0.642 0.165-1.258 0.407-1.843 0.712l-3.028-2.14-2.497 2.491 2.074 2.915c-0.259 0.44-0.487 0.903-0.668 1.397-0.053 0.137-0.087 0.274-0.131 0.411l-3.021 0.518v-1.678l-2.307-0.396c-0.104-0.403-0.261-0.786-0.452-1.153l1.414-1.998-1.634-1.631-1.924 1.357c-0.281-0.163-0.57-0.316-0.886-0.434-0.081-0.030-0.165-0.037-0.248-0.063l-0.418-2.407h-2.297l-0.402 2.31c-0.405 0.107-0.79 0.265-1.16 0.458l-2.002-1.409-1.626 1.631 1.36 1.924c-0.163 0.279-0.316 0.568-0.431 0.884-0.031 0.083-0.050 0.165-0.076 0.251l-2.394 0.411v2.309l2.323 0.398c0.106 0.397 0.252 0.782 0.44 1.148l-1.413 2 1.628 1.633 1.931-1.36c0.281 0.165 0.572 0.318 0.888 0.436 0.081 0.031 0.165 0.037 0.246 0.065l0.418 2.407 2.296-0.002 0.403-2.307c0.403-0.107 0.786-0.263 1.156-0.455l1.994 1.406 1.634-1.63-1.358-1.924c0.163-0.279 0.314-0.566 0.429-0.879 0.033-0.083 0.039-0.17 0.068-0.255l1.772-0.306v2.889l3.517 0.605c0.166 0.642 0.408 1.258 0.714 1.843l-2.135 3.021 2.482 2.489 2.925-2.062c0.437 0.255 0.894 0.481 1.386 0.662 0.137 0.052 0.274 0.087 0.411 0.131l0.638 3.657h3.054l-0.252 1.465c-0.441 0.1-0.857 0.274-1.249 0.494l-1.46-1.032-1.145 1.146 0.988 1.399c-0.17 0.27-0.318 0.557-0.431 0.867-0.045 0.124-0.063 0.248-0.098 0.372l-1.772 0.303v1.615l1.696 0.294c0.098 0.444 0.272 0.859 0.494 1.254l-1.032 1.458 1.141 1.149 1.399-0.992c0.27 0.172 0.559 0.32 0.87 0.435 0.124 0.046 0.25 0.063 0.377 0.098l0.291 1.763h1.621l0.296-1.689c0.444-0.098 0.86-0.272 1.254-0.494l1.452 1.031 1.149-1.147-0.988-1.391c0.174-0.272 0.324-0.562 0.44-0.875 0.043-0.122 0.061-0.246 0.096-0.37l1.757-0.303v-1.621l-1.687-0.289c-0.098-0.442-0.272-0.86-0.494-1.251l1.029-1.461-1.147-1.145-1.397 0.982c-0.267-0.17-0.555-0.318-0.867-0.434-0.119-0.043-0.241-0.061-0.363-0.093l-0.309-1.763h-1.158l0.559-3.298c0.64-0.163 1.254-0.405 1.837-0.709l3.032 2.14 2.485-2.486-2.066-2.925c0.257-0.438 0.485-0.897 0.668-1.389 0.051-0.138 0.086-0.275 0.13-0.412zM41.752 36.72c0 1.395 1.134 2.523 2.527 2.523 1.386 0 2.512-1.127 2.512-2.523 0-1.393-1.125-2.521-2.512-2.521-1.393 0-2.527 1.127-2.527 2.521z" />
</svg>
