<?xml version="1.0" encoding="utf-8"?>
<!-- Generated by IcoMoon.io -->
<!DOCTYPE svg PUBLIC "-//W3C//DTD SVG 1.1//EN" "http://www.w3.org/Graphics/SVG/1.1/DTD/svg11.dtd">
<svg version="1.1" xmlns="http://www.w3.org/2000/svg" xmlns:xlink="http://www.w3.org/1999/xlink" width="64" height="64" viewBox="0 0 64 64">
	<path d="M15.111 8.293v-6.675h-6.675v6.675h-6.675v6.675h6.675v6.674h6.675v-6.674h6.675v-6.675z" />
	<path d="M36.176 29.012c4.605 0 8.341-3.739 8.341-8.343 0-4.609-3.736-8.34-8.341-8.34-4.605 0-8.341 3.731-8.341 8.34 0 4.603 3.736 8.343 8.341 8.343z" />
	<path d="M23.111 63.522v-7.402l-7.423 2.066c-0.545 0.217-1.137 0.338-1.755 0.338-2.625 0-4.753-2.134-4.753-4.755 0-0.987 0.3-1.902 0.811-2.659l11.907-16.327c1.293-1.77 3.098-3.743 6.905-3.743h14.395c3.805 0 5.612 1.973 6.903 3.743l11.907 16.327c0.512 0.757 0.813 1.673 0.813 2.659 0 2.622-2.13 4.755-4.753 4.755-0.618 0-1.212-0.121-1.755-0.338l-7.425-2.066v7.402h-25.776zM36 58.351v0l9.619-3.183-0.217-0.060c-6.636-1.953-4.052-10.721 2.583-8.763l0.907 0.305v-9.902l-12.892 4.212-12.891-4.212v9.902l0.902-0.305c6.64-1.958 9.224 6.81 2.584 8.763l-0.213 0.060 9.618 3.183z" />
</svg>
