<?xml version="1.0" encoding="utf-8"?>
<!-- Generated by IcoMoon.io -->
<!DOCTYPE svg PUBLIC "-//W3C//DTD SVG 1.1//EN" "http://www.w3.org/Graphics/SVG/1.1/DTD/svg11.dtd">
<svg version="1.1" xmlns="http://www.w3.org/2000/svg" xmlns:xlink="http://www.w3.org/1999/xlink" width="64" height="64" viewBox="0 0 64 64">
	<path d="M0.809 36.127h40.091v3.758h-40.091v-3.758z" />
	<path d="M32.275 28.227c0-2.628 2.131-4.755 4.755-4.755 2.621 0 4.758 2.127 4.758 4.755 0 2.62-2.137 4.757-4.758 4.757-2.624 0-4.755-2.137-4.755-4.757z" />
	<path d="M26.195 23.306h-15.929l-9.472 1.45v8.222l4.78 0.002c-0.379-0.613-0.609-1.329-0.609-2.101 0-2.219 1.804-4.024 4.023-4.024h8.723l7.071-1.478 0.392 1.878-7.265 1.517h-8.921c-1.163 0-2.106 0.942-2.106 2.106 0 1.153 0.927 2.086 2.078 2.101l17.272 0.002c2.67-0.021 4.814-2.172 4.814-4.833 0.001-2.672-2.162-4.843-4.851-4.843z" />
	<path d="M34.438 49.972c10.626 0 19.24-8.615 19.24-19.241 0-10.628-8.613-19.242-19.24-19.242-6.947 0-13.017 3.697-16.4 9.217h8.058c2.272-1.904 5.195-3.052 8.39-3.052 7.221 0 13.075 5.855 13.075 13.077 0 7.223-5.855 13.078-13.075 13.078-2.049 0-3.979-0.485-5.705-1.325h-9.552c3.518 4.547 9.014 7.487 15.209 7.487z" />
	<path d="M34.438 0.873c-13.166 0-24.328 8.551-28.259 20.399l3.669-0.571 5.954 0.002c3.575-6.629 10.578-11.135 18.635-11.135 11.688 0 21.163 9.476 21.163 21.164 0 11.689-9.474 21.163-21.163 21.163-7.339 0-13.8-3.739-17.596-9.414h-9.731c4.575 10.558 15.086 17.948 27.327 17.948 16.445 0 29.778-13.331 29.778-29.778 0-16.444-13.333-29.778-29.778-29.778zM41.195 7.644c-0.108 0.43-0.492 0.716-0.915 0.716-0.076 0-0.154-0.008-0.23-0.030-3.634-0.906-7.493-0.906-11.13 0-0.506 0.135-1.018-0.181-1.145-0.687-0.127-0.506 0.181-1.018 0.689-1.144 3.935-0.982 8.108-0.982 12.043 0 0.506 0.127 0.813 0.639 0.687 1.145z" />
</svg>
