<?xml version="1.0" encoding="utf-8"?>
<!-- Generated by IcoMoon.io -->
<!DOCTYPE svg PUBLIC "-//W3C//DTD SVG 1.1//EN" "http://www.w3.org/Graphics/SVG/1.1/DTD/svg11.dtd">
<svg version="1.1" xmlns="http://www.w3.org/2000/svg" xmlns:xlink="http://www.w3.org/1999/xlink" width="64" height="64" viewBox="0 0 64 64">
	<path d="M32.084 18.571c0.691 0.652 1.817 1.384 3.496 1.584-0.259 1.204-0.080 2.53 0.537 3.61 0.775 1.357 2.12 2.134 3.688 2.134h5.063c1.443 0 3.161 0.472 3.161 2.716v2.581h1.885v-2.581c0-2.837-1.933-4.6-5.046-4.6h-5.064c-1.136 0-1.742-0.644-2.051-1.185-0.534-0.934-0.54-2.21-0.016-3.1 0.176-0.299 0.173-0.672-0.009-0.969-0.182-0.296-0.509-0.467-0.86-0.45-1.43 0.086-2.633-0.301-3.492-1.11-0.741-0.699-1.166-1.671-1.166-2.667 0-1.308 0.764-3.754 3.615-3.836v2.215h1.885v-0.383c2.663 0.054 4.583 1.843 4.583 4.299 0 0.993-0.409 2.148-1.090 3.089-0.209 0.287-0.239 0.667-0.078 0.982 0.162 0.316 0.487 0.514 0.84 0.514h2.993c3.899 0 6.003 3.254 6.003 6.317v3.468h1.886v-3.468c0-4.032-2.952-8.202-7.89-8.202h-1.376c0.386-0.887 0.595-1.819 0.595-2.7 0-3.489-2.773-6.127-6.468-6.183v-2.398h-1.886v0.565c-3.609 0.075-5.501 2.912-5.501 5.722 0.002 1.512 0.643 2.984 1.761 4.037z" />
	<path d="M48.030 32.125h1.885v5.695h-1.885v-5.695z" />
	<path d="M50.977 32.125h1.884v5.695h-1.884v-5.695z" />
	<path d="M32.586 0c-17.322 0-31.413 14.092-31.413 31.414 0 17.321 14.092 31.413 31.413 31.413 17.322 0 31.414-14.092 31.414-31.413 0.001-17.322-14.091-31.414-31.413-31.414zM56.994 31.414c0 5.343-1.73 10.286-4.655 14.311l-7.883-7.882h2.519v-5.627h-8.145l-20.555-20.554c4.024-2.925 8.968-4.655 14.312-4.655 13.458 0 24.408 10.949 24.408 24.408zM8.179 31.414c0-5.282 1.691-10.174 4.555-14.174l14.975 14.975h-15.908v5.627h21.535l13.424 13.423c-4 2.861-8.891 4.554-14.174 4.554-13.456 0.002-24.406-10.946-24.406-24.406z" />
</svg>
