<?xml version="1.0" encoding="utf-8"?>
<!-- Generated by IcoMoon.io -->
<!DOCTYPE svg PUBLIC "-//W3C//DTD SVG 1.1//EN" "http://www.w3.org/Graphics/SVG/1.1/DTD/svg11.dtd">
<svg version="1.1" xmlns="http://www.w3.org/2000/svg" xmlns:xlink="http://www.w3.org/1999/xlink" width="64" height="64" viewBox="0 0 64 64">
	<path d="M41.144 9.231c0 4.892-3.966 8.858-8.858 8.858s-8.858-3.966-8.858-8.858c0-4.892 3.966-8.858 8.858-8.858 4.892 0 8.858 3.966 8.858 8.858z" />
	<path d="M32.271 36.604h-9.364v-6.76l-7.16 7.208c-3.235 3.236-7.621-0.912-4.38-4.153l11.856-11.88c0.962-0.955 2.015-1.563 3.685-1.563h10.633c1.67 0 2.798 0.589 3.787 1.563l11.976 11.996c3.085 3.084-1.417 7.272-4.378 4.156l-7.348-7.365v6.797l-9.308 0.001z" />
	<path d="M41.539 40.111l-7.037 7.039 5.165 5.156-5.293 5.294c-3.126 3.125 1.186 7.593 4.416 4.361l8.373-8.705c1.796-1.833 2.293-5.219 0.367-7.145-0.006-0.008-5.992-6-5.992-6z" />
	<path d="M22.909 40.111l7.038 7.039-5.165 5.156 5.293 5.294c3.125 3.125-1.185 7.593-4.416 4.361l-8.372-8.704c-1.798-1.833-2.294-5.219-0.367-7.145 0.005-0.009 5.991-6.001 5.991-6.001z" />
</svg>
