<?xml version="1.0" encoding="utf-8"?>
<!-- Generated by IcoMoon.io -->
<!DOCTYPE svg PUBLIC "-//W3C//DTD SVG 1.1//EN" "http://www.w3.org/Graphics/SVG/1.1/DTD/svg11.dtd">
<svg version="1.1" xmlns="http://www.w3.org/2000/svg" xmlns:xlink="http://www.w3.org/1999/xlink" width="64" height="64" viewBox="0 0 64 64">
	<path d="M32.171 1.048c-11.119 0-20.169 9.051-20.169 20.168 0 11.124 9.050 20.17 20.169 20.17 11.119 0 20.167-9.046 20.167-20.17-0.001-11.117-9.048-20.168-20.167-20.168zM32.171 39.519c-10.090 0-18.306-8.212-18.306-18.303 0-10.088 8.216-18.303 18.306-18.303 10.087 0 18.301 8.214 18.301 18.303 0 10.090-8.214 18.303-18.301 18.303z" />
	<path d="M21.731 19.888c0.885 0 2.991 0 3.872 0 0-0.891 0-3.038 0-3.927-0.88 0-2.987 0-3.872 0 0 0.889 0 3.036 0 3.927z" />
	<path d="M32.189 5.349c-8.755 0-15.876 7.126-15.876 15.877 0 8.753 7.12 15.872 15.876 15.872 8.751 0 15.869-7.119 15.869-15.872-0-8.751-7.119-15.877-15.869-15.877zM20.367 21.265v-6.682h6.635v6.682h-6.635zM27.202 33.481c-1.817 0-3.289-1.471-3.289-3.289 0-1.821 1.473-3.291 3.289-3.291 1.814 0 3.284 1.471 3.284 3.291 0 1.818-1.471 3.289-3.284 3.289zM31.18 26.175c-1.816 0-3.291-1.473-3.291-3.289 0-1.816 1.475-3.291 3.291-3.291 1.812 0 3.284 1.474 3.284 3.291s-1.473 3.289-3.284 3.289zM33.484 13.714c-1.909 0-3.461-1.554-3.461-3.467 0-1.916 1.552-3.464 3.461-3.464 1.914 0 3.462 1.548 3.462 3.464 0 1.912-1.548 3.467-3.462 3.467zM39.229 31.358c-1.823 0-3.293-1.473-3.293-3.289 0-1.818 1.47-3.291 3.293-3.291 1.814 0 3.287 1.473 3.287 3.291-0.001 1.816-1.473 3.289-3.287 3.289zM39.926 21.694c-1.814 0-3.289-1.475-3.289-3.291 0-1.821 1.475-3.291 3.289-3.291 1.821 0 3.293 1.47 3.293 3.291 0 1.816-1.472 3.291-3.293 3.291z" />
	<path d="M7.303 35.548v-12.696c0-1.801-1.474-3.267-3.287-3.267-1.805 0-3.266 1.466-3.266 3.267v17.387c0 2.404 0.865 4.726 2.417 6.54l10.842 11.514c1.076 1.011 1.339 1.909 1.339 3.269v2.096h11.8l0.013-4.987c0-1.901 0.155-4.438-2.222-6.929l-13.756-13.813c-0.49-0.472-1.133-0.73-1.814-0.73-1.439 0-2.61 1.167-2.61 2.603 0 0.621 0.22 1.224 0.621 1.699l6.635 7.108c0.43 0.503 1.158 1.452 1.519 2.616 0.195 0.605 0.251 1.195 0.261 1.872h-2.136c-0.009-0.483-0.044-0.87-0.16-1.229-0.208-0.672-0.625-1.275-0.938-1.663l-6.735-7.391c-0.847-0.854-1.311-1.961-1.311-3.123 0-1.744 1.050-3.35 2.786-4.142z" />
	<path d="M57.023 35.548v-12.696c0-1.801 1.474-3.267 3.286-3.267 1.806 0 3.267 1.466 3.267 3.267v17.387c0 2.404-0.864 4.726-2.417 6.54l-10.842 11.514c-1.076 1.011-1.339 1.909-1.339 3.269v2.096h-11.8l-0.013-4.987c0-1.901-0.155-4.438 2.222-6.929l13.756-13.813c0.49-0.472 1.133-0.73 1.814-0.73 1.439 0 2.61 1.167 2.61 2.603 0 0.621-0.219 1.224-0.621 1.699l-6.635 7.108c-0.43 0.503-1.158 1.452-1.519 2.616-0.196 0.605-0.251 1.195-0.262 1.872h2.136c0.008-0.483 0.044-0.87 0.16-1.229 0.208-0.672 0.625-1.275 0.938-1.663l6.735-7.391c0.847-0.854 1.311-1.961 1.311-3.123-0-1.744-1.049-3.35-2.786-4.142z" />
</svg>
