<?xml version="1.0" encoding="utf-8"?>
<!-- Generated by IcoMoon.io -->
<!DOCTYPE svg PUBLIC "-//W3C//DTD SVG 1.1//EN" "http://www.w3.org/Graphics/SVG/1.1/DTD/svg11.dtd">
<svg version="1.1" xmlns="http://www.w3.org/2000/svg" xmlns:xlink="http://www.w3.org/1999/xlink" width="63" height="64" viewBox="0 0 63 64">
	<path d="M38.575 52.965l-14.533-8.391 1.44-2.491 14.531 8.388z" />
	<path d="M53.406 57.744c4.202-3.962 6.859-9.534 6.859-15.748 0-7.662-4.021-14.567-10.277-18.448l7.005-12.133-1.101-0.638 1.733-3.001-4.53-2.616-1.732 2.998-1.163-0.669-17.227 29.844 1.508 0.871-2.137 3.699 3.78 2.181 2.137-3.695 1.504 0.87 7.243-12.55c4.447 2.83 7.292 7.79 7.292 13.287 0 8.686-7.067 15.748-15.753 15.748-5.812 0-12.695 0-12.695 0v5.963h35.733v-5.963c-0.001-0.001-5.289-0.001-8.179-0.001z" />
	<path d="M16.27 1.155c-8.056 0-14.611 6.556-14.611 14.609 0 8.057 6.556 14.611 14.611 14.611 8.053 0 14.607-6.554 14.607-14.611 0-8.053-6.553-14.609-14.607-14.609zM16.27 29.022c-7.31 0-13.261-5.948-13.261-13.258 0-7.308 5.951-13.258 13.261-13.258 7.306 0 13.256 5.951 13.256 13.258 0 7.31-5.95 13.258-13.256 13.258z" />
	<path d="M8.707 14.802c0.641 0 2.167 0 2.805 0 0-0.645 0-2.2 0-2.845-0.638 0-2.163 0-2.805 0 0 0.645 0 2.201 0 2.845z" />
	<path d="M16.282 4.27c-6.341 0-11.499 5.161-11.499 11.503 0 6.34 5.158 11.495 11.499 11.495 6.338 0 11.495-5.155 11.495-11.495 0-6.342-5.157-11.503-11.495-11.503zM7.72 15.801v-4.84h4.805v4.84h-4.805zM12.669 24.649c-1.314 0-2.382-1.066-2.382-2.382 0-1.32 1.067-2.387 2.382-2.387 1.313 0 2.38 1.067 2.38 2.387 0 1.316-1.066 2.382-2.38 2.382zM15.551 19.356c-1.315 0-2.384-1.066-2.384-2.382 0-1.316 1.068-2.384 2.384-2.384 1.313 0 2.38 1.068 2.38 2.384 0 1.315-1.066 2.382-2.38 2.382zM17.221 10.332c-1.384 0-2.508-1.128-2.508-2.511 0-1.39 1.124-2.509 2.508-2.509 1.385 0 2.507 1.119 2.507 2.509 0 1.383-1.122 2.511-2.507 2.511zM21.382 23.111c-1.321 0-2.386-1.066-2.386-2.384 0-1.316 1.065-2.382 2.386-2.382 1.313 0 2.38 1.066 2.38 2.382 0 1.318-1.066 2.384-2.38 2.384zM21.887 16.109c-1.315 0-2.382-1.068-2.382-2.384 0-1.318 1.066-2.384 2.382-2.384 1.318 0 2.386 1.066 2.386 2.384-0.001 1.316-1.068 2.384-2.386 2.384z" />
</svg>
