<?xml version="1.0" encoding="utf-8"?>
<!-- Generated by IcoMoon.io -->
<!DOCTYPE svg PUBLIC "-//W3C//DTD SVG 1.1//EN" "http://www.w3.org/Graphics/SVG/1.1/DTD/svg11.dtd">
<svg version="1.1" xmlns="http://www.w3.org/2000/svg" xmlns:xlink="http://www.w3.org/1999/xlink" width="64" height="64" viewBox="0 0 64 64">
	<path d="M26.843 15.521c0.867 0 1.572-0.7 1.572-1.572 0-0.865-0.705-1.569-1.572-1.569-0.867 0-1.572 0.705-1.572 1.569 0 0.871 0.705 1.572 1.572 1.572zM29.432 21.205c-1.066 0-1.643-1.083-1.648-1.095-0.245-0.468-0.823-0.65-1.289-0.405-0.464 0.241-0.65 0.814-0.412 1.283 0.042 0.083 1.099 2.132 3.349 2.132 0.882 0 1.615-0.188 2.204-0.545 0.562 0.387 1.289 0.598 2.18 0.598 2.060 0 3.032-2.143 3.074-2.235 0.054-0.125 0.083-0.254 0.083-0.383 0-0.367-0.214-0.718-0.568-0.873-0.232-0.105-0.492-0.116-0.731-0.024-0.239 0.087-0.429 0.272-0.535 0.506-0.002 0.008-0.514 1.096-1.324 1.096-0.716 0-1.033-0.182-1.167-0.298 0-0.197 0-1.21 0-1.617 0.641-0.122 1.144-0.692 1.144-1.381 0-0.796-0.646-1.473-1.406-1.473l-1.332 0.011c-0.805 0-1.46 0.659-1.46 1.462 0 0.692 0.486 1.278 1.141 1.427 0 0.385 0 1.283 0 1.506-0.171 0.125-0.552 0.308-1.303 0.308zM20.106 0.805c4.847-0.236 5.776 3.351 5.776 3.351s2.248-1.375 5.759-1.375c3.509 0 5.754 1.375 5.754 1.375s0.932-3.587 5.779-3.351c2.824 0.136 5.129 2.495 5.129 5.323 0 2.648-1.742 6.203-4.584 6.293l-0.361 0.011c0.081 0.481 0.112 1.823 0.112 2.178 0 6.525-5.308 11.837-11.828 11.837-6.522 0-11.831-5.312-11.831-11.837 0-0.355 0.029-1.696 0.114-2.178l-0.366-0.011c-2.839-0.090-4.579-3.645-4.579-6.293-0-2.828 2.303-5.187 5.126-5.323zM25.23 41.863v-4.687h4.144v-4.143h4.682v4.143h4.148v4.687h-4.148v4.143h-4.681v-4.143l-4.144-0.001zM10.153 41.291c-0.21-5.277 2.605-9.657 5.382-13.247l0.382-0.51c0.911-1.235 1.51-2.051 4.281-1.858 2.122 0.151 4.264 1.734 4.264 4.474 0 0.006 0 0.013 0 0.022-0.008 1.648-1.085 3.128-2.224 4.688-1.385 1.898-2.954 4.045-2.954 6.967 0 0.836 0.183 1.485 0.363 2.103 0.173 0.611 0.337 1.185 0.337 1.924 0 2.517-2.128 4.566-4.741 4.566-3.14 0.001-4.851-3.073-5.092-9.129zM23.962 63.19c-3.47 0-6.293-2.819-6.293-6.288 0-3.469 2.824-6.288 6.293-6.288 3.467 0 6.288 2.819 6.288 6.288 0 3.47-2.821 6.288-6.288 6.288zM39.424 63.19c-3.468 0-6.293-2.819-6.293-6.288 0-3.469 2.824-6.288 6.293-6.288 3.47 0 6.294 2.819 6.294 6.288 0 3.47-2.824 6.288-6.294 6.288zM48.033 50.421c-2.613 0-4.741-2.048-4.741-4.566 0-0.739 0.164-1.313 0.337-1.924 0.181-0.619 0.363-1.267 0.363-2.103 0-2.921-1.567-5.069-2.953-6.967-1.14-1.563-2.215-3.039-2.224-4.688 0-0.009 0-0.015 0-0.022 0-2.74 2.141-4.323 4.264-4.474 2.766-0.193 3.369 0.624 4.279 1.859l0.385 0.51c2.779 3.59 5.586 7.969 5.382 13.246-0.242 6.056-1.956 9.13-5.093 9.13zM36.458 15.521c0.869 0 1.574-0.7 1.574-1.572 0-0.865-0.705-1.569-1.574-1.569-0.865 0-1.569 0.705-1.569 1.569 0 0.871 0.705 1.572 1.569 1.572z" />
</svg>
