<?xml version="1.0" encoding="utf-8"?>
<!-- Generated by IcoMoon.io -->
<!DOCTYPE svg PUBLIC "-//W3C//DTD SVG 1.1//EN" "http://www.w3.org/Graphics/SVG/1.1/DTD/svg11.dtd">
<svg version="1.1" xmlns="http://www.w3.org/2000/svg" xmlns:xlink="http://www.w3.org/1999/xlink" width="64" height="64" viewBox="0 0 64 64">
	<path d="M50.579 56.62c0 1.654-1.34 2.991-2.989 2.991-1.652 0-2.991-1.336-2.991-2.991v-2.608h5.979l0.001 2.608z" />
	<path d="M42.69 63.723h-8.503l0.013-4.196h-2.849l-0.004 4.196h-8.519v-9.711h19.862z" />
	<path d="M20.852 56.62c0 1.654-1.337 2.991-2.992 2.991-1.647 0-2.987-1.336-2.987-2.991v-2.608h5.979v2.608z" />
	<path d="M32.729 0.704c4.266 0 7.722 3.458 7.722 7.726 0 4.266-3.456 7.724-7.722 7.724-4.269 0-7.727-3.458-7.727-7.724 0-4.268 3.458-7.726 7.727-7.726z" />
	<path d="M54.697 51.001h-43.94v-25.679h43.94v25.679zM47.834 27.443h-30.047v21.472h30.047v-21.472z" />
	<path d="M34.187 40.135v1.885h5.503c0.229 0 0.565 0.206 0.565 0.562 0 3.21-0.402 4.722-2.093 4.722-1.754 0-2.114-3.797-3.975-4.047 0 0 0 2.845 0 3.634h-2.941c0-0.789 0-3.641 0-3.641-1.953 0.148-2.268 4.054-4.091 4.054-1.69 0-2.001-1.512-2.001-4.722 0-0.356 0.337-0.562 0.565-0.562h5.526v-1.885h-5.721c-0.333 0-0.597-0.265-0.597-0.595 0-0.328 0.264-0.594 0.597-0.594h5.721v-1.885h-6.439c-0.328 0-0.595-0.265-0.595-0.596 0-0.326 0.266-0.595 0.595-0.595h6.439v-1.883h-6.044c-0.329 0-0.596-0.265-0.596-0.596 0-0.326 0.267-0.597 0.596-0.597h6.044v-1.882h-4.735c-0.331 0-0.596-0.269-0.596-0.594 0-0.333 0.265-0.6 0.596-0.6h4.735v-1.041h2.941v1.041h4.735c0.328 0 0.595 0.267 0.595 0.6 0 0.324-0.266 0.594-0.595 0.594h-4.735v1.881h6.062c0.331 0 0.597 0.272 0.597 0.597 0 0.331-0.266 0.596-0.597 0.596h-6.062v1.883h6.459c0.328 0 0.596 0.269 0.596 0.595 0 0.331-0.267 0.596-0.596 0.596h-6.459v1.885h5.722c0.329 0 0.596 0.265 0.596 0.594 0 0.329-0.267 0.595-0.596 0.595l-5.722 0.001z" />
	<path d="M41.729 18.044h-17.747c-3.211 0-6.182 1.713-7.853 4.268h33.194c-1.564-2.555-4.384-4.268-7.594-4.268z" />
</svg>
