<?xml version="1.0" encoding="utf-8"?>
<!-- Generated by IcoMoon.io -->
<!DOCTYPE svg PUBLIC "-//W3C//DTD SVG 1.1//EN" "http://www.w3.org/Graphics/SVG/1.1/DTD/svg11.dtd">
<svg version="1.1" xmlns="http://www.w3.org/2000/svg" xmlns:xlink="http://www.w3.org/1999/xlink" width="64" height="64" viewBox="0 0 64 64">
	<path d="M46.405 30.927h-7.217v-8.445c2.854-2.246 4.692-5.734 4.692-9.647 0-6.78-5.494-12.274-12.271-12.274-5.57 0-10.703 4.179-11.769 8.786-0.238 1.020-0.506 3.696-0.506 3.696l-2.559 6.457c-0.051 0.115-0.077 0.247-0.077 0.385 0 0.542 0.436 0.98 0.98 0.987 0.274-0.553 0.885-0.893 1.531-0.765 0.764 0.14 1.263 0.88 1.112 1.643-0.096 0.528-0.492 0.928-0.989 1.074v1.478c0 2.673 2.168 4.839 4.838 4.839h1.923v1.786h-7.818c-8.985-0.007-14.866 6.593-14.866 13.337v18.82l9.891-0.004v-16.293h2.848v16.293l31.565 0.004v-16.296h2.919v16.296l9.678-0.004 0.007-20.593c0.001-5.13-5.079-11.566-13.915-11.56zM22.306 18.19c-0.24 0.196-0.557 0.304-0.861 0.304-0.436 0-0.849-0.196-1.11-0.545-0.24-0.294-0.339-0.664-0.294-1.034 0.043-0.383 0.238-0.708 0.532-0.938 0.589-0.468 1.515-0.359 1.972 0.23 0.24 0.304 0.338 0.674 0.294 1.045-0.043 0.37-0.228 0.708-0.532 0.938zM26.497 17.209v0.032l-0.306-0.021c-0.772-0.066-1.351-0.75-1.284-1.524 0.066-0.718 0.676-1.295 1.406-1.295l0.119 0.011c0.37 0.032 0.718 0.206 0.959 0.489 0.238 0.296 0.359 0.655 0.325 1.036-0.053 0.663-0.576 1.197-1.218 1.274zM29.555 18.983c-0.217-0.304-0.304-0.674-0.237-1.045 0.066-0.37 0.262-0.698 0.577-0.915 0.61-0.436 1.524-0.272 1.96 0.336 0.446 0.644 0.294 1.526-0.338 1.972-0.24 0.164-0.523 0.251-0.817 0.251-0.457 0-0.883-0.217-1.144-0.6zM31.984 29.666c-0.772 0-1.404-0.632-1.404-1.404 0-0.774 0.632-1.406 1.404-1.406 0.785 0 1.417 0.632 1.417 1.406 0 0.772-0.632 1.404-1.417 1.404zM31.984 24.504c-0.772 0-1.404-0.631-1.404-1.414 0-0.774 0.632-1.406 1.404-1.406 0.785 0 1.417 0.631 1.417 1.406 0 0.782-0.632 1.414-1.417 1.414zM37.907 36.782c5.122-0.178 8.047 11.322 6.283 22.060-1.037 4.556-3.755-0.119-6.144-0.522-2.643-0.446-4.132-0.754-4.257-2.139-0.459-5.016 1.464-19.301 4.118-19.398zM30.157 56.143c-0.126 1.381-1.611 1.688-4.256 2.133-2.388 0.403-5.24 5.351-6.144 0.523-1.762-10.74 1.165-22.24 6.28-22.057 2.659 0.098 4.579 14.38 4.12 19.401zM33.847 39.651c-0.523 0-1.002-0.294-1.253-0.761-0.359-0.688-0.086-1.535 0.6-1.896 0.674-0.349 1.556-0.066 1.906 0.6 0.172 0.325 0.206 0.706 0.085 1.066-0.109 0.359-0.347 0.655-0.685 0.829-0.195 0.109-0.425 0.163-0.652 0.163v0zM31.984 34.838c-0.653 0-1.208-0.447-1.371-1.078-0.087-0.371-0.021-0.751 0.174-1.066 0.196-0.327 0.502-0.544 0.872-0.632 0.739-0.185 1.511 0.293 1.697 1.034 0.185 0.75-0.283 1.514-1.034 1.699-0.108 0.021-0.229 0.042-0.338 0.042v0zM30.123 39.651c-0.219 0-0.447-0.053-0.655-0.162-0.686-0.359-0.946-1.21-0.587-1.895 0.349-0.666 1.231-0.949 1.895-0.6 0.338 0.174 0.576 0.468 0.698 0.827 0.109 0.359 0.075 0.74-0.099 1.078-0.239 0.468-0.717 0.751-1.251 0.751v0z" />
	<path d="M40.729 57.976c0.49 0 0.957-0.263 1.208-0.674 0.402-0.676 0.185-1.534-0.478-1.939-0.642-0.391-1.546-0.151-1.939 0.48-0.185 0.325-0.25 0.695-0.151 1.067 0.087 0.371 0.315 0.674 0.643 0.87 0.216 0.132 0.467 0.196 0.718 0.196v0z" />
	<path d="M42.198 53.087c0.751 0 1.371-0.597 1.403-1.348 0.034-0.785-0.576-1.438-1.403-1.472-0.764 0-1.383 0.6-1.416 1.35-0.011 0.381 0.119 0.74 0.37 1.013 0.262 0.272 0.611 0.436 0.991 0.457h0.055v-0z" />
	<path d="M41.13 48.089c0.229 0 0.436-0.053 0.632-0.151 0.697-0.349 0.979-1.187 0.631-1.884-0.327-0.676-1.197-0.981-1.883-0.642-0.339 0.174-0.587 0.457-0.708 0.817-0.119 0.359-0.098 0.74 0.077 1.078 0.24 0.478 0.718 0.783 1.252 0.783v0z" />
	<path d="M37.809 44.202c0.457 0 0.882-0.217 1.155-0.597 0.436-0.631 0.283-1.514-0.349-1.96-0.608-0.436-1.525-0.273-1.959 0.338-0.447 0.643-0.296 1.525 0.336 1.971 0.24 0.163 0.523 0.248 0.816 0.248v0z" />
	<path d="M23.241 57.976c0.262 0 0.51-0.064 0.729-0.196 0.314-0.196 0.544-0.5 0.643-0.87 0.086-0.359 0.032-0.742-0.164-1.057-0.391-0.642-1.295-0.871-1.937-0.491-0.317 0.198-0.544 0.502-0.643 0.872-0.087 0.359-0.034 0.739 0.164 1.067 0.249 0.426 0.717 0.675 1.208 0.675v0z" />
	<path d="M21.782 53.087h0.053c0.774-0.032 1.371-0.685 1.35-1.469-0.032-0.75-0.632-1.35-1.469-1.35-0.37 0.023-0.719 0.174-0.98 0.457-0.25 0.272-0.381 0.631-0.37 1.014 0.034 0.751 0.653 1.348 1.416 1.348v0z" />
	<path d="M22.826 48.089c0.544 0 1.036-0.304 1.275-0.782 0.163-0.338 0.185-0.718 0.066-1.078s-0.37-0.643-0.708-0.817c-0.685-0.339-1.557-0.034-1.883 0.642-0.173 0.339-0.196 0.719-0.075 1.079 0.119 0.349 0.37 0.642 0.706 0.806 0.196 0.097 0.413 0.15 0.619 0.15v0z" />
	<path d="M26.159 44.202c0.293 0 0.576-0.085 0.817-0.249 0.631-0.446 0.785-1.329 0.338-1.972-0.436-0.61-1.351-0.774-1.961-0.338-0.314 0.219-0.512 0.545-0.576 0.915-0.066 0.371 0.011 0.742 0.227 1.046 0.272 0.381 0.698 0.598 1.155 0.598v0z" />
</svg>
