<?xml version="1.0" encoding="utf-8"?>
<!-- Generated by IcoMoon.io -->
<!DOCTYPE svg PUBLIC "-//W3C//DTD SVG 1.1//EN" "http://www.w3.org/Graphics/SVG/1.1/DTD/svg11.dtd">
<svg version="1.1" xmlns="http://www.w3.org/2000/svg" xmlns:xlink="http://www.w3.org/1999/xlink" width="64" height="64" viewBox="0 0 64 64">
	<path d="M30.456 20.765c0 2.024-1.844 4.19-4.235 4.19v34.164c0 4.851-6.61 4.851-6.61 0v-34.164c-2.328 0-4.355-1.793-4.355-4.479v-18.802c0-1.636 2.364-1.698 2.364 0.064v13.898h1.98v-14.026c0-1.503 2.278-1.599 2.278 0.064v13.963h2.046v-14.007c0-1.572 2.21-1.635 2.21 0.062v13.945h2.013v-14.007c0-1.556 2.309-1.617 2.309 0.062v19.074z" />
	<path d="M48.089 6.045v53.059c0 4.743-6.624 4.673-6.624 0v-21.053h-3.526v-32.006c0-7.451 10.151-7.451 10.151 0z" />
</svg>
