<?xml version="1.0" encoding="utf-8"?>
<!-- Generated by IcoMoon.io -->
<!DOCTYPE svg PUBLIC "-//W3C//DTD SVG 1.1//EN" "http://www.w3.org/Graphics/SVG/1.1/DTD/svg11.dtd">
<svg version="1.1" xmlns="http://www.w3.org/2000/svg" xmlns:xlink="http://www.w3.org/1999/xlink" width="64" height="64" viewBox="0 0 64 64">
	<path d="M17.991 6.007c0 2.748-2.228 4.976-4.976 4.976s-4.976-2.228-4.976-4.976c0-2.748 2.228-4.976 4.976-4.976 2.748 0 4.976 2.228 4.976 4.976z" />
	<path d="M24.77 20.092v-2.514c0-2.644-2.142-4.788-4.788-4.788h-13.949c-2.644 0-4.788 2.143-4.788 4.788v2.514c-0.005 0.057-0.008 0.116-0.008 0.174v14.475c0 1.124 0.911 2.036 2.036 2.036 1.122 0 2.036-0.911 2.036-2.036v-14.26h1.365v16.297h0.010v23.029c0 1.498 1.217 2.713 2.714 2.713 1.5 0 2.715-1.215 2.715-2.713v-23.029h1.791v23.029c0 1.498 1.216 2.713 2.714 2.713 1.5 0 2.714-1.215 2.714-2.713v-23.029h0.008v-16.297h1.365v14.26c0 1.124 0.913 2.036 2.036 2.036 1.125 0 2.036-0.911 2.036-2.036v-14.475c0.001-0.060-0.002-0.118-0.007-0.174z" />
	<path d="M48.715 10.662c2.746 0 4.975-2.227 4.975-4.974 0-2.749-2.229-4.977-4.975-4.977-2.749 0-4.978 2.228-4.978 4.977 0 2.747 2.228 4.974 4.978 4.974z" />
	<path d="M62.666 32.116l-4.464-16.558c-0.041-0.15-0.1-0.294-0.171-0.426-0.507-1.551-1.963-2.674-3.683-2.674h-11.298c-1.793 0-3.298 1.22-3.742 2.875-0.030 0.073-0.055 0.149-0.077 0.227l-4.385 16.556c-0.292 1.085 0.353 2.202 1.439 2.493 1.086 0.291 2.202-0.354 2.493-1.439l3.445-13.006h1.435l-6.251 23.531h5.889v16.246c0 1.249 1.012 2.262 2.263 2.262 1.247 0 2.261-1.012 2.261-2.262v-16.246h1.8v16.246c0 1.249 1.013 2.262 2.263 2.262 1.248 0 2.261-1.012 2.261-2.262v-16.246h5.886l-6.274-23.531h1.472l3.506 13.006c0.293 1.085 1.408 1.73 2.493 1.439 1.086-0.292 1.73-1.408 1.44-2.493z" />
	<path d="M28.746 0.815h3.51v61.382h-3.51v-61.382z" />
</svg>
