<?xml version="1.0" encoding="utf-8"?>
<!-- Generated by IcoMoon.io -->
<!DOCTYPE svg PUBLIC "-//W3C//DTD SVG 1.1//EN" "http://www.w3.org/Graphics/SVG/1.1/DTD/svg11.dtd">
<svg version="1.1" xmlns="http://www.w3.org/2000/svg" xmlns:xlink="http://www.w3.org/1999/xlink" width="64" height="64" viewBox="0 0 64 64">
	<path d="M0.681 42.763h53.299v8.526h-53.299v-8.526z" />
	<path d="M58.433 41.218h-2.857v-3.911c0-3.4-2.604-4.113-4.791-4.113h-7.671c-2.376 0-4.415-1.179-5.59-3.235-0.934-1.635-1.206-3.645-0.813-5.471-2.544-0.3-4.249-1.41-5.297-2.398-1.693-1.598-2.665-3.827-2.665-6.12 0-4.314 2.938-8.681 8.553-8.681v2.857c-4.505 0-5.695 3.809-5.695 5.824 0 1.508 0.644 2.982 1.769 4.042 1.3 1.226 3.131 1.806 5.29 1.68 0.553-0.035 1.029 0.231 1.302 0.681 0.276 0.45 0.281 1.015 0.013 1.47-0.795 1.35-0.784 3.282 0.025 4.698 0.468 0.819 1.388 1.796 3.109 1.796h7.671c4.717 0 7.648 2.671 7.648 6.97v3.912z" />
	<path d="M62.882 41.218h-2.856v-5.252c0-4.64-3.189-9.572-9.099-9.572h-4.537c-0.536 0-1.028-0.3-1.272-0.779-0.244-0.478-0.199-1.053 0.116-1.488 1.034-1.426 1.652-3.175 1.652-4.68 0-3.778-2.998-6.52-7.127-6.52v-2.857c5.692 0 9.983 4.031 9.983 9.377 0 1.333-0.318 2.746-0.902 4.090h2.086c7.484 0 11.955 6.319 11.955 12.429v5.252z" />
	<path d="M55.576 42.629h2.857v8.627h-2.857v-8.627z" />
	<path d="M60.042 42.629h2.856v8.627h-2.856v-8.627z" />
</svg>
