<?xml version="1.0" encoding="utf-8"?>
<!-- Generated by IcoMoon.io -->
<!DOCTYPE svg PUBLIC "-//W3C//DTD SVG 1.1//EN" "http://www.w3.org/Graphics/SVG/1.1/DTD/svg11.dtd">
<svg version="1.1" xmlns="http://www.w3.org/2000/svg" xmlns:xlink="http://www.w3.org/1999/xlink" width="64" height="64" viewBox="0 0 64 64">
	<path d="M56.824 35.562v-12.521c0-1.777 1.454-3.222 3.241-3.222 1.781 0 3.221 1.445 3.221 3.222v17.145c0 2.371-0.852 4.661-2.383 6.449l-10.691 11.354c-1.061 0.999-1.321 1.883-1.321 3.223v2.067h-11.637l-0.013-4.918c0-1.873-0.153-4.376 2.191-6.832l13.566-13.622c0.483-0.466 1.117-0.721 1.789-0.721 1.419 0 2.574 1.152 2.574 2.569 0 0.613-0.217 1.207-0.612 1.674l-6.543 7.009c-0.424 0.497-1.142 1.434-1.498 2.582-0.192 0.596-0.247 1.177-0.258 1.844h2.106c0.008-0.475 0.044-0.857 0.157-1.211 0.206-0.662 0.616-1.258 0.925-1.64l6.642-7.29c0.835-0.842 1.293-1.932 1.293-3.078-0-1.721-1.035-3.304-2.747-4.084z" />
	<path d="M7.799 35.562v-12.521c0-1.777-1.454-3.222-3.241-3.222-1.78 0-3.221 1.445-3.221 3.222v17.145c0 2.371 0.853 4.661 2.384 6.449l10.692 11.354c1.060 0.999 1.321 1.883 1.321 3.223v2.067h11.637l0.013-4.918c0-1.873 0.153-4.376-2.191-6.832l-13.566-13.622c-0.483-0.466-1.117-0.721-1.789-0.721-1.419 0-2.574 1.152-2.574 2.569 0 0.613 0.217 1.207 0.612 1.674l6.544 7.009c0.424 0.497 1.142 1.434 1.498 2.582 0.193 0.596 0.247 1.177 0.258 1.844h-2.106c-0.008-0.475-0.043-0.857-0.158-1.211-0.205-0.662-0.616-1.258-0.925-1.64l-6.642-7.289c-0.835-0.842-1.293-1.933-1.293-3.078 0-1.722 1.035-3.305 2.747-4.085z" />
	<path d="M33.536 6.123c1.527 0 2.762-1.238 2.762-2.764 0-1.522-1.236-2.762-2.762-2.762-1.524 0-2.76 1.24-2.76 2.762-0 1.526 1.235 2.764 2.76 2.764z" />
	<path d="M18.549 6.138c-1.548 0-2.802-1.242-2.802-2.781 0-1.535 1.253-2.78 2.802-2.78 1.548 0 2.806 1.244 2.806 2.78 0 1.539-1.258 2.781-2.806 2.781z" />
	<path d="M47.261 16.802c1.069 0 1.937-0.868 1.937-1.938 0-1.069-0.868-1.938-1.937-1.938-1.072 0-1.94 0.868-1.94 1.938 0 1.069 0.868 1.938 1.94 1.938z" />
	<path d="M50.067 17.758c-0.682 0-4.566 0-5.227 0-0.024 0-1.749-0.157-1.749-0.157l-2.189-7.63c-0.881-3.072-3.457-2.978-3.457-2.978h-7.086c0 0-2.574-0.094-3.455 2.978l-1.081 3.757-1.078-3.757c-0.886-3.072-3.455-2.978-3.455-2.978h-5.483c0 0-2.576-0.094-3.457 2.978l-2.207 7.689c-0.21 0.72 0.184 1.266 0.814 1.448 0.628 0.179 1.271-0.138 1.432-0.711l2.15-7.495 1.047-0.002-3.138 12.977h2.773v9.218c0 0.759 0.612 1.377 1.373 1.377 0.759 0 1.38-0.618 1.38-1.377v-9.218h1.163v9.218c0 0.759 0.613 1.377 1.372 1.377 0.763 0 1.382-0.618 1.382-1.377v-9.218h2.725l-3.105-12.977 1.043 0.002 2.126 7.416c0.035 0.127 0.092 0.243 0.166 0.343 0.208 0.315 0.571 0.489 0.975 0.476 0.404 0.013 0.765-0.16 0.973-0.47 0.087-0.112 0.146-0.241 0.181-0.383l2.115-7.383 0.964-0.002c0 0 0 20.605 0 21.928 0 0.896 0.733 1.62 1.627 1.62 0.895 0 1.62-0.724 1.62-1.62 0-1.323 0-12.476 0-12.476h1.198c0 0 0 11.153 0 12.476 0 0.896 0.726 1.62 1.618 1.62 0.897 0 1.632-0.724 1.632-1.62 0-1.323 0-21.928 0-21.928l1.048 0.002 2.058 7.495c0.112 0.369 0.42 0.613 0.789 0.707 0.016 0.004 0.024 0.011 0.037 0.015 0.328 0.074 1.84 0.503 2.95 0.82 0 2.023 0 12.756 0 13.6 0 0.628 0.514 1.137 1.142 1.137 0.628 0 1.138-0.509 1.138-1.137 0-0.932 0-6.794 0-6.794h0.892c0 0 0 5.863 0 6.794 0 0.628 0.509 1.137 1.137 1.137s1.144-0.509 1.144-1.137c0-0.932 0-12.704 0-12.704h0.875c0 0 0 3.761 0 4.304 0 0.473 0.383 0.853 0.848 0.853 0.468 0 0.838-0.381 0.838-0.853 0-0.466 0-4.197 0-4.896 0.002-1.371-1.205-2.484-2.576-2.484z" />
</svg>
