<?xml version="1.0" encoding="utf-8"?>
<!-- Generated by IcoMoon.io -->
<!DOCTYPE svg PUBLIC "-//W3C//DTD SVG 1.1//EN" "http://www.w3.org/Graphics/SVG/1.1/DTD/svg11.dtd">
<svg version="1.1" xmlns="http://www.w3.org/2000/svg" xmlns:xlink="http://www.w3.org/1999/xlink" width="64" height="64" viewBox="0 0 64 64">
	<path d="M3.184 4.304c-0.109-0.199-0.037-0.448 0.162-0.555l2.97-1.618c0.198-0.109 0.444-0.037 0.554 0.164l1.191 2.173c4.503-1.35 9.492 0.57 11.835 4.861l-5.755 3.142c0.951 1.74 0.308 3.926-1.436 4.88-1.747 0.95-3.931 0.308-4.885-1.433l-5.757 3.138c-2.345-4.289-1.268-9.523 2.31-12.578l-1.189-2.175z" />
	<path d="M43.731 43.446h19.369v20.022h-19.369v-20.022z" />
	<path d="M41.511 53.453h-15.643c-2.727 0-4.946-2.213-4.946-4.942 0-2.732 2.219-4.941 4.946-4.941h15.643v9.883z" />
	<path d="M7.784 57.462c0-1.105 0.895-2.002 2.001-2.002h31.725v8.006h-33.726v-6.005z" />
	<path d="M19.814 47.487c0 3.295-2.677 5.966-5.975 5.966-3.3 0-5.976-2.671-5.976-5.966 0-3.293 2.675-5.963 5.976-5.963 3.299 0 5.975 2.67 5.975 5.963z" />
	<path d="M52.474 30.78l-3.361-9.569c-0.652-1.804-1.904-3.212-5.438-3.212h-15.516c-3.533 0-4.787 1.408-5.436 3.212l-3.36 9.569c-0.251 0.618-0.381 2.007 0.986 2.937l7.901 5.206c1.152 0.762 2.708 0.443 3.469-0.707 0.761-1.15 0.443-2.708-0.713-3.468l-6.271-4.133 1.765-4.869h2.443l-1.431 3.95 4.761 3.138c1.069 0.705 1.801 1.784 2.057 3.039 0.26 1.256 0.013 2.538-0.692 3.608-0.282 0.426-0.629 0.788-1.016 1.098h6.592c-0.387-0.31-0.732-0.673-1.017-1.098-0.705-1.070-0.952-2.352-0.694-3.608 0.258-1.255 0.99-2.334 2.058-3.039l4.764-3.138-1.437-3.95h2.445l1.769 4.869-6.274 4.133c-1.153 0.76-1.475 2.317-0.712 3.468s2.317 1.469 3.47 0.707l7.9-5.206c1.368-0.931 1.239-2.319 0.989-2.937z" />
	<path d="M37.461 8.634c-0.374 0.81-1.193 1.373-2.144 1.373-0.954 0-1.773-0.563-2.149-1.373h-4.328c-0.070 0.38-0.111 0.769-0.111 1.17 0 3.647 2.961 6.603 6.611 6.603 3.653 0 6.612-2.957 6.612-6.603 0-0.402-0.043-0.79-0.11-1.17h-4.38z" />
	<path d="M33.022 7.075c0.258-1.024 1.185-1.788 2.295-1.788 1.106 0 2.039 0.764 2.291 1.788h3.75c-1.041-2.284-3.34-3.876-6.017-3.876-2.675 0-4.977 1.592-6.017 3.876h3.699z" />
</svg>
