<?xml version="1.0" encoding="utf-8"?>
<!-- Generated by IcoMoon.io -->
<!DOCTYPE svg PUBLIC "-//W3C//DTD SVG 1.1//EN" "http://www.w3.org/Graphics/SVG/1.1/DTD/svg11.dtd">
<svg version="1.1" xmlns="http://www.w3.org/2000/svg" xmlns:xlink="http://www.w3.org/1999/xlink" width="64" height="64" viewBox="0 0 64 64">
	<path d="M41.684 23.057h4.922c0.973 0 1.764 0.789 1.764 1.762v3.793c0 0.975-0.791 1.763-1.764 1.763h-4.922c-0.973 0-1.763-0.789-1.763-1.763v-3.793c0-0.973 0.79-1.762 1.763-1.762v0z" />
	<path d="M53.674 23.057h4.92c0.975 0 1.763 0.789 1.763 1.762v3.793c0 0.975-0.788 1.763-1.763 1.763h-4.92c-0.974 0-1.763-0.789-1.763-1.763v-3.793c0.001-0.973 0.789-1.762 1.763-1.762v0z" />
	<path d="M29.45 23.057h4.923c0.973 0 1.762 0.789 1.762 1.762v3.793c0 0.975-0.789 1.763-1.762 1.763h-4.923c-0.971 0-1.761-0.789-1.761-1.763v-3.793c-0.002-0.973 0.788-1.762 1.761-1.762v0z" />
	<path d="M5.226 23.057h4.921c0.973 0 1.762 0.789 1.762 1.762v3.793c0 0.975-0.789 1.763-1.762 1.763h-4.921c-0.973 0-1.763-0.789-1.763-1.763v-3.793c0.001-0.973 0.791-1.762 1.763-1.762v0z" />
	<path d="M17.488 23.057h4.922c0.973 0 1.763 0.789 1.763 1.762v3.793c0 0.975-0.79 1.763-1.763 1.763h-4.922c-0.973 0-1.762-0.789-1.762-1.763v-3.793c0-0.973 0.789-1.762 1.762-1.762v0z" />
	<path d="M41.82 45.582h4.922c0.973 0 1.763 0.789 1.763 1.764v3.792c0 0.973-0.79 1.764-1.763 1.764h-4.922c-0.973 0-1.762-0.791-1.762-1.764v-3.792c0.001-0.973 0.789-1.764 1.762-1.764v0z" />
	<path d="M53.812 45.582h4.92c0.975 0 1.763 0.789 1.763 1.764v3.792c0 0.973-0.788 1.764-1.763 1.764h-4.92c-0.975 0-1.763-0.791-1.763-1.764v-3.792c0-0.973 0.788-1.764 1.763-1.764v0z" />
	<path d="M29.588 45.582h4.921c0.973 0 1.762 0.789 1.762 1.764v3.792c0 0.973-0.789 1.764-1.762 1.764h-4.922c-0.975 0-1.761-0.791-1.761-1.764v-3.792c-0.002-0.973 0.786-1.764 1.761-1.764v0z" />
	<path d="M5.363 45.582h4.921c0.973 0 1.763 0.789 1.763 1.764v3.792c0 0.973-0.79 1.764-1.763 1.764h-4.921c-0.973 0-1.762-0.791-1.762-1.764v-3.792c0-0.973 0.789-1.764 1.762-1.764v0z" />
	<path d="M17.625 45.582h4.921c0.974 0 1.763 0.789 1.763 1.764v3.792c0 0.973-0.789 1.764-1.763 1.764h-4.921c-0.974 0-1.763-0.791-1.763-1.764v-3.792c0.001-0.973 0.789-1.764 1.763-1.764v0z" />
	<path d="M47.7 34.418h4.922c0.973 0 1.763 0.788 1.763 1.761v3.793c0 0.975-0.79 1.762-1.763 1.762h-4.922c-0.973 0-1.763-0.788-1.763-1.762v-3.793c0.001-0.973 0.791-1.761 1.763-1.761v0z" />
	<path d="M35.466 34.418h4.923c0.973 0 1.762 0.788 1.762 1.761v3.793c0 0.975-0.789 1.762-1.762 1.762h-4.923c-0.973 0-1.761-0.788-1.761-1.762v-3.793c-0.002-0.973 0.788-1.761 1.761-1.761v0z" />
	<path d="M11.243 34.418h4.921c0.973 0 1.762 0.788 1.762 1.761v3.793c0 0.975-0.789 1.762-1.762 1.762h-4.921c-0.973 0-1.763-0.788-1.763-1.762v-3.793c0-0.973 0.79-1.761 1.763-1.761v0z" />
	<path d="M23.505 34.418h4.922c0.973 0 1.763 0.788 1.763 1.761v3.793c0 0.975-0.79 1.762-1.763 1.762h-4.922c-0.973 0-1.762-0.788-1.762-1.762v-3.793c-0.001-0.973 0.789-1.761 1.762-1.761v0z" />
	<path d="M11.466 56.28h40.961c0.974 0 1.762 0.787 1.762 1.762v3.733c0 0.974-0.788 1.761-1.762 1.761h-40.961c-0.973 0-1.763-0.787-1.763-1.761v-3.733c0-0.974 0.79-1.762 1.763-1.762v0z" />
	<path d="M58.398 12.79c-0.279-2.504-4.441-11.61-25.9-11.873-22.603-0.281-27.358 9.37-27.307 11.901h14.929c0-2.083 2.269-2.502 6.948-2.979 3.098-0.315 6.93-0.406 10.742 0 2.673 0.286 5.282 0.785 5.282 2.966l15.304-0.015z" />
	<path d="M5.166 18.19c0 0.964 0.786 1.656 1.666 1.656l0.008 0.007c0 0 11.635-0.007 11.644-0.007 0.923 0 1.65-0.748 1.65-1.657v-4.23l-14.968 0.002c0 0-0.006 4.218-0.003 4.222l0.002 0.008z" />
	<path d="M43.096 18.188c0 0.964 0.785 1.656 1.666 1.656l0.007 0.009c0 0 11.973-0.009 11.98-0.009 0.924 0 1.652-0.747 1.652-1.656v-4.23h-15.304c0 0-0.007 4.22-0.004 4.223l0.004 0.006z" />
</svg>
