<?xml version="1.0" encoding="utf-8"?>
<!-- Generated by IcoMoon.io -->
<!DOCTYPE svg PUBLIC "-//W3C//DTD SVG 1.1//EN" "http://www.w3.org/Graphics/SVG/1.1/DTD/svg11.dtd">
<svg version="1.1" xmlns="http://www.w3.org/2000/svg" xmlns:xlink="http://www.w3.org/1999/xlink" width="64" height="64" viewBox="0 0 64 64">
	<path d="M55.211 54.93c1.659-2.027 2.241-4.847 1.276-7.486l-0.874-2.416h5.305v-44.721h-57.541v44.721h30.943l3.376 9.259c0.959 2.637 3.219 4.428 5.792 4.911l1.586 4.801 13.277 0.002-3.139-9.070zM50.384 30.767c-2.835 1.033-4.3 4.175-3.267 7.012l2.046 5.582h-44.122v-41.389h54.212v41.389h-4.259l-4.611-12.594z" />
	<path d="M54.335 23.224c-12.253 12.25-32.122 12.25-44.375 0l18.005-18.014c2.306 2.311 6.051 2.311 8.358 0l18.012 18.014zM41.561 19.565c1.961-1.346 2.463-4.025 1.126-5.992-1.349-1.96-4.032-2.465-5.99-1.121-1.965 1.353-2.463 4.029-1.119 5.988 1.342 1.963 4.021 2.463 5.984 1.126zM36.913 22.098c-0.088-0.249-0.2-0.487-0.397-0.692 0 0-3.497-3.69-4.361-4.598 0.057-1.097 0.195-3.939 0.195-3.939 0.046-1.020-0.749-1.894-1.774-1.941-1.022-0.050-1.895 0.738-1.941 1.765l-0.221 4.73c-0.026 0.505 0.157 1.003 0.503 1.366l1.597 1.688-4.796 3.166 0.258-3.622c-0.123-1.397-1.357-2.428-2.748-2.309 0 0-4.56 0.315-6.214 0.454-1.047 0.093-1.829 1.016-1.734 2.064 0.088 1.046 1.016 1.826 2.060 1.738 1.154-0.102 3.853-0.194 4.948-0.284 0 0-0.947 2.758-0.751 4.12 0.123 0.892 0.379 1.791 0.923 2.589 1.684 2.457 5.043 3.086 7.497 1.401 0.879-0.599 5.248-3.587 6.070-4.151 1.156-0.797 1.516-2.324 0.885-3.544z" />
</svg>
