<?xml version="1.0" encoding="utf-8"?>
<!-- Generated by IcoMoon.io -->
<!DOCTYPE svg PUBLIC "-//W3C//DTD SVG 1.1//EN" "http://www.w3.org/Graphics/SVG/1.1/DTD/svg11.dtd">
<svg version="1.1" xmlns="http://www.w3.org/2000/svg" xmlns:xlink="http://www.w3.org/1999/xlink" width="64" height="64" viewBox="0 0 64 64">
	<path d="M47.075 25.851c6.761-6.78 6.817-17.777 0.098-24.584l-1.154 1.155c6.099 6.188 6.078 16.146-0.058 22.305l1.114 1.124z" />
	<path d="M43.789 4.65l1.115-1.116c5.487 5.575 5.405 14.484-0.118 20.029l0.003 0.003-1.101-1.113c4.883-4.904 4.947-12.869 0.101-17.804z" />
	<path d="M41.228 20.006l1.287 1.287c4.239-4.261 4.265-11.143 0.063-15.434l-1.294 1.295c3.488 3.576 3.469 9.307-0.055 12.853z" />
	<path d="M39.001 17.777l1.178 1.178c2.928-2.948 2.919-7.742 0.029-10.721l-1.151 1.151c2.21 2.351 2.215 6.087-0.055 8.393z" />
	<path d="M37.732 16.478c1.594-1.596 1.6-4.181 0.014-5.783l-1.15 1.15c0.953 0.953 0.953 2.497 0 3.449l-0.031 0.046 1.167 1.137z" />
	<path d="M25.823 5.109c-2.714 0.304-12.589 4.817-12.875 28.083-0.303 24.509 10.161 29.666 12.905 29.609v-16.188c-2.259 0-2.714-2.46-3.229-7.536-0.343-3.358-0.443-7.516 0-11.647 0.309-2.9 0.847-5.73 3.212-5.73l-0.012-16.592z" />
	<path d="M31.677 62.83c1.047 0 1.798-0.852 1.798-1.806l0.007-0.010c0 0-0.007-12.617-0.007-12.624 0-1.002-0.813-1.791-1.798-1.791h-4.586v16.229c0 0 4.575 0.008 4.576 0.005l0.010-0.004z" />
	<path d="M31.677 21.704c1.047 0 1.798-0.852 1.798-1.808l0.007-0.008c0 0-0.007-12.98-0.007-12.989 0-1.002-0.813-1.79-1.798-1.79h-4.586v16.594c0 0 4.575 0.009 4.576 0.003l0.010-0.002z" />
</svg>
