<?xml version="1.0" encoding="utf-8"?>
<!-- Generated by IcoMoon.io -->
<!DOCTYPE svg PUBLIC "-//W3C//DTD SVG 1.1//EN" "http://www.w3.org/Graphics/SVG/1.1/DTD/svg11.dtd">
<svg version="1.1" xmlns="http://www.w3.org/2000/svg" xmlns:xlink="http://www.w3.org/1999/xlink" width="64" height="64" viewBox="0 0 64 64">
	<path d="M48.596 33.421l-16.702-2.748 2.396-1.706 4.011 0.555 4.006-0.555z" />
	<path d="M38.301 1.858c3.347 0 6.062 2.713 6.062 6.064 0 3.35-2.135 6.064-6.062 6.064-3.35 0-6.067-2.715-6.067-6.064 0-3.351 2.717-6.064 6.067-6.064z" />
	<path d="M39.81 45.684v14.655c0 1.828 1.485 3.308 3.312 3.308 1.828 0 3.31-1.48 3.31-3.308v-14.655c0-1.825-1.482-3.31-3.31-3.31-1.827 0-3.312 1.485-3.312 3.31z" />
	<path d="M60.092 54.051c0 1.061-0.863 1.922-1.919 1.922h-10.152v-9.596h4.391v-9.59c0-1.056 0.861-1.918 1.918-1.918h3.843c1.056 0 1.919 0.861 1.919 1.918v17.264z" />
	<path d="M38.226 55.972h-19.709c-1.061 0-1.92-0.861-1.92-1.922v-17.264c0-1.056 0.859-1.918 1.92-1.918h3.841c1.059 0 1.92 0.861 1.92 1.918v9.59h13.948v9.596z" />
	<path d="M27.848 35.267c-0.297 1.803 0.925 3.509 2.728 3.806l14.459 2.383c1.804 0.292 3.507-0.925 3.804-2.73 0.296-1.804-0.923-3.51-2.728-3.803l-14.459-2.385c-1.803-0.294-3.505 0.925-3.804 2.729z" />
	<path d="M11.541 17.117c-4.718 0-8.555-3.837-8.555-8.558 0-4.721 3.837-8.559 8.555-8.559 4.718 0 8.56 3.839 8.56 8.559-0 4.721-3.842 8.558-8.56 8.558v0zM11.541 14.999c3.55 0 6.442-2.888 6.442-6.441 0-3.549-2.893-6.441-6.442-6.441-3.552 0-6.438 2.892-6.438 6.441-0 3.553 2.886 6.441 6.438 6.441v0z" />
	<path d="M11.585 9.689c-0.191 0.088-0.424 0.079-0.615-0.046-0.16-0.103-0.261-0.266-0.288-0.444l-0.009-4.974c0-0.357 0.29-0.644 0.644-0.644 0.356 0 0.643 0.288 0.643 0.644v0 3.859l3.299-1.554c0.319-0.154 0.705-0.016 0.857 0.305v0c0.151 0.324 0.013 0.706-0.307 0.857v0l-4.224 1.996z" />
	<path d="M38.301 18.81l7.861-1.28v5.526c1.252 0.942 3.881 2.919 3.881 2.919 0.373 0.376 0.222 0.804 0.134 0.925-0.222 0.292-0.634 0.352-0.927 0.134l-4.898-3.702c-1.017-0.716-2.418-0.473-3.134 0.541-0.716 1.015-0.475 2.418 0.54 3.135l8.369 5.878c0.389 0.274 0.942 0.461 1.493 0.461v0c0.47 0 1.023-0.195 1.435-0.487 0.878-0.624 1.201-1.731 0.903-2.751l-3.108-9.184c-0.83-2.282-2.923-4.968-6.067-4.968h-12.965c-3.143 0-5.236 2.686-6.067 4.968l-3.108 9.184c-0.299 1.020 0.026 2.128 0.904 2.751 0.409 0.292 0.964 0.487 1.432 0.487v0c0.554 0 1.108-0.186 1.496-0.461l8.369-5.878c1.015-0.717 1.256-2.12 0.54-3.135-0.718-1.014-2.119-1.257-3.134-0.541l-4.901 3.702c-0.29 0.217-0.703 0.158-0.925-0.134-0.088-0.121-0.242-0.549 0.132-0.925 0 0 2.632-1.977 3.883-2.919v-5.526l7.862 1.281z" />
</svg>
