<?xml version="1.0" encoding="utf-8"?>
<!-- Generated by IcoMoon.io -->
<!DOCTYPE svg PUBLIC "-//W3C//DTD SVG 1.1//EN" "http://www.w3.org/Graphics/SVG/1.1/DTD/svg11.dtd">
<svg version="1.1" xmlns="http://www.w3.org/2000/svg" xmlns:xlink="http://www.w3.org/1999/xlink" width="64" height="64" viewBox="0 0 64 64">
	<path d="M32.168 16.068c-4.331 0-7.847-3.485-7.847-7.785 0-4.298 3.516-7.783 7.847-7.783 4.331 0 7.847 3.485 7.847 7.783 0 4.301-3.515 7.785-7.847 7.785z" />
	<path d="M53.402 52.363c-1.757 0.504-3.553-0.383-4.020-1.991l-6.006-20.976-2.931-0.004 9.604 33.468h-35.78l9.604-33.468-2.935 0.004-6.009 20.976c-0.46 1.609-2.258 2.495-4.013 1.991-1.759-0.504-2.868-2.042-2.278-4.051l6.181-21.52c2.469-8.603 9.668-8.333 9.668-8.333h15.344c0 0 7.2-0.27 9.671 8.333l6.176 21.52c0.589 2.009-0.52 3.547-2.277 4.051zM32.206 33.291c-5.319 0-9.63 4.309-9.63 9.627 0 4.832 3.56 8.835 8.203 9.524v2.641h-2.897v2.883h2.897v2.894h2.882v-2.894h2.895v-2.883h-2.895v-2.645c4.632-0.7 8.172-4.698 8.172-9.52 0-5.318-4.307-9.627-9.626-9.627zM32.157 49.506c-3.71 0-6.716-3.008-6.716-6.718 0-3.708 3.006-6.718 6.716-6.718 3.713 0 6.717 3.010 6.717 6.718 0.001 3.71-3.005 6.718-6.717 6.718z" />
</svg>
