<?xml version="1.0" encoding="utf-8"?>
<!-- Generated by IcoMoon.io -->
<!DOCTYPE svg PUBLIC "-//W3C//DTD SVG 1.1//EN" "http://www.w3.org/Graphics/SVG/1.1/DTD/svg11.dtd">
<svg version="1.1" xmlns="http://www.w3.org/2000/svg" xmlns:xlink="http://www.w3.org/1999/xlink" width="65" height="64" viewBox="0 0 65 64">
	<path d="M21.774 17.084c-0.37-0.31-0.888-0.464-1.554-0.464h-2.628v4.113h2.628c0.666 0 1.183-0.169 1.554-0.502 0.37-0.336 0.554-0.865 0.554-1.593 0-0.726-0.184-1.244-0.554-1.553z" />
	<path d="M43.789 36.414c-0.811-2.217 0.336-4.668 2.556-5.478l1.457 4.016 0.984 2.675 1.156 3.148h3.323v-32.321h-42.332v32.321h34.453l-1.598-4.361zM24.002 22.116c-0.817 0.681-1.985 1.022-3.502 1.022h-2.907v5.021h-2.9v-13.965h5.997c1.383 0 2.484 0.361 3.307 1.080 0.822 0.721 1.233 1.835 1.233 3.344 0 1.65-0.41 2.814-1.227 3.497zM37.848 28.159h-10.583v-13.965h10.24v2.474h-7.388v2.966h6.783v2.426h-6.783v3.59h7.73v2.51zM39.342 14.194h11.312v2.474h-4.177v11.491h-2.938v-11.491h-4.197v-2.474z" />
	<path d="M55.492 0.37h-46.785c-4.582 0-8.312 3.73-8.312 8.316v46.78c0 4.586 3.729 8.317 8.312 8.317h46.785c4.584 0 8.315-3.731 8.315-8.317v-46.78c0-4.586-3.731-8.316-8.315-8.316zM54.561 42.070h-4.139l0.686 1.889c0.747 2.059 0.298 4.262-0.999 5.845l2.648 7.189h-10.643l-1.159-3.857c-2.009-0.375-3.776-1.772-4.524-3.831l-2.634-7.236h-24.158v-34.916h44.922v34.915z" />
</svg>
