<?xml version="1.0" encoding="utf-8"?>
<!-- Generated by IcoMoon.io -->
<!DOCTYPE svg PUBLIC "-//W3C//DTD SVG 1.1//EN" "http://www.w3.org/Graphics/SVG/1.1/DTD/svg11.dtd">
<svg version="1.1" xmlns="http://www.w3.org/2000/svg" xmlns:xlink="http://www.w3.org/1999/xlink" width="64" height="64" viewBox="0 0 64 64">
	<path d="M43.778 36.414c-0.812-2.216 0.334-4.666 2.554-5.477l1.459 4.015 0.982 2.677 1.156 3.148h3.325v-32.323h-42.332v32.323h34.453l-1.598-4.362zM17.931 24.858c0.633 0.781 1.438 1.17 2.413 1.17 1.001 0 1.765-0.334 2.29-1.003 0.291-0.361 0.532-0.901 0.723-1.621h2.9c-0.251 1.523-0.889 2.759-1.916 3.714-1.029 0.953-2.346 1.429-3.951 1.429-1.987 0-3.549-0.643-4.686-1.932-1.139-1.295-1.706-3.071-1.706-5.324 0-2.439 0.647-4.317 1.94-5.637 1.125-1.151 2.556-1.725 4.292-1.725 2.326 0 4.025 0.771 5.1 2.312 0.593 0.865 0.911 1.734 0.955 2.606h-2.918c-0.186-0.669-0.425-1.175-0.716-1.517-0.52-0.605-1.29-0.908-2.31-0.908-1.039 0-1.86 0.428-2.46 1.283-0.6 0.857-0.9 2.068-0.9 3.633-0 1.567 0.316 2.741 0.949 3.52zM36.521 28.161l-0.921-2.871h-5.143l-0.947 2.871h-3.053l4.985-13.967h3.303l4.94 13.967h-3.164zM38.867 16.668v-2.474h11.312v2.474h-4.178v11.493h-2.938v-11.493h-4.195z" />
	<path d="M31.252 22.883h3.576l-1.765-5.495z" />
	<path d="M55.479 0.37h-46.785c-4.582 0-8.312 3.73-8.312 8.316v46.78c0 4.586 3.729 8.317 8.312 8.317h46.785c4.584 0 8.315-3.731 8.315-8.317v-46.78c0-4.586-3.731-8.316-8.315-8.316zM54.55 42.072h-4.141l0.688 1.889c0.747 2.057 0.298 4.262-1.001 5.845l2.647 7.189h-10.642l-1.159-3.857c-2.008-0.377-3.772-1.772-4.522-3.831l-2.634-7.236h-24.158v-34.917h44.923v34.917z" />
</svg>
