<?xml version="1.0" encoding="utf-8"?>
<!-- Generated by IcoMoon.io -->
<!DOCTYPE svg PUBLIC "-//W3C//DTD SVG 1.1//EN" "http://www.w3.org/Graphics/SVG/1.1/DTD/svg11.dtd">
<svg version="1.1" xmlns="http://www.w3.org/2000/svg" xmlns:xlink="http://www.w3.org/1999/xlink" width="63" height="64" viewBox="0 0 63 64">
	<path d="M43.501 36.542c-0.808-2.206 0.335-4.645 2.542-5.453l1.455 3.998 2.129 5.798h3.31v-32.177h-42.146v32.177h34.303l-1.593-4.342zM45.345 14.425h2.887v13.901h-2.887v-13.901zM28.943 28.326h-2.708v-9.403c0-0.271 0.003-0.649 0.010-1.137 0.007-0.486 0.009-0.863 0.009-1.127l-2.634 11.666h-2.824l-2.615-11.666c0 0.264 0.003 0.64 0.009 1.127 0.006 0.488 0.010 0.866 0.010 1.137v9.403h-2.708v-13.901h4.228l2.529 10.93 2.513-10.93h4.18v13.901zM43.025 28.326h-3.206c-0.089-0.307-0.151-0.556-0.19-0.745-0.075-0.389-0.116-0.79-0.122-1.197l-0.018-1.293c-0.012-0.887-0.166-1.478-0.459-1.772-0.295-0.296-0.847-0.444-1.656-0.444h-2.838v5.45h-2.839v-13.901h6.651c0.949 0.019 1.682 0.139 2.192 0.358 0.512 0.221 0.947 0.544 1.301 0.971 0.295 0.353 0.528 0.743 0.7 1.17 0.171 0.428 0.257 0.916 0.257 1.462 0 0.661-0.166 1.31-0.5 1.947-0.333 0.639-0.883 1.091-1.651 1.355 0.642 0.257 1.096 0.623 1.363 1.099 0.267 0.474 0.401 1.199 0.401 2.173v0.933c0 0.635 0.026 1.067 0.077 1.293 0.077 0.358 0.255 0.622 0.536 0.793v0.348z" />
	<path d="M39.088 17.084c-0.299-0.163-0.747-0.245-1.345-0.245h-3.207v3.735h3.127c0.622 0 1.088-0.075 1.398-0.226 0.55-0.264 0.824-0.786 0.824-1.567 0.001-0.843-0.265-1.408-0.796-1.697z" />
	<path d="M55.15 0.661h-46.576c-4.562 0-8.275 3.713-8.275 8.278v46.566c0 4.565 3.713 8.279 8.275 8.279h46.576c4.564 0 8.274-3.714 8.274-8.279v-46.566c0-4.565-3.711-8.278-8.274-8.278zM54.226 42.173h-4.122l0.681 1.881c0.745 2.048 0.296 4.243-0.993 5.819l2.636 7.156h-10.599l-1.152-3.839c-1.998-0.373-3.757-1.764-4.504-3.813l-2.621-7.203h-24.055v-34.758h44.728v34.757z" />
</svg>
