<?xml version="1.0" encoding="utf-8"?>
<!-- Generated by IcoMoon.io -->
<!DOCTYPE svg PUBLIC "-//W3C//DTD SVG 1.1//EN" "http://www.w3.org/Graphics/SVG/1.1/DTD/svg11.dtd">
<svg version="1.1" xmlns="http://www.w3.org/2000/svg" xmlns:xlink="http://www.w3.org/1999/xlink" width="64" height="64" viewBox="0 0 64 64">
	<path d="M43.89 36.417c-0.807-2.217 0.336-4.67 2.551-5.475l3.601 9.834h3.325v-32.319h-42.331v32.319h34.452l-1.598-4.359zM42.684 23.057h-8.549v2.494h7.574c0.437 0 0.789 0.351 0.789 0.786s-0.353 0.788-0.789 0.788h-7.574v2.492h7.283c0.304 0 0.748 0.272 0.748 0.748 0 4.244-0.533 6.249-2.77 6.249-2.324 0-2.8-5.032-5.262-5.36v4.81h-3.895v-4.816c-2.586 0.194-3.002 5.367-5.415 5.367-2.236 0-2.649-2.006-2.649-6.249 0-0.477 0.444-0.748 0.75-0.748h7.314v-2.492h-7.574c-0.437 0-0.791-0.353-0.791-0.788 0-0.435 0.354-0.786 0.791-0.786h7.574v-2.494h-8.525c-0.434 0-0.786-0.353-0.786-0.789 0-0.434 0.353-0.788 0.786-0.788h8.525v-2.493h-8.002c-0.434 0-0.786-0.353-0.786-0.79 0-0.435 0.353-0.789 0.786-0.789h8.002v-2.492h-6.267c-0.439 0-0.789-0.353-0.789-0.788s0.351-0.791 0.789-0.791h6.267v-1.378h3.895v1.378h6.267c0.435 0 0.789 0.356 0.789 0.791s-0.354 0.788-0.789 0.788h-6.267v2.492h8.025c0.435 0 0.789 0.354 0.789 0.789 0 0.437-0.354 0.79-0.789 0.79h-8.025v2.493h8.549c0.434 0 0.788 0.354 0.788 0.788-0 0.437-0.355 0.789-0.788 0.789z" />
	<path d="M55.594 0.37h-46.785c-4.584 0-8.314 3.73-8.314 8.316v46.78c0 4.586 3.729 8.317 8.314 8.317h46.785c4.584 0 8.313-3.731 8.313-8.317v-46.78c0-4.586-3.729-8.316-8.313-8.316zM54.665 42.077h-4.142l0.683 1.885c0.754 2.062 0.3 4.264-0.996 5.847l2.451 7.082-10.367-0.002-1.239-3.749c-2.009-0.377-3.774-1.775-4.522-3.834l-2.636-7.23h-24.161v-34.922h44.929v34.922z" />
</svg>
