<?xml version="1.0" encoding="utf-8"?>
<!-- Generated by IcoMoon.io -->
<!DOCTYPE svg PUBLIC "-//W3C//DTD SVG 1.1//EN" "http://www.w3.org/Graphics/SVG/1.1/DTD/svg11.dtd">
<svg version="1.1" xmlns="http://www.w3.org/2000/svg" xmlns:xlink="http://www.w3.org/1999/xlink" width="64" height="64" viewBox="0 0 64 64">
	<path d="M55.446 0.465h-46.784c-4.584 0-8.313 3.729-8.313 8.315v46.781c0 4.586 3.729 8.317 8.313 8.317h46.784c4.584 0 8.315-3.731 8.315-8.317v-46.781c0-4.586-3.731-8.315-8.315-8.315zM15.647 9.671c3.15 0 5.704 2.556 5.704 5.704 0 3.153-2.554 5.706-5.704 5.706-3.152 0-5.705-2.553-5.705-5.706 0-3.148 2.554-5.704 5.705-5.704zM9.488 55.322v-29.646c0-1.751 1.421-3.17 3.171-3.17h4.725c0.674 0 1.295 0.215 1.806 0.614 0 0 6.165 4.822 7.866 6.153l5.886-1.882c1.399-0.447 2.892 0.323 3.34 1.724 0.447 1.395-0.324 2.892-1.723 3.341l-7.224 2.308c-0.836 0.268-1.753 0.104-2.446-0.439l-2.988-2.338 6.488 23.334h-18.902zM54.847 55.322h-8.186v-23.782h-1.139l-6.943 13.475c-0.648 1.287-2.212 1.81-3.498 1.165-1.288-0.645-1.81-2.207-1.166-3.493l8.324-16.008-3.231-0.52-0.258 0.936-7.974-1.786 0.224-0.999-1.491-0.334-0.228 0.998-0.595-0.132 0.685-3.055 0.599 0.132-0.222 0.998 1.491 0.332 0.224-0.994 7.973 1.786-0.141 0.91 3.339 0.975 0.575-1.104c0.888-1.384 1.949-2.184 4.286-2.184h7.356v32.685zM49.216 21.102c-3.157 0-5.714-2.558-5.714-5.711 0-3.158 2.557-5.718 5.714-5.718 3.152 0 5.712 2.56 5.712 5.718 0 3.153-2.56 5.711-5.712 5.711z" />
	<path d="M18.53 33.46h-3.421v2.871h-2.857v3.432h2.857v2.856h3.421v-2.856h2.867v-3.432h-2.867z" />
</svg>
