<?xml version="1.0" encoding="utf-8"?>
<!-- Generated by IcoMoon.io -->
<!DOCTYPE svg PUBLIC "-//W3C//DTD SVG 1.1//EN" "http://www.w3.org/Graphics/SVG/1.1/DTD/svg11.dtd">
<svg version="1.1" xmlns="http://www.w3.org/2000/svg" xmlns:xlink="http://www.w3.org/1999/xlink" width="64" height="64" viewBox="0 0 64 64">
	<path d="M41.326 19.251c-0.498-0.286-1.13-0.112-1.417 0.385-0.284 0.497-0.112 1.131 0.385 1.416 0.497 0.282 1.13 0.11 1.416-0.387 0.284-0.499 0.112-1.131-0.383-1.414z" />
	<path d="M38.481 18.195c0.496 0.284 1.13 0.11 1.412-0.387 0.287-0.501 0.117-1.13-0.38-1.414-0.499-0.286-1.131-0.114-1.419 0.385-0.28 0.495-0.11 1.13 0.387 1.416z" />
	<path d="M42.159 18.195c0.497 0.284 1.13 0.11 1.416-0.387 0.287-0.497 0.11-1.13-0.383-1.414-0.497-0.286-1.13-0.114-1.417 0.387-0.282 0.494-0.114 1.128 0.385 1.414z" />
	<path d="M40.245 15.261c0.497 0.284 1.13 0.11 1.416-0.385 0.284-0.501 0.112-1.13-0.384-1.416-0.498-0.286-1.13-0.112-1.417 0.385-0.284 0.497-0.112 1.13 0.386 1.416z" />
	<path d="M37.323 24.516c-0.489 0.287-0.659 0.92-0.372 1.416 0.289 0.495 0.925 0.662 1.421 0.373 0.496-0.286 0.661-0.922 0.375-1.416-0.289-0.497-0.922-0.664-1.424-0.373z" />
	<path d="M55.65 0.359l-46.784 0c-4.584 0-8.314 3.729-8.314 8.314v46.783c0 4.587 3.729 8.316 8.314 8.316h46.783c4.584 0 8.315-3.729 8.315-8.316v-46.783c0-4.585-3.731-8.314-8.315-8.314zM39.56 7.869c0.289-0.494 0.924-0.662 1.421-0.377 0.494 0.292 0.661 0.925 0.373 1.419-0.289 0.496-0.924 0.662-1.419 0.373-0.495-0.287-0.662-0.92-0.375-1.416zM42.424 12.089c2.847 0 5.157 2.31 5.157 5.157s-2.31 5.156-5.157 5.156c-2.849 0-5.157-2.309-5.157-5.156-0-2.847 2.308-5.157 5.157-5.157zM38.079 21.693c-0.126 0.556-0.679 0.913-1.237 0.789-0.561-0.122-0.912-0.679-0.788-1.235 0.124-0.561 0.678-0.913 1.235-0.789 0.557 0.126 0.912 0.674 0.79 1.235zM36.374 9.707c0.287-0.493 0.924-0.662 1.419-0.375 0.497 0.289 0.662 0.924 0.375 1.417-0.289 0.497-0.92 0.664-1.422 0.373-0.49-0.287-0.66-0.922-0.371-1.416zM35.772 13.102c0.127-0.563 0.679-0.915 1.237-0.791 0.559 0.126 0.913 0.674 0.789 1.235-0.124 0.557-0.678 0.913-1.237 0.789-0.559-0.122-0.91-0.678-0.789-1.233zM35.83 16.282c0.559 0.124 0.912 0.673 0.789 1.235-0.124 0.556-0.678 0.912-1.237 0.789-0.559-0.124-0.912-0.679-0.789-1.235 0.129-0.561 0.679-0.915 1.237-0.789zM34.605 23.286c-0.496 0.287-1.129 0.122-1.416-0.373-0.289-0.496-0.118-1.128 0.373-1.417 0.497-0.289 1.129-0.122 1.419 0.375 0.289 0.496 0.12 1.127-0.377 1.416zM33.19 11.545c0.287-0.492 0.92-0.659 1.416-0.37 0.497 0.289 0.666 0.919 0.377 1.414-0.291 0.497-0.922 0.664-1.419 0.377-0.492-0.291-0.662-0.924-0.373-1.421zM32.736 16.392c0.497 0.284 0.666 0.915 0.384 1.416-0.286 0.496-0.92 0.669-1.415 0.385-0.499-0.282-0.667-0.917-0.387-1.412 0.287-0.498 0.921-0.671 1.419-0.388zM30.2 13.143c0.421-0.385 1.079-0.354 1.463 0.067 0.387 0.423 0.356 1.075-0.065 1.462-0.422 0.387-1.077 0.356-1.466-0.067-0.385-0.419-0.357-1.075 0.067-1.462zM30.133 19.852c0.389-0.421 1.044-0.452 1.466-0.065 0.422 0.387 0.452 1.040 0.065 1.464-0.385 0.42-1.043 0.451-1.463 0.067-0.425-0.387-0.453-1.046-0.067-1.466zM17.029 12.539c2.594-1.161 5.644 0 6.805 2.594 1.163 2.592 0 5.638-2.594 6.799-2.594 1.163-5.644 0.003-6.807-2.593-1.165-2.594-0.002-5.639 2.596-6.8zM28.549 24.769l-3.924 11.516c-0.328 0.838-1.149 1.405-2.102 1.405-0.843 0-1.562-0.458-1.932-1.142l-1.73-3.108-2.422 7.201v14.512h-8.807v-17.732c0-0.498 0.139-1.449 0.354-1.984l2.943-8.808c0.848-2.537 3.592-3.907 6.131-3.058 1.097 0.368 1.976 1.092 2.552 1.999l2.436 4.363 2.248-6.611c0.399-1.173 1.672-1.804 2.85-1.404 1.173 0.401 1.803 1.675 1.402 2.85zM28.236 19.608c-0.496 0.287-1.13 0.12-1.417-0.373-0.29-0.494-0.12-1.128 0.37-1.419 0.498-0.286 1.135-0.119 1.422 0.373 0.287 0.496 0.122 1.128-0.375 1.419zM28.611 16.269c-0.287 0.494-0.924 0.661-1.422 0.373-0.491-0.287-0.661-0.924-0.37-1.416 0.287-0.493 0.922-0.662 1.417-0.375 0.497 0.292 0.663 0.924 0.375 1.417zM55.866 46.497c0 1.249-0.986 2.266-2.234 2.266-1.242 0-2.252-1.017-2.252-2.266 0-1.449 0-14.414 0-14.414h-1.887v23.071h-6.067v-6.251h-1.928v6.251h-6.063v-23.071h-1.868c0 0 0 12.966 0 14.414 0 1.249-1.009 2.266-2.259 2.266-1.245 0-2.224-1.017-2.224-2.266 0-1.245 0-14.129 0-15.988 0-3.647 3.255-6.606 6.903-6.606 1.761 0 11.432 0 13.24 0 3.647 0 6.64 2.959 6.639 6.606-0.001 1.859-0.001 14.743-0.001 15.988z" />
	<path d="M40.514 26.353c-0.495 0.287-0.662 0.922-0.375 1.419 0.289 0.492 0.924 0.661 1.419 0.373 0.496-0.291 0.662-0.924 0.375-1.418-0.289-0.495-0.924-0.662-1.419-0.375z" />
</svg>
