<?xml version="1.0" encoding="utf-8"?>
<!-- Generated by IcoMoon.io -->
<!DOCTYPE svg PUBLIC "-//W3C//DTD SVG 1.1//EN" "http://www.w3.org/Graphics/SVG/1.1/DTD/svg11.dtd">
<svg version="1.1" xmlns="http://www.w3.org/2000/svg" xmlns:xlink="http://www.w3.org/1999/xlink" width="63" height="64" viewBox="0 0 63 64">
	<path d="M55.826 0.723h-47.91c-4.027 0-7.291 3.264-7.291 7.291v47.91c0 4.027 3.264 7.291 7.291 7.291h47.91c4.027 0 7.291-3.264 7.291-7.291v-47.91c0-4.027-3.264-7.291-7.291-7.291zM31.576 54.597c-12.508 0-22.648-10.139-22.648-22.649 0-12.509 10.139-22.649 22.648-22.649 12.508 0 22.648 10.14 22.648 22.649 0 12.508-10.14 22.649-22.648 22.649z" />
	<path d="M31.576 14.362c-9.713 0-17.587 7.874-17.587 17.586 0 9.713 7.873 17.588 17.587 17.588 9.713 0 17.587-7.875 17.587-17.588 0-9.713-7.874-17.586-17.587-17.586zM34.249 47.084h-5.181v-5.318h5.181v5.318zM39.431 30.53c-2.182 2.916-5.182 1.745-5.182 6.408 0 3.109 0 3.055 0 3.055h-5.181v-5.183c0-2.317 0.927-3.98 2.891-4.963 2.774-1.387 5.208-4.008 3.026-6.708-0.933-1.155-2.1-1.281-3.463-1.281-2.29 0-4.582 1.254-4.582 4.827 0 1.201-0.010 1.81-0.010 1.81l-5.035-0.011c-0.818-6.517 3.435-9.547 4.636-10.363 1.445-0.982 6.628-2.782 11.208 0.846 4.004 3.169 4.642 7.618 1.692 11.563z" />
</svg>
