<?xml version="1.0" encoding="utf-8"?>
<!-- Generated by IcoMoon.io -->
<!DOCTYPE svg PUBLIC "-//W3C//DTD SVG 1.1//EN" "http://www.w3.org/Graphics/SVG/1.1/DTD/svg11.dtd">
<svg version="1.1" xmlns="http://www.w3.org/2000/svg" xmlns:xlink="http://www.w3.org/1999/xlink" width="64" height="64" viewBox="0 0 64 64">
	<path d="M15.765 18.934c2.782 0 5.046-2.262 5.046-5.045 0-2.78-2.264-5.045-5.046-5.045-2.78 0-5.040 2.265-5.040 5.045-0 2.783 2.26 5.045 5.040 5.045zM15.591 9.992c0.278 0 0.504 0.225 0.504 0.504v3.022l2.584-1.217c0.25-0.12 0.55-0.012 0.669 0.239 0.118 0.253 0.010 0.553-0.241 0.671l-3.307 1.563c-0.15 0.069-0.334 0.062-0.483-0.036-0.126-0.081-0.203-0.208-0.224-0.348l-0.007-3.895c0-0.279 0.227-0.504 0.504-0.504z" />
	<path d="M37.388 10.319h0.936v-0.937h0.937v-0.935h-0.937v-0.936h-0.936v0.936h-0.936v0.935h0.936z" />
	<path d="M55.552 0.406h-46.788c-4.583 0-8.312 3.73-8.312 8.316v46.782c0 4.586 3.73 8.316 8.312 8.316h46.788c4.584 0 8.316-3.729 8.316-8.316v-46.782c0-4.585-3.731-8.316-8.316-8.316zM37.861 7.142c1.337 0 3.525 0.562 4.742 1.895l-1.641 3.152c-0.717-0.927-1.839-1.523-3.101-1.523-1.247 0-2.357 0.582-3.074 1.492l-1.674-3.052c1.409-1.41 3.356-1.965 4.748-1.965zM40.866 14.787c0 1.663-1.349 3.011-3.012 3.011s-3.011-1.349-3.011-3.011c0-1.664 1.347-3.012 3.011-3.012s3.012 1.348 3.012 3.012zM31.359 21.342c0.275-0.965 1.495-2.673 3.6-2.684l5.866 0.004c2.059 0.051 3.253 1.727 3.527 2.68l2.575 8.42h-2.558l-1.941-6.46h-1.345l1.872 6.459h-10.215l1.886-6.459h-1.345l-1.89 6.46h-2.596l2.565-8.42zM23.833 32.102l23.172-0.007c1.411 0 2.55 1.105 2.562 2.505l0.005 6.764h-25.739v-9.263zM15.766 7.187c3.695 0 6.704 3.007 6.704 6.704 0 3.697-3.009 6.702-6.704 6.702-3.697 0-6.7-3.005-6.7-6.702 0-3.697 3.003-6.704 6.7-6.704zM19.238 37.263c-1.773 0-3.206-1.437-3.206-3.206 0-1.772 1.433-3.203 3.206-3.203 1.772 0 3.209 1.431 3.209 3.203 0 1.77-1.436 3.206-3.209 3.206zM22.446 39.782c0 0.871-0.707 1.578-1.578 1.578h-4.56c-0.874 0-1.576-0.707-1.576-1.578 0-0.87 0.702-1.577 1.576-1.577h4.56c0.871 0 1.578 0.707 1.578 1.577zM55.274 55.065h-4.177v-7.054h-37.503v7.054h-4.216v-26.589c0-1.152 0.907-2.087 2.057-2.087v-0.002c1.154 0 2.159 0.937 2.159 2.088v14.486h37.503v-10.266c0-1.151 0.936-2.087 2.093-2.087 1.153 0 2.084 0.936 2.084 2.087v22.369z" />
</svg>
