<?xml version="1.0" encoding="utf-8"?>
<!-- Generated by IcoMoon.io -->
<!DOCTYPE svg PUBLIC "-//W3C//DTD SVG 1.1//EN" "http://www.w3.org/Graphics/SVG/1.1/DTD/svg11.dtd">
<svg version="1.1" xmlns="http://www.w3.org/2000/svg" xmlns:xlink="http://www.w3.org/1999/xlink" width="64" height="64" viewBox="0 0 64 64">
	<path d="M55.504 0.48h-46.783c-4.584 0-8.314 3.73-8.314 8.315v46.78c0 4.586 3.729 8.316 8.314 8.316h46.783c4.584 0 8.315-3.73 8.315-8.316v-46.78c0-4.585-3.731-8.315-8.315-8.315zM53.67 28.451c0 1.596-1.308 2.892-2.916 2.892-1.61 0-2.916-1.295-2.916-2.892 0-1.597 1.305-2.892 2.916-2.892 1.609 0 2.916 1.294 2.916 2.892zM50.872 19.177l1.109 0.061c-0.124 2.219-2.026 3.923-4.243 3.802l0.060-1.108c1.609 0.088 2.987-1.149 3.074-2.756zM47.764 15.257l1.094-0.189c0.38 2.188-1.092 4.278-3.28 4.659l-0.19-1.093c1.587-0.277 2.651-1.789 2.376-3.377zM43.852 12.138l1.024-0.43c0.862 2.045-0.102 4.414-2.145 5.276l-0.432-1.023c1.481-0.626 2.178-2.34 1.554-3.822zM39.34 9.977l0.9-0.649c1.301 1.801 0.895 4.322-0.903 5.625l-0.65-0.9c1.301-0.943 1.596-2.771 0.654-4.075zM32.117 9.078c2.102 0 3.81 1.706 3.81 3.81s-1.708 3.805-3.81 3.805c-2.1 0-3.805-1.701-3.805-3.805s1.705-3.81 3.805-3.81zM21.784 10.297c2.204 0.263 3.785 2.271 3.523 4.478l-1.103-0.131c0.191-1.598-0.955-3.053-2.553-3.244l0.132-1.103zM18.944 19.389l-1.047 0.366c-0.528-1.52-2.197-2.325-3.717-1.796l-0.365-1.048c2.097-0.73 4.398 0.382 5.129 2.479zM16.701 22.645l-0.939 0.593c-0.857-1.36-2.665-1.772-4.025-0.913l-0.592-0.941c1.88-1.183 4.372-0.617 5.556 1.261zM12.93 25.191c1.597 0 2.895 1.296 2.895 2.896 0 1.596-1.299 2.893-2.895 2.893s-2.893-1.297-2.893-2.893c-0-1.6 1.297-2.896 2.893-2.896zM14.551 31.91c-0.023 2.887-0.636 3.268-1.681 3.268-1.051 0-1.61-0.382-1.634-3.268 1.034 0 2.267 0 3.315 0zM20.384 44.58c0 0.7-0.552 1.269-1.252 1.269-0.697 0-1.263-0.569-1.263-1.269 0-0.813 0-8.083 0-8.083h-1.058v10.182h-7.883v-10.183h-1.048c0 0 0 7.27 0 8.083 0 0.7-0.567 1.269-1.266 1.269-0.7 0-1.249-0.569-1.249-1.269 0-0.698 0-7.923 0-8.966 0-2.045 1.825-3.703 3.872-3.703 0.222 0 0.674 0 1.245 0 0 2.72 0.784 4.022 2.057 4.022v3.26c-0.358 0.153-0.607 0.507-0.607 0.922 0 0.556 0.442 0.996 0.998 0.996 0.554 0 0.998-0.456 0.998-1.010 0-0.413-0.253-0.769-0.611-0.922v-3.258c1.213 0 2.035-1.193 2.035-4.010 0.597 0 1.073 0 1.309 0 2.045 0 3.723 1.658 3.723 3.704 0 1.042 0 8.267 0 8.966zM20.761 16.839c-0.176-1.598-1.619-2.759-3.218-2.586l-0.12-1.104c2.209-0.239 4.201 1.363 4.442 3.569l-1.103 0.121zM41.214 34.042c0 0.905-0.735 1.639-1.639 1.639s-1.639-0.734-1.639-1.639l-0.006-11.078h-0.963v30.041c0 1.186-0.961 2.147-2.148 2.147s-2.148-0.961-2.148-2.147v-18.605h-1.101v18.605c0 1.186-0.965 2.147-2.152 2.147s-2.147-0.961-2.147-2.147v-30.041h-0.967l-0.002 11.078c0 0.905-0.735 1.639-1.639 1.639s-1.639-0.734-1.639-1.639v-12.249c0-2.697 1.93-4.226 4.574-4.226h9.043c2.642 0 4.574 1.528 4.574 4.226v12.249zM58.644 44.818c-0.652 0.186-1.319-0.142-1.491-0.74l-2.231-7.792-1.091-0.002 2.983 10.394h-12.12l2.981-10.394-1.089 0.002-2.232 7.792c-0.17 0.598-0.838 0.927-1.49 0.74-0.654-0.187-1.067-0.758-0.848-1.505l2.296-7.993c0.919-3.196 3.592-3.096 3.592-3.096h5.701c0 0 2.675-0.1 3.592 3.096l2.294 7.993c0.221 0.747-0.192 1.318-0.846 1.505z" />
</svg>
