<?xml version="1.0" encoding="utf-8"?>
<!-- Generated by IcoMoon.io -->
<!DOCTYPE svg PUBLIC "-//W3C//DTD SVG 1.1//EN" "http://www.w3.org/Graphics/SVG/1.1/DTD/svg11.dtd">
<svg version="1.1" xmlns="http://www.w3.org/2000/svg" xmlns:xlink="http://www.w3.org/1999/xlink" width="64" height="64" viewBox="0 0 64 64">
	<path d="M54.934 0.661h-46.358c-4.543 0-8.238 3.696-8.238 8.24v46.356c0 4.544 3.695 8.24 8.238 8.24h46.358c4.543 0 8.24-3.696 8.24-8.24v-46.356c0-4.545-3.697-8.24-8.24-8.24zM31.64 6.079c3.847 0 6.968 3.119 6.968 6.967s-3.121 6.969-6.968 6.969c-3.849 0-6.97-3.121-6.97-6.969s3.121-6.967 6.97-6.967zM49.804 52.668c0 1.686-1.325 3.053-3.011 3.053s-3.051-1.367-3.051-3.053c0-1.964 0-19.482 0-19.482h-2.553v23.587h-18.994v-23.587h-2.526c0 0 0 17.518 0 19.482 0 1.686-1.364 3.053-3.049 3.053-1.682 0-3.009-1.367-3.009-3.053 0-1.686 0-19.097 0-21.608 0-4.93 4.398-8.926 9.329-8.926 1.081 0 4.357 0 7.843 0v6.592l-1.507 0.416v-1.64c0-0.98-0.897-1.87-2.526-0.774-2.291 1.548-4.764 10.339-2.084 9.993 1.297-0.165 2.028-0.793 3.451-0.873 1.154-0.060 1.159-0.558 1.159-1.212 0.002-0.655 0-2.756 0-2.756v-1.024c0.389-0.108 0.986-0.273 1.507-0.418v9.267c0.002 0 0.026 0.649-0.588 0.649h-0.631c-0.012 0-0.022-0.006-0.034-0.006h-1.855c-1.65 0-2.993 1.345-2.993 2.996 0 1.652 1.343 2.995 2.993 2.995h8.308c0.293 0 0.533 0.24 0.533 0.535s-0.24 0.533-0.533 0.533h-8.596c-1.313 0-2.381 1.070-2.381 2.385 0 1.313 1.069 2.382 2.381 2.382h8.596c0.293 0 0.533 0.24 0.533 0.536 0 0.295-0.24 0.533-0.533 0.533h-10.054c-0.51 0-0.924 0.414-0.924 0.924 0 0.511 0.414 0.924 0.924 0.924h10.054c1.313 0 2.381-1.067 2.381-2.382 0-1.315-1.069-2.383-2.381-2.383h-8.596c-0.293 0-0.534-0.239-0.534-0.533 0-0.297 0.24-0.537 0.534-0.537h8.596c1.313 0 2.381-1.067 2.381-2.382 0-1.314-1.069-2.383-2.381-2.383h-8.308c-0.632 0-1.146-0.515-1.146-1.147s0.513-1.149 1.146-1.149h1.403c1.244 2.334 5.207 1.285 5.935 0.843 3.155-1.86 2.516-4.142 1.497-4.935-1.618-1.253-3.88 0.285-3.88 0.285v-8.046c0.453 0.113 1.020 0.251 1.509 0.368v1.171c0 0-0.001 2.102 0 2.757 0.002 0.655 0.002 1.152 1.159 1.212 1.425 0.080 2.156 0.708 3.45 0.873 2.681 0.346 0.209-8.445-2.087-9.993-1.63-1.096-2.523-0.206-2.523 0.774v1.509l-1.509-0.37v-6.506c3.603 0 7.062 0 8.204 0 4.93 0 8.969 3.996 8.97 8.924 0.001 2.511 0.001 19.921 0.001 21.608z" />
</svg>
