<?xml version="1.0" encoding="utf-8"?>
<!-- Generated by IcoMoon.io -->
<!DOCTYPE svg PUBLIC "-//W3C//DTD SVG 1.1//EN" "http://www.w3.org/Graphics/SVG/1.1/DTD/svg11.dtd">
<svg version="1.1" xmlns="http://www.w3.org/2000/svg" xmlns:xlink="http://www.w3.org/1999/xlink" width="64" height="64" viewBox="0 0 64 64">
	<path d="M41.401 23.997h9.998c1.223 0 2.214-0.993 2.213-2.215v-2.501h-1.588c-0.146 0-0.277-0.091-0.327-0.229 0 0-0.312-0.843-0.58-1.576-0.251 0.716-0.538 1.524-0.538 1.524-0.051 0.146-0.193 0.241-0.349 0.232-0.155-0.007-0.286-0.117-0.322-0.268 0 0-0.501-2.099-0.907-3.805-0.242 2.148-0.621 5.503-0.621 5.503-0.016 0.146-0.124 0.267-0.267 0.301-0.142 0.034-0.29-0.022-0.373-0.146 0 0-0.85-1.278-1.022-1.536-0.292 0-1.407 0-1.407 0-0.146 0-0.278-0.091-0.326-0.229 0 0-0.312-0.843-0.581-1.576-0.253 0.716-0.538 1.524-0.538 1.524-0.051 0.146-0.193 0.241-0.349 0.232-0.155-0.007-0.286-0.117-0.322-0.268 0 0-0.502-2.099-0.907-3.804-0.242 2.147-0.619 5.501-0.619 5.501-0.017 0.146-0.124 0.267-0.266 0.301-0.143 0.034-0.292-0.022-0.375-0.146 0 0-0.85-1.278-1.021-1.536-0.177 0-0.573 0-0.821 0v2.501c-0.001 1.223 0.987 2.216 2.215 2.216z" />
	<path d="M39.187 18.579h1.009c0.117 0 0.227 0.058 0.291 0.155 0 0 0.297 0.447 0.593 0.893 0.165-1.455 0.735-6.539 0.735-6.539 0.020-0.169 0.158-0.301 0.328-0.31 0.169-0.010 0.322 0.103 0.361 0.269 0 0 0.745 3.123 1.097 4.598 0.232-0.655 0.468-1.321 0.468-1.321 0.048-0.138 0.178-0.232 0.327-0.232 0.148-0.002 0.28 0.091 0.332 0.229 0 0 0.691 1.88 0.829 2.259 0.351 0 1.351 0 1.351 0 0.118 0 0.227 0.058 0.292 0.155 0 0 0.296 0.447 0.593 0.893 0.164-1.455 0.735-6.539 0.735-6.539 0.019-0.169 0.157-0.301 0.328-0.31 0.169-0.010 0.321 0.103 0.361 0.269 0 0 0.745 3.121 1.097 4.598 0.23-0.655 0.466-1.321 0.466-1.321 0.050-0.138 0.181-0.232 0.327-0.232 0.148-0.002 0.282 0.091 0.332 0.229l0.831 2.259h1.342v-6.009c0-1.223-0.991-2.212-2.214-2.212h-9.998c-1.229 0-2.216 0.989-2.216 2.212h0.001v6.008z" />
	<path d="M55.558 0.382l-46.784 0c-4.584 0-8.314 3.73-8.314 8.315v46.782c0 4.586 3.729 8.316 8.314 8.316h46.784c4.584 0 8.315-3.73 8.315-8.316v-46.782c0-4.585-3.731-8.315-8.315-8.315zM24.315 15.697c0.349 0 0.633 0.282 0.633 0.631 0 0.265 0.215 0.482 0.48 0.482 0.265 0 0.48-0.217 0.48-0.482 0-1.563 1.273-2.835 2.837-2.835 1.571 0 2.85 1.279 2.85 2.852v14.62h-1.267v-14.62c0-0.875-0.712-1.587-1.584-1.587-0.867 0-1.572 0.705-1.572 1.57 0 0.964-0.781 1.746-1.744 1.746-0.961 0-1.744-0.782-1.744-1.746-0-0.349 0.282-0.631 0.631-0.631zM46.829 32.43c1.407 0 2.544 1.103 2.558 2.502l0.006 6.755h-25.708v-9.255l23.144-0.002zM23.782 19.416h4.111c0 0 0.317 1.37 0.317 3.558 0 2.187-0.317 3.558-0.317 3.558h-1.608c0.002 0.182 0.028 2.514-1.409 4.433h-1.139c1.729-1.754 1.679-4.394 1.677-4.421 0-0.005 0.003-0.009 0.003-0.012h-1.636c0 0-0.368-1.108-0.368-3.558 0-2.451 0.368-3.558 0.368-3.558zM19.096 31.185c1.77 0 3.203 1.432 3.203 3.201 0 1.77-1.433 3.204-3.203 3.204-1.772 0-3.208-1.434-3.208-3.204 0-1.769 1.436-3.201 3.208-3.201zM16.166 38.531h4.553c0.872 0 1.579 0.705 1.579 1.575 0 0.87-0.707 1.579-1.579 1.579h-4.553c-0.873 0-1.578-0.709-1.578-1.579 0-0.869 0.705-1.575 1.578-1.575zM50.918 55.374v-7.046h-37.464v7.046h-4.209v-26.563c0-1.148 0.905-2.081 2.057-2.081v-0.002c1.149 0 2.152 0.935 2.152 2.083v14.471h37.464v-10.255c0-1.149 0.937-2.082 2.088-2.082s2.083 0.933 2.083 2.082v22.346h-4.171zM55.090 25.378h-17.391v-16.573h17.391v16.573z" />
</svg>
