<?xml version="1.0" encoding="utf-8"?>
<!-- Generated by IcoMoon.io -->
<!DOCTYPE svg PUBLIC "-//W3C//DTD SVG 1.1//EN" "http://www.w3.org/Graphics/SVG/1.1/DTD/svg11.dtd">
<svg version="1.1" xmlns="http://www.w3.org/2000/svg" xmlns:xlink="http://www.w3.org/1999/xlink" width="64" height="64" viewBox="0 0 64 64">
	<path d="M39.234 42.935c-0.351-0.674-1.417-1.722-2.578-1.722-1.381 0-2.503 1.045-2.503 2.34 0 0.657 0.174 1.459 0.64 1.882 0.239 0.217 0.41 0.442 0.432 0.913 0.017 0.526-0.112 0.812-0.342 1.061-0.226 0.233-0.544 0.667-0.625 0.889-0.081 0.22-0.105 0.41-0.105 0.63 0 1.292 1.121 2.34 2.503 2.34 1.352 0 2.403-1.216 2.794-2.285 0.284-0.982 0.497-1.952 0.454-3.151-0.038-1.272-0.405-2.357-0.67-2.897z" />
	<path d="M29.759 45.434c0.468-0.423 0.63-1.225 0.63-1.882 0-1.295-1.111-2.34-2.494-2.34-1.165 0-2.228 1.047-2.58 1.722-0.27 0.54-0.63 1.626-0.671 2.897-0.040 1.199 0.177 2.169 0.461 3.151 0.387 1.069 1.431 2.285 2.79 2.285 1.383 0 2.494-1.047 2.494-2.34 0-0.22-0.016-0.41-0.1-0.63-0.076-0.221-0.399-0.655-0.619-0.889-0.238-0.25-0.364-0.535-0.342-1.061 0.021-0.471 0.191-0.696 0.432-0.913z" />
	<path d="M55.635 0.354h-46.785c-4.584 0-8.314 3.73-8.314 8.316v46.781c0 4.587 3.729 8.316 8.314 8.316h46.785c4.584 0 8.314-3.729 8.314-8.316v-46.781c0-4.587-3.729-8.316-8.314-8.316zM32.206 5.73c3.886 0 7.034 3.147 7.034 7.031 0 3.881-3.148 7.029-7.034 7.029-3.883 0-7.032-3.148-7.032-7.029 0-3.884 3.149-7.031 7.032-7.031zM50.538 52.745c0 1.701-1.338 3.081-3.040 3.081-1.7 0-3.077-1.38-3.077-3.081 0-1.982 0-19.659 0-19.659h-2.575v23.802h-19.172v-23.802h-2.55c0 0 0 17.677 0 19.659 0 1.701-1.375 3.081-3.076 3.081-1.698 0-3.038-1.38-3.038-3.081 0-1.7 0-19.273 0-21.806 0-4.973 4.438-9.007 9.414-9.007 2.407 0 15.59 0 18.059 0 4.978 0 9.053 4.034 9.053 9.007 0 2.532 0 20.106 0 21.806z" />
</svg>
