<?xml version="1.0" encoding="utf-8"?>
<!-- Generated by IcoMoon.io -->
<!DOCTYPE svg PUBLIC "-//W3C//DTD SVG 1.1//EN" "http://www.w3.org/Graphics/SVG/1.1/DTD/svg11.dtd">
<svg version="1.1" xmlns="http://www.w3.org/2000/svg" xmlns:xlink="http://www.w3.org/1999/xlink" width="64" height="64" viewBox="0 0 64 64">
	<path d="M55.549 0.204l-46.786-0c-4.584 0-8.314 3.73-8.314 8.315v46.782c0 4.586 3.73 8.315 8.314 8.315h46.786c4.584 0 8.314-3.729 8.314-8.315v-46.782c0-4.585-3.729-8.315-8.314-8.315zM32.116 6.927c3.372 0 6.108 2.713 6.108 6.059 0 3.347-2.736 6.061-6.108 6.061-3.371 0-6.11-2.714-6.11-6.061 0-3.346 2.738-6.059 6.11-6.059zM48.653 47.299c-1.368 0.392-2.767-0.296-3.126-1.55l-4.678-16.328-2.281-0.003 7.474 26.053h-27.853l7.476-26.053-2.284 0.003-4.675 16.328c-0.36 1.254-1.76 1.942-3.125 1.55-1.368-0.392-2.233-1.588-1.774-3.153l4.811-16.753c1.921-6.695 7.527-6.486 7.527-6.486h11.944c0 0 5.603-0.209 7.528 6.486l4.809 16.753c0.46 1.565-0.405 2.761-1.773 3.153z" />
	<path d="M32.118 35.861c-4.989 0-9.033 4.041-9.033 9.031 0 4.987 4.043 9.032 9.033 9.032 4.985 0 9.028-4.044 9.028-9.032 0-4.99-4.043-9.031-9.028-9.031zM36.080 45.716c-0.214 0.454-1.356 2.862-1.589 3.346-0.641 1.353-2.261 1.932-3.617 1.291-0.439-0.212-0.777-0.536-1.059-0.893-0.429-0.542-0.717-1.987-0.717-1.987-0.451 0.318-1.603 1.044-2.080 1.383-0.434 0.303-1.033 0.2-1.339-0.234-0.308-0.434-0.201-1.032 0.23-1.338 0.686-0.48 2.589-1.773 2.589-1.773 0.579-0.406 1.376-0.274 1.783 0.308l0.808 1.641 1.284-2.596-1.122-0.328c-0.247-0.070-0.45-0.241-0.569-0.468l-1.101-2.114c-0.239-0.458-0.062-1.023 0.398-1.261 0.457-0.241 1.021-0.060 1.262 0.396 0 0 0.662 1.273 0.917 1.763 0.605 0.177 3.064 0.893 3.064 0.893 0.133 0.042 0.245 0.117 0.346 0.205 0.584 0.372 0.817 1.126 0.513 1.767zM36.947 41.665c-0.514 1.080-1.805 1.543-2.887 1.029-1.085-0.511-1.547-1.804-1.033-2.89 0.513-1.080 1.807-1.543 2.889-1.030 1.084 0.514 1.543 1.808 1.031 2.892z" />
</svg>
