<?xml version="1.0" encoding="utf-8"?>
<!-- Generated by IcoMoon.io -->
<!DOCTYPE svg PUBLIC "-//W3C//DTD SVG 1.1//EN" "http://www.w3.org/Graphics/SVG/1.1/DTD/svg11.dtd">
<svg version="1.1" xmlns="http://www.w3.org/2000/svg" xmlns:xlink="http://www.w3.org/1999/xlink" width="64" height="64" viewBox="0 0 64 64">
	<path d="M22.773 15.418v12.124c0.002 0.916-0.721 1.659-1.627 1.663-0.905 0-1.655-0.745-1.655-1.663v-12.124h-3.17v12.124c0 0.916-0.723 1.659-1.629 1.663-0.905 0-1.655-0.745-1.655-1.663v-12.124h-3.046v15.763h15.788v-15.763h-3.005z" />
	<path d="M55.428 0.423l-46.785-0c-4.585 0-8.314 3.73-8.314 8.315v46.782c0 4.586 3.73 8.315 8.314 8.315h46.785c4.584 0 8.314-3.729 8.314-8.315v-46.782c0-4.585-3.729-8.315-8.314-8.315zM8.381 32.788v-18.977h4.655v-3.788h-0.501l-0.008-0.908h4.252l0.005 0.908h-0.464v3.788h3.17v-3.788h-0.501l-0.006-0.908h4.249l0.007 0.908h-0.466v3.788h4.613v18.977h-19.005zM25.809 37.973l11.628 6.717-1.15 1.994-11.631-6.717 1.153-1.994zM54.698 55.28h-28.594v-4.772c0 0 5.505 0 10.158 0 6.95 0 12.607-5.654 12.607-12.604 0-4.394-2.281-8.364-5.835-10.63l-5.797 10.040-1.203-0.695-1.71 2.959-3.029-1.749 1.71-2.957-1.204-0.695 13.786-23.881 0.927 0.535 1.387-2.401 3.626 2.094-1.383 2.405 0.881 0.508-5.608 9.707c5.006 3.105 8.225 8.633 8.225 14.762 0 4.975-2.128 9.432-5.487 12.604 2.31 0 6.544 0 6.544-0v4.772z" />
</svg>
