<?xml version="1.0" encoding="utf-8"?>
<!-- Generated by IcoMoon.io -->
<!DOCTYPE svg PUBLIC "-//W3C//DTD SVG 1.1//EN" "http://www.w3.org/Graphics/SVG/1.1/DTD/svg11.dtd">
<svg version="1.1" xmlns="http://www.w3.org/2000/svg" xmlns:xlink="http://www.w3.org/1999/xlink" width="64" height="64" viewBox="0 0 64 64">
	<path d="M55.039 0.445h-46.399c-4.546 0-8.245 3.729-8.245 8.315v46.782c0 4.586 3.699 8.315 8.245 8.315h46.399c4.546 0 8.248-3.729 8.769-8.377v-46.782c-0.521-4.524-4.223-8.253-8.769-8.253zM32.683 15.392c3.173 0 5.74 2.589 5.74 5.785 0 3.198-2.022 5.79-5.74 5.79-3.17 0-5.741-2.592-5.741-5.79 0-3.196 2.571-5.785 5.741-5.785zM9.588 33.326h10.205l-3.306 10.966h-6.899v-10.966zM54.199 54.717h-3.691v-10.424h-8.229l2.956 10.424h-24.526l2.946-10.424h-2.008l-2.541 8.696c-0.313 1.085-1.297 1.789-2.363 1.789-0.229 0-0.461-0.033-0.691-0.098-1.306-0.385-2.056-1.763-1.677-3.081l2.112-7.306h5.16l2.095-7.319h1.973l-2.044 7.319h18.606l-1.858-6.566c-0.3-1.058-0.259-1.601-0.104-2.033l1.208-2.367h-21.731l0.122-0.339c0.713-1.646 3.439-4.498 7.439-4.498h11.201l3.823-6.753-2.179-8.873c-0.325-1.331 0.48-2.677 1.802-3.007 1.317-0.33 2.655 0.483 2.981 1.815l2.414 9.836c0.152 0.619 0.061 1.275-0.251 1.828l-5.622 9.991h8.983v-23.594h3.691v44.984zM26.492 38.812c0-1.681 1.35-3.040 3.017-3.040 1.665 0 3.013 1.359 3.013 3.040 0 1.677-1.348 3.041-3.013 3.041-1.668 0-3.017-1.364-3.017-3.041zM33.411 38.812c0-1.681 1.35-3.040 3.016-3.040s3.014 1.359 3.014 3.040c0 1.677-1.347 3.041-3.014 3.041s-3.016-1.364-3.016-3.041z" />
</svg>
