<?xml version="1.0" encoding="utf-8"?>
<!-- Generated by IcoMoon.io -->
<!DOCTYPE svg PUBLIC "-//W3C//DTD SVG 1.1//EN" "http://www.w3.org/Graphics/SVG/1.1/DTD/svg11.dtd">
<svg version="1.1" xmlns="http://www.w3.org/2000/svg" xmlns:xlink="http://www.w3.org/1999/xlink" width="64" height="64" viewBox="0 0 64 64">
	<path d="M55.407 0.547h-46.574c-4.562 0-8.274 3.713-8.274 8.277v46.568c0 4.565 3.713 8.279 8.274 8.279h46.574c4.564 0 8.276-3.713 8.276-8.279v-46.568c0-4.564-3.712-8.277-8.276-8.277zM35.358 16.592c3.635 0 6.584 2.945 6.584 6.584 0 3.634-2.949 6.586-6.584 6.586s-6.584-2.952-6.584-6.586c0-3.639 2.949-6.584 6.584-6.584zM8.191 18.675v-5.269h5.269v-5.269h5.269v5.269h5.269v5.269h-5.269v5.268h-5.269v-5.268h-5.269zM52.64 53.058c-0.488 0-0.957-0.095-1.385-0.267l-5.862-1.631v5.843h-20.349v-5.843l-5.86 1.631c-0.43 0.171-0.897 0.267-1.385 0.267-2.072 0-3.752-1.684-3.752-3.754 0-0.779 0.236-1.502 0.64-2.099l9.4-12.889c1.020-1.398 2.445-2.955 5.45-2.955h11.363c3.004 0 4.43 1.558 5.449 2.955l9.399 12.889c0.404 0.598 0.642 1.321 0.642 2.099 0 2.069-1.682 3.754-3.752 3.754z" />
	<path d="M25.043 35.868v7.816l0.712-0.24c5.242-1.545 7.281 5.376 2.040 6.918l-0.168 0.047 7.592 2.513 7.593-2.513-0.171-0.047c-5.238-1.542-3.199-8.463 2.039-6.918l0.716 0.24v-7.816l-10.177 3.325-10.176-3.325z" />
</svg>
