<?xml version="1.0" encoding="utf-8"?>
<!-- Generated by IcoMoon.io -->
<!DOCTYPE svg PUBLIC "-//W3C//DTD SVG 1.1//EN" "http://www.w3.org/Graphics/SVG/1.1/DTD/svg11.dtd">
<svg version="1.1" xmlns="http://www.w3.org/2000/svg" xmlns:xlink="http://www.w3.org/1999/xlink" width="64" height="64" viewBox="0 0 64 64">
	<path d="M43.191 40.403h5.498c0.43 0 0.776-0.347 0.775-0.773 0-0.43-0.346-0.777-0.775-0.777h-5.498c-0.428 0-0.774 0.347-0.774 0.777 0 0.426 0.346 0.773 0.774 0.773z" />
	<path d="M55.735 16.752h-19.513v15.328h19.513v-15.328zM54.319 30.78h-16.697v-12.721h16.697v12.721z" />
	<path d="M22.771 17.262h-3.171v3.171h-3.171v3.171h3.171v3.171h3.171v-3.171h3.17v-3.171h-3.17z" />
	<path d="M43.191 22.323h5.498c0.43 0 0.776-0.345 0.775-0.775 0-0.427-0.346-0.775-0.775-0.775h-5.498c-0.428 0-0.774 0.348-0.774 0.775 0 0.43 0.346 0.775 0.774 0.775z" />
	<path d="M55.612 0.547h-46.57c-4.563 0-8.276 3.713-8.276 8.278v46.568c0 4.565 3.713 8.278 8.276 8.278h46.57c4.564 0 8.277-3.712 8.277-8.278v-46.568c0-4.564-3.714-8.278-8.277-8.278zM9.252 11.361v10.416h-1.559c-0.295 0-0.534-0.237-0.534-0.534v-13.441c0-0.455 0.339-0.825 0.805-0.825h6.887c0.464 0 0.805 0.369 0.805 0.824v0.789h10.648c0.296 0 0.534 0.239 0.534 0.532v3.023h-9.089v-0.791c0-0.454-0.339-0.823-0.807-0.823h-6.883c-0.467 0-0.806 0.375-0.806 0.831zM30.49 28.617h-18.609c-0.296 0-0.534-0.237-0.534-0.532v-13.441c0-0.455 0.339-0.825 0.804-0.825h6.885c0.466 0 0.807 0.369 0.807 0.823v0.789h10.647c0.296 0 0.534 0.239 0.534 0.532v12.121h0c-0 0.295-0.238 0.532-0.535 0.532zM57.134 55.903h-22.306v-40.587h22.306v40.587z" />
	<path d="M55.735 34.831h-19.513v15.33h19.513v-15.33zM54.329 48.853h-16.695v-12.718h16.695v12.718z" />
</svg>
