<?xml version="1.0" encoding="utf-8"?>
<!-- Generated by IcoMoon.io -->
<!DOCTYPE svg PUBLIC "-//W3C//DTD SVG 1.1//EN" "http://www.w3.org/Graphics/SVG/1.1/DTD/svg11.dtd">
<svg version="1.1" xmlns="http://www.w3.org/2000/svg" xmlns:xlink="http://www.w3.org/1999/xlink" width="64" height="64" viewBox="0 0 64 64">
	<path d="M55.746 0.272h-47.002c-4.604 0-8.35 3.747-8.35 8.353v46.998c0 4.608 3.747 8.354 8.35 8.354h47.002c4.605 0 8.353-3.746 8.353-8.354v-46.998c0-4.606-3.748-8.353-8.353-8.353zM45.904 41.023v16.105h-20.246v-5.809h-2.974c-4.13 0-7.481-3.349-7.481-7.485v-5.303h-2.544c-0.845 0-1.534-0.688-1.534-1.53 0-0.213 0.038-0.414 0.114-0.595l3.964-9.982c0 0 0.41-4.135 0.783-5.718 1.65-7.122 9.591-13.585 18.2-13.585 10.474 0 18.969 8.496 18.969 18.979 0 6.054-2.836 11.45-7.251 14.923z" />
	<path d="M46.129 13.978l-2.324 1.637c-0.346-0.202-0.71-0.384-1.099-0.528-0.109-0.040-0.217-0.069-0.326-0.102l-0.507-2.902h-2.794l-0.472 2.794c-0.51 0.131-0.999 0.323-1.464 0.565l-2.404-1.699-1.982 1.978 1.647 2.314c-0.206 0.349-0.387 0.717-0.531 1.11-0.042 0.109-0.069 0.218-0.104 0.326l-2.399 0.411v-1.332l-1.832-0.314c-0.083-0.32-0.207-0.624-0.359-0.916l1.123-1.586-1.298-1.295-1.528 1.077c-0.223-0.13-0.453-0.251-0.703-0.344-0.064-0.024-0.131-0.030-0.197-0.050l-0.332-1.911h-1.824l-0.319 1.834c-0.322 0.085-0.627 0.211-0.921 0.363l-1.59-1.118-1.291 1.295 1.080 1.528c-0.13 0.221-0.251 0.451-0.342 0.702-0.024 0.066-0.040 0.131-0.060 0.199l-1.901 0.326v1.834l1.844 0.316c0.084 0.315 0.201 0.621 0.349 0.911l-1.122 1.588 1.293 1.296 1.533-1.080c0.223 0.131 0.454 0.252 0.705 0.346 0.064 0.024 0.131 0.029 0.195 0.052l0.332 1.911 1.823-0.002 0.32-1.832c0.32-0.085 0.624-0.209 0.918-0.361l1.583 1.116 1.297-1.294-1.078-1.528c0.13-0.221 0.249-0.449 0.34-0.698 0.026-0.066 0.031-0.135 0.054-0.202l1.407-0.242v2.294l2.793 0.48c0.131 0.51 0.324 0.999 0.567 1.464l-1.695 2.399 1.97 1.976 2.323-1.637c0.347 0.202 0.71 0.382 1.1 0.525 0.109 0.042 0.218 0.069 0.327 0.104l0.506 2.904h2.424l-0.201 1.163c-0.35 0.080-0.681 0.218-0.992 0.392l-1.16-0.819-0.909 0.909 0.785 1.111c-0.135 0.214-0.252 0.442-0.342 0.688-0.036 0.099-0.050 0.197-0.078 0.295l-1.407 0.24v1.283l1.346 0.233c0.078 0.352 0.216 0.682 0.392 0.995l-0.819 1.158 0.905 0.913 1.111-0.788c0.215 0.137 0.444 0.254 0.691 0.346 0.099 0.036 0.199 0.050 0.299 0.078l0.231 1.4h1.287l0.235-1.341c0.352-0.078 0.682-0.216 0.995-0.392l1.153 0.819 0.913-0.911-0.784-1.104c0.138-0.216 0.258-0.446 0.349-0.694 0.035-0.097 0.048-0.195 0.076-0.294l1.395-0.24v-1.287l-1.339-0.23c-0.078-0.351-0.216-0.682-0.392-0.994l0.817-1.16-0.91-0.909-1.109 0.779c-0.213-0.135-0.441-0.252-0.688-0.344-0.095-0.035-0.192-0.048-0.289-0.074l-0.245-1.4h-0.919l0.444-2.618c0.508-0.13 0.995-0.322 1.458-0.563l2.407 1.699 1.973-1.974-1.64-2.323c0.203-0.347 0.386-0.712 0.531-1.102 0.040-0.108 0.068-0.217 0.103-0.326l2.903-0.499v-2.795l-2.797-0.482c-0.131-0.506-0.324-0.994-0.563-1.455l1.695-2.407-1.966-1.975zM25.15 21.199c-1.108 0-2.005-0.896-2.005-2.002 0-1.109 0.898-2.006 2.005-2.006 1.11 0 2.005 0.897 2.005 2.006 0 1.106-0.895 2.002-2.005 2.002zM41.778 33.772c1.101 0 1.994 0.895 1.994 2.001 0 1.108-0.894 2.003-1.994 2.003-1.106 0-2.006-0.895-2.006-2.003 0-1.106 0.9-2.001 2.006-2.001zM40.242 23.368c-1.1 0-1.997-0.893-1.997-2.001 0-1.11 0.897-2.003 1.997-2.003 1.104 0 1.997 0.893 1.997 2.003 0 1.108-0.893 2.001-1.997 2.001z" />
	<path d="M19.864 25.972c-1.161 0-2.11 0.947-2.11 2.113 0 1.174 0.949 2.123 2.11 2.123 1.172 0 2.126-0.949 2.126-2.123 0-1.166-0.954-2.114-2.126-2.114z" />
</svg>
