<?xml version="1.0" encoding="utf-8"?>
<!-- Generated by IcoMoon.io -->
<!DOCTYPE svg PUBLIC "-//W3C//DTD SVG 1.1//EN" "http://www.w3.org/Graphics/SVG/1.1/DTD/svg11.dtd">
<svg version="1.1" xmlns="http://www.w3.org/2000/svg" xmlns:xlink="http://www.w3.org/1999/xlink" width="64" height="64" viewBox="0 0 64 64">
	<path d="M55.574 0.5h-46.784c-4.584 0-8.313 3.73-8.313 8.314v46.783c0 4.586 3.729 8.316 8.313 8.316h46.784c4.584 0 8.315-3.73 8.315-8.316v-46.783c0-4.585-3.73-8.314-8.315-8.314zM4.904 27.454l7.731-1.183h13.001c2.195 0 3.96 1.772 3.959 3.953 0 2.171-1.749 3.927-3.929 3.944l-14.097-0.002c-0.939-0.012-1.696-0.774-1.696-1.715 0-0.95 0.769-1.719 1.718-1.719h7.281l5.929-1.239-0.32-1.533-5.771 1.206h-7.12c-1.811 0-3.284 1.473-3.284 3.284 0 0.63 0.187 1.214 0.497 1.715l-3.901-0.002v-6.71zM32.403 21.658c-2.608 0-4.994 0.937-6.848 2.491h-6.576c2.761-4.506 7.715-7.523 13.385-7.523 8.673 0 15.703 7.031 15.703 15.704 0 8.673-7.030 15.704-15.703 15.704-5.056 0-9.542-2.4-12.413-6.111h7.796c1.409 0.685 2.985 1.081 4.656 1.081 5.893 0 10.672-4.779 10.672-10.674-0-5.894-4.779-10.673-10.672-10.673zM38.362 30.287c0 2.138-1.744 3.883-3.884 3.883-2.142 0-3.881-1.744-3.881-3.883 0-2.145 1.739-3.881 3.881-3.881 2.139 0 3.884 1.736 3.884 3.881zM4.916 39.802v-3.067h32.721v3.067h-32.721zM32.363 56.569c-9.991 0-18.569-6.032-22.303-14.648h7.942c3.098 4.631 8.372 7.683 14.361 7.683 9.54 0 17.272-7.733 17.272-17.273 0-9.539-7.732-17.273-17.272-17.273-6.576 0-12.292 3.678-15.21 9.088l-4.859-0.002-2.995 0.466c3.208-9.67 12.318-16.649 23.064-16.649 13.422 0 24.304 10.883 24.304 24.304 0 13.423-10.882 24.304-24.304 24.304z" />
	<path d="M37.316 12.554c-3.211-0.802-6.617-0.802-9.829 0-0.415 0.103-0.666 0.521-0.563 0.934 0.104 0.413 0.521 0.671 0.934 0.561 2.968-0.74 6.118-0.74 9.084 0 0.062 0.017 0.126 0.024 0.188 0.024 0.346 0 0.659-0.234 0.747-0.585 0.103-0.413-0.148-0.831-0.562-0.934z" />
</svg>
