<?xml version="1.0" encoding="utf-8"?>
<!-- Generated by IcoMoon.io -->
<!DOCTYPE svg PUBLIC "-//W3C//DTD SVG 1.1//EN" "http://www.w3.org/Graphics/SVG/1.1/DTD/svg11.dtd">
<svg version="1.1" xmlns="http://www.w3.org/2000/svg" xmlns:xlink="http://www.w3.org/1999/xlink" width="64" height="64" viewBox="0 0 64 64">
	<path d="M19.924 26.14c-1.171 0-2.123 0.948-2.123 2.116 0 1.172 0.951 2.121 2.123 2.121 1.161 0 2.114-0.949 2.114-2.121 0-1.168-0.953-2.116-2.114-2.116z" />
	<path d="M36.684 47.705h4.481v2.427h-4.481v-2.427z" />
	<path d="M36.684 44.26h4.481v2.424h-4.481v-2.424z" />
	<path d="M36.684 51.154h4.481v2.427h-4.481v-2.427z" />
	<path d="M36.684 40.811h4.481v2.422h-4.481v-2.422z" />
	<path d="M55.491 0.564h-46.784c-4.582 0-8.312 3.73-8.312 8.314v46.783c0 4.587 3.729 8.316 8.312 8.316h46.783c4.584 0 8.315-3.729 8.315-8.316v-46.783c0-4.585-3.731-8.314-8.315-8.314zM45.845 41.146v16.038h-4.679v-2.581h-4.481v2.581h-11.003v-5.784h-2.96c-4.114 0-7.446-3.336-7.446-7.456v-5.281h-2.534c-0.843 0-1.521-0.681-1.521-1.521 0-0.21 0.038-0.415 0.117-0.592l3.937-9.94c0 0 0.412-4.118 0.777-5.694 1.643-7.091 9.549-13.53 18.122-13.53 10.44 0 18.894 8.46 18.895 18.901 0.001 6.026-2.827 11.401-7.224 14.858z" />
	<path d="M44.806 14.519c-0.76-1.698-2.464-2.883-4.433-2.883-0.394 0-0.771 0.052-1.135 0.139-0.87-0.807-2.032-1.304-3.306-1.304-0.992 0-1.914 0.298-2.685 0.81-0.683-0.368-1.461-0.575-2.29-0.575-1.674 0-3.152 0.843-4.031 2.128-0.115-0.007-0.229-0.017-0.353-0.017-2.332 0-4.271 1.638-4.751 3.826-1.775 0.757-3.015 2.517-3.015 4.567 0 2.744 2.221 4.97 4.968 4.97 1 0 1.933-0.298 2.708-0.807 0.777 0.528 1.717 0.836 2.73 0.836 1.010 0 1.949-0.313 2.732-0.845 0.549 0.614 1.302 1.084 2.025 1.364 1.514 0.647 2.716 2.465 2.716 4.383v5.222h1.751v-5.491c-0.015-1.927 0.697-3.499 2.181-4.366 0.434-0.263 0.785-0.528 1.077-0.815 0.023-0.034 0.050-0.064 0.080-0.090 0.382-0.41 0.628-0.87 0.753-1.445-0.36-0.112-0.743-0.17-1.13-0.17-0.48 0-0.967 0.093-1.445 0.284-0.263 0.107-0.557-0.021-0.666-0.282-0.106-0.261 0.019-0.559 0.284-0.667 0.597-0.246 1.216-0.358 1.827-0.358 0.427 0 0.843 0.055 1.247 0.162-0.008-2.13-1.732-3.85-3.862-3.857-0.005 0-0.008 0-0.008 0-0.005 0-0.008-0.002-0.008-0.002-0.786 0-1.529-0.189-2.181-0.514-0.619 0.719-0.933 1.614-0.933 2.519 0 0.019 0 0.038 0 0.057 0.004 0.016 0 0.026 0 0.040 0.024 0.932 0.387 1.854 1.073 2.58h0.004c0.2 0.205 0.194 0.526-0.016 0.724-0.102 0.095-0.232 0.141-0.358 0.141-0.132 0-0.265-0.052-0.368-0.158-0.772-0.808-1.221-1.825-1.333-2.864-0.256-0.055-0.525-0.084-0.797-0.084-0.609 0-1.225 0.146-1.813 0.454-0.074 0.043-0.15 0.062-0.234 0.062-0.184 0-0.365-0.1-0.458-0.27-0.132-0.251-0.038-0.563 0.213-0.695 0.731-0.391 1.517-0.575 2.292-0.575 0.27 0 0.54 0.022 0.797 0.064 0.095-0.912 0.452-1.803 1.061-2.553-0.597-0.482-1.089-1.103-1.401-1.813-0.851 0.616-1.863 0.927-2.866 0.927-0.356 0-0.707-0.041-1.058-0.117-0.322 2.384-2.374 4.223-4.844 4.223h-0.062c-1.049 0-2.002 0.411-2.701 1.092-0.1 0.096-0.229 0.144-0.346 0.144-0.139 0-0.274-0.051-0.372-0.155-0.205-0.201-0.2-0.526 0.009-0.724 0.881-0.859 2.092-1.383 3.409-1.383h0.057c0.005 0 0.005 0 0.005 0 0.349 0 0.678-0.046 0.998-0.132-0.477-0.647-1.139-1.154-1.963-1.416-0.274-0.085-0.411-0.372-0.336-0.642 0.088-0.27 0.375-0.42 0.652-0.334 1.109 0.353 2.012 1.075 2.613 1.987 1.039-0.617 1.782-1.717 1.884-2.995-0.508-0.236-0.984-0.563-1.407-0.984-0.202-0.201-0.202-0.525 0-0.725 0.201-0.2 0.528-0.2 0.726 0 0.413 0.413 0.889 0.711 1.409 0.898 0.006 0.002 0.012 0.003 0.012 0.003 0.422 0.153 0.869 0.232 1.315 0.232 0.903 0 1.804-0.316 2.528-0.943-0.064-0.313-0.096-0.631-0.096-0.965 0-0.28 0.227-0.514 0.518-0.514 0.275 0 0.508 0.234 0.508 0.514 0.004 1.975 1.476 3.598 3.387 3.838 0.128-1.134 0.636-2.152 1.399-2.914 0.199-0.201 0.53-0.201 0.729 0 0.196 0.198 0.196 0.523 0 0.723-0.595 0.595-0.991 1.378-1.099 2.255 1.627 0.179 3.015 1.161 3.762 2.544 0.929-0.124 1.746-0.575 2.352-1.233 0.189-0.206 0.509-0.223 0.721-0.033 0.213 0.189 0.227 0.514 0.034 0.726-0.695 0.766-1.639 1.31-2.711 1.514 0.124 0.425 0.193 0.877 0.193 1.342 0 0.007-0.006 0.012-0.006 0.017 0.012 1.029-0.248 1.885-0.716 2.604 0.912 0.413 1.715 1.106 2.243 2.045h0.004c0.141 0.248 0.051 0.561-0.2 0.698-0.079 0.047-0.166 0.067-0.251 0.067-0.173 0-0.349-0.093-0.447-0.258-0.471-0.84-1.212-1.43-2.050-1.731-0.32 0.301-0.695 0.573-1.108 0.81-1.129 0.676-1.667 1.772-1.679 3.484v5.492h1.835c0.361-2.367 1.548-4.341 3.533-5.497v-0.017c1.626-0.7 2.792-2.254 2.933-4.095 0.822-0.872 1.328-2.043 1.328-3.334 0-1.11-0.375-2.131-0.997-2.951 0.108-0.404 0.166-0.829 0.166-1.269 0-2.195-1.455-4.050-3.454-4.655z" />
	<path d="M36.684 37.364v2.424h4.481v-1.889c0-0.182 0.019-0.358 0.028-0.535h-4.509z" />
</svg>
