<?xml version="1.0" encoding="utf-8"?>
<!-- Generated by IcoMoon.io -->
<!DOCTYPE svg PUBLIC "-//W3C//DTD SVG 1.1//EN" "http://www.w3.org/Graphics/SVG/1.1/DTD/svg11.dtd">
<svg version="1.1" xmlns="http://www.w3.org/2000/svg" xmlns:xlink="http://www.w3.org/1999/xlink" width="64" height="64" viewBox="0 0 64 64">
	<path d="M16.289 36.915v-4.329h12.239l-11.521-11.521c-2.203 3.077-3.505 6.84-3.505 10.904 0 10.354 8.424 18.778 18.778 18.778 4.063 0 7.827-1.302 10.904-3.504l-10.328-10.328h-16.568z" />
	<path d="M32.281 13.191c-4.111 0-7.915 1.332-11.011 3.582l15.814 15.813h6.268v4.329h-1.938l6.065 6.065c2.25-3.096 3.581-6.9 3.581-11.010-0.001-10.354-8.424-18.779-18.779-18.779zM45.613 36.897h-1.45v-4.38h1.45v4.38zM47.88 36.897h-1.45v-4.38h1.45v4.38zM47.871 29.134v2.668h-1.45v-2.668c0-2.356-1.619-4.86-4.619-4.86h-2.303c-0.272 0-0.522-0.153-0.646-0.395-0.124-0.243-0.101-0.534 0.059-0.755 0.525-0.724 0.839-1.612 0.839-2.376 0-1.89-1.477-3.266-3.526-3.308v0.294h-1.45v-1.704c-2.194 0.063-2.782 1.946-2.782 2.952 0 0.766 0.327 1.514 0.897 2.052 0.66 0.622 1.587 0.92 2.687 0.854 0.269-0.013 0.521 0.117 0.662 0.346 0.139 0.228 0.141 0.516 0.006 0.746-0.403 0.685-0.398 1.666 0.013 2.385 0.239 0.415 0.705 0.912 1.578 0.912h3.896c2.395 0 3.883 1.356 3.883 3.539v1.986h-1.45v-1.986c0-1.727-1.322-2.089-2.432-2.089h-3.896c-1.206 0-2.241-0.598-2.837-1.642-0.475-0.83-0.613-1.851-0.414-2.777-1.291-0.153-2.158-0.717-2.69-1.218-0.86-0.811-1.353-1.944-1.353-3.107 0-2.162 1.455-4.345 4.232-4.403v-0.434h1.45v1.845c2.843 0.044 4.976 2.073 4.976 4.757 0 0.677-0.161 1.394-0.458 2.076h1.059c3.798 0 6.068 3.208 6.068 6.311z" />
	<path d="M56.99 0.365c0.001 0-49.333-0.016-49.317 0-4.546 0-7.103 2.35-7.103 7.154v49.513c0 4.492 2.298 6.846 6.84 6.846h49.723c4.542 0 6.844-2.235 6.844-6.846v-49.513c0-4.686-2.302-7.154-6.987-7.154zM32.281 56.138c-13.326 0-24.168-10.842-24.168-24.168 0-13.326 10.842-24.168 24.168-24.168 13.326 0 24.168 10.842 24.168 24.168 0 13.326-10.842 24.168-24.168 24.168z" />
</svg>
