<?xml version="1.0" encoding="utf-8"?>
<!-- Generated by IcoMoon.io -->
<!DOCTYPE svg PUBLIC "-//W3C//DTD SVG 1.1//EN" "http://www.w3.org/Graphics/SVG/1.1/DTD/svg11.dtd">
<svg version="1.1" xmlns="http://www.w3.org/2000/svg" xmlns:xlink="http://www.w3.org/1999/xlink" width="64" height="64" viewBox="0 0 64 64">
	<path d="M56.209 0.829c0 0-48.846-0.015-48.831 0-4.495 0-7.103 2.324-7.103 7.071v48.942c0 4.441 2.489 6.842 6.981 6.842h49.149c4.491 0 6.654-2.286 6.654-6.842v-48.942c0.001-4.632-2.218-7.071-6.85-7.071zM32.285 8.72c3.59 0 6.5 2.91 6.5 6.5s-2.91 6.501-6.5 6.501-6.5-2.911-6.5-6.5 2.911-6.5 6.5-6.5zM27.422 53.913l-6.143-6.387c-1.319-1.345-1.683-3.83-0.27-5.244 0.004-0.006 4.396-4.403 4.396-4.403l5.164 5.165-3.79 3.784 3.884 3.885c2.293 2.293-0.869 5.572-3.241 3.2zM43.203 47.526l-6.144 6.387c-2.37 2.372-5.534-0.907-3.24-3.2l3.884-3.885-3.79-3.784 5.163-5.165c0 0 4.392 4.397 4.397 4.403 1.413 1.414 1.048 3.899-0.27 5.244zM44.628 35.722l-5.26-5.404v4.936h-14.215v-4.908l-5.128 5.289c-2.374 2.375-5.53-0.669-3.151-3.048l8.731-8.671c0.706-0.701 1.51-1.101 2.735-1.101h7.802c1.225 0 2.053 0.386 2.779 1.101l8.854 8.78c2.263 2.263-0.975 5.312-3.147 3.026z" />
</svg>
