<?xml version="1.0" encoding="utf-8"?>
<!-- Generated by IcoMoon.io -->
<!DOCTYPE svg PUBLIC "-//W3C//DTD SVG 1.1//EN" "http://www.w3.org/Graphics/SVG/1.1/DTD/svg11.dtd">
<svg version="1.1" xmlns="http://www.w3.org/2000/svg" xmlns:xlink="http://www.w3.org/1999/xlink" width="64" height="64" viewBox="0 0 64 64">
	<path d="M55.673 0.421h-46.573c-4.562 0-8.274 3.712-8.274 8.278v46.568c0 4.565 3.713 8.278 8.274 8.278h46.573c4.563 0 8.277-3.713 8.277-8.278v-46.568c0-4.565-3.714-8.278-8.277-8.278zM47.378 14.084c-5.464 0.529-5.781-5.706-5.781-5.706 6.397 0.497 5.781 5.706 5.781 5.706zM20.042 20.372c0.835 3.257-1.478 5.964-4.483 6.188-0.111-3.805 1.957-5.243 4.483-6.188zM20.042 26.239c0.835 3.254-1.478 5.962-4.483 6.185-0.111-3.803 1.957-5.242 4.483-6.185zM20.042 32.105c0.835 3.253-1.478 5.962-4.483 6.183-0.111-3.803 1.957-5.238 4.483-6.183zM12.976 15.372c1.95 1.867 3.284 4.010 1.675 7.457-2.67-1.394-3.723-4.796-1.675-7.457zM9.598 21.903c2.524 0.947 4.594 2.386 4.481 6.19-3.005-0.226-5.32-2.932-4.481-6.19zM9.598 27.771c2.524 0.943 4.594 2.382 4.481 6.185-3.005-0.222-5.32-2.931-4.481-6.185zM9.598 33.636c2.524 0.947 4.594 2.38 4.481 6.185-3.005-0.221-5.32-2.93-4.481-6.185zM22.187 56.786l10.201-17.674 10.199 17.674h-20.4zM11.101 44.746l-0.646-2.373 43.221-11.759 0.642 2.375-43.217 11.757zM54.908 24.849c0 0-1.526 2.87-2.702 4.154-0.575 0.574-1.428 0.983-2.3 0.983-1.067-0-2.017-0.523-2.587-1.331-0.57 0.808-1.522 1.331-2.589 1.331-0.871 0-1.724-0.409-2.299-0.983-1.177-1.284-2.702-4.154-2.702-4.154-0.855-1.736-1.313-3.079-1.313-4.437 0-2.892 2.341-5.401 5.24-5.401 1.428 0 2.718 0.572 3.664 1.497 0.947-0.925 2.234-1.497 3.663-1.497 2.899 0 5.24 2.509 5.24 5.401-0.001 1.358-0.459 2.701-1.314 4.437z" />
	<path d="M26.241 54.445h12.295l-6.147-10.649z" />
</svg>
