<?xml version="1.0" encoding="utf-8"?>
<!-- Generated by IcoMoon.io -->
<!DOCTYPE svg PUBLIC "-//W3C//DTD SVG 1.1//EN" "http://www.w3.org/Graphics/SVG/1.1/DTD/svg11.dtd">
<svg version="1.1" xmlns="http://www.w3.org/2000/svg" xmlns:xlink="http://www.w3.org/1999/xlink" width="64" height="64" viewBox="0 0 64 64">
	<path d="M37.645 26.477c-1.414 0-2.554 1.142-2.554 2.553 0 1.409 1.141 2.551 2.554 2.551 1.407 0 2.549-1.142 2.55-2.551-0-1.411-1.143-2.553-2.55-2.553z" />
	<path d="M31.401 22.457c-1.409 0-2.553 1.144-2.553 2.553s1.144 2.551 2.553 2.551c1.405 0 2.547-1.142 2.547-2.551 0-1.409-1.142-2.553-2.547-2.553z" />
	<path d="M33.188 12.518c-1.481 0-2.685 1.201-2.685 2.687 0 1.483 1.204 2.689 2.685 2.689 1.485 0 2.685-1.206 2.685-2.689 0-1.486-1.2-2.687-2.685-2.687z" />
	<path d="M55.536 0.564h-46.785c-4.584 0-8.314 3.73-8.314 8.316v46.779c0 4.586 3.729 8.318 8.314 8.318h46.785c4.584 0 8.314-3.731 8.314-8.318v-46.779c0-4.586-3.729-8.316-8.314-8.316zM28.283 52.766l-0.010 3.869h-9.153v-1.626c0-1.055-0.205-1.751-1.039-2.536l-8.41-8.932c-1.204-1.407-1.875-3.208-1.875-5.073v-13.487c0-1.397 1.133-2.534 2.534-2.534 1.406 0 2.549 1.137 2.549 2.534v9.848c-1.347 0.614-2.161 1.859-2.161 3.213 0 0.901 0.36 1.76 1.017 2.422l5.224 5.733c0.243 0.301 0.566 0.769 0.728 1.29 0.090 0.279 0.117 0.578 0.124 0.953h1.657c-0.008-0.525-0.051-0.982-0.203-1.452-0.28-0.903-0.845-1.639-1.178-2.029l-5.147-5.513c-0.312-0.368-0.482-0.836-0.482-1.318 0-1.115 0.908-2.020 2.024-2.020 0.528 0 1.027 0.2 1.407 0.566l10.67 10.715c1.844 1.932 1.724 3.901 1.724 5.375zM16.524 23.714c0-8.624 7.020-15.644 15.645-15.644 8.625 0 15.643 7.021 15.643 15.644 0 8.629-7.019 15.646-15.643 15.646-8.625 0-15.645-7.017-15.645-15.646zM56.531 38.469c0 1.865-0.671 3.666-1.875 5.073l-8.41 8.932c-0.835 0.784-1.039 1.481-1.039 2.536v1.626h-9.153l-0.010-3.869c0-1.474-0.12-3.443 1.724-5.375l10.671-10.715c0.38-0.366 0.879-0.566 1.407-0.566 1.117 0 2.025 0.905 2.025 2.020 0 0.482-0.17 0.949-0.482 1.318l-5.147 5.513c-0.334 0.39-0.898 1.127-1.178 2.029-0.152 0.47-0.194 0.927-0.203 1.452h1.657c0.006-0.375 0.034-0.675 0.124-0.953 0.162-0.521 0.485-0.989 0.728-1.29l5.224-5.733c0.657-0.662 1.017-1.521 1.017-2.422-0.001-1.353-0.814-2.599-2.161-3.213v-9.848c0-1.397 1.144-2.534 2.549-2.534 1.401 0 2.534 1.137 2.534 2.534v13.487z" />
	<path d="M28.159 18.569h-5.147v5.183h5.147v-5.183zM27.074 22.684c-0.683 0-2.317 0-3.003 0 0-0.692 0-2.357 0-3.046 0.686 0 2.32 0 3.003 0 0 0.69 0 2.355 0 3.046z" />
	<path d="M28.314 28.123c-1.409 0-2.551 1.141-2.551 2.553 0 1.411 1.142 2.551 2.551 2.551 1.407 0 2.548-1.141 2.548-2.551 0-1.412-1.141-2.553-2.548-2.553z" />
	<path d="M38.184 18.978c-1.407 0-2.551 1.141-2.551 2.553 0 1.409 1.144 2.553 2.551 2.553 1.412 0 2.554-1.144 2.554-2.553 0-1.412-1.142-2.553-2.554-2.553z" />
	<path d="M32.169 9.517c-7.827 0-14.2 6.372-14.2 14.197 0 7.827 6.373 14.197 14.2 14.197 7.825 0 14.196-6.37 14.196-14.197 0-7.826-6.371-14.197-14.196-14.197zM32.183 36.033c-6.791 0-12.315-5.522-12.315-12.312 0-6.788 5.523-12.316 12.315-12.316 6.788 0 12.309 5.527 12.309 12.316 0 6.79-5.522 12.312-12.309 12.312z" />
</svg>
