<?xml version="1.0" encoding="utf-8"?>
<!-- Generated by IcoMoon.io -->
<!DOCTYPE svg PUBLIC "-//W3C//DTD SVG 1.1//EN" "http://www.w3.org/Graphics/SVG/1.1/DTD/svg11.dtd">
<svg version="1.1" xmlns="http://www.w3.org/2000/svg" xmlns:xlink="http://www.w3.org/1999/xlink" width="64" height="64" viewBox="0 0 64 64">
	<path d="M37.398 26.452c-1.443-1.442-3.361-2.234-5.399-2.234-2.040 0-3.957 0.793-5.399 2.234-1.439 1.445-2.233 3.36-2.233 5.399 0 4.208 3.421 7.634 7.632 7.634 2.038 0 3.955-0.795 5.399-2.234 1.442-1.442 2.234-3.36 2.234-5.399 0-2.040-0.793-3.954-2.234-5.399zM29.352 32.281c-1.394 0-2.522-1.128-2.522-2.522 0-1.394 1.128-2.524 2.522-2.524 1.392 0 2.522 1.13 2.522 2.524 0 1.394-1.13 2.522-2.522 2.522z" />
	<path d="M37.772 20.894c3.926 2.072 6.614 6.193 6.614 10.934 0 3.303-1.289 6.41-3.623 8.745-0.938 0.937-2 1.695-3.152 2.279 6.753-1.416 12.761-5.288 16.879-10.994-4.084-5.663-10.032-9.523-16.719-10.964z" />
	<path d="M19.652 31.828c0-3.302 1.288-6.408 3.627-8.743 0.933-0.932 1.997-1.694 3.145-2.274-6.87 1.363-12.996 5.259-17.174 11.048 4.219 5.844 10.426 9.759 17.375 11.086-1.223-0.594-2.355-1.383-3.346-2.371-2.339-2.336-3.627-5.442-3.627-8.745z" />
	<path d="M55.155 0.562h-46.572c-4.563 0-8.275 3.714-8.275 8.278v46.567c0 4.566 3.712 8.278 8.275 8.278h46.572c4.563 0 8.275-3.712 8.275-8.278v-46.567c0-4.564-3.712-8.278-8.275-8.278zM57.3 32.298c-5.664 8.588-15.171 13.713-25.428 13.713-10.26 0-19.769-5.125-25.434-13.709l-0.293-0.444 0.293-0.444c5.671-8.584 15.178-13.71 25.434-13.71s19.763 5.126 25.428 13.71l0.293 0.444-0.293 0.44z" />
</svg>
