<?xml version="1.0" encoding="utf-8"?>
<!-- Generated by IcoMoon.io -->
<!DOCTYPE svg PUBLIC "-//W3C//DTD SVG 1.1//EN" "http://www.w3.org/Graphics/SVG/1.1/DTD/svg11.dtd">
<svg version="1.1" xmlns="http://www.w3.org/2000/svg" xmlns:xlink="http://www.w3.org/1999/xlink" width="64" height="64" viewBox="0 0 64 64">
	<path d="M55.373 0.651h-46.57c-4.563 0-8.276 3.712-8.276 8.277v46.565c0 4.565 3.712 8.279 8.276 8.279h46.57c4.563 0 8.277-3.714 8.277-8.279v-46.565c0-4.565-3.714-8.277-8.277-8.277zM28.334 10.822c0.185-2.32 2.216-4.053 4.534-3.87 2.317 0.183 4.053 2.214 3.873 4.536-0.185 2.318-2.217 4.050-4.536 3.868-2.324-0.185-4.053-2.212-3.872-4.534zM48.51 32.509c-0.084 1.048-1.002 1.829-2.046 1.743-0.322-0.022-0.567-0.144-0.868-0.283 0 0-5.401-3.676-5.719-3.929-0.543-0.44-1.074-0.991-1.309-1.76-0.082-0.269-1.178-3.993-1.178-3.993l-0.737 9.411 4.627 7.5c0.223 0.358 0.36 0.765 0.396 1.188l1.058 11.907c0.134 1.497-0.974 2.825-2.471 2.953-1.495 0.129-2.817-0.967-2.954-2.471 0 0-0.899-10.118-0.996-11.265-0.425-0.69-2.923-4.346-4.178-6.385l-6.436 18.245c-0.471 1.428-2.015 2.209-3.44 1.733-1.423-0.475-2.202-2.005-1.731-3.44l5.597-16.175 1.064-6.994h-3.606c-1.574 0-2.849-1.276-2.849-2.849 0-0.373 0.072-0.729 0.202-1.056 0 0 2.951-6.593 3.507-7.671 0.82-1.603 2.25-2.309 4.284-2.253h5.298l-11.118 7.964-0.998 2.33c-0.086 0.212-0.134 0.443-0.134 0.686 0 0.999 0.81 1.808 1.808 1.808h9.233c1.574 0 2.849-1.276 2.849-2.849 0-1.39-0.988-2.551-2.303-2.798l2.688-7.141h0.637c1.479 0 2.649 0.998 2.995 2.159l2.13 7.671c0.036 0.123 0.176 0.358 0.355 0.493 0.219 0.161 5.601 3.856 5.601 3.856 0.495 0.382 0.795 0.993 0.744 1.665zM33.009 24.815c0.906 0.098 1.615 0.857 1.615 1.788 0 0.999-0.81 1.808-1.808 1.808l-1.127 0.011 1.32-3.608z" />
</svg>
