<?xml version="1.0" encoding="utf-8"?>
<!-- Generated by IcoMoon.io -->
<!DOCTYPE svg PUBLIC "-//W3C//DTD SVG 1.1//EN" "http://www.w3.org/Graphics/SVG/1.1/DTD/svg11.dtd">
<svg version="1.1" xmlns="http://www.w3.org/2000/svg" xmlns:xlink="http://www.w3.org/1999/xlink" width="63" height="64" viewBox="0 0 63 64">
	<path d="M19.114 10.373c-1.085 0-1.965 0.877-1.965 1.966 0 1.084 0.881 1.968 1.965 1.968 1.086 0 1.965-0.884 1.965-1.968 0-1.089-0.879-1.966-1.965-1.966z" />
	<path d="M22.375 20.586c-1.035 0-1.87 0.835-1.87 1.867 0 1.033 0.835 1.868 1.87 1.868 1.029 0 1.865-0.835 1.865-1.868 0-1.031-0.836-1.867-1.865-1.867z" />
	<path d="M15.547 21.79c-1.030 0-1.867 0.836-1.867 1.87 0 1.031 0.837 1.866 1.867 1.866 1.029 0 1.865-0.835 1.865-1.866 0-1.034-0.836-1.87-1.865-1.87z" />
	<path d="M22.771 15.098c-1.031 0-1.866 0.836-1.866 1.868 0 1.031 0.835 1.868 1.866 1.868 1.032 0 1.869-0.837 1.869-1.868 0-1.033-0.837-1.868-1.869-1.868z" />
	<path d="M55.105 0.631h-46.572c-4.563 0-8.276 3.712-8.276 8.278v46.567c0 4.565 3.712 8.278 8.276 8.278h46.572c4.563 0 8.275-3.713 8.275-8.278v-46.567c0-4.566-3.712-8.278-8.275-8.278zM6.919 18.564c0-6.31 5.137-11.448 11.45-11.448 6.311 0 11.446 5.137 11.446 11.448 0 6.314-5.135 11.45-11.446 11.45-6.313 0-11.45-5.136-11.45-11.45zM25.588 39.188l11.387 6.574-1.127 1.954-11.389-6.575 1.128-1.952zM53.88 56.134h-28.001v-4.673c0 0 5.394 0 9.948 0 6.806 0 12.344-5.534 12.344-12.341 0-4.307-2.23-8.194-5.714-10.412l-5.676 9.834-1.178-0.681-1.675 2.895-2.962-1.709 1.674-2.899-1.181-0.682 13.5-23.386 0.911 0.524 1.358-2.349 3.55 2.050-1.358 2.351 0.863 0.5-5.49 9.507c4.903 3.041 8.053 8.452 8.053 14.456 0 4.87-2.082 9.236-5.375 12.341 2.265 0 6.409 0 6.41 0v4.673z" />
	<path d="M17.806 17.644c-1.031 0-1.868 0.837-1.868 1.868s0.838 1.866 1.868 1.866c1.029 0 1.865-0.835 1.865-1.866s-0.836-1.868-1.865-1.868z" />
	<path d="M15.434 14.8h-3.765v3.793h3.765v-3.793zM14.64 17.81c-0.5 0-1.695 0-2.198 0 0-0.505 0-1.724 0-2.229 0.503 0 1.698 0 2.198 0 0 0.505 0 1.724 0 2.229z" />
	<path d="M18.369 8.174c-5.728 0-10.391 4.663-10.391 10.39 0 5.728 4.663 10.39 10.392 10.39 5.725 0 10.388-4.661 10.388-10.39 0-5.726-4.663-10.39-10.388-10.39zM18.378 27.578c-4.969 0-9.011-4.039-9.011-9.007 0-4.97 4.042-9.014 9.011-9.014 4.967 0 9.008 4.045 9.008 9.014 0 4.968-4.041 9.007-9.008 9.007z" />
</svg>
