<?xml version="1.0" encoding="utf-8"?>
<!-- Generated by IcoMoon.io -->
<!DOCTYPE svg PUBLIC "-//W3C//DTD SVG 1.1//EN" "http://www.w3.org/Graphics/SVG/1.1/DTD/svg11.dtd">
<svg version="1.1" xmlns="http://www.w3.org/2000/svg" xmlns:xlink="http://www.w3.org/1999/xlink" width="64" height="64" viewBox="0 0 64 64">
	<path d="M30.147 23.587c-0.838 0-1.292-0.851-1.295-0.86-0.193-0.368-0.647-0.511-1.013-0.318-0.365 0.189-0.511 0.64-0.324 1.008 0.033 0.065 0.863 1.676 2.632 1.676 0.693 0 1.269-0.148 1.732-0.428 0.442 0.304 1.013 0.47 1.713 0.47 1.619 0 2.382-1.684 2.416-1.756 0.043-0.098 0.065-0.2 0.065-0.301 0-0.289-0.169-0.564-0.446-0.686-0.182-0.082-0.387-0.091-0.575-0.019-0.188 0.069-0.337 0.213-0.42 0.398-0.002 0.007-0.404 0.862-1.041 0.862-0.563 0-0.812-0.143-0.917-0.234 0-0.155 0-0.951 0-1.271 0.504-0.096 0.898-0.544 0.898-1.085 0-0.626-0.508-1.158-1.105-1.158l-1.047 0.009c-0.633 0-1.147 0.518-1.147 1.149 0 0.544 0.382 1.005 0.896 1.121 0 0.303 0 1.008 0 1.183-0.134 0.097-0.434 0.242-1.024 0.242z" />
	<path d="M28.112 19.12c0.681 0 1.235-0.55 1.235-1.235 0-0.679-0.554-1.233-1.235-1.233s-1.235 0.554-1.235 1.233c0 0.685 0.554 1.235 1.235 1.235z" />
	<path d="M35.669 19.12c0.683 0 1.237-0.55 1.237-1.235 0-0.679-0.554-1.233-1.237-1.233-0.679 0-1.233 0.554-1.233 1.233 0 0.685 0.554 1.235 1.233 1.235z" />
	<path d="M55.272 0.359h-46.785c-4.585 0-8.314 3.73-8.314 8.316v46.78c0 4.586 3.73 8.317 8.314 8.317h46.785c4.584 0 8.314-3.731 8.314-8.317v-46.78c0-4.586-3.729-8.316-8.314-8.316zM22.817 7.555c3.809-0.186 4.54 2.634 4.54 2.634s1.767-1.080 4.526-1.080c2.758 0 4.522 1.080 4.522 1.080s0.733-2.819 4.542-2.634c2.219 0.107 4.031 1.961 4.031 4.184 0 2.081-1.369 4.875-3.602 4.946l-0.284 0.009c0.064 0.378 0.088 1.433 0.088 1.712 0 5.128-4.172 9.303-9.296 9.303-5.126 0-9.298-4.175-9.298-9.303 0-0.279 0.022-1.333 0.090-1.712l-0.287-0.009c-2.231-0.070-3.599-2.864-3.599-4.946 0-2.222 1.81-4.077 4.029-4.184zM26.844 39.823v0-3.684h3.256v-3.256h3.679v3.256h3.26v3.684h-3.26v3.256h-3.679v-3.256h-3.256zM14.995 39.374c-0.165-4.147 2.047-7.59 4.23-10.411l0.301-0.401c0.716-0.97 1.187-1.612 3.365-1.461 1.667 0.119 3.351 1.363 3.351 3.516 0 0.005 0 0.010 0 0.017-0.006 1.295-0.853 2.458-1.748 3.684-1.089 1.491-2.322 3.179-2.322 5.476 0 0.657 0.144 1.167 0.286 1.653 0.136 0.48 0.265 0.931 0.265 1.512 0 1.978-1.672 3.589-3.726 3.589-2.467 0-3.812-2.415-4.001-7.175zM25.848 56.585c-2.727 0-4.946-2.216-4.946-4.942s2.219-4.942 4.946-4.942c2.725 0 4.942 2.216 4.942 4.942s-2.217 4.942-4.942 4.942zM38 56.585c-2.726 0-4.946-2.216-4.946-4.942s2.219-4.942 4.946-4.942c2.727 0 4.946 2.216 4.946 4.942s-2.219 4.942-4.946 4.942zM48.768 39.374c-0.191 4.76-1.538 7.175-4.003 7.175-2.054 0-3.726-1.61-3.726-3.589 0-0.581 0.129-1.032 0.265-1.512 0.142-0.486 0.286-0.996 0.286-1.653 0-2.296-1.232-3.984-2.321-5.476-0.896-1.228-1.741-2.389-1.748-3.684 0-0.007 0-0.012 0-0.017 0-2.154 1.682-3.398 3.351-3.516 2.174-0.151 2.648 0.49 3.363 1.461l0.303 0.401c2.184 2.821 4.39 6.263 4.23 10.411z" />
</svg>
