<?xml version="1.0" encoding="utf-8"?>
<!-- Generated by IcoMoon.io -->
<!DOCTYPE svg PUBLIC "-//W3C//DTD SVG 1.1//EN" "http://www.w3.org/Graphics/SVG/1.1/DTD/svg11.dtd">
<svg version="1.1" xmlns="http://www.w3.org/2000/svg" xmlns:xlink="http://www.w3.org/1999/xlink" width="64" height="64" viewBox="0 0 64 64">
	<path d="M36.537 9.19h1.185v5.666h-1.185v-5.666z" />
	<path d="M40.866 19.999h-17.5v24.083h17.5v-24.083zM36.583 42.207v0.001l-1.843-3.356-1.848 3.356h-1.718l2.712-4.911-3.27-5.955c-0.17 0.014-0.324 0.041-0.504 0.041h-2.154v6.353h-2.456v-15.376h4.873c2.945 0 4.239 1.851 4.239 4.478 0 1.727-0.633 3.074-1.815 3.839l2.359 4.316 1.795-3.252h1.705l-2.649 4.808 3.093 5.658h-2.518z" />
	<path d="M29.534 24.21h-1.576v5.319h1.744c1.316 0 2.456-0.71 2.456-2.649 0-1.657-0.666-2.67-2.625-2.67z" />
	<path d="M39.186 9.19h1.179v5.666h-1.179v-5.666z" />
	<path d="M41.828 9.19h1.183v5.666h-1.183v-5.666z" />
	<path d="M55.545 0.563h-46.786c-4.585 0-8.314 3.729-8.314 8.316v46.78c0 4.586 3.73 8.317 8.314 8.317h46.786c4.584 0 8.313-3.731 8.313-8.317v-46.78c0-4.586-3.729-8.316-8.313-8.316zM43.013 54.771c0 0.899-0.748 1.634-1.679 1.634h-18.45c-0.929 0-1.682-0.735-1.682-1.634v-37.195h21.811v37.195zM44.955 15.135c0 0.475-0.39 0.857-0.877 0.857h-23.944c-0.483 0-0.879-0.382-0.879-0.857v-6.207c0-0.473 0.396-0.853 0.879-0.853h23.944c0.487 0 0.877 0.38 0.877 0.853v6.207z" />
</svg>
