<?xml version="1.0" encoding="utf-8"?>
<!-- Generated by IcoMoon.io -->
<!DOCTYPE svg PUBLIC "-//W3C//DTD SVG 1.1//EN" "http://www.w3.org/Graphics/SVG/1.1/DTD/svg11.dtd">
<svg version="1.1" xmlns="http://www.w3.org/2000/svg" xmlns:xlink="http://www.w3.org/1999/xlink" width="64" height="64" viewBox="0 0 64 64">
	<path d="M55.549 0.311h-46.784c-4.584 0-8.314 3.73-8.314 8.316v46.78c0 4.586 3.729 8.317 8.314 8.317h46.784c4.584 0 8.315-3.731 8.315-8.317v-46.78c0-4.586-3.731-8.316-8.315-8.316zM30.992 10.667c2.563 0 4.638 2.071 4.638 4.627 0 2.556-2.075 4.629-4.638 4.629-2.561 0-4.637-2.073-4.638-4.629 0-2.556 2.076-4.627 4.638-4.627zM24.166 22.219c0.404-0.401 1.328-1.065 3.069-1.065h6.257c3.554 0 4.239 3.544 3.511 5.377l-3.272 7.935c-0.201 0.456-0.58 0.822-1.053 0.993l-7.167 2.639c-0.919 0.4-1.99-0.016-2.392-0.933-0.404-0.92 0.014-1.99 0.934-2.392l6.612-2.483 2.044-4.873-1.331-0.492-1.737 4.173-5.033 1.854v-5.102l-4.92 5.374-5.568-0.006c0 0 9.744-10.68 10.048-11zM37.21 39.503h-6.281l-1.373-1.362 3.721-1.38c0.883-0.328 1.509-1.029 1.786-1.857 0.012-0.021 0.031-0.034 0.042-0.058l2.102-4.956 0.004 9.614zM8.964 45.159l15.862-1.275-3.073-4.65h-7.748c-1.266 0-2.295-0.989-2.295-2.254 0-1.263 1.029-2.281 2.295-2.281 0 0 7.61-0.012 7.877 0-0.597 0.812-0.647 1.925-0.289 2.923 0.607 1.607 2.575 2.489 4.192 1.911l2.18-0.803 3.131 3.057h12.987c2.195 0 3.959 1.772 3.959 3.952 0 2.172-1.749 3.929-3.929 3.946l-14.088-0.002c-0.934-0.019-1.684-0.777-1.684-1.713 0-0.95 0.769-1.719 1.719-1.719h7.282l5.929-1.239-0.32-1.533-5.771 1.205h-7.12c-1.811 0-3.284 1.473-3.284 3.284 0 0.63 0.187 1.213 0.496 1.713l-17.795-0.002c-1.263 0-2.286-1.027-2.286-2.293 0-1.087 0.759-1.995 1.774-2.229zM55.235 55.167c0 0-44.907 0-46.295 0-1.818 0-1.724-1.77-1.724-1.77v-1.362c0 0-0.107-0.819 0.934-0.819 0.92 0 36.974 0 36.974 0 2.946 0 4.225-2.744 5.771-2.744h4.512c1.404 0 1.559 1.193 1.559 1.193v3.773c-0 0 0.099 1.729-1.731 1.729zM52.897 47.024c-2.306 0-4.178-1.868-4.178-4.168 0-2.309 1.872-4.17 4.178-4.17 2.305 0 4.182 1.861 4.182 4.17 0 2.3-1.877 4.168-4.182 4.168z" />
</svg>
