<?xml version="1.0" encoding="utf-8"?>
<!-- Generated by IcoMoon.io -->
<!DOCTYPE svg PUBLIC "-//W3C//DTD SVG 1.1//EN" "http://www.w3.org/Graphics/SVG/1.1/DTD/svg11.dtd">
<svg version="1.1" xmlns="http://www.w3.org/2000/svg" xmlns:xlink="http://www.w3.org/1999/xlink" width="64" height="64" viewBox="0 0 64 64">
	<path d="M44.389 27.536h-24.378v17.421h24.378v-17.421zM38.558 35.34h-5.24v1.529h4.643c0.267 0 0.483 0.215 0.483 0.482s-0.217 0.482-0.483 0.482l-4.643 0v1.529h4.464c0.186 0 0.459 0.167 0.459 0.456 0 2.604-0.326 3.831-1.698 3.831-1.423 0-1.715-3.081-3.225-3.284 0 0 0 2.308 0 2.948h-2.386c0-0.64 0-2.954 0-2.954-1.584 0.12-1.84 3.289-3.319 3.289-1.371 0-1.623-1.227-1.623-3.831 0-0.289 0.274-0.456 0.459-0.456h4.483v-1.529h-4.641c-0.27 0-0.485-0.215-0.485-0.482 0-0.267 0.215-0.482 0.485-0.482h4.641v-1.529h-5.224c-0.267 0-0.483-0.215-0.483-0.483 0-0.265 0.216-0.483 0.483-0.483h5.224v-1.528h-4.904c-0.267 0-0.483-0.215-0.483-0.483 0-0.264 0.217-0.485 0.483-0.485h4.904v-1.526h-3.841c-0.268 0-0.483-0.218-0.483-0.482 0-0.27 0.215-0.487 0.483-0.487h3.841v-0.845h2.386v0.845h3.841c0.267 0 0.483 0.217 0.483 0.487 0 0.263-0.216 0.482-0.483 0.482h-3.841v1.526h4.918c0.268 0 0.485 0.22 0.485 0.485 0 0.268-0.216 0.483-0.485 0.483h-4.918v1.528h5.24c0.267 0 0.483 0.218 0.483 0.483 0 0.269-0.217 0.483-0.483 0.483z" />
	<path d="M55.524 0.342h-46.785c-4.585 0-8.314 3.73-8.314 8.316v46.78c0 4.586 3.73 8.317 8.314 8.317h46.785c4.584 0 8.316-3.731 8.316-8.317v-46.78c0-4.586-3.731-8.316-8.316-8.316zM32.134 5.842c3.461 0 6.265 2.806 6.265 6.268 0 3.461-2.804 6.267-6.265 6.267-3.463 0-6.269-2.806-6.269-6.267 0-3.463 2.806-6.269 6.269-6.269zM25.038 19.91h14.399c2.604 0 4.892 1.39 6.162 3.463h-26.931c1.355-2.073 3.766-3.463 6.371-3.463zM22.499 51.208c0 1.342-1.085 2.426-2.427 2.426-1.337 0-2.424-1.084-2.424-2.426v-2.116h4.851v2.116zM40.216 56.971h-6.898l0.010-3.405h-2.311l-0.004 3.405h-6.912v-7.879h16.115v7.879zM44.191 53.633c-1.34 0-2.426-1.084-2.426-2.426v-2.116h4.851v2.116h0c0 1.342-1.087 2.426-2.425 2.426zM49.958 46.649h-35.65v-20.833h35.65v20.833z" />
</svg>
