<?xml version="1.0" encoding="utf-8"?>
<!-- Generated by IcoMoon.io -->
<!DOCTYPE svg PUBLIC "-//W3C//DTD SVG 1.1//EN" "http://www.w3.org/Graphics/SVG/1.1/DTD/svg11.dtd">
<svg version="1.1" xmlns="http://www.w3.org/2000/svg" xmlns:xlink="http://www.w3.org/1999/xlink" width="64" height="64" viewBox="0 0 64 64">
	<path d="M55.295 0.403h-46.785c-4.585 0-8.314 3.73-8.314 8.316v46.78c0 4.586 3.729 8.317 8.314 8.317h46.785c4.584 0 8.314-3.731 8.314-8.317v-46.78c0-4.586-3.73-8.316-8.314-8.316zM44.666 8.832c2.149 0 3.893 1.743 3.893 3.891 0 2.149-1.375 3.893-3.893 3.893-2.15 0-3.893-1.744-3.893-3.893 0-2.148 1.743-3.891 3.893-3.891zM36.245 21.059c0.361-1.259 1.952-3.49 4.708-3.49h7.423c2.757 0 4.35 2.231 4.708 3.49l2.711 9.119h-3.373l-1.985-6.873h-1.306l1.914 6.873h-12.761l1.913-6.873h-1.305l-1.982 6.873h-3.373l2.708-9.119zM18.751 8.796c2.15 0 3.895 1.743 3.895 3.893 0 2.15-1.744 3.895-3.895 3.895s-3.893-1.744-3.893-3.895c0-2.15 1.743-3.893 3.893-3.893zM18.811 27.972c-0.122-0.215-0.494-1.111-0.795-1.846l-2.575 10.872c0.002 6.016 0.004 16.843 0.004 16.843 0.005 1.675-1.14 3.040-2.814 3.045-1.675 0.007-2.886-1.345-2.899-3.022 0 0-0.016-18.946-0.016-19.882s0.37-3.157 0.585-3.977l2.415-10.179c0.422-1.776 2.206-2.892 3.976-2.455 1.555 0.385 2.312 1.473 2.618 2.238 0.363 0.905 1.98 4.997 2.358 5.844 0.133 0.292 0.413 0.447 0.47 0.473 0.32 0.143 1.116 0.421 2.561 1.072l0.815 0.367-0.707-1.352-1.137-2.169c0 0-0.151-0.378 0.184-0.54 0.373-0.181 0.575 0.124 0.575 0.124l3.427 6.389c0 0 0.284 0.623 0.122 1.138-0.568-0.031-0.951-0.707-0.951-0.707l-0.062-0.119-0.18 0.373c-0.497 0.626-1.35 0.893-2.136 0.592-1.304-0.595-4.675-1.99-4.675-1.99-0.585-0.275-0.871-0.624-1.162-1.131zM31 29.976l0.986 1.058-7.586 7.061-0.986-1.057 7.587-7.062zM55.945 35.031h-21.48c-0.733 0-1.129 0.413-1.362 0.63-0.946 0.879-7.244 6.692-7.244 6.692l-1.892-1.866c0 0 7.089-6.878 7.973-7.701 0.513-0.473 1.129-0.728 1.779-0.728h22.227v2.974z" />
</svg>
