<?xml version="1.0" encoding="utf-8"?>
<!-- Generated by IcoMoon.io -->
<!DOCTYPE svg PUBLIC "-//W3C//DTD SVG 1.1//EN" "http://www.w3.org/Graphics/SVG/1.1/DTD/svg11.dtd">
<svg version="1.1" xmlns="http://www.w3.org/2000/svg" xmlns:xlink="http://www.w3.org/1999/xlink" width="64" height="64" viewBox="0 0 64 64">
	<path d="M34.425 37.999c0.275-0.141 0.469-0.382 0.557-0.674 0.099-0.292 0.071-0.601-0.069-0.866-0.283-0.541-1.001-0.771-1.548-0.487-0.558 0.292-0.779 0.981-0.487 1.54 0.204 0.38 0.593 0.619 1.018 0.619 0.185-0 0.371-0.043 0.53-0.132z" />
	<path d="M32.381 27.734c-0.627 0-1.14 0.514-1.14 1.143 0 0.627 0.513 1.14 1.14 1.14 0.638 0 1.151-0.513 1.151-1.14 0-0.63-0.513-1.143-1.151-1.143z" />
	<path d="M33.495 32.805c-0.151-0.602-0.778-0.99-1.379-0.84-0.301 0.071-0.549 0.247-0.708 0.513-0.159 0.256-0.213 0.565-0.142 0.866 0.133 0.513 0.584 0.876 1.115 0.876 0.088 0 0.187-0.017 0.275-0.035 0.61-0.151 0.99-0.771 0.84-1.381z" />
	<path d="M27.549 35.767c-4.156-0.149-6.534 9.197-5.103 17.924 0.734 3.923 3.052-0.097 4.993-0.425 2.148-0.362 3.356-0.612 3.458-1.734 0.373-4.080-1.187-15.686-3.347-15.766zM23.922 43.334c0.266-0.549 0.974-0.797 1.531-0.522 0.275 0.141 0.479 0.371 0.575 0.664s0.079 0.601-0.054 0.876c-0.194 0.389-0.593 0.636-1.035 0.636-0.168 0-0.344-0.043-0.504-0.122-0.273-0.133-0.477-0.372-0.574-0.655-0.098-0.292-0.079-0.601 0.061-0.876zM22.94 47.954c-0.009-0.311 0.097-0.603 0.301-0.824 0.213-0.23 0.496-0.353 0.797-0.372 0.681 0 1.168 0.487 1.194 1.097 0.017 0.638-0.468 1.168-1.097 1.194h-0.043c-0.621 0-1.123-0.486-1.151-1.096zM26.391 52.157c-0.080 0.301-0.266 0.548-0.522 0.707-0.178 0.107-0.38 0.159-0.593 0.159-0.399 0-0.779-0.202-0.982-0.548-0.161-0.266-0.204-0.575-0.133-0.867 0.080-0.301 0.265-0.548 0.522-0.708 0.522-0.309 1.256-0.123 1.574 0.399 0.159 0.255 0.204 0.567 0.133 0.859zM28.586 40.025c0.363 0.522 0.239 1.239-0.275 1.602-0.195 0.133-0.425 0.203-0.664 0.203-0.372 0-0.717-0.177-0.939-0.486-0.176-0.247-0.239-0.549-0.185-0.85 0.052-0.301 0.213-0.565 0.468-0.743 0.496-0.355 1.239-0.221 1.593 0.275z" />
	<path d="M31.399 35.973c-0.539-0.283-1.256-0.054-1.54 0.487-0.292 0.557-0.080 1.248 0.477 1.54 0.169 0.088 0.354 0.131 0.532 0.131 0.434 0 0.823-0.23 1.016-0.61 0.141-0.275 0.169-0.584 0.081-0.876-0.098-0.292-0.292-0.531-0.567-0.672z" />
	<path d="M31.24 24.674c0 0.636 0.513 1.149 1.14 1.149 0.638 0 1.151-0.514 1.151-1.149 0-0.629-0.513-1.142-1.151-1.142-0.627 0-1.14 0.513-1.14 1.142z" />
	<path d="M55.784 0.281h-46.999c-4.605 0-8.352 3.747-8.352 8.353v46.998c0 4.608 3.747 8.354 8.352 8.354h46.999c4.605 0 8.354-3.746 8.354-8.354v-46.998c0-4.606-3.748-8.353-8.353-8.353zM55.402 57.169l-7.865 0.004v-13.243h-2.373v13.243l-25.65-0.004v-13.24h-2.314v13.24l-8.037 0.004v-15.293c0-5.48 4.778-10.843 12.080-10.837h6.352v-1.452h-1.563c-2.17 0-3.931-1.76-3.931-3.932v-1.201c0.404-0.119 0.726-0.444 0.804-0.873 0.123-0.62-0.283-1.222-0.904-1.336-0.525-0.104-1.021 0.173-1.244 0.622-0.442-0.005-0.797-0.361-0.797-0.802 0-0.112 0.021-0.22 0.062-0.313l2.079-5.247c0 0 0.218-2.175 0.411-3.004 0.866-3.743 5.037-7.139 9.563-7.139 5.508 0 9.972 4.464 9.972 9.974 0 3.18-1.493 6.014-3.813 7.839v6.863h5.864c7.18-0.005 11.309 5.225 11.309 9.394l-0.006 16.734z" />
	<path d="M27.922 19.921v-0.026c0.522-0.062 0.947-0.496 0.99-1.035 0.028-0.309-0.071-0.602-0.264-0.842-0.196-0.23-0.479-0.372-0.779-0.398l-0.097-0.009c-0.593 0-1.089 0.468-1.142 1.052-0.054 0.629 0.416 1.185 1.044 1.239l0.249 0.017z" />
	<path d="M37.193 35.8c-2.157 0.079-3.719 11.687-3.346 15.764 0.102 1.125 1.312 1.376 3.46 1.739 1.941 0.327 4.149 4.126 4.993 0.424 1.433-8.726-0.943-18.071-5.106-17.926zM38.052 41.344c-0.221 0.309-0.567 0.485-0.938 0.485-0.239 0-0.468-0.069-0.663-0.202-0.513-0.363-0.636-1.080-0.273-1.602 0.352-0.496 1.097-0.629 1.591-0.275 0.514 0.363 0.638 1.080 0.283 1.593zM40.468 52.475c-0.204 0.335-0.584 0.548-0.981 0.548-0.204 0-0.408-0.052-0.584-0.159-0.266-0.159-0.451-0.406-0.522-0.707-0.081-0.302-0.028-0.603 0.123-0.867 0.32-0.513 1.054-0.708 1.576-0.391 0.539 0.328 0.715 1.026 0.389 1.576zM41.822 47.954c-0.026 0.61-0.531 1.096-1.141 1.096h-0.045c-0.309-0.017-0.593-0.15-0.805-0.372-0.204-0.221-0.309-0.513-0.301-0.823 0.027-0.61 0.53-1.097 1.151-1.097 0.672 0.028 1.168 0.558 1.141 1.196zM40.84 43.334c0.283 0.567 0.054 1.248-0.513 1.531-0.159 0.080-0.327 0.123-0.513 0.123-0.434 0-0.823-0.247-1.018-0.636-0.142-0.275-0.159-0.584-0.062-0.876 0.099-0.292 0.301-0.522 0.575-0.664 0.558-0.275 1.265-0.027 1.531 0.522z" />
	<path d="M23.108 18.894c-0.239 0.187-0.398 0.451-0.432 0.762-0.036 0.301 0.043 0.601 0.239 0.84 0.213 0.284 0.548 0.443 0.902 0.443 0.247 0 0.505-0.088 0.7-0.247 0.247-0.187 0.398-0.462 0.432-0.762 0.036-0.301-0.043-0.601-0.239-0.849-0.372-0.479-1.124-0.567-1.602-0.187z" />
	<path d="M31.337 21.824c0.239 0 0.468-0.071 0.664-0.204 0.514-0.363 0.638-1.079 0.275-1.602-0.354-0.494-1.097-0.627-1.593-0.273-0.256 0.176-0.415 0.442-0.468 0.743-0.054 0.301 0.017 0.602 0.193 0.849 0.212 0.311 0.558 0.487 0.93 0.487z" />
</svg>
