<?xml version="1.0" encoding="utf-8"?>
<!-- Generated by IcoMoon.io -->
<!DOCTYPE svg PUBLIC "-//W3C//DTD SVG 1.1//EN" "http://www.w3.org/Graphics/SVG/1.1/DTD/svg11.dtd">
<svg version="1.1" xmlns="http://www.w3.org/2000/svg" xmlns:xlink="http://www.w3.org/1999/xlink" width="64" height="64" viewBox="0 0 64 64">
	<path d="M56.016 0.917c0 0-48.788-0.015-48.774 0-4.497 0-7.025 2.325-7.025 7.074v48.966c0 4.443 2.273 6.769 6.766 6.769h49.173c4.493 0 6.769-2.21 6.769-6.769v-48.966c0.001-4.634-2.275-7.074-6.909-7.074zM45.241 8.255c2.111 0 3.824 1.713 3.824 3.826 0 2.112-1.713 3.824-3.824 3.824-2.113 0-3.826-1.712-3.826-3.824 0-2.113 1.713-3.826 3.826-3.826zM17.798 8.502c2.112 0 3.825 1.713 3.825 3.825 0 2.113-1.713 3.825-3.825 3.825-2.113 0-3.825-1.713-3.825-3.825 0-2.113 1.713-3.825 3.825-3.825zM26.84 34.416c0 0.865-0.7 1.565-1.565 1.565-0.863 0-1.566-0.7-1.566-1.565v-10.962h-1.049v12.528h-0.006v17.703c0 1.152-0.933 2.087-2.087 2.087-1.151 0-2.087-0.934-2.087-2.087v-17.703h-1.377v17.703c0 1.152-0.934 2.087-2.087 2.087-1.151 0-2.087-0.934-2.087-2.087v-17.703h-0.008v-12.528h-1.050v10.962c0 0.865-0.702 1.565-1.565 1.565-0.865 0-1.566-0.7-1.566-1.565v-11.127c0-0.046 0.002-0.091 0.006-0.134v-1.932c0-2.033 1.648-3.681 3.681-3.681h10.723c2.034 0 3.681 1.648 3.681 3.681v1.932c0.004 0.044 0.006 0.088 0.006 0.134v11.127zM32.589 55.521h-2.699v-47.185h2.699v47.185zM54.859 34.314c-0.834 0.223-1.692-0.272-1.916-1.106l-2.696-9.998h-1.132l4.823 18.089h-4.524v12.489c0 0.961-0.779 1.739-1.739 1.739-0.961 0-1.74-0.778-1.74-1.739v-12.488h-1.383v12.488c0 0.961-0.779 1.739-1.739 1.739-0.961 0-1.739-0.778-1.739-1.739v-12.488h-4.527l4.806-18.090h-1.103l-2.648 9.998c-0.225 0.834-1.082 1.33-1.916 1.106-0.836-0.225-1.331-1.082-1.106-1.916l3.371-12.727c0.017-0.060 0.036-0.119 0.059-0.175 0.341-1.272 1.498-2.21 2.876-2.21h8.685c1.322 0 2.441 0.863 2.831 2.056 0.054 0.102 0.1 0.212 0.132 0.328l3.432 12.728c0.223 0.834-0.272 1.692-1.106 1.916z" />
</svg>
