<?xml version="1.0" encoding="utf-8"?>
<!-- Generated by IcoMoon.io -->
<!DOCTYPE svg PUBLIC "-//W3C//DTD SVG 1.1//EN" "http://www.w3.org/Graphics/SVG/1.1/DTD/svg11.dtd">
<svg version="1.1" xmlns="http://www.w3.org/2000/svg" xmlns:xlink="http://www.w3.org/1999/xlink" width="64" height="64" viewBox="0 0 64 64">
	<path d="M56.411 0.719c0 0-48.788-0.015-48.774 0-4.497 0-7.025 2.325-7.025 7.074v48.966c0 4.443 2.273 6.769 6.766 6.769h49.173c4.493 0 6.769-2.21 6.769-6.769v-48.966c0.001-4.634-2.275-7.074-6.909-7.074zM30.749 23.374c0 1.536-1.399 3.181-3.215 3.181v25.935c0 3.682-5.018 3.682-5.018 0v-25.935c-1.767 0-3.306-1.361-3.306-3.4v-14.273c0-1.242 1.795-1.29 1.795 0.049v10.55h1.503v-10.648c0-1.141 1.729-1.214 1.729 0.049v10.599h1.553v-10.633c0-1.193 1.678-1.241 1.678 0.047v10.586h1.528v-10.633c0-1.18 1.753-1.227 1.753 0.047v14.479zM44.135 52.478c0 3.601-5.028 3.547-5.028 0v-15.982h-2.677v-24.297c0-5.656 7.706-5.656 7.706 0v40.279z" />
</svg>
