<?xml version="1.0" encoding="utf-8"?>
<!-- Generated by IcoMoon.io -->
<!DOCTYPE svg PUBLIC "-//W3C//DTD SVG 1.1//EN" "http://www.w3.org/Graphics/SVG/1.1/DTD/svg11.dtd">
<svg version="1.1" xmlns="http://www.w3.org/2000/svg" xmlns:xlink="http://www.w3.org/1999/xlink" width="64" height="64" viewBox="0 0 64 64">
	<path d="M56.871 0.922c0 0-48.862-0.016-48.846 0-4.503 0-7.035 2.329-7.035 7.085v49.040c0 4.449 2.276 6.78 6.776 6.78h49.246c4.499 0 6.779-2.214 6.779-6.78v-49.040c0-4.641-2.279-7.085-6.92-7.085zM49.944 46.731h-41.13v-6.579h41.13v6.579zM53.38 46.704h-2.205v-6.657h2.205v6.657zM53.38 38.959h-2.205v-3.018c0-2.624-2.010-3.174-3.698-3.174h-5.92c-1.833 0-3.406-0.91-4.313-2.496-0.721-1.261-0.931-2.813-0.628-4.222-1.963-0.232-3.279-1.088-4.088-1.851-1.307-1.233-2.056-2.954-2.056-4.722 0-3.329 2.267-6.699 6.6-6.699v2.205c-3.476 0-4.396 2.94-4.396 4.494 0 1.164 0.498 2.301 1.364 3.119 1.003 0.946 2.417 1.394 4.083 1.296 0.426-0.026 0.793 0.178 1.005 0.526 0.212 0.348 0.216 0.784 0.010 1.134-0.613 1.042-0.605 2.532 0.019 3.625 0.361 0.632 1.071 1.386 2.399 1.386h5.92c3.64 0 5.902 2.061 5.902 5.379v3.018zM47.588 27.521h-3.501c-0.414 0-0.794-0.232-0.982-0.601s-0.154-0.812 0.089-1.148c0.798-1.101 1.275-2.451 1.275-3.611 0-2.915-2.313-5.032-5.499-5.032v-2.205c4.392 0 7.704 3.111 7.704 7.236 0 1.029-0.245 2.119-0.696 3.156h1.609c5.774 0 9.226 4.876 9.226 9.59v4.052h-2.205v-4.052c0.001-3.581-2.46-7.386-7.020-7.386zM56.826 46.704h-2.205v-6.657h2.205v6.657z" />
</svg>
