<?xml version="1.0" encoding="utf-8"?>
<!-- Generated by IcoMoon.io -->
<!DOCTYPE svg PUBLIC "-//W3C//DTD SVG 1.1//EN" "http://www.w3.org/Graphics/SVG/1.1/DTD/svg11.dtd">
<svg version="1.1" xmlns="http://www.w3.org/2000/svg" xmlns:xlink="http://www.w3.org/1999/xlink" width="64" height="64" viewBox="0 0 64 64">
	<path d="M55.568 0.649h-46.571c-4.564 0-8.276 3.712-8.276 8.278v46.566c0 4.566 3.712 8.28 8.276 8.28h46.571c4.563 0 8.277-3.714 8.277-8.28v-46.566c0-4.565-3.714-8.278-8.277-8.278zM44.017 17.050c0.837 0 1.517 0.68 1.517 1.517 0 0.838-0.679 1.517-1.517 1.517-0.839 0-1.519-0.68-1.519-1.517 0-0.837 0.68-1.517 1.519-1.517zM33.27 7.396c1.195 0 2.163 0.971 2.163 2.163 0 1.195-0.967 2.164-2.163 2.164-1.194 0-2.161-0.969-2.161-2.164 0-1.192 0.968-2.163 2.161-2.163zM21.536 7.38c1.212 0 2.197 0.974 2.197 2.176 0 1.206-0.985 2.178-2.197 2.178-1.212 0-2.194-0.973-2.194-2.178 0-1.202 0.981-2.176 2.194-2.176zM28.452 52.625l-0.010 3.851h-9.112v-1.618c0-1.049-0.203-1.742-1.034-2.524l-8.372-8.89c-1.199-1.401-1.867-3.194-1.867-5.050v-13.425c0-1.391 1.128-2.523 2.522-2.523 1.399 0 2.538 1.132 2.538 2.523v9.803c-1.341 0.611-2.151 1.85-2.151 3.198 0 0.897 0.358 1.751 1.012 2.41l5.2 5.707c0.242 0.3 0.563 0.766 0.724 1.285 0.089 0.277 0.117 0.576 0.123 0.948h1.649c-0.009-0.522-0.051-0.977-0.202-1.444-0.279-0.899-0.841-1.632-1.173-2.022l-5.123-5.488c-0.31-0.366-0.48-0.831-0.48-1.311 0-1.109 0.904-2.011 2.015-2.011 0.526 0 1.022 0.2 1.4 0.564l10.622 10.666c1.835 1.923 1.715 3.883 1.715 5.349zM34.025 32.632c0-1.036 0-9.769 0-9.769h-0.938c0 0 0 8.733 0 9.769 0 0.702-0.568 1.269-1.269 1.269-0.7 0-1.274-0.567-1.274-1.269 0-1.036 0-17.17 0-17.17l-0.755 0.002-1.656 5.781c-0.027 0.111-0.074 0.212-0.142 0.3-0.163 0.243-0.445 0.378-0.762 0.368-0.317 0.010-0.601-0.127-0.764-0.373-0.058-0.079-0.103-0.169-0.13-0.269l-1.664-5.807-0.817-0.002 2.431 10.161h-2.134v7.218c0 0.594-0.484 1.078-1.082 1.078-0.594 0-1.074-0.484-1.074-1.078v-7.218h-0.911v7.218c0 0.594-0.486 1.078-1.080 1.078-0.596 0-1.075-0.484-1.075-1.078v-7.218h-2.172l2.457-10.161-0.82 0.002-1.684 5.868c-0.127 0.449-0.63 0.697-1.122 0.556-0.493-0.142-0.801-0.57-0.637-1.134l1.728-6.021c0.69-2.406 2.707-2.332 2.707-2.332h4.293c0 0 2.012-0.074 2.706 2.332l0.844 2.942 0.846-2.942c0.69-2.406 2.706-2.332 2.706-2.332h5.548c0 0 2.017-0.074 2.707 2.332l1.714 5.974c0 0 1.351 0.123 1.37 0.123 0.518 0 3.558 0 4.093 0 1.074 0 2.019 0.871 2.019 1.945 0 0.548 0 3.469 0 3.834 0 0.37-0.289 0.668-0.656 0.668-0.365 0-0.664-0.298-0.664-0.668 0-0.425 0-3.37 0-3.37h-0.685c0 0 0 9.218 0 9.947 0 0.492-0.404 0.89-0.895 0.89s-0.89-0.399-0.89-0.89c0-0.729 0-5.32 0-5.32h-0.699c0 0 0 4.591 0 5.32 0 0.492-0.399 0.89-0.891 0.89-0.492 0-0.894-0.399-0.894-0.89 0-0.661 0-9.066 0-10.649-0.87-0.248-2.053-0.584-2.31-0.642-0.011-0.003-0.017-0.009-0.029-0.012-0.289-0.074-0.531-0.264-0.618-0.553l-1.611-5.868-0.821-0.002c0 0 0 16.134 0 17.17 0 0.702-0.575 1.269-1.277 1.269-0.699-0-1.267-0.568-1.267-1.269zM56.565 38.394c0 1.856-0.667 3.649-1.867 5.050l-8.371 8.89c-0.831 0.782-1.034 1.475-1.034 2.524v1.618h-9.112l-0.010-3.851c0-1.467-0.12-3.427 1.715-5.349l10.622-10.666c0.378-0.365 0.875-0.564 1.401-0.564 1.111 0 2.015 0.902 2.015 2.011 0 0.48-0.169 0.945-0.48 1.311l-5.123 5.488c-0.332 0.389-0.894 1.123-1.173 2.022-0.151 0.467-0.193 0.922-0.202 1.444h1.649c0.006-0.372 0.034-0.671 0.123-0.948 0.161-0.518 0.483-0.985 0.724-1.285l5.2-5.708c0.654-0.659 1.012-1.513 1.012-2.41-0.001-1.347-0.81-2.587-2.151-3.198v-9.803c0-1.391 1.139-2.523 2.538-2.523 1.394 0 2.522 1.132 2.522 2.523v13.425z" />
</svg>
