<?xml version="1.0" encoding="utf-8"?>
<!-- Generated by IcoMoon.io -->
<!DOCTYPE svg PUBLIC "-//W3C//DTD SVG 1.1//EN" "http://www.w3.org/Graphics/SVG/1.1/DTD/svg11.dtd">
<svg version="1.1" xmlns="http://www.w3.org/2000/svg" xmlns:xlink="http://www.w3.org/1999/xlink" width="64" height="64" viewBox="0 0 64 64">
	<path d="M55.815 0.629h-47.356c-4.067 0-7.872 3.815-7.872 7.88v47.342c0 4.065 3.822 7.901 7.887 7.901h47.341c4.069 0 7.896-3.815 7.896-7.878v-47.361c0-4.065-3.827-7.884-7.895-7.884zM33.88 7.975c2.1 0 3.903 1.248 4.718 3.039h-2.941c-0.197-0.803-0.929-1.402-1.796-1.402-0.871 0-1.598 0.599-1.8 1.402h-2.9c0.816-1.791 2.621-3.039 4.718-3.039zM28.782 12.237h3.394c0.295 0.635 0.937 1.077 1.685 1.077 0.746 0 1.388-0.442 1.682-1.077h3.436c0.053 0.298 0.087 0.603 0.087 0.918 0 2.86-2.321 5.178-5.185 5.178-2.862 0-5.185-2.319-5.185-5.178-0-0.315 0.032-0.62 0.087-0.918zM7.785 20.41c-1.839-3.363-0.994-7.468 1.812-9.863l-0.932-1.706c-0.086-0.156-0.029-0.351 0.127-0.435l2.329-1.269c0.155-0.086 0.348-0.029 0.434 0.128l0.934 1.704c3.531-1.058 7.444 0.447 9.281 3.812l-4.513 2.464c0.746 1.365 0.241 3.079-1.126 3.827-1.37 0.745-3.082 0.241-3.83-1.123l-4.514 2.461zM21.705 42.704c0 2.584-2.099 4.678-4.686 4.678-2.588 0-4.686-2.094-4.686-4.678 0-2.582 2.098-4.676 4.686-4.676 2.587 0 4.686 2.094 4.686 4.676zM38.718 55.235h-26.447v-4.709c0-0.867 0.702-1.57 1.569-1.57h24.878v6.279zM38.718 47.383h-12.267c-2.138 0-3.878-1.736-3.878-3.875 0-2.142 1.74-3.875 3.878-3.875h12.267v7.75zM37.624 35.434c-0.599-0.902-0.346-2.124 0.558-2.72l4.919-3.241-1.387-3.818h-1.918l1.127 3.098-3.735 2.461c-0.837 0.553-1.411 1.399-1.613 2.383-0.202 0.985-0.009 1.99 0.544 2.829 0.224 0.334 0.494 0.618 0.797 0.861h-5.169c0.303-0.243 0.575-0.527 0.797-0.861 0.554-0.839 0.747-1.845 0.543-2.829-0.2-0.984-0.775-1.83-1.613-2.384l-3.733-2.461 1.122-3.098h-1.916l-1.384 3.818 4.918 3.241c0.907 0.596 1.156 1.817 0.559 2.72s-1.817 1.152-2.72 0.554l-6.196-4.082c-1.073-0.729-0.97-1.819-0.773-2.303l2.635-7.503c0.509-1.414 1.493-2.519 4.263-2.519h12.167c2.772 0 3.754 1.104 4.265 2.519l2.636 7.503c0.196 0.485 0.297 1.574-0.775 2.303l-6.194 4.082c-0.906 0.598-2.124 0.348-2.722-0.554zM55.648 55.235h-15.188v-15.7h15.188v15.7z" />
</svg>
