<?xml version="1.0" encoding="utf-8"?>
<!-- Generated by IcoMoon.io -->
<!DOCTYPE svg PUBLIC "-//W3C//DTD SVG 1.1//EN" "http://www.w3.org/Graphics/SVG/1.1/DTD/svg11.dtd">
<svg version="1.1" xmlns="http://www.w3.org/2000/svg" xmlns:xlink="http://www.w3.org/1999/xlink" width="64" height="64" viewBox="0 0 64 64">
	<path d="M56.412 0.719c-0.001 0-48.789-0.015-48.774 0-4.497 0-7.025 2.325-7.025 7.074v48.966c0 4.443 2.272 6.769 6.766 6.769h49.173c4.493 0 6.769-2.21 6.769-6.769v-48.966c0.001-4.634-2.275-7.074-6.909-7.074zM52.2 26.875v2.69c0 0.691-0.559 1.25-1.25 1.25h-3.489c-0.691 0-1.25-0.559-1.25-1.25v-2.69c0-0.69 0.559-1.25 1.25-1.25h3.489c0.691 0 1.25 0.56 1.25 1.25zM20.864 33.681c0.69 0 1.249 0.558 1.249 1.248v2.69c0 0.691-0.559 1.25-1.249 1.25h-3.49c-0.69 0-1.25-0.559-1.25-1.25v-2.69c0-0.69 0.56-1.248 1.25-1.248h3.49zM20.553 29.564v-2.69c0-0.69 0.559-1.25 1.249-1.25h3.49c0.69 0 1.25 0.56 1.25 1.25v2.69c0 0.691-0.56 1.25-1.25 1.25h-3.49c-0.69 0-1.249-0.559-1.249-1.25zM20.651 42.847c0-0.69 0.559-1.25 1.25-1.25h3.489c0.69 0 1.25 0.559 1.25 1.25v2.69c0 0.69-0.559 1.25-1.25 1.25h-3.489c-0.69 0-1.25-0.56-1.25-1.25v-2.69zM26.069 38.869c-0.69 0-1.249-0.559-1.249-1.25v-2.69c0-0.69 0.559-1.248 1.249-1.248h3.49c0.69 0 1.25 0.558 1.25 1.248v2.69c0 0.691-0.56 1.25-1.25 1.25h-3.49zM29.035 29.564v-2.69c-0.001-0.69 0.559-1.25 1.249-1.25h3.49c0.69 0 1.249 0.56 1.249 1.25v2.69c0 0.691-0.559 1.25-1.249 1.25h-3.49c-0.689 0-1.249-0.559-1.249-1.25zM29.133 42.847c-0.001-0.69 0.558-1.25 1.249-1.25h3.489c0.69 0 1.249 0.559 1.249 1.25v2.69c0 0.69-0.559 1.25-1.249 1.25h-3.489c-0.691 0-1.249-0.56-1.249-1.25v-2.69zM34.55 38.869c-0.69 0-1.249-0.559-1.249-1.25v-2.69c-0.001-0.69 0.559-1.248 1.249-1.248h3.49c0.69 0 1.249 0.558 1.249 1.248v2.69c0 0.691-0.559 1.25-1.249 1.25h-3.49zM37.709 29.564v-2.69c0-0.69 0.56-1.25 1.25-1.25h3.49c0.69 0 1.25 0.56 1.25 1.25v2.69c0 0.691-0.56 1.25-1.25 1.25h-3.49c-0.69 0-1.25-0.559-1.25-1.25zM37.807 42.847c0-0.69 0.559-1.25 1.249-1.25h3.49c0.69 0 1.25 0.559 1.25 1.25v2.69c0 0.69-0.56 1.25-1.25 1.25h-3.49c-0.69 0-1.249-0.56-1.249-1.25v-2.69zM43.225 38.869c-0.69 0-1.25-0.559-1.25-1.25v-2.69c0-0.69 0.56-1.248 1.25-1.248h3.49c0.69 0 1.25 0.558 1.25 1.248v2.69c0 0.691-0.56 1.25-1.25 1.25h-3.49zM50.811 22.172c0 0.644-0.516 1.175-1.171 1.175-0.005 0-8.494 0.006-8.494 0.006l-0.005-0.006c-0.625 0-1.182-0.491-1.182-1.175l-0.002-0.005c-0.002-0.002 0.002-2.994 0.002-2.994h10.852v2.999zM32.446 9.926c15.215 0.187 18.166 6.644 18.364 8.419l-10.852 0.011c0-1.547-1.851-1.9-3.746-2.103-2.703-0.288-5.42-0.223-7.617 0-3.319 0.338-4.927 0.635-4.927 2.112h-10.585c-0.036-1.795 3.336-8.638 19.362-8.438zM13.066 19.174l10.613-0.001v2.999c0 0.645-0.516 1.176-1.17 1.176-0.006 0-8.257 0.005-8.257 0.005l-0.006-0.005c-0.625 0-1.182-0.491-1.182-1.175l-0.002-0.006c-0.002-0.002 0.003-2.993 0.003-2.993zM11.858 26.875c0-0.69 0.56-1.25 1.25-1.25h3.49c0.69 0 1.249 0.56 1.249 1.25v2.69c0 0.691-0.559 1.25-1.249 1.25h-3.49c-0.69 0-1.25-0.559-1.25-1.25v-2.69zM11.956 45.537v-2.69c0-0.69 0.559-1.25 1.249-1.25h3.49c0.69 0 1.25 0.559 1.25 1.25v2.69c0 0.69-0.56 1.25-1.25 1.25h-3.49c-0.69 0-1.249-0.56-1.249-1.25zM47.826 53.077c0 0.691-0.559 1.249-1.249 1.249h-29.044c-0.69 0-1.25-0.558-1.25-1.249v-2.647c0-0.691 0.56-1.249 1.25-1.249h29.044c0.69 0 1.249 0.558 1.249 1.249v2.647zM52.297 45.537c0 0.69-0.559 1.25-1.25 1.25h-3.489c-0.691 0-1.25-0.56-1.25-1.25v-2.69c0-0.69 0.559-1.25 1.25-1.25h3.489c0.691 0 1.25 0.559 1.25 1.25v2.69z" />
</svg>
