<?xml version="1.0" encoding="utf-8"?>
<!-- Generated by IcoMoon.io -->
<!DOCTYPE svg PUBLIC "-//W3C//DTD SVG 1.1//EN" "http://www.w3.org/Graphics/SVG/1.1/DTD/svg11.dtd">
<svg version="1.1" xmlns="http://www.w3.org/2000/svg" xmlns:xlink="http://www.w3.org/1999/xlink" width="64" height="64" viewBox="0 0 64 64">
	<path d="M40.324 17.516c-1.053-1.531-3.148-1.925-4.678-0.875-1.535 1.056-1.923 3.146-0.874 4.675 1.048 1.532 3.139 1.923 4.672 0.879 1.531-1.051 1.923-3.143 0.879-4.679z" />
	<path d="M35.506 23.633c0 0-2.731-2.881-3.405-3.59 0.045-0.857 0.152-3.076 0.152-3.076 0.036-0.797-0.585-1.479-1.385-1.515-0.798-0.040-1.48 0.576-1.515 1.378l-0.172 3.694c-0.020 0.394 0.122 0.783 0.392 1.067l1.247 1.318-3.745 2.472 0.202-2.828c-0.096-1.091-1.059-1.896-2.145-1.803 0 0-3.561 0.246-4.853 0.354-0.817 0.072-1.428 0.793-1.354 1.612 0.069 0.817 0.793 1.426 1.608 1.357 0.901-0.079 3.009-0.151 3.863-0.222 0 0-0.74 2.154-0.587 3.217 0.096 0.697 0.296 1.399 0.721 2.021 1.315 1.918 3.938 2.41 5.854 1.094 0.686-0.468 4.098-2.801 4.74-3.241 0.903-0.623 1.183-1.815 0.691-2.768-0.068-0.194-0.156-0.38-0.309-0.54z" />
	<path d="M43.783 36.417c-0.807-2.215 0.337-4.668 2.551-5.475l3.601 9.834h3.325v-32.319h-42.332v32.319h34.453l-1.598-4.359zM14.768 25.052l14.059-14.066c1.801 1.804 4.725 1.804 6.527 0l14.064 14.066c-9.568 9.566-25.082 9.566-34.65 0z" />
	<path d="M55.486 0.37h-46.785c-4.585 0-8.314 3.731-8.314 8.316v46.78c0 4.586 3.73 8.317 8.314 8.317h46.785c4.584 0 8.316-3.731 8.316-8.317v-46.78c0-4.585-3.731-8.316-8.316-8.316zM54.559 42.077h-4.142l0.683 1.887c0.754 2.061 0.3 4.263-0.996 5.845l2.451 7.082-10.368-0.002-1.239-3.749c-2.009-0.377-3.774-1.775-4.522-3.834l-2.636-7.23h-24.162v-34.92h44.931v34.92z" />
</svg>
