<?xml version="1.0" encoding="utf-8"?>
<!-- Generated by IcoMoon.io -->
<!DOCTYPE svg PUBLIC "-//W3C//DTD SVG 1.1//EN" "http://www.w3.org/Graphics/SVG/1.1/DTD/svg11.dtd">
<svg version="1.1" xmlns="http://www.w3.org/2000/svg" xmlns:xlink="http://www.w3.org/1999/xlink" width="64" height="64" viewBox="0 0 64 64">
	<path d="M56.762 0.724c-0.001 0-49.092-0.015-49.077 0-4.525 0-7.068 2.339-7.068 7.118v49.27c0 4.471 2.286 6.811 6.808 6.811h49.478c4.521 0 6.811-2.224 6.811-6.811v-49.27c0.001-4.663-2.289-7.118-6.952-7.118zM28.064 55.555c-2.049 0.042-9.861-3.807-9.635-22.105 0.215-17.37 7.586-20.739 9.613-20.966l0.010 12.388c-1.766 0-2.168 2.113-2.399 4.278-0.33 3.084-0.256 6.188 0 8.695 0.385 3.789 0.724 5.626 2.411 5.626v12.085zM33.753 54.227c0 0.713-0.56 1.349-1.342 1.349l-0.007 0.003c-0.002 0.002-3.417-0.004-3.417-0.004v-12.116h3.424c0.735 0 1.342 0.589 1.342 1.337 0 0.006 0.006 9.425 0.006 9.425l-0.006 0.006zM33.753 23.522c0 0.714-0.56 1.35-1.342 1.35l-0.007 0.002c-0.002 0.004-3.417-0.002-3.417-0.002v-12.389h3.424c0.735 0 1.342 0.589 1.342 1.337 0 0.006 0.006 9.697 0.006 9.697l-0.006 0.006zM36.932 20.971l-0.871-0.849 0.023-0.034c0.711-0.711 0.711-1.865 0-2.576l0.859-0.858c1.184 1.196 1.181 3.126-0.011 4.317zM37.88 21.941c1.695-1.721 1.691-4.511 0.040-6.266l0.86-0.859c2.158 2.225 2.165 5.804-0.021 8.004l-0.879-0.88zM39.543 23.605c2.631-2.647 2.646-6.926 0.042-9.595l0.967-0.967c3.136 3.204 3.117 8.342-0.048 11.522l-0.961-0.961zM42.199 26.261v0l-0.82-0.828c3.646-3.661 3.693-9.608 0.076-13.292l0.834-0.834c4.096 4.162 4.034 10.813-0.089 14.953v0zM43.908 27.969l-0.832-0.84c4.582-4.598 4.597-12.032 0.044-16.652l0.862-0.863c5.016 5.082 4.974 13.292-0.073 18.354z" />
</svg>
