<?xml version="1.0" encoding="utf-8"?>
<!-- Generated by IcoMoon.io -->
<!DOCTYPE svg PUBLIC "-//W3C//DTD SVG 1.1//EN" "http://www.w3.org/Graphics/SVG/1.1/DTD/svg11.dtd">
<svg version="1.1" xmlns="http://www.w3.org/2000/svg" xmlns:xlink="http://www.w3.org/1999/xlink" width="64" height="64" viewBox="0 0 64 64">
	<path d="M13.903 9.073c-2.769 0-5.019 2.255-5.019 5.021 0 2.77 2.25 5.022 5.019 5.022 2.767 0 5.023-2.251 5.023-5.022 0-2.767-2.255-5.021-5.023-5.021zM17.23 13.421l-3.293 1.556c-0.149 0.068-0.331 0.062-0.48-0.036-0.125-0.080-0.204-0.207-0.224-0.346l-0.007-3.877c0-0.278 0.226-0.502 0.502-0.502 0.277 0 0.502 0.224 0.502 0.502v3.008l2.572-1.211c0.248-0.12 0.55-0.012 0.668 0.238 0.118 0.252 0.010 0.55-0.24 0.668z" />
	<path d="M55.327 0.673h-46.571c-4.564 0-8.276 3.712-8.276 8.278v46.566c0 4.565 3.713 8.279 8.276 8.279h46.571c4.564 0 8.276-3.714 8.276-8.279v-46.566c0-4.565-3.712-8.278-8.276-8.278zM34.765 8.872c2.61 0 4.726 2.115 4.726 4.728 0 2.611-1.664 4.728-4.726 4.728-2.611 0-4.73-2.116-4.73-4.728 0-2.613 2.118-4.728 4.73-4.728zM22.557 30.895l2.423-7.16c0.648-1.779 2.279-3.873 4.73-3.873h10.108c2.451 0 4.083 2.094 4.73 3.873l2.423 7.16c0.233 0.796-0.019 1.659-0.704 2.145-0.321 0.228-0.752 0.38-1.118 0.38-0.43 0-0.861-0.146-1.164-0.359l-6.524-4.583c-0.791-0.559-0.979-1.653-0.421-2.444 0.558-0.791 1.65-0.98 2.443-0.422l3.819 2.886c0.228 0.17 0.55 0.123 0.723-0.104 0.069-0.094 0.187-0.428-0.104-0.721 0 0-2.050-1.541-3.026-2.276v-4.308l-6.129 0.998-6.129-0.998v4.308c-0.976 0.735-3.027 2.276-3.027 2.276-0.291 0.293-0.171 0.627-0.103 0.721 0.173 0.228 0.495 0.274 0.721 0.104l3.82-2.886c0.791-0.558 1.883-0.369 2.443 0.422 0.558 0.792 0.37 1.885-0.421 2.444l-6.524 4.583c-0.303 0.214-0.735 0.359-1.166 0.359-0.365 0-0.797-0.153-1.116-0.38-0.686-0.486-0.939-1.35-0.706-2.145zM42.791 33.479l-13.021-2.142 1.868-1.33 3.127 0.433 3.123-0.433 4.903 3.473zM7.233 14.096c0-3.68 2.992-6.673 6.67-6.673s6.673 2.993 6.673 6.673c0 3.68-2.995 6.671-6.673 6.671-3.678 0-6.67-2.992-6.67-6.671zM34.707 51.060h-15.365c-0.827 0-1.497-0.671-1.497-1.498v-13.46c0-0.824 0.669-1.495 1.497-1.495h2.995c0.825 0 1.497 0.671 1.497 1.495v7.476h10.874v7.482zM41.104 54.464c0 1.425-1.156 2.579-2.581 2.579-1.425 0-2.582-1.154-2.582-2.579v-11.425c0-1.423 1.158-2.58 2.582-2.58 1.425 0 2.581 1.158 2.581 2.58v11.425zM40.015 39.742l-11.273-1.858c-1.406-0.231-2.358-1.561-2.127-2.967 0.233-1.406 1.56-2.356 2.966-2.127l11.273 1.859c1.407 0.228 2.358 1.558 2.127 2.964-0.231 1.407-1.56 2.356-2.966 2.128zM51.754 49.562c0 0.827-0.673 1.498-1.497 1.498h-7.915v-7.482h3.423v-7.476c0-0.824 0.672-1.495 1.495-1.495h2.997c0.824 0 1.497 0.671 1.497 1.495v13.46z" />
</svg>
