<?xml version="1.0" encoding="utf-8"?>
<!-- Generated by IcoMoon.io -->
<!DOCTYPE svg PUBLIC "-//W3C//DTD SVG 1.1//EN" "http://www.w3.org/Graphics/SVG/1.1/DTD/svg11.dtd">
<svg version="1.1" xmlns="http://www.w3.org/2000/svg" xmlns:xlink="http://www.w3.org/1999/xlink" width="64" height="64" viewBox="0 0 64 64">
	<path d="M55.655 0.308h-46.999c-4.605 0-8.352 3.747-8.352 8.354v46.997c0 4.608 3.747 8.354 8.352 8.354h46.999c4.605 0 8.354-3.746 8.354-8.354v-46.997c0-4.608-3.749-8.354-8.354-8.354zM32.166 7.155c3.387 0 6.137 2.725 6.137 6.087 0 3.363-2.749 6.088-6.137 6.088-3.387 0-6.137-2.725-6.137-6.088 0-3.362 2.75-6.087 6.137-6.087zM48.772 47.715c-1.374 0.394-2.779-0.299-3.143-1.557l-4.697-16.404-2.292-0.004 7.51 26.173h-27.982l7.511-26.173-2.295 0.004-4.699 16.404c-0.36 1.258-1.766 1.951-3.139 1.557-1.376-0.394-2.243-1.597-1.782-3.168l4.834-16.83c1.93-6.728 7.561-6.517 7.561-6.517h12c0 0 5.63-0.211 7.563 6.517l4.83 16.83c0.461 1.571-0.407 2.773-1.781 3.168z" />
	<path d="M32.196 32.8c-4.16 0-7.531 3.37-7.531 7.528 0 3.779 2.784 6.909 6.415 7.449v2.065h-2.266v2.255h2.266v2.263h2.254v-2.263h2.264v-2.255h-2.264v-2.069c3.622-0.548 6.391-3.674 6.391-7.445 0-4.158-3.368-7.528-7.528-7.528zM32.157 45.48c-2.901 0-5.252-2.352-5.252-5.254 0-2.9 2.351-5.254 5.252-5.254 2.903 0 5.253 2.354 5.253 5.254 0 2.901-2.35 5.254-5.253 5.254z" />
</svg>
